<svg xmlns="http://www.w3.org/2000/svg" version="1.1" id="Capa_1" x="0" y="0" style="enable-background:new 0 0 512 512" xml:space="preserve" width="512" height="512"><path style="fill:#685e68" d="M268.37 213.087h100.8v136.125h-100.8zM154.119 213.087h87.731v131.87h-87.731z"/><path style="fill:#f79595" d="m364.895 324.257-45.794-10.593-16.726-3.869a12 12 0 0 1-9.296-11.691v-58.468c0-6.627-5.373-12-12-12h-50.16c-6.627 0-12 5.373-12 12v58.468a12 12 0 0 1-9.296 11.691l-16.726 3.869-45.794 10.593c-26.208 6.062-45.974 27.642-49.718 54.28L82.083 487.412c-1.269 9.026 5.739 17.088 14.854 17.088h318.127c9.115 0 16.123-8.062 14.854-17.088l-15.304-108.875c-3.745-26.638-23.511-48.217-49.719-54.28z"/><path style="fill:#ffdfcf" d="m319.1 313.67-25.3 76.5-37.107 23.091L218.2 390.17l-25.3-76.5 16.72-3.87c5.45-1.26 9.3-6.11 9.3-11.7v-58.46c0-6.63 5.37-12 12-12h50.16c6.63 0 12 5.37 12 12v58.46c0 5.59 3.85 10.44 9.3 11.7l16.72 3.87z"/><path style="fill:#ffcebf" d="M281.08 227.64h-50.16c-6.627 0-12 5.373-12 12v58.46c0 5.59-3.85 10.44-9.3 11.7l-16.72 3.87 5.77 17.44 35.945-8.309a12.01 12.01 0 0 0 9.305-11.701v-11.357c0-2.356 2.023-4.177 4.371-3.978 2.541.215 5.112.326 7.709.326 13.21 0 25.77-2.84 37.08-7.94v-48.51c0-6.628-5.373-12.001-12-12.001z"/><path style="fill:#f2fbff" d="M293.8 390.17 256 504.5l-37.8-114.33z"/><path style="fill:#f47c7c" d="m198.671 331.115-26.568 6.145c-26.2 6.06-45.97 27.64-49.71 54.28l-13.57 96.53c-1.05 7.47 3.58 14.33 10.44 16.43h-22.32c-9.12 0-16.13-8.06-14.86-17.09l15.31-108.87c3.74-26.64 23.51-48.22 49.71-54.28l45.797-10.592 5.771 17.447z"/><path style="fill:#ffeee6" d="M340.049 218.606c-13.137 33.648-45.868 57.486-84.167 57.486-38.07 0-70.639-23.554-83.93-56.883V72.957h169.484l-1.387 145.649z"/><path style="fill:#ffdfcf" d="M264.341 275.812c-2.42.19-4.87.28-7.34.28-51.39 0-93.05-40.12-93.05-89.6v-68.96l25.24-1.3v70.26c0 43.93 32.23 80.61 75.15 89.32z"/><path style="fill:#7a6d79" d="m276.43 100.4 33.16 25.62c15.85 12.25 23.39 32.45 19.37 52.08-10.681 52.103-10.418 98.989 2.689 138.467l33.246 7.69a64.896 64.896 0 0 1 26.288 12.837c8.798-24.595 23.457-37.316 23.457-79.725 0-60.57-29.92-60.57-29.92-121.15C384.72 65.13 327.09 7.5 256 7.5v51.29a52.6 52.6 0 0 0 20.43 41.61z"/><path style="fill:#685e68" d="m291.02 111.67-14.59-11.27A52.6 52.6 0 0 1 256 58.79V7.5c8.55 0 16.91.83 25 2.43v70.86c0 11.22 3.58 22 10.02 30.88z"/><path style="fill:#7a6d79" d="m147.105 324.257 33.246-7.69c13.108-39.478 13.37-86.364 2.69-138.467-4.02-19.63 3.52-39.83 19.37-52.08l33.16-25.62A52.601 52.601 0 0 0 256 58.79V7.5c-35.54 0-67.72 14.41-91.02 37.7-23.29 23.3-37.7 55.48-37.7 91.02 0 60.58-29.92 60.58-29.92 121.15 0 42.407 14.659 55.133 23.455 79.726a64.901 64.901 0 0 1 26.29-12.839z"/><path style="fill:#685e68" d="M141.183 325.937c-8.515-18.317-18.823-33.005-18.823-68.563 0-60.576 29.918-60.576 29.918-121.152 0-66.873 50.997-121.83 116.222-128.116A130.076 130.076 0 0 0 256 7.5c-71.091 0-128.722 57.631-128.722 128.722 0 60.576-29.918 60.576-29.918 121.152 0 42.404 14.659 55.128 23.455 79.722a64.868 64.868 0 0 1 20.368-11.159z"/><path style="fill:none;stroke:#000;stroke-width:15px;stroke-linecap:round;stroke-linejoin:round;stroke-miterlimit:10" d="M120.81 337.09c-8.79-24.59-23.45-37.32-23.45-79.72 0-60.57 29.92-60.57 29.92-121.15 0-35.54 14.41-67.72 37.7-91.02C188.28 21.91 220.46 7.5 256 7.5c71.09 0 128.72 57.63 128.72 128.72 0 51.54 21.66 59.23 28.12 97.68M391.19 337.09c7.94-22.21 20.67-34.75 23.05-68.21"/><path style="fill:none;stroke:#000;stroke-width:15px;stroke-linecap:round;stroke-linejoin:round;stroke-miterlimit:10" d="M218.92 268.2v29.9c0 5.59-3.85 10.44-9.3 11.7l-62.52 14.46c-26.2 6.06-45.97 27.64-49.71 54.28l-3.57 25.41M293.08 268.09v30.01c0 5.59 3.85 10.44 9.3 11.7l62.52 14.46c26.2 6.06 45.97 27.64 49.71 54.28l15.31 108.87c1.27 9.03-5.74 17.09-14.86 17.09H96.94c-9.12 0-16.13-8.06-14.86-17.09l6.86-48.79"/><path style="fill:none;stroke:#000;stroke-width:15px;stroke-linecap:round;stroke-linejoin:round;stroke-miterlimit:10" d="M256 7.5v51.29a52.6 52.6 0 0 1-20.43 41.61l-33.16 25.62c-15.85 12.25-23.39 32.45-19.37 52.08 10.68 52.1 10.43 98.99-2.68 138.47M256 7.5v51.29a52.6 52.6 0 0 0 20.43 41.61l33.16 25.62c15.85 12.25 23.39 32.45 19.37 52.08-10.68 52.1-10.43 98.99 2.68 138.47"/><path style="fill:none;stroke:#000;stroke-width:15px;stroke-linecap:round;stroke-linejoin:round;stroke-miterlimit:10" d="M190.66 248.26c16.44 17.15 39.58 27.83 65.22 27.83 19.15 0 36.91-5.96 51.52-16.13 5.05-3.51 9.72-7.52 13.94-11.97M162.256 504.5v-86.37M349.744 418.13v86.37M295.098 149.467v13.554M216.902 149.467v13.554M248.508 183.835a12.745 12.745 0 0 0 14.984 0M192.9 313.67 256 504.5l63.1-190.83M216.49 390.17h79.02M236.578 224.336c10.918 10.253 27.926 10.253 38.844 0"/></svg>