<svg id="Capa_1" height="512" viewBox="0 0 511.958 511.958" width="512" xmlns="http://www.w3.org/2000/svg"><path d="M318.352 225.173c-24.769 0-44.915 19.731-45.613 44.331v36.764h83.416v-81.095z" fill="#8379c1"/><path d="m439.199 77.349 13.705 91.246c1.483 9.873.079 19.991-4.025 28.99-7.693 16.871-23.797 27.588-41.455 27.588H312.81c-17.658 0-33.763-10.717-41.455-27.588-4.104-8.999-5.508-19.117-4.025-28.99l13.707-91.257c2.846-18.951 16.98-33.73 34.874-36.468a291.806 291.806 0 0 1 88.241-.016l.161.024c17.899 2.733 32.039 17.515 34.886 36.471z" fill="#acacac"/><path d="M360.091 225.173c-10.441 0-20.382-2.131-29.418-5.977v17.935c0 16.247 13.171 29.418 29.418 29.418s29.418-13.171 29.418-29.418v-17.935c-9.036 3.847-18.977 5.977-29.418 5.977z" fill="#ffa78f"/><path d="M486.862 431.901c9.11-10.782 13.435-25.817 11.729-40.774l-5.691-49.893c-6.147-53.897-42.639-99.5-93.876-117.318l-52.46 18.242c-19.085 6.637-33.038 25.619-35.647 48.501l-11.459 100.468c-1.706 14.957 2.619 29.992 11.729 40.774 7.975 9.438 18.896 14.759 30.299 14.759h115.076c11.404 0 22.326-5.321 30.3-14.759z" fill="#c86d36"/><path d="m498.592 391.127-5.691-49.893c-6.147-53.897-42.639-99.501-93.876-117.318l-16.988 5.908c43.606 20.773 73.948 62.702 79.504 111.41l5.691 49.893c1.706 14.957-2.619 29.992-11.729 40.774-7.975 9.438-18.896 14.759-30.299 14.759h31.361c11.403 0 22.324-5.32 30.299-14.759 9.109-10.782 13.434-25.817 11.728-40.774z" fill="#ac5e2e"/><path d="m452.904 168.594-13.705-91.246c-2.847-18.955-16.988-33.737-34.887-36.47l-.161-.024a291.9 291.9 0 0 0-55.004-3.14 292.278 292.278 0 0 1 33.102 3.14l.161.024c17.9 2.733 32.04 17.515 34.887 36.47l13.705 91.246c1.483 9.873.078 19.991-4.025 28.99-7.693 16.871-23.797 27.588-41.455 27.588h21.902c17.658 0 33.763-10.717 41.455-27.588 4.103-8.999 5.508-19.117 4.025-28.99z" fill="#9c9c9c"/><path d="M479.371 504.106H318.445V465.1c0-15.885 12.877-28.762 28.762-28.762h103.4c15.885 0 28.762 12.877 28.762 28.762z" fill="#f58a97"/><path d="M450.609 436.338h-28.51c15.885 0 28.762 12.877 28.762 28.762v39.005h28.51V465.1c0-15.885-12.878-28.762-28.762-28.762z" fill="#f07281"/><path d="M190.109 225.173c25.21 0 45.647 20.437 45.647 45.647v48.492h-91.008v-94.138z" fill="#0ab69f"/><path d="M184.951 233.676v-41.371h-58.835v41.371c0 16.247 13.171 29.418 29.418 29.418 16.246-.001 29.417-13.171 29.417-29.418z" fill="#ffcebf"/><path d="M155.533 57.728H83.151c-11.594 0-20.991 9.398-20.991 20.991v54.953h93.373z" fill="#acacac"/><path d="M155.533 57.728H83.151c-11.594 0-20.991 9.398-20.991 20.991v54.953h93.373z" fill="#acacac"/><path d="M233.028 111.387c-.36 0-.716.013-1.072.027-6.142-36.727-38.071-64.72-76.542-64.72-38.471 0-70.4 27.993-76.542 64.72a25.436 25.436 0 0 0-1.072-.027c-14.555 0-26.355 11.799-26.355 26.355s11.8 26.355 26.355 26.355c.36 0 .716-.013 1.072-.027 6.142 36.727 38.071 64.72 76.542 64.72 38.471 0 70.4-27.993 76.542-64.72.356.015.713.027 1.072.027 14.555 0 26.355-11.8 26.355-26.355s-11.799-26.355-26.355-26.355z" fill="#ffcebf"/><path d="M209.693 158.621h-11.309a5.087 5.087 0 0 0 0 10.172h11.309a5.087 5.087 0 0 0 0-10.172z" fill="#fe8f83"/><path d="M209.693 158.621h-11.309a5.087 5.087 0 0 0 0 10.172h11.309a5.087 5.087 0 0 0 0-10.172zM112.175 158.621h-11.309a5.087 5.087 0 0 0 0 10.172h11.309a5.087 5.087 0 0 0 0-10.172z" fill="#fe8f83"/><path d="M233.028 111.387c-.36 0-.716.013-1.072.027-6.142-36.727-38.071-64.72-76.542-64.72a78.35 78.35 0 0 0-8.603.48c34.592 3.772 62.355 30.258 68.038 64.24.356-.015.713-.027 1.072-.027 14.555 0 26.355 11.799 26.355 26.355s-11.799 26.355-26.354 26.355c-.36 0-.716-.013-1.072-.027-5.683 33.982-33.447 60.467-68.038 64.24 2.825.312 5.694.48 8.602.48 38.471 0 70.4-27.993 76.542-64.72.356.015.713.027 1.072.027 14.555 0 26.355-11.8 26.355-26.355s-11.799-26.355-26.355-26.355z" fill="#ffb09e"/><path d="M189.475 504.106H28.549V465.1c0-15.885 12.877-28.762 28.762-28.762h103.4c15.885 0 28.762 12.877 28.762 28.762z" fill="#82aee3"/><path d="M160.713 436.338h-28.51c15.885 0 28.762 12.877 28.762 28.762v39.005h28.51V465.1c0-15.885-12.877-28.762-28.762-28.762z" fill="#528fd8"/><path d="M139.459 431.284v-42.66H78.79v42.66c0 16.753 13.581 30.335 30.335 30.335 16.753-.001 30.334-13.582 30.334-30.335zM430.621 424.321v-44.434h-63.192v44.434c0 17.45 14.146 31.596 31.596 31.596s31.596-14.146 31.596-31.596z" fill="#ffa78f"/><path d="M435.27 111.455c-.348 0-.694.013-1.038.026-5.949-35.575-36.876-62.689-74.14-62.689s-68.19 27.114-74.14 62.689c-.345-.014-.69-.026-1.038-.026-14.099 0-25.528 11.429-25.528 25.528 0 14.1 11.43 25.528 25.528 25.528.348 0 .694-.013 1.038-.026 5.949 35.575 36.876 62.689 74.14 62.689s68.19-27.114 74.14-62.689c.345.014.69.026 1.038.026 14.099 0 25.528-11.43 25.528-25.528s-11.43-25.528-25.528-25.528z" fill="#ffcebf"/><path d="M435.27 111.455c-.348 0-.694.013-1.038.026-5.949-35.575-36.876-62.689-74.14-62.689-2.893 0-5.742.18-8.549.501 33.349 3.781 60.083 29.365 65.579 62.164.158.001.314.009.471.012.191-.006.38-.015.572-.015 14.099 0 25.528 11.429 25.528 25.528 0 14.1-11.43 25.528-25.528 25.528-.192 0-.382-.009-.572-.015-.157.004-.313.012-.471.012-5.497 32.8-32.231 58.384-65.58 62.164 2.807.321 5.657.501 8.55.501 37.264 0 68.19-27.114 74.14-62.689.345.014.69.026 1.038.026 14.099 0 25.528-11.43 25.528-25.528s-11.43-25.526-25.528-25.526z" fill="#ffb09e"/><path d="M115.211 234.685H57.663c-17.774 0-31.725 15.236-30.164 32.941l8.301 94.149h79.411z" fill="#9e5528"/><path d="M475.166 309.318c-.353 0-.704.013-1.054.026-6.035-36.085-37.405-63.588-75.203-63.588s-69.169 27.503-75.203 63.588c-.35-.015-.7-.026-1.054-.026-14.301 0-25.895 11.593-25.895 25.894s11.594 25.895 25.895 25.895c.354 0 .704-.013 1.054-.026 6.035 36.085 37.405 63.588 75.203 63.588s69.169-27.503 75.203-63.588c.35.015.7.026 1.054.026 14.301 0 25.895-11.594 25.895-25.895s-11.594-25.894-25.895-25.894z" fill="#ffcebf"/><path d="M209.693 158.621h-11.309a5.087 5.087 0 0 0 0 10.172h11.309a5.087 5.087 0 0 0 0-10.172z" fill="#fe8f83"/><path d="M271.491 111.481h98.738c26.708 0 48.36-21.651 48.36-48.36 0-24.663-19.993-44.656-44.656-44.656h-40.177c-34.388 0-62.265 27.877-62.265 62.265z" fill="#bfbfbf"/><path d="M373.932 18.465H352.03c24.663 0 44.656 19.993 44.656 44.656 0 26.708-21.651 48.36-48.36 48.36h21.902c26.708 0 48.36-21.651 48.36-48.36.001-24.662-19.992-44.656-44.656-44.656z" fill="#acacac"/><path d="M182.225 312.054c-.339 0-.676.012-1.011.025-5.794-34.644-35.911-61.049-72.201-61.049-36.289 0-66.407 26.405-72.201 61.049a24.233 24.233 0 0 0-1.011-.025c-13.73 0-24.86 11.13-24.86 24.86s11.13 24.86 24.86 24.86c.339 0 .676-.012 1.011-.025 5.794 34.644 35.911 61.048 72.201 61.048 36.289 0 66.407-26.405 72.201-61.048.336.014.672.025 1.011.025 13.73 0 24.86-11.13 24.86-24.86s-11.13-24.86-24.86-24.86z" fill="#ffcebf"/><path d="M248.548 54.773c0-25.93-21.02-46.95-46.95-46.95h-60.14c-28.596 0-51.776 23.18-51.776 51.775s23.18 51.775 51.775 51.775h107.09z" fill="#bfbfbf"/><path d="M201.597 7.824h-28.511c25.93 0 46.95 21.02 46.95 46.95v56.599H248.546v-56.6c.002-25.929-21.018-46.949-46.949-46.949z" fill="#acacac"/><path d="M316.342 158.389h-10.709a4.816 4.816 0 1 0 0 9.632h10.709a4.816 4.816 0 1 0 0-9.632zM414.549 158.389H403.84a4.816 4.816 0 1 0 0 9.632h10.709a4.816 4.816 0 1 0 0-9.632z" fill="#fe8f83"/><path d="M475.166 309.318c-.354 0-.704.013-1.054.026-6.035-36.085-37.405-63.588-75.203-63.588-2.894 0-5.743.18-8.553.494 33.895 3.786 61.078 29.771 66.651 63.094.35-.015.7-.026 1.054-.026 14.301 0 25.895 11.593 25.895 25.894s-11.594 25.895-25.895 25.895c-.353 0-.704-.013-1.054-.026-5.573 33.323-32.756 59.308-66.651 63.094 2.809.314 5.66.493 8.553.493 37.798 0 69.169-27.503 75.203-63.588.35.015.7.026 1.054.026 14.301 0 25.895-11.594 25.895-25.895 0-14.3-11.594-25.893-25.895-25.893zM182.225 312.054c-.339 0-.676.012-1.011.025-5.794-34.644-35.911-61.049-72.201-61.049-2.895 0-5.746.186-8.553.513 32.381 3.771 58.316 28.656 63.648 60.536.336-.014.672-.025 1.011-.025 13.73 0 24.86 11.13 24.86 24.86s-11.13 24.86-24.86 24.86c-.339 0-.676-.012-1.011-.025-5.332 31.88-31.266 56.766-63.648 60.536 2.808.327 5.658.513 8.553.513 36.289 0 66.407-26.405 72.201-61.048.336.014.672.025 1.011.025 13.73 0 24.86-11.13 24.86-24.86 0-13.731-11.13-24.861-24.86-24.861z" fill="#ffb09e"/><path d="M485.662 309.344h-96.985c-27.091 0-49.054-21.962-49.054-49.054 0-25.016 20.28-45.297 45.297-45.297h37.584c34.881 0 63.158 28.277 63.158 63.158z" fill="#d77f4a"/><path d="M422.504 214.995h-28.51c34.881 0 63.158 28.277 63.158 63.158v31.192h28.51v-31.192c0-34.882-28.276-63.158-63.158-63.158z" fill="#c86d36"/><path d="M198.163 312.08H98.006c-27.597 0-49.968-22.372-49.968-49.968v-13.451c0-20.168 16.35-36.517 36.517-36.517h64.243c27.264 0 49.366 22.101 49.366 49.366v50.57z" fill="#ac5e2e"/><path d="M148.797 212.144h-28.51c27.264 0 49.366 22.101 49.366 49.366v50.571h28.51V261.51c0-27.265-22.102-49.366-49.366-49.366z" fill="#9e5528"/><path d="M323.289 363.109c-.517-3.684-1.279-7.119-2.497-10.094-2.416-7.281-9.318-12.127-16.99-12.127-12.489 0-20.418 13.515-14.182 24.337.134.233 1.85 3.156 1.986 3.388-11.118 3.275-22.966-5.794-31.25-14.419.838 6.828 3.51 10.775 5.648 14.419-12.26 3.612-24.198-5.224-33.029-14.419.838 6.828 3.509 10.774 5.648 14.419-19.87 5.852-42.082-27.725-42.082-27.725a67.813 67.813 0 0 0-7.873 22.221 22.692 22.692 0 0 0-.943-.024c-12.8 0-23.176 10.377-23.176 23.176 0 12.801 10.377 23.176 23.176 23.176.316 0 .63-.012.943-.024 5.402 32.298 33.479 56.914 67.311 56.914 33.831 0 61.909-24.617 67.311-56.914.313.013.627.024.943.024 12.8 0 23.176-10.377 23.176-23.176 0-8.563-4.646-16.035-11.549-20.047a23.169 23.169 0 0 0-4.009-1.843c-2.945-.96-5.806-1.419-8.562-1.262z" fill="#ffcebf"/><path d="M323.289 363.108c-.701-3.842-1.516-7.268-2.497-10.094-2.416-7.281-9.318-12.127-16.99-12.127-3.117 0-5.949.842-8.349 2.273 3.799 2.104 6.805 5.547 8.232 9.853 1.061 3.029 1.891 6.395 2.497 10.094 4.349-.207 8.711.885 12.572 3.107 6.904 4.013 11.549 11.485 11.549 20.046 0 12.801-10.377 23.176-23.176 23.176-.316 0-.63-.012-.943-.024-4.938 29.531-28.839 52.627-58.758 56.37 2.803.351 5.655.545 8.553.545 33.831 0 61.909-24.616 67.311-56.914.313.013.627.024.943.024 12.801 0 23.176-10.377 23.176-23.176 0-8.562-4.646-16.034-11.549-20.047 0 .001-5.056-3.348-12.571-3.106z" fill="#ffb09e"/><path d="M271.006 266.59h-11.789c-14.821 0-28.43 5.175-39.129 13.811.041-.033.079-.068.12-.101-24.929 4.265-43.904 25.975-43.904 52.121v33.675a23.061 23.061 0 0 1 11.421-3.012c.316 0 .63.012.943.024a67.813 67.813 0 0 1 7.873-22.221s22.213 33.577 42.082 27.725c-2.138-3.645-4.81-7.592-5.648-14.419 8.831 9.195 20.769 18.031 33.029 14.419-2.138-3.643-4.81-7.592-5.648-14.419 8.283 8.625 20.132 17.693 31.25 14.419-.137-.233-1.852-3.156-1.986-3.388-6.236-10.821 1.693-24.337 14.182-24.337 7.68 0 14.59 4.856 16.999 12.148a67.737 67.737 0 0 1 2.49 10.072c.313-.013.627-.024.943-.024 4.24 0 8.211 1.144 11.63 3.132v-34.769c-.002-35.818-29.039-64.856-64.858-64.856z" fill="#ac5e2e"/><path d="M271.006 266.59h-11.789c-2.83 0-5.614.192-8.343.556 31.859 4.112 56.48 31.323 56.48 64.301v9.804c6.189 1.238 11.418 5.639 13.447 11.784a67.737 67.737 0 0 1 2.49 10.072c.313-.013.627-.024.943-.024 4.24 0 8.211 1.144 11.63 3.132v-34.769c-.002-35.818-29.039-64.856-64.858-64.856z" fill="#9e5528"/><g fill="#fe8f83"><path d="M65.376 356.958H54.667a4.816 4.816 0 1 0 0 9.632h10.709a4.816 4.816 0 1 0 0-9.632zM163.583 356.958h-10.709a4.816 4.816 0 1 0 0 9.632h10.709a4.816 4.816 0 1 0 0-9.632zM355.16 359.495h-10.709a4.816 4.816 0 1 0 0 9.632h10.709a4.816 4.816 0 1 0 0-9.632zM453.366 359.495h-10.709a4.816 4.816 0 1 0 0 9.632h10.709a4.816 4.816 0 1 0 0-9.632zM212.335 409.484h-10.709a4.816 4.816 0 1 0 0 9.632h10.709a4.816 4.816 0 1 0 0-9.632zM310.542 409.484h-10.709a4.816 4.816 0 1 0 0 9.632h10.709a4.816 4.816 0 1 0 0-9.632z"/></g><path d="M189.642 194.392a7.49 7.49 0 0 1-6.988-10.186c.827-2.147-.888-5.561-1.848-6.878-2.504-3.293-1.841-7.965 1.452-10.468 3.292-2.505 8.013-1.835 10.516 1.46.818 1.077 7.883 10.829 3.857 21.273a7.489 7.489 0 0 1-6.989 4.799zM120.945 194.392a7.492 7.492 0 0 1-6.991-4.799c-4.026-10.445 3.037-20.195 3.856-21.273a7.49 7.49 0 0 1 11.964 9.016c-.962 1.322-2.669 4.727-1.842 6.87a7.49 7.49 0 0 1-6.987 10.186zM394.195 194.714a7.49 7.49 0 0 1-6.988-10.186c.927-2.405-1.349-6.221-1.807-6.824a7.49 7.49 0 0 1 11.928-9.062c.819 1.078 7.883 10.83 3.857 21.274a7.493 7.493 0 0 1-6.99 4.798zM325.497 194.714a7.492 7.492 0 0 1-6.991-4.799c-4.025-10.445 3.037-20.196 3.855-21.274a7.494 7.494 0 0 1 10.496-1.434 7.492 7.492 0 0 1 1.469 10.449c-.961 1.322-2.669 4.728-1.842 6.872a7.49 7.49 0 0 1-6.987 10.186z" fill="#ffb09e"/><path d="M336.441 504.176H175.515V493.83c0-10.434 8.458-18.892 18.892-18.892h123.141c10.434 0 18.892 8.458 18.892 18.892z" fill="#0ab69f"/><path d="M317.549 474.938h-28.51c10.434 0 18.892 8.458 18.892 18.892v10.346h28.51V493.83c0-10.433-8.458-18.892-18.892-18.892z" fill="#01998d"/><path d="M255.979 469.236c-10.047 0-19.587-2.172-28.176-6.07v6.957c0 15.619 12.662 28.28 28.279 28.28 15.619 0 28.28-12.661 28.28-28.28v-7.055c-8.643 3.96-18.255 6.168-28.383 6.168z" fill="#ffa78f"/><path d="M124.828 150.344v-14.312a7.5 7.5 0 0 0-15 0v14.312a7.5 7.5 0 0 0 15 0zM193.196 157.844a7.5 7.5 0 0 0 7.5-7.5v-14.312a7.5 7.5 0 0 0-15 0v14.312a7.5 7.5 0 0 0 7.5 7.5zM402.909 127.82h-5.96a7.5 7.5 0 0 0-7.5 7.5v13.862a7.5 7.5 0 0 0 15 0v-6.52a7.5 7.5 0 0 0-1.54-14.842zM323.462 156.682a7.5 7.5 0 0 0 7.5-7.5V135.32a7.5 7.5 0 0 0-7.5-7.5h-5.96a7.5 7.5 0 0 0-1.54 14.842v6.52a7.5 7.5 0 0 0 7.5 7.5zM108.8 395.033c12.72 0 23.068-10.349 23.068-23.068a7.5 7.5 0 0 0-15 0c0 4.449-3.62 8.068-8.068 8.068-4.449 0-8.069-3.62-8.069-8.068a7.5 7.5 0 0 0-15 0c0 12.72 10.349 23.068 23.069 23.068zM73.018 328.05a7.5 7.5 0 0 0-7.5 7.5v13.5a7.5 7.5 0 0 0 15 0v-13.5a7.5 7.5 0 0 0-7.5-7.5zM144.582 356.55a7.5 7.5 0 0 0 7.5-7.5v-13.5a7.5 7.5 0 0 0-15 0v13.5a7.5 7.5 0 0 0 7.5 7.5zM415.29 364.216a7.5 7.5 0 0 0-7.5 7.5c0 4.806-3.91 8.716-8.716 8.716s-8.716-3.91-8.716-8.716a7.5 7.5 0 0 0-15 0c0 13.077 10.639 23.716 23.716 23.716s23.716-10.639 23.716-23.716a7.5 7.5 0 0 0-7.5-7.5zM442.39 326.287h-6.045a7.5 7.5 0 0 0-7.5 7.5v14.061a7.5 7.5 0 0 0 15 0v-6.702a7.501 7.501 0 0 0-1.455-14.859zM361.803 326.287h-6.045a7.5 7.5 0 0 0-1.455 14.859v6.702a7.5 7.5 0 0 0 15 0v-14.061a7.5 7.5 0 0 0-7.5-7.5zM255.958 444.031c12.139 0 22.014-9.875 22.014-22.014a7.5 7.5 0 0 0-15 0c0 3.868-3.146 7.014-7.014 7.014s-7.015-3.146-7.015-7.014a7.5 7.5 0 0 0-15 0c0 12.139 9.876 22.014 22.015 22.014zM222.598 408.154a7.5 7.5 0 0 0 7.5-7.5v-12.585a7.5 7.5 0 0 0-15 0v12.585a7.5 7.5 0 0 0 7.5 7.5zM289.317 408.154a7.5 7.5 0 0 0 7.5-7.5v-12.585a7.5 7.5 0 0 0-15 0v12.585a7.5 7.5 0 0 0 7.5 7.5z"/><path d="M502.313 355.112a33.244 33.244 0 0 0 6.546-19.838 33.329 33.329 0 0 0-15.417-28.197V278.14c0-29.78-18.507-55.303-44.615-65.719a56.837 56.837 0 0 0 7.229-11.801c3.455-7.578 5.281-16.027 5.281-24.434 0-2.946-.222-5.914-.658-8.82l-1.184-7.88c5.606-5.927 9.049-13.919 9.049-22.701 0-12.366-6.825-23.167-16.905-28.837l-3.513-23.389-.003-.018-1.289-8.581c-2.485-16.548-12.716-30.949-26.966-38.222a52.206 52.206 0 0 0-19.132-19.808 7.499 7.499 0 0 0-10.281 2.609 7.5 7.5 0 0 0 2.609 10.281 37.237 37.237 0 0 1 14.543 15.865 7.497 7.497 0 0 0 3.748 3.612c10.865 4.756 18.776 15.444 20.646 27.891l.895 5.955c-4.401-8.059-8.928-13.11-9.726-14.111-.059-.069-.115-.14-.174-.209-3.965-4.611-11.478-2.825-12.958 3.044a40.877 40.877 0 0 1-6.449 13.885l-.054.071a40.889 40.889 0 0 1-33.176 16.927h-91.367V80.46c0-30.242 24.604-54.846 54.846-54.846h29.198a7.5 7.5 0 0 0 0-15h-29.198c-38.513 0-69.846 31.333-69.846 69.846v30.706a32.942 32.942 0 0 0-4.842 4.872 34.216 34.216 0 0 0-3.161-3.344c.1-.488.152-.993.152-1.51V54.511C256.138 24.454 231.684 0 201.627 0h-60.219C111.89 0 87.345 21.667 82.82 49.93c-15.686.046-28.434 12.82-28.434 28.516v34.391c-6.597 6.187-10.729 14.972-10.729 24.709 0 16.946 12.504 31.028 28.77 33.503 2.967 12.309 8.646 23.719 16.561 33.495H84.31c-16.823 0-32.29 9.81-39.608 24.762-15.947 5.696-26.506 21.789-24.993 38.952l3.42 38.785c-11.745 4.869-20.03 16.451-20.03 29.935 0 16.099 11.804 29.492 27.212 31.979 5.593 22.987 20.724 41.695 40.728 52.221v1.729c0 2.086.177 4.13.502 6.125H57.032c-20.016 0-36.3 16.284-36.3 36.3v39.057a7.5 7.5 0 0 0 7.5 7.5h18.78a7.5 7.5 0 0 0 0-15h-11.28v-31.557c0-11.745 9.555-21.3 21.3-21.3h20.442a37.593 37.593 0 0 0 23.354 15.872c14.902 3.254 30.707-2.703 39.522-15.872h20.217c11.745 0 21.3 9.555 21.3 21.3v5.471c-6.254 3.353-11.004 9.15-12.975 16.106a.732.732 0 0 1-.013.044c-1.132 4.021-.99 6.919-.99 9.936H82.012a7.5 7.5 0 0 0 0 15h92.404c.32.042.643.07.974.07h161.135c.331 0 .654-.029.974-.07h142.142a7.5 7.5 0 0 0 7.5-7.5v-39.057c0-6.832-1.9-13.228-5.195-18.691a51.335 51.335 0 0 0 10.926-9.711c10.511-12.441 15.42-29.396 13.467-46.517zm-27.747-1.43a7.508 7.508 0 0 0-7.588 6.256c-3.731 22.311-18.279 41.555-39.271 51.173l-.003.001c-10.462 4.793-21.459 6.672-32.11 6.144-.338-.017-.672-.047-1.009-.069-15.734-1.01-30.138-7.306-41.414-17.419 4.473-12.332.534-26.255-9.725-34.464 0-31.126 2.037-46.189-9.245-66.289a70.642 70.642 0 0 1 1.496-3.848h8.532a56.556 56.556 0 0 0 44.601 21.706h87.494a18.366 18.366 0 0 1 17.536 18.401c-.001 10.271-8.223 18.642-19.294 18.408zm-75.375 94.953c-11.756 0-21.594-8.484-23.711-19.621l-.006-.034a84.955 84.955 0 0 0 23.6 3.366c7.61 0 15.936-1.094 23.848-3.448-2.095 11.271-11.98 19.737-23.731 19.737zm-72.431-13.229a33.205 33.205 0 0 1-2.373-1.464 75.822 75.822 0 0 0 5.155-14.375c5.285-.9 10.705-3.324 15.137-7.272a83.536 83.536 0 0 0 15.375 10.444c0 1.942-.025 3.826.26 6.293h-13.008a36.371 36.371 0 0 0-20.546 6.374zm-66.967-277.171c.443.519.905 1.021 1.379 1.512-1.186 7.893-1.803 11.022-1.803 16.439 0 8.407 1.827 16.855 5.282 24.434 5.205 11.416 13.895 20.456 24.328 25.979a53.604 53.604 0 0 0-7.554 6.119c-8.186 7.975-13.489 18.171-15.342 29.257H259.2a69.75 69.75 0 0 0-16.334 1.954c-2.73-20.945-17.678-38.097-37.444-44.043 16.19-11.784 27.9-29.028 32.676-48.835 8.793-1.34 16.482-6.074 21.695-12.816zm19.988 11.212a82.554 82.554 0 0 0 33.037 48.186c-21.723-.103-42.092-20.489-37.769-49.29 1.521.475 3.348.886 4.732 1.104zm24.062 166.921c-8.621 0-16.346 4.462-20.665 11.936-2.67 4.622-3.683 9.798-3.035 14.836-5.198-2.41-10.438-7.027-14.393-11.144-4.954-5.158-13.732-1.049-12.854 6.108.096.782.217 1.526.351 2.253.214 1.168.468 2.274.76 3.308-5.788-2.269-11.367-7.185-15.674-11.669-2.153-2.242-5.638-3-8.628-1.579a7.5 7.5 0 0 0-4.225 7.687c.205 1.671.502 3.212.864 4.638-9.257-4.677-19.117-16.195-23.646-23.012a7.494 7.494 0 0 0-6.516-3.357c-4.162.145-6.792 2.474-11.343 14.737a80.783 80.783 0 0 0-1.159 3.338c0-19.677-1.043-27.482 4.622-39.034l.001-.002c5.431-11.073 15.669-20.337 29.08-23.932l.257-.068c5.735-1.501 3.766.16 8.809-3.601a54.952 54.952 0 0 1 12.193-6.853c.092-.037.174-.09.264-.131 6.377-2.54 13.216-3.852 20.296-3.852h11.804c.538 0 1.07.026 1.604.041l.042.003c20.072.565 37.607 11.476 47.425 27.568l.092.152c9.932 16.391 8.279 29.529 8.279 50.387a78.432 78.432 0 0 0-.461-1.446c-3.207-9.708-11.936-16.429-22.095-17.231a25.798 25.798 0 0 0-2.049-.081zm-99.721-87.589-.024-.104a56.91 56.91 0 0 0-5.905-15.184c16.678 3.599 29.341 18.122 30.101 35.677-3.787 1.868-8.097 4.555-11.322 6.999a60.594 60.594 0 0 0-11.404 3.531c-.001-19.13.371-22.975-1.446-30.919zm114.412-16.146h21.461a53.563 53.563 0 0 0-2.908 5.449c-13.631 7.064-23.849 19.721-29.264 33.955a72.698 72.698 0 0 0-26.628-9.332c3.691-17.332 18.933-30.072 37.339-30.072zM172.255 392.571c-2.056-9.717 5.297-18.806 15.105-18.964.299-.005.597-.007.895.005 3.797.169 7.078-2.528 7.701-6.257a60.432 60.432 0 0 1 2.209-8.953c9.412 10.86 25.715 25.376 42.531 20.421a7.495 7.495 0 0 0 4.051-2.93c7.382 3.829 15.324 5.3 23.367 2.93a7.502 7.502 0 0 0 4.061-2.945c7.56 3.908 14.844 4.93 21.574 2.945 4.681-1.379 6.815-6.797 4.346-10.995-1.835-3.124-4.897-6.883-1.931-12.02 4.134-7.151 14.989-5.186 17.563 2.537 1.953 6.163 2.066 8.511 2.379 9.695 1.697 6.433 8.862 5.571 7.554 5.571 9.9 0 16.348 7.087 16.348 15.689 0 8.175-6.286 14.908-14.257 15.634-2.119.195-2.951-.203-4.878.472a7.498 7.498 0 0 0-4.914 5.841 60.138 60.138 0 0 1-7.598 20.791c-.102.173-.17.356-.257.534a60.541 60.541 0 0 1-26.352 23.716c-.166.062-.334.116-.496.19a60.744 60.744 0 0 1-25.296 5.494h-.003c-8.451 0-17.014-1.732-25.112-5.407-.134-.061-.274-.103-.411-.156-17.8-8.178-31.058-24.715-34.478-45.163a7.5 7.5 0 0 0-7.702-6.257c-.212.008-.426.018-.641.018-7.538.001-13.848-5.34-15.358-12.436zm63.367 81.65a76.61 76.61 0 0 0 20.336 2.752c6.985 0 13.853-.944 20.559-2.814-1.796 9.767-10.361 17.02-20.454 17.02-10.087-.001-18.626-7.25-20.441-16.958zm79.328-25.312a36.066 36.066 0 0 0-3.943 16.422v2.351h-18.521a75.54 75.54 0 0 0 22.464-18.773zM478.441 278.14v23.733H388.829a41.566 41.566 0 0 1-34.357-18.106c-.059-.096-.105-.198-.169-.292a41.291 41.291 0 0 1-5.83-13.027c-1.487-5.905-9.011-7.646-12.958-3.063-4.669 5.424-8.64 11.479-11.632 17.53a87.625 87.625 0 0 0-3.431-3.429c4.191-14.215 13.508-25.643 25.5-31.036a7.498 7.498 0 0 0 3.899-4.085c3.068-7.769 8.566-14.386 16.565-19.053.002.001.004-.001.006-.003.002 0 .003 0 .004-.002.279-.158.568-.31.934-.505h.001c9.316-4.658 14.552-4.402 21.277-4.402H422.7c.115 0 .231.008.346.008 30.433.186 55.395 24.994 55.395 55.732zm-58.784-70.741a82.446 82.446 0 0 0 20.802-37.298c.055-.22.123-.434.177-.654 1.717-.27 3.387-.68 5.006-1.204 2.586 17.213-3.449 31.081-13.264 39.829-5.553-.768-9.879-.673-12.721-.673zm15.083-52.572a7.451 7.451 0 0 0-3.003.508 7.494 7.494 0 0 0-4.692 5.748c-2.534 15.152-10.379 29.389-22.27 39.778-.05.044-.092.094-.141.139a68.463 68.463 0 0 1-8.686 6.398c-11.255 0-13.369-.114-17.724.443l-.143.016c-.011.001-.021.004-.032.006a52.513 52.513 0 0 0-23.885 9.449c-30.675-2.744-55.775-26.191-60.799-56.23a7.501 7.501 0 0 0-7.394-6.263c-4.277 0-7.59-.649-11.186-3.1-4.776-3.254-7.92-8.733-7.92-14.935a18 18 0 0 1 17.18-18.034h86.31a55.86 55.86 0 0 0 48.767-28.504 67.595 67.595 0 0 1 4.465 9.518 67.15 67.15 0 0 1 3.456 12.723 7.537 7.537 0 0 0 .362 1.361 7.505 7.505 0 0 0 7.332 4.896c10.103-.4 18.804 7.69 18.804 18.041.003 10.146-8.437 18.455-18.801 18.042zM141.408 15h60.219c21.787 0 39.512 17.725 39.512 39.511v49.173c-106.027 0-101.061.131-104.701-.286-.178-.02-.353-.046-.53-.068-22.664-2.875-39.638-22.58-38.802-45.519l.004-.107c.001-.016-.001-.032-.001-.049C98 33.985 117.523 15 141.408 15zM69.386 78.447c0-7.261 5.754-13.204 12.942-13.506.33 3.514 1.138 7.82 2.263 11.543-5.363 7.954-9.75 17.619-12.159 27.554a33.538 33.538 0 0 0-3.046.604zm16.632 84.225a7.502 7.502 0 0 0-7.695-6.257c-.258.01-.516.021-.776.021-10.416 0-18.89-8.474-18.89-18.89 0-6.437 3.242-12.125 8.173-15.537a18.805 18.805 0 0 1 11.483-3.331 7.488 7.488 0 0 0 7.705-6.257c1.083-6.476 3.189-13.173 6.398-19.631 9.223 13.427 23.922 23.065 41.122 25.356.334.045.668.088 1.004.128 5.1.59-.986.41 97.362.41h1.613c10.165.289 18.35 8.628 18.35 18.862 0 10.416-8.474 18.89-18.89 18.89-.26 0-.519-.011-.776-.021a7.505 7.505 0 0 0-7.695 6.257c-3.975 23.77-19.915 43.754-42.013 53.048-9.371-6.942-21.266-11.175-33.857-11.175h-38.785c-12.671-10.752-21.099-25.525-23.833-41.873zm-34.063 80.1a7.503 7.503 0 0 0 5.227-4.594c4.289-11.146 15.191-18.634 27.128-18.634h64.326c22.811 0 41.627 18.419 41.916 41.409.002.174.013.346.013.521v27.302a60.27 60.27 0 0 0-13.511 15.835H97.779c-17.724 0-33.76-11.166-39.905-27.785-2.092-5.655-9.455-6.52-12.963-1.993-3.267 4.215-6.241 9.045-8.388 13.334l-1.872-21.226c-.982-11.14 6.457-21.53 17.304-24.169zm-8.052 117.836a7.502 7.502 0 0 0-7.703-6.257c-.235.009-.471.019-.708.019-9.59 0-17.393-7.802-17.393-17.393 0-8.674 6.39-15.865 14.706-17.163 3.739-.581 5.523.482 8.428-1.884a7.48 7.48 0 0 0 2.67-4.583 65.399 65.399 0 0 1 6.282-18.96c10.561 15.482 28.341 25.223 47.595 25.223h72.97c-2.672 9.973-2.07 14.792-2.07 45.524-8.643 6.785-13.168 17.836-11.39 29.01a65.796 65.796 0 0 1-48.489 21.328c-31.69.002-59.494-22.547-64.898-54.864zm64.897 69.866c9.351 0 16.366-1.49 22.568-3.201a22.788 22.788 0 0 1-3.866 8.948l-.027.036a22.868 22.868 0 0 1-18.563 9.524c-7.313 0-14.189-3.496-18.524-9.473-.014-.02-.03-.039-.044-.06a22.776 22.776 0 0 1-3.87-8.892 82.05 82.05 0 0 0 22.326 3.118zm51.768-1.443h-14.284a37.94 37.94 0 0 0 .502-6.125v-1.902a80.62 80.62 0 0 0 17.107-12.235c4.581 5.572 11.077 9.512 18.477 10.79a75.462 75.462 0 0 0 37.06 48.122h-22.563v-2.351c.001-20.015-16.283-36.299-36.299-36.299zm22.322 67.927v-2.859c0-5.111 3.463-9.66 8.435-11.003.018-.005.033-.014.051-.018.937-.25 1.917-.396 2.931-.396h28.115a35.65 35.65 0 0 0 9.608 14.276zm106.813-14.276h27.905c.118 0 .232.014.348.018.066.005.13.016.197.019 6.16.29 10.872 5.375 10.872 11.38v2.859h-48.93a35.65 35.65 0 0 0 9.608-14.276zm182.438 14.206H344.025v-2.789c0-11.348-7.284-21.43-18.019-25.041v-3.728c0-11.808 9.667-21.3 21.3-21.3h17.975c7.324 12.692 21.284 20.263 35.604 19.561.284-.012.567-.03.85-.049l.159-.01c13.541-1.024 24.901-8.567 31.208-19.502h17.74c11.65 0 21.3 9.526 21.3 21.3zm9.273-69.64c-2.867 3.394-6.248 6.189-9.927 8.228-11.019-7.641-20.059-6.444-33.419-6.444.01-.087.013-.175.023-.262.274-2.513.238-4.119.238-6.181 20.065-10.63 35.098-28.997 41.38-51.046l.036-.126c.292-1.03.571-2.065.824-3.109a33.125 33.125 0 0 0 7.895-2.26l2.973 26.064c1.463 12.84-2.283 25.975-10.023 35.136z"/><path d="M372.31 168.276a7.5 7.5 0 0 0-7.5 7.5c0 2.796-2.274 5.07-5.07 5.07s-5.071-2.274-5.071-5.07a7.5 7.5 0 0 0-15 0c0 11.067 9.004 20.07 20.071 20.07s20.07-9.003 20.07-20.07a7.5 7.5 0 0 0-7.5-7.5zM174.99 175.454a7.5 7.5 0 0 0-15 0c0 2.796-2.274 5.071-5.07 5.071s-5.071-2.275-5.071-5.071a7.5 7.5 0 0 0-15 0c0 11.067 9.004 20.071 20.071 20.071s20.07-9.004 20.07-20.071z"/></svg>