<svg version="1.1" id="Capa_1" xmlns="http://www.w3.org/2000/svg" x="0" y="0" viewBox="0 0 512 512" style="enable-background:new 0 0 512 512" xml:space="preserve"><path style="fill:#ffcebf" d="M137.431 233.754c-20.431 2.857-32.08 14.506-34.947 34.947l-35.689-.862-9.584-9.584c5.895-12.16 4.591-26.907-3.91-37.834 20.14 10.927 45.914 7.819 63.026-9.293 5.995-5.995 10.276-13.052 12.832-20.561l7.418 7.418.854 35.769z"/><path style="fill:#cc2e43" d="M129.161 190.567c-2.556 7.509-6.837 14.566-12.832 20.561-17.112 17.112-42.886 20.22-63.026 9.293 8.501 10.927 9.804 25.674 3.91 37.834l-12.531-12.531c-19.107-19.107-19.107-50.094 0-69.212l.612-.602c19.107-19.117 50.094-19.117 69.212 0l14.655 14.657z"/><path style="fill:#8abbd5" d="m116.143 348.272 10.736-24.172-45.723-43.662a48.927 48.927 0 0 1-8.596-6.834l-27.879-27.879a48.913 48.913 0 0 1-8.806-11.992c-12.543-16.572-26.4-40.457-19.715-58.722a71.06 71.06 0 0 0-3.531 7.183c-6.287 16.43-12.275 47.948 15.565 78.741l87.949 87.337z"/><path style="fill:#f7cf69" d="M481.375 261.122c51.807-50.562 3.01-141.104-68.346-121.461-12.809 3.526-25.535 18.236-36.33 18.886-9.063.545-16.997-3.525-26.585-1.297-8.802 2.045-17.076 6.636-23.463 13.026-11.176 11.183-17.635 29.643-13.432 45.291 3.277 12.205 21.174 32.291 33.292 36.111-3.092-16.644 10.045-59.786 32.817-55.693 11.342 2.039 23.186 12.364 35.082 15.273 12.467 3.049 26.231 3.972 38.094-1.804-1.751 9.192-1.65 18.943.23 28.106 3.47 16.907 9.153 17.097-3.637 29.225-16.513 15.659-35.289 31.762-59.82 27.671 4.025 12.925 24.458 30.871 37.613 33.353 37.535 7.08 68.755-31.455 54.485-66.687z"/><path style="fill:#b5d3e3" d="m217.56 247.148-26.847 11.91-17.233 7.649-17.884-17.935c3.398-15.709-1.002-32.771-13.223-44.992l-27.869-27.869c-19.117-19.117-50.104-19.117-69.212 0l-.612.602c-19.107 19.117-19.107 50.104 0 69.212l27.879 27.879c12.21 12.21 29.273 16.621 44.982 13.223l17.945 17.884-7.649 17.233-11.92 26.837-87.968-87.968c-27.989-27.979-27.989-73.362 0-101.352l.291-.281c27.989-27.989 73.362-27.989 101.352 0l87.968 87.968z"/><path style="fill:#ffbeaa" d="m254.923 284.51-22.115 22.105-28.711 28.711-28.701 28.711-22.115 22.105-37.363-37.363 11.92-26.837 7.649-17.233-17.945-17.884c8.882-1.915 17.323-6.326 24.22-13.223l.612-.612a48.582 48.582 0 0 0 13.223-24.22l17.884 17.935 17.233-7.649 26.847-11.91 37.362 37.364z"/><path style="fill:#f7cf69" d="m115.918 348.78 11.919-26.837 55.025-7.855 8.498-53.931 26.731-12.478 138.89 138.89-101.697 101.578z"/><path style="fill:#7acba7" d="m356.981 386.569-138.89-138.89-26.731 12.478-.713 4.524 144.328 143.868zM182.862 314.088l-50.913 7.269 145.306 144.844 29.674-29.639-123.904-123.511z"/><path style="fill:#cc2e43" d="M155.596 248.772a48.582 48.582 0 0 1-13.223 24.22l-.612.612c-6.897 6.897-15.338 11.308-24.22 13.223-15.709 3.398-32.771-1.013-44.982-13.223l-5.764-5.764 35.689.862c2.867-20.441 14.516-32.09 34.947-34.947l-.852-35.769 5.794 5.794c12.221 12.22 16.622 29.283 13.223 44.992z"/><path style="fill:#ec5569" d="M341.657 38.893c-17.604-17.603-46.144-17.603-63.746 0l-9.944 9.944a6.071 6.071 0 0 1-8.586 0l-9.784-9.784c-17.603-17.603-46.144-17.603-63.746 0-17.603 17.603-17.603 46.144 0 63.746l73.537 73.537a6.071 6.071 0 0 0 8.586 0l73.684-73.696c17.602-17.604 17.602-46.144-.001-63.747z"/><path style="fill:#fff5f5" d="M315.55 223.868 153.246 386.172 254.78 487.706 417.286 325.2"/><path style="fill:#b5d3e3" d="m347.312 255.629-17.985 18.035-23.037-10.175-21.052-9.303 30.315-30.315.932.932c0 .01 0 .01.01.01A48.854 48.854 0 0 0 326.65 239.6a48.777 48.777 0 0 0 14.977 10.235s0 .01.01.01l5.634 5.614c.011.059.031.119.041.17z"/><path style="fill:#ff94d2" d="M305.408 334.996c.05.12.11.251.16.371-14.105 9.965-33.754 8.641-46.375-3.99-12.671-12.661-13.975-32.39-3.91-46.505l-.361-.361 30.315-30.325 21.052 9.303a153.297 153.297 0 0 0-4.902 38.556c.001 15.898.182 24.47 4.021 32.951z"/><path transform="rotate(134.999 204.027 436.925)" style="fill:#fff5f5" d="M204.004 365.13h.042v143.585h-.042z"/><path style="fill:#ffcebf" d="m459.009 255.528-24.391 24.391c-12.341 12.341-29.343 17.193-45.343 14.536a54.25 54.25 0 0 1-3.589-.722l-.361-.09c-8.902-2.195-17.333-6.767-24.29-13.724-6.957-6.957-11.529-15.388-13.724-24.29-.01-.05-.03-.11-.04-.17a48.595 48.595 0 0 1-.762-3.779 51.026 51.026 0 0 1-.712-8.551c0-13.323 5.073-26.646 15.238-36.801l13.544-13.443c19.719 12.341 53.152 28.621 77.923 16.571.001-.002-5.362 23.416 6.507 46.072z"/><path style="fill:#ffbeaa" d="m377.307 334.304.16.361a153.317 153.317 0 0 1-38.566 4.902c-15.709 0-24.441-.211-32.942-4.02l-.281-.281-.271-.271c-3.84-8.481-4.02-17.052-4.02-32.952 0-13.313 1.704-26.235 4.902-38.556l23.037 10.175 17.985-18.035c2.195 8.902 6.767 17.333 13.724 24.29 6.957 6.957 15.388 11.529 24.29 13.724l-18.035 17.975 10.017 22.688z"/><path style="fill:#97bffd" d="m386.765 355.727.176-.176-9.593-21.157z"/><path style="fill:#ff94d2" d="m377.307 334.304.16.361a153.317 153.317 0 0 1-38.566 4.902c-15.709 0-24.441-.211-32.942-4.02l-.281-.281-.271-.271c.05.12.11.251.16.371l.01.01.01.01c-9.975 14.105-8.641 33.754 3.98 46.375 12.661 12.661 32.39 13.965 46.505 3.9l.381.381 30.31-30.315-9.417-21.333-.039-.09z"/><path style="fill:#b5d3e3" d="M416.855 324.77a48.792 48.792 0 0 1-15.498-10.466 48.929 48.929 0 0 1-10.396-15.328l-5.273-5.243-.361-.09-18.035 17.975 10.015 22.686.041.09-1.318-2.986 1.318 2.986 9.594 21.157 30.345-30.349-.432-.432z"/><path style="fill:#3f7196" d="m356.455 386.042-22.115 22.105-28.711 28.711-28.701 28.711-22.115 22.105-101.532-101.531 22.115-22.105 28.701-28.711 28.711-28.711 22.115-22.105.361.361c-10.065 14.115-8.762 33.844 3.91 46.505 12.621 12.631 32.27 13.955 46.375 3.99l.01.01.01.01c-9.975 14.105-8.641 33.754 3.98 46.375 12.661 12.661 32.39 13.965 46.505 3.9l.381.38z"/><path style="fill:#8abbd5" d="m155.243 387.098 17.836-18.88L52.782 253.341S.027 201.353 18.243 170.614c0 0-30.194 45.92 9.951 90.321l127.049 126.163z"/><path style="fill:#e63950" d="M215.93 103.173c-8.802-8.802-13.203-20.34-13.203-31.869 0-11.539 4.401-23.077 13.203-31.879a44.896 44.896 0 0 1 16.836-10.628c-15.859-5.599-34.226-2.058-46.912 10.628-8.802 8.802-13.203 20.34-13.203 31.879 0 11.529 4.401 23.067 13.203 31.869l73.543 73.533a6.056 6.056 0 0 0 8.581 0l10.746-10.748-62.794-62.785z"/><path style="fill:#f77cc9" d="M482.969 158.061c-28.04-28.04-73.502-28.04-101.542 0l-1.369 1.369c-14.585-7.834-36.738-5.788-52.3 9.773s-19.452 39.559-11.618 54.144l-80.164 80.164-82.665 82.655-.03.03 17.043 17.043 158.009-160.282 15.603 5.256 8.686-31.166 35.547-35.036c28.04-28.04 75.199-26.343 103.238 1.696a71.783 71.783 0 0 1 11.979 15.881c-1.959-15.183-8.753-29.863-20.417-41.527z"/><path style="fill:#8abbd5" d="M326.651 239.599a48.842 48.842 0 0 1-10.155-14.787c-.01 0-.01 0-.01-.01l-.899-.899-30.302 30.302 21.006 9.283 1.258.555 20.785-21.083 3.578 1.205a49.16 49.16 0 0 1-5.261-4.566z"/><path style="fill:#005f80" d="m153.311 386.168-.002.002 17.043 17.043 81.416-82.586c-5.176-11.526-4.005-25.209 3.516-35.756l-.333-.333-18.975 18.974-82.665 82.656z"/><path style="fill:#ffb64c" d="M455.483 140.907a72.083 72.083 0 0 0-33.508-3.145c-.209.032-.417.068-.626.101-.666.101-1.329.217-1.992.336a78.987 78.987 0 0 0-6.329 1.463c-10.591 2.916-21.125 13.472-30.559 17.408-.346.333-.702.651-1.043.991l-1.369 1.369a34.846 34.846 0 0 0-2.099-1.027c-.422.065-.843.118-1.259.143-9.063.545-16.997-3.525-26.585-1.297-8.325 1.934-16.174 6.147-22.405 12.005-13.205 13.241-17.975 32.56-14.284 47.003 2.709 8.878 12.607 21.503 22.384 29.221l8.127 2.738 2.684-9.63c.894-6.537 2.851-13.873 5.743-20.608l.259-.928.265-.262c4.84-10.731 12.091-19.671 21.229-20.924l14.054-13.851c28.04-28.04 75.199-26.343 103.238 1.696a71.646 71.646 0 0 1 10.162 12.817c-4.848-24.752-22.063-46.866-46.087-55.619z"/><path d="M254.631 180.938a13.502 13.502 0 0 0 9.61 3.981c3.631 0 7.043-1.414 9.611-3.981l47.049-47.057a7.518 7.518 0 1 0-10.633-10.631l-46.025 46.032-72.513-72.513c-7.094-7.094-11-16.525-11-26.557s3.906-19.463 11-26.557 16.525-11 26.557-11 19.463 3.907 26.557 11l9.783 9.784a13.502 13.502 0 0 0 9.61 3.981 13.5 13.5 0 0 0 9.609-3.981l9.945-9.943c7.093-7.094 16.524-11 26.556-11s19.463 3.906 26.556 11c7.094 7.094 11.001 16.525 11.001 26.557s-3.907 19.463-11.001 26.558l-4.748 4.75a7.518 7.518 0 1 0 10.633 10.63l4.748-4.749c9.934-9.934 15.404-23.141 15.404-37.189 0-14.049-5.471-27.256-15.404-37.189s-23.141-15.404-37.19-15.404-27.256 5.471-37.189 15.404l-8.92 8.919-8.76-8.761c-9.935-9.934-23.141-15.405-37.19-15.405s-27.256 5.472-37.189 15.405-15.404 23.14-15.404 37.189 5.471 27.256 15.404 37.189l73.533 73.538z"/><path d="M512 208.114c0-21.186-8.249-41.103-23.231-56.083-14.981-14.98-34.899-23.231-56.083-23.231-20.312 0-39.447 7.602-54.195 21.431-19.952-6.127-41.7-.882-56.596 14.015-10.677 10.679-16.559 24.876-16.559 39.977a56.74 56.74 0 0 0 2.469 16.608l-27.228 27.227c-.07.068-.139.136-.206.208l-24.888 24.897-49.56-49.559a7.518 7.518 0 1 0-10.632 10.632l9.768 9.768-16.041 7.12a7.5 7.5 0 0 0-1.55.688l-11.75 5.215-11.503-11.538c2.348-16.937-2.969-34.742-15.965-47.738l-27.874-27.874c-22.013-22.012-57.831-22.013-79.843 0l-.608.608c-22.013 22.013-22.013 57.831 0 79.843L67.8 278.202c11.006 11.006 25.464 16.51 39.922 16.51 2.61 0 5.221-.185 7.812-.544l10.516 10.482 1.027 1.024-5.218 11.75a7.513 7.513 0 0 0-.688 1.548l-7.121 16.036-80.224-80.228c-12.116-12.112-18.789-28.219-18.789-45.355 0-17.117 6.658-33.209 18.75-45.322l.244-.236.087-.086c25.012-25.012 65.708-25.01 90.718 0l48.069 48.079a7.518 7.518 0 1 0 10.633-10.631l-48.07-48.08c-30.859-30.86-81.061-30.873-111.94-.044l-.248.24-.087.086C8.237 168.387 0 188.273 0 209.426c0 21.154 8.237 41.038 23.195 55.989l124.771 124.772c.164.204.341.4.529.589l101.532 101.532a7.515 7.515 0 0 0 3.145 1.881 7.5 7.5 0 0 0 2.246.351h.017a7.522 7.522 0 0 0 5.315-2.2l101.643-101.632c.255-.255.482-.531.696-.816l29.56-29.56.006-.007 27.319-27.327a56.744 56.744 0 0 0 16.603 2.468c15.102 0 29.3-5.881 39.977-16.559a56.437 56.437 0 0 0 14.055-56.638C504.413 247.525 512 228.408 512 208.114zm-190.105 36.087c4.441 4.441 9.621 8.094 15.236 10.836l-8.923 8.95-18.317-8.091-.009-.003-11.006-4.864 15.745-15.745a56.833 56.833 0 0 0 7.274 8.917zm31.978-1.791c0-11.891 4.63-23.07 13.038-31.478l9.301-9.3c18.227 10.684 44.675 22.323 68.093 17.84-.29 8.762.679 21.137 6.144 33.835l-20.582 20.581c-8.408 8.408-19.587 13.038-31.477 13.038a44.8 44.8 0 0 1-10.785-1.31c-.053-.012-.105-.028-.158-.039-7.705-1.939-14.772-5.926-20.535-11.69-5.754-5.755-9.737-12.809-11.68-20.5-.017-.082-.04-.163-.06-.246a45.271 45.271 0 0 1-.41-1.831 7.477 7.477 0 0 0-.487-2.967 45.051 45.051 0 0 1-.402-5.933zm7.102 71.53 6.488 14.696a146.632 146.632 0 0 1-28.001 2.698c-8.209 0-14.076-.084-18.78-.584l4.521-4.522a7.519 7.519 0 0 0-10.633-10.633l-4.539 4.539c-.518-4.843-.563-10.752-.563-18.805 0-9.424.909-18.803 2.698-27.988l14.685 6.486c.038.017.076.027.114.043.123.052.249.096.374.141.115.042.231.085.347.121.116.036.235.063.353.093.128.032.256.068.384.094.099.02.201.031.3.046.147.023.295.05.443.064.045.004.09.003.135.007.195.015.39.03.585.03.482 0 .961-.047 1.434-.138l.01-.001c.131-.026.261-.063.392-.095.108-.027.218-.048.324-.08.071-.021.14-.05.212-.074.162-.054.325-.106.484-.171.038-.016.075-.036.112-.052.187-.08.374-.164.555-.261.037-.02.072-.044.109-.065a6.9 6.9 0 0 0 .527-.314c.071-.047.138-.103.209-.153.132-.095.267-.187.395-.292.121-.099.236-.211.352-.319.071-.066.146-.125.216-.194l2.603-2.611 7.053-7.073a59.648 59.648 0 0 0 11.407 15.949 59.615 59.615 0 0 0 15.95 11.407l-9.682 9.65a7.515 7.515 0 0 0-1.573 8.361zm-53.003 75.289c.215.177.434.346.652.518.334.265.668.528 1.008.783.234.174.471.343.708.512.332.238.665.473 1.001.701.245.165.492.326.74.486a45.387 45.387 0 0 0 1.777 1.09c.346.201.694.395 1.044.585.255.138.509.277.766.41.361.187.725.366 1.09.543.251.121.499.244.752.36.386.177.776.345 1.166.511.236.1.47.205.708.301.441.178.885.344 1.331.507.19.07.379.146.57.214a43.26 43.26 0 0 0 1.936.631l.029.008c.638.19 1.278.364 1.923.524.21.052.422.095.633.144.444.103.888.205 1.335.296.259.052.518.095.777.142.403.073.805.145 1.21.207.278.042.557.078.836.115.387.051.774.1 1.163.141.29.031.58.056.871.081.206.018.411.042.617.057l-2.991 2.991-.01.009-.01.011-28.694 28.694-.007.006-.007.008-45.514 45.514-90.899-90.899 16.724-16.724c.024-.023.05-.043.073-.066.024-.024.043-.05.066-.073l60.361-60.362.003.035c.045.621.102 1.24.173 1.858.008.068.019.135.027.202.066.546.139 1.092.226 1.636.031.198.071.395.105.592.071.412.143.824.227 1.234.047.233.102.463.153.695.082.375.164.749.257 1.122.061.245.128.487.193.731.095.357.19.714.295 1.068.074.251.154.5.233.751.108.344.218.688.334 1.029.087.255.179.507.271.76a40.01 40.01 0 0 0 1.096 2.734c.111.254.227.505.343.757a41.533 41.533 0 0 0 1.335 2.635c.134.245.27.489.409.731.177.309.362.615.547.92.145.24.29.478.44.716.193.305.394.606.595.906.154.231.307.462.466.69.213.305.435.605.657.906.16.218.317.437.482.652.238.31.484.614.731.918.161.199.318.401.483.598.278.332.567.657.857.981.145.163.285.33.432.491a42.69 42.69 0 0 0 3.189 3.144c.198.176.399.344.599.515.433.373.869.74 1.313 1.093a44.122 44.122 0 0 0 2.015 1.509c.237.167.473.336.713.498.495.335.996.656 1.503.968.184.114.366.236.552.347.69.413 1.388.807 2.095 1.179.16.084.324.159.485.242a43.01 43.01 0 0 0 1.674.814c.258.118.518.228.778.341a44.853 44.853 0 0 0 2.284.917c.492.181.987.351 1.485.513.263.086.523.175.787.257.624.191 1.25.366 1.88.528.135.035.269.077.404.11.76.188 1.525.353 2.293.5.241.046.481.082.722.123a44.28 44.28 0 0 0 1.619.255c.292.039.583.073.875.106.505.058 1.01.107 1.517.147.293.023.584.046.878.063.543.032 1.087.05 1.631.062.247.005.492.017.739.018.068 0 .137.005.205.005.662 0 1.324-.02 1.986-.05.167-.008.334-.019.501-.028a43.894 43.894 0 0 0 2.048-.163c.092-.01.185-.016.278-.026.747-.083 1.492-.19 2.235-.313.083-.013.166-.021.249-.035-.016.092-.024.185-.039.277a43.455 43.455 0 0 0-.496 4.495c-.009.151-.022.302-.03.453a44.081 44.081 0 0 0-.048 2.299c.001.175.008.351.011.526a42.688 42.688 0 0 0 .111 2.473c.052.704.118 1.407.204 2.107.008.063.012.126.02.189.097.763.221 1.523.358 2.28.036.199.077.398.116.597.115.586.243 1.17.382 1.751.047.198.093.397.143.594.19.747.395 1.491.626 2.229.02.063.043.126.063.19.214.674.447 1.341.694 2.006.076.206.156.41.236.616.223.571.457 1.138.704 1.701.072.164.14.33.215.494.32.706.659 1.404 1.018 2.095.073.14.151.278.227.418a43.683 43.683 0 0 0 2.375 3.936c.072.106.138.214.212.319a42.69 42.69 0 0 0 1.406 1.915c.127.164.26.325.389.487a46.57 46.57 0 0 0 3.313 3.723c.507.507 1.026.998 1.552 1.476.175.159.357.31.535.466.349.315.704.626 1.066.925zm-103.309-65.248-13.264-13.271 4.514-31.625 26.827 26.821-18.077 18.075zm-23.893-2.632 13.259 13.266-18.076 18.074-26.824-26.824 31.641-4.516zm106.704-58.918 10.615 4.691a161.397 161.397 0 0 0-3.657 34.208c0 13.059.138 21.909 2.448 29.957-.476.213-.957.412-1.442.596-.163.062-.324.136-.487.195-.738.266-1.483.499-2.235.701-.192.052-.388.087-.58.135-.56.138-1.123.268-1.688.371-.28.051-.56.087-.841.13-.485.074-.97.141-1.457.189-.305.03-.609.052-.914.072a30.083 30.083 0 0 1-2.331.065 28.645 28.645 0 0 1-1.434-.062c-.292-.019-.583-.033-.874-.061a27.525 27.525 0 0 1-1.593-.207c-.23-.035-.461-.059-.69-.1a28.256 28.256 0 0 1-2.242-.49c-.14-.037-.277-.086-.416-.125a28.347 28.347 0 0 1-1.793-.557c-.259-.091-.512-.197-.768-.296a28.932 28.932 0 0 1-1.395-.57c-.279-.124-.553-.259-.829-.392a29.327 29.327 0 0 1-2.1-1.127c-.42-.25-.834-.514-1.244-.786-.254-.168-.508-.334-.757-.511a29.88 29.88 0 0 1-1.285-.981c-.205-.164-.416-.32-.618-.49a28.86 28.86 0 0 1-1.796-1.644c-9.932-9.925-11.237-25.408-3.106-36.817a29.26 29.26 0 0 1 3.109-3.665c.073-.073.136-.152.207-.229l22.193-22.2zm-42.622 21.365-11.479 11.478-32.823-32.815 15.904-7.06 28.398 28.397zm-76.131-12.491a7.512 7.512 0 0 0 8.375 1.563l4.821-2.139-5.139 35.999-35.997 5.139 2.14-4.82c.012-.027.018-.055.029-.083.131-.307.244-.62.333-.938.02-.07.034-.141.051-.212.067-.269.118-.539.155-.813.01-.076.024-.151.032-.228a7.71 7.71 0 0 0 .036-.936c-.002-.091-.008-.181-.013-.273a7.606 7.606 0 0 0-.093-.836c-.008-.049-.012-.098-.021-.147a7.297 7.297 0 0 0-.326-1.159 7.441 7.441 0 0 0-.389-.901l-.008-.018a7.488 7.488 0 0 0-.68-1.054 7.539 7.539 0 0 0-.66-.767l-.01-.012-1.616-1.61-7.806-7.783a56.193 56.193 0 0 0 15.712-11.076l.608-.607a56.193 56.193 0 0 0 11.076-15.712l9.39 9.423zm-38.396-44.441c-17.649 4.381-29.07 15.8-33.45 33.45l-26.327-.631-3.942-3.942c2.527-7.525 2.924-15.574 1.286-23.208 19.331 3.574 39.909-2.389 54.319-16.799a61.455 61.455 0 0 0 7.624-9.305l.49 20.435zm-79.764-45.745.608-.607c8.075-8.075 18.682-12.112 29.289-12.112 10.607 0 21.214 4.037 29.289 12.112l11.163 11.163a45.674 45.674 0 0 1-9.33 13.428c-14.261 14.261-36.521 17.549-54.13 7.993a7.52 7.52 0 0 0-9.52 11.225c4.16 5.348 6.167 12.009 5.897 18.64l-3.264-3.264c-16.153-16.151-16.153-42.428-.002-58.578zm38.327 94.046 13.982.335.182.002a7.519 7.519 0 0 0 7.443-6.476c2.391-17.081 11.459-26.15 28.541-28.541a7.519 7.519 0 0 0 6.474-7.626l-.338-14.105c7.984 15.575 5.472 35.183-7.554 48.209l-.608.607c-13 13.003-32.562 15.528-48.122 7.595zm43.616 55.339 32.815 32.815-11.478 11.476-28.396-28.395 7.059-15.896zm223.95 44.756a7.708 7.708 0 0 0-.523.472 29.25 29.25 0 0 1-3.66 3.094h-.001a28.488 28.488 0 0 1-16.508 5.326c-7.386.019-14.73-2.837-20.314-8.421a29.163 29.163 0 0 1-1.644-1.797c-.169-.201-.324-.41-.486-.615a28.511 28.511 0 0 1-.984-1.289c-.176-.248-.341-.501-.508-.753a28.823 28.823 0 0 1-.79-1.251 29.545 29.545 0 0 1-1.128-2.104c-.131-.272-.265-.543-.387-.818a27.717 27.717 0 0 1-.577-1.413c-.096-.251-.2-.498-.289-.751a28.005 28.005 0 0 1-.568-1.829c-.035-.127-.081-.253-.114-.381a28.58 28.58 0 0 1-.492-2.255c-.038-.214-.06-.43-.093-.645a29.258 29.258 0 0 1-.213-1.639c-.027-.281-.04-.563-.058-.845a28.602 28.602 0 0 1-.063-1.465 29.936 29.936 0 0 1 .067-2.333c.02-.298.041-.595.071-.893.049-.493.117-.985.192-1.478.042-.275.078-.55.128-.824.104-.569.235-1.136.375-1.7.047-.189.082-.381.133-.57.202-.753.437-1.5.703-2.239.056-.156.127-.31.186-.465.187-.493.391-.982.607-1.468 8.089 2.32 16.915 2.458 29.945 2.458 11.54 0 23.021-1.229 34.216-3.657l4.692 10.628-21.915 21.92zm33.319-33.322-4.866-11.022-8.091-18.328 8.947-8.917c2.741 5.614 6.396 10.795 10.837 15.235a57.062 57.062 0 0 0 8.922 7.279l-15.749 15.753zm76.148-33.666c-7.837 7.838-18.259 12.155-29.344 12.155s-21.506-4.317-29.344-12.155a41.77 41.77 0 0 1-5.253-6.426c14.557-.86 28.125-6.927 38.523-17.326l24.387-24.387c2.608-2.608 2.893-6.655.867-9.585-9.921-19.56-5.42-39.895-5.379-40.076a7.52 7.52 0 0 0-10.607-8.495c-16.5 8.032-38.68.568-54.379-7.106-18.005-8.802-31.889-19.969-32.026-20.081a7.518 7.518 0 0 0-10.572 1.107 7.517 7.517 0 0 0 1.105 10.575c.556.451 3.945 3.167 9.327 6.881l-6.944 6.943c-10.399 10.398-16.466 23.965-17.325 38.524a41.81 41.81 0 0 1-6.425-5.253c-7.838-7.838-12.155-18.259-12.155-29.345 0-11.086 4.317-21.506 12.155-29.345 11.792-11.793 29.457-15.346 45.013-9.051.243.099.49.186.741.259.094.028.189.045.284.069.139.035.277.073.417.099.173.033.346.054.519.075.063.007.126.02.19.025.192.018.385.024.576.027.048.001.097.005.145.005.184 0 .368-.012.551-.026.059-.005.119-.006.178-.011.163-.016.324-.043.485-.07.081-.013.163-.023.245-.04.136-.027.27-.064.404-.098.104-.027.209-.05.312-.082.112-.034.222-.077.333-.116.12-.042.241-.083.359-.132.1-.042.197-.091.295-.136.121-.057.244-.11.363-.174.112-.06.219-.128.328-.193.098-.059.197-.113.293-.177a7.37 7.37 0 0 0 .508-.374c.025-.02.052-.037.076-.057.21-.17.41-.353.602-.546l1.49-1.49c12.139-12.14 28.281-18.826 45.45-18.826 17.169 0 33.311 6.686 45.45 18.826 12.14 12.14 18.827 28.281 18.827 45.451 0 17.169-6.687 33.31-18.827 45.45l-1.525 1.525a7.52 7.52 0 0 0-1.365 8.762 41.444 41.444 0 0 1-9.328 44.421z"/></svg>