<?xml version="1.0" encoding="UTF-8" standalone="no"?>
<!-- Created with Inkscape (http://www.inkscape.org/) -->

<svg version="1.1" id="svg2340" width="682.66669" height="682.66669" viewBox="0 0 682.66669 682.66669" xmlns="http://www.w3.org/2000/svg" xmlns:svg="http://www.w3.org/2000/svg">
  <defs id="defs2344">
    <clipPath clipPathUnits="userSpaceOnUse" id="clipPath2354">
      <path d="M 0,512 H 512 V 0 H 0 Z" id="path2352"></path>
    </clipPath>
  </defs>
  <g id="g2346" transform="matrix(1.3333333,0,0,-1.3333333,0,682.66667)">
    <g id="g2348">
      <g id="g2350" clip-path="url('#clipPath2354')">
        <g id="g2356" transform="translate(104.7773,29.8237)">
          <path d="M 0,0 H -20.017 C -36.65,0 -50.133,13.484 -50.133,30.117 v 87.103 h 80.25 V 30.117 C 30.117,13.484 16.633,0 0,0" style="fill: #545464; fill-opacity: 1; fill-rule: nonzero; stroke: none" id="path2358"></path>
        </g>
        <g id="g2360" transform="translate(85.3667,147.0439)">
          <path d="m 0,0 v -117.22 h 19.411 c 16.633,0 30.117,13.484 30.117,30.117 l 0,87.103 z" style="fill: #394856; fill-opacity: 1; fill-rule: nonzero; stroke: none" id="path2362"></path>
        </g>
        <g id="g2364" transform="translate(427.2393,29.8237)">
          <path d="M 0,0 H -20.017 C -36.65,0 -50.134,13.484 -50.134,30.117 V 117.22 H 30.117 V 30.117 C 30.117,13.484 16.633,0 0,0" style="fill: #545464; fill-opacity: 1; fill-rule: nonzero; stroke: none" id="path2366"></path>
        </g>
        <g id="g2368" transform="translate(407.8281,147.0439)">
          <path d="m 0,0 v -117.22 h 19.411 c 16.633,0 30.117,13.484 30.117,30.117 l 0,87.103 z" style="fill: #394856; fill-opacity: 1; fill-rule: nonzero; stroke: none" id="path2370"></path>
        </g>
        <g id="g2372" transform="translate(494.8779,268.437)">
          <path d="m 0,0 h -28.909 c -5.722,0 -10.742,-3.813 -12.279,-9.324 l -7.034,-25.233 H 0 c 5.314,0 9.622,4.307 9.622,9.621 V -9.622 C 9.622,-4.308 5.314,0 0,0" style="fill: #e35052; fill-opacity: 1; fill-rule: nonzero; stroke: none" id="path2374"></path>
        </g>
        <g id="g2376" transform="translate(17.1221,268.437)">
          <path d="m 0,0 h 28.909 c 5.722,0 10.742,-3.813 12.279,-9.324 l 7.034,-25.233 H 0 c -5.314,0 -9.622,4.307 -9.622,9.621 V -9.622 C -9.622,-4.308 -5.314,0 0,0" style="fill: #e35052; fill-opacity: 1; fill-rule: nonzero; stroke: none" id="path2378"></path>
        </g>
        <g id="g2380" transform="translate(317.0586,482.1763)">
          <path d="m 0,0 h -122.117 c -5.931,0 -10.74,-4.809 -10.74,-10.741 v -19.873 c 0,-5.931 4.809,-10.74 10.74,-10.74 H 0 c 5.932,0 10.74,4.809 10.74,10.74 v 19.873 C 10.74,-4.809 5.932,0 0,0" style="fill: #28bfa6; fill-opacity: 1; fill-rule: nonzero; stroke: none" id="path2382"></path>
        </g>
        <g id="g2384" transform="translate(317.0586,482.1763)">
          <path d="M 0,0 H -38.787 V -41.354 H 0 c 5.932,0 10.74,4.809 10.74,10.74 v 19.873 C 10.74,-4.809 5.932,0 0,0" style="fill: #1ab29b; fill-opacity: 1; fill-rule: nonzero; stroke: none" id="path2386"></path>
        </g>
        <g id="g2388" transform="translate(343.6641,441.8223)">
          <path d="m 0,0 h -175.329 c -8.516,0 -15.42,-6.904 -15.42,-15.421 v -28.533 c 0,-8.516 6.904,-15.42 15.42,-15.42 H 0 c 8.517,0 15.421,6.904 15.421,15.42 v 28.533 C 15.421,-6.904 8.517,0 0,0" style="fill: #fdbd37; fill-opacity: 1; fill-rule: nonzero; stroke: none" id="path2390"></path>
        </g>
        <g id="g2392" transform="translate(343.6641,441.8223)">
          <path d="M 0,0 H -33.226 V -59.375 H 0 c 8.517,0 15.421,6.905 15.421,15.421 v 28.533 C 15.421,-6.904 8.517,0 0,0" style="fill: #fa9a39; fill-opacity: 1; fill-rule: nonzero; stroke: none" id="path2394"></path>
        </g>
        <g id="g2396" transform="translate(452.6436,238.7227)">
          <path d="m 0,0 -33.511,130.191 c -1.964,8.508 -9.539,14.535 -18.27,14.535 h -289.725 c -8.731,0 -16.307,-6.027 -18.27,-14.535 L -393.287,0 c -0.819,-3.552 -2.903,-6.683 -5.863,-8.811 l -16.661,-11.977 c -9.607,-6.906 -15.302,-18.015 -15.302,-29.846 v -58.177 c 0,-18.9 15.321,-34.222 34.222,-34.222 H 3.604 c 18.9,0 34.222,15.322 34.222,34.222 v 58.177 c 0,11.831 -5.695,22.94 -15.303,29.846 L 5.862,-8.811 C 2.903,-6.683 0.819,-3.552 0,0" style="fill: #fc6a58; fill-opacity: 1; fill-rule: nonzero; stroke: none" id="path2398"></path>
        </g>
        <g id="g2400" transform="translate(475.168,217.9346)">
          <path d="m 0,0 -16.662,11.978 c -2.959,2.127 -5.043,5.259 -5.862,8.81 l -33.511,130.191 c -1.964,8.508 -9.539,14.535 -18.271,14.535 h -49.527 c 8.731,0 16.307,-6.027 18.27,-14.535 l 33.51,-130.191 c 0.821,-3.551 2.905,-6.683 5.864,-8.81 L -49.528,0 c 9.607,-6.906 15.302,-18.015 15.302,-29.846 v -92.399 h 15.305 c 18.9,0 34.223,15.322 34.223,34.223 v 58.176 C 15.302,-18.015 9.606,-6.906 0,0" style="fill: #e35052; fill-opacity: 1; fill-rule: nonzero; stroke: none" id="path2402"></path>
        </g>
        <g id="g2404" transform="translate(421.1133,231.4463)">
          <path d="m 0,0 v 0 l -28.965,111.515 c -1.243,4.787 -5.563,8.129 -10.509,8.129 h -251.278 c -4.946,0 -9.266,-3.342 -10.509,-8.129 L -330.227,0 v 0 c -1.192,-9.545 6.25,-17.976 15.87,-17.976 H -15.869 C -6.25,-17.976 1.193,-9.545 0,0" style="fill: #d7dee3; fill-opacity: 1; fill-rule: nonzero; stroke: none" id="path2406"></path>
        </g>
        <g id="g2408" transform="translate(421.1133,231.4463)">
          <path d="m 0,0 v 0 l -28.965,111.515 c -1.243,4.787 -5.564,8.129 -10.509,8.129 H -82.725 L -51.648,0 l 2.247,-17.976 h 33.532 C -6.25,-17.976 1.193,-9.545 0,0" style="fill: #c7ced1; fill-opacity: 1; fill-rule: nonzero; stroke: none" id="path2410"></path>
        </g>
        <g id="g2412" transform="translate(113.3975,140.9434)">
          <path d="m 0,0 h -42.513 c -6.291,0 -11.391,5.1 -11.391,11.391 v 23.261 c 0,6.291 5.1,11.391 11.391,11.391 H 0 c 6.291,0 11.391,-5.1 11.391,-11.391 V 11.391 C 11.391,5.1 6.291,0 0,0" style="fill: #fed15b; fill-opacity: 1; fill-rule: nonzero; stroke: none" id="path2414"></path>
        </g>
        <g id="g2416" transform="translate(441.1152,140.9434)">
          <path d="m 0,0 h -42.513 c -6.291,0 -11.39,5.1 -11.39,11.391 v 23.261 c 0,6.291 5.099,11.391 11.39,11.391 H 0 c 6.291,0 11.392,-5.1 11.392,-11.391 V 11.391 C 11.392,5.1 6.291,0 0,0" style="fill: #fed15b; fill-opacity: 1; fill-rule: nonzero; stroke: none" id="path2418"></path>
        </g>
        <g id="g2420" transform="translate(172.9854,181.7856)">
          <path d="M 0,0 H 166.029" style="fill: none; stroke: #000; stroke-width: 15px; stroke-linecap: round; stroke-linejoin: round; stroke-miterlimit: 10; stroke-dasharray: none; stroke-opacity: 1" id="path2422"></path>
        </g>
        <g id="g2424" transform="translate(194.1724,150.3906)">
          <path d="M 0,0 H 123.655" style="fill: none; stroke: #000; stroke-width: 15px; stroke-linecap: round; stroke-linejoin: round; stroke-miterlimit: 10; stroke-dasharray: none; stroke-opacity: 1" id="path2426"></path>
        </g>
        <g id="g2428" transform="translate(213.4976,297.0415)">
          <path d="m 0,0 c 0,-16.291 -13.207,-29.498 -29.498,-29.498 -16.291,0 -29.498,13.207 -29.498,29.498 0,16.292 13.207,29.498 29.498,29.498 C -13.207,29.498 0,16.292 0,0" style="fill: #394856; fill-opacity: 1; fill-rule: nonzero; stroke: none" id="path2430"></path>
        </g>
        <g id="g2432" transform="translate(357.498,297.0415)">
          <path d="m 0,0 c 0,-16.291 -13.207,-29.498 -29.498,-29.498 -16.291,0 -29.498,13.207 -29.498,29.498 0,16.292 13.207,29.498 29.498,29.498 C -13.207,29.498 0,16.292 0,0" style="fill: #394856; fill-opacity: 1; fill-rule: nonzero; stroke: none" id="path2434"></path>
        </g>
        <g id="g2436" transform="translate(275.7021,286.0972)">
          <path d="m 0,0 c 0,-10.881 -8.821,-19.702 -19.702,-19.702 -10.881,0 -19.702,8.821 -19.702,19.702 0,10.881 8.821,19.702 19.702,19.702 C -8.821,19.702 0,10.881 0,0" style="fill: #394856; fill-opacity: 1; fill-rule: nonzero; stroke: none" id="path2438"></path>
        </g>
        <g id="g2440" transform="translate(395.999,213.4702)">
          <path d="m 0,0 c -0.927,13.269 -11.976,23.747 -25.48,23.747 h -229.038 c -13.504,0 -24.554,-10.478 -25.48,-23.747 z" style="fill: #b2b9bf; fill-opacity: 1; fill-rule: nonzero; stroke: none" id="path2442"></path>
        </g>
        <g id="g2444" transform="translate(452.6436,238.7227)">
          <path d="m 0,0 -33.511,130.191 c -1.964,8.508 -9.539,14.535 -18.27,14.535 h -289.725 c -8.731,0 -16.307,-6.027 -18.27,-14.535 L -393.287,0 c -0.819,-3.552 -2.903,-6.683 -5.863,-8.811 l -16.661,-11.977 c -9.607,-6.906 -15.302,-18.015 -15.302,-29.846 v -58.177 c 0,-18.9 15.321,-34.222 34.222,-34.222 H 3.604 c 18.9,0 34.222,15.322 34.222,34.222 v 58.177 c 0,11.831 -5.695,22.94 -15.303,29.846 L 5.862,-8.811 C 2.903,-6.683 0.819,-3.552 0,0 Z" style="fill: none; stroke: #000; stroke-width: 15px; stroke-linecap: round; stroke-linejoin: round; stroke-miterlimit: 10; stroke-dasharray: none; stroke-opacity: 1" id="path2446"></path>
        </g>
        <g id="g2448" transform="translate(113.3975,140.9434)">
          <path d="m 0,0 h -42.513 c -6.291,0 -11.391,5.1 -11.391,11.391 v 23.261 c 0,6.291 5.1,11.391 11.391,11.391 H 0 c 6.291,0 11.391,-5.1 11.391,-11.391 V 11.391 C 11.391,5.1 6.291,0 0,0 Z" style="fill: none; stroke: #000; stroke-width: 15px; stroke-linecap: round; stroke-linejoin: round; stroke-miterlimit: 10; stroke-dasharray: none; stroke-opacity: 1" id="path2450"></path>
        </g>
        <g id="g2452" transform="translate(441.1152,140.9434)">
          <path d="m 0,0 h -42.513 c -6.291,0 -11.39,5.1 -11.39,11.391 v 23.261 c 0,6.291 5.099,11.391 11.39,11.391 H 0 c 6.291,0 11.392,-5.1 11.392,-11.391 V 11.391 C 11.392,5.1 6.291,0 0,0 Z" style="fill: none; stroke: #000; stroke-width: 15px; stroke-linecap: round; stroke-linejoin: round; stroke-miterlimit: 10; stroke-dasharray: none; stroke-opacity: 1" id="path2454"></path>
        </g>
        <g id="g2456" transform="translate(208.7495,441.8223)">
          <path d="m 0,0 h -40.414 c -8.517,0 -15.42,-6.904 -15.42,-15.421 v -28.533 c 0,-6.605 4.16,-12.223 9.997,-14.42 h 186.175 c 5.837,2.197 9.997,7.815 9.997,14.42 v 28.533 C 150.335,-6.904 143.431,0 134.915,0 H 34.896" style="fill: none; stroke: #000; stroke-width: 15px; stroke-linecap: round; stroke-linejoin: round; stroke-miterlimit: 10; stroke-dasharray: none; stroke-opacity: 1" id="path2458"></path>
        </g>
        <g id="g2460" transform="translate(243.646,441.8223)">
          <path d="m 0,0 h 77.917 c 3.678,1.704 6.236,5.419 6.236,9.74 v 19.873 c 0,5.932 -4.809,10.741 -10.74,10.741 H -48.704 c -5.932,0 -10.741,-4.809 -10.741,-10.741 V 9.74 c 0,-4.321 2.558,-8.036 6.237,-9.74 h 18.312" style="fill: none; stroke: #000; stroke-width: 15px; stroke-linecap: round; stroke-linejoin: round; stroke-miterlimit: 10; stroke-dasharray: none; stroke-opacity: 1" id="path2462"></path>
        </g>
        <g id="g2464" transform="translate(61.583,247.3711)">
          <path d="m 0,0 -3.273,11.742 c -1.537,5.511 -6.557,9.324 -12.279,9.324 h -28.909 c -5.314,0 -9.622,-4.308 -9.622,-9.622 V -3.87 c 0,-5.314 4.308,-9.621 9.622,-9.621 h 40.164" style="fill: none; stroke: #000; stroke-width: 15px; stroke-linecap: round; stroke-linejoin: round; stroke-miterlimit: 10; stroke-dasharray: none; stroke-opacity: 1" id="path2466"></path>
        </g>
        <g id="g2468" transform="translate(370.1982,237.2173)">
          <path d="m 0,0 c -3.925,17.359 -19.433,30.326 -37.979,30.326 h -8.438 C -64.963,30.326 -80.471,17.359 -84.396,0 Z" style="fill: #375779; fill-opacity: 1; fill-rule: nonzero; stroke: none" id="path2470"></path>
        </g>
        <g id="g2472" transform="translate(284.833,237.2173)">
          <path d="M 0,0 V 3.163 C 0,17.53 -11.647,29.178 -26.015,29.178 h -5.636 c -14.368,0 -26.015,-11.648 -26.015,-26.015 V 0 Z" style="fill: #375779; fill-opacity: 1; fill-rule: nonzero; stroke: none" id="path2474"></path>
        </g>
        <g id="g2476" transform="translate(226.1978,237.2173)">
          <path d="m 0,0 c -3.925,17.359 -19.433,30.326 -37.979,30.326 h -8.438 C -64.963,30.326 -80.471,17.359 -84.396,0 Z" style="fill: #375779; fill-opacity: 1; fill-rule: nonzero; stroke: none" id="path2478"></path>
        </g>
        <g id="g2480" transform="translate(213.4976,297.0415)">
          <path d="m 0,0 c 0,-16.291 -13.207,-29.498 -29.498,-29.498 -16.291,0 -29.498,13.207 -29.498,29.498 0,16.292 13.207,29.498 29.498,29.498 C -13.207,29.498 0,16.292 0,0 Z" style="fill: none; stroke: #000; stroke-width: 15px; stroke-linecap: round; stroke-linejoin: round; stroke-miterlimit: 10; stroke-dasharray: none; stroke-opacity: 1" id="path2482"></path>
        </g>
        <g id="g2484" transform="translate(357.498,297.0415)">
          <path d="m 0,0 c 0,-16.291 -13.207,-29.498 -29.498,-29.498 -16.291,0 -29.498,13.207 -29.498,29.498 0,16.292 13.207,29.498 29.498,29.498 C -13.207,29.498 0,16.292 0,0 Z" style="fill: none; stroke: #000; stroke-width: 15px; stroke-linecap: round; stroke-linejoin: round; stroke-miterlimit: 10; stroke-dasharray: none; stroke-opacity: 1" id="path2486"></path>
        </g>
        <g id="g2488" transform="translate(275.7021,286.0972)">
          <path d="m 0,0 c 0,-10.881 -8.821,-19.702 -19.702,-19.702 -10.881,0 -19.702,8.821 -19.702,19.702 0,10.881 8.821,19.702 19.702,19.702 C -8.821,19.702 0,10.881 0,0 Z" style="fill: none; stroke: #000; stroke-width: 15px; stroke-linecap: round; stroke-linejoin: round; stroke-miterlimit: 10; stroke-dasharray: none; stroke-opacity: 1" id="path2490"></path>
        </g>
        <g id="g2492" transform="translate(395.999,213.4702)">
          <path d="m 0,0 c -0.927,13.269 -11.976,23.747 -25.48,23.747 h -229.038 c -13.504,0 -24.554,-10.478 -25.48,-23.747" style="fill: none; stroke: #000; stroke-width: 15px; stroke-linecap: round; stroke-linejoin: round; stroke-miterlimit: 10; stroke-dasharray: none; stroke-opacity: 1" id="path2494"></path>
        </g>
        <g id="g2496" transform="translate(370.1982,237.2173)">
          <path d="m 0,0 c -3.925,17.359 -19.433,30.326 -37.979,30.326 h -8.438 C -64.963,30.326 -80.471,17.359 -84.396,0" style="fill: none; stroke: #000; stroke-width: 15px; stroke-linecap: round; stroke-linejoin: round; stroke-miterlimit: 10; stroke-dasharray: none; stroke-opacity: 1" id="path2498"></path>
        </g>
        <g id="g2500" transform="translate(284.833,237.2173)">
          <path d="M 0,0 V 3.163 C 0,17.53 -11.647,29.178 -26.015,29.178 h -5.636 c -14.368,0 -26.015,-11.648 -26.015,-26.015 V 0" style="fill: none; stroke: #000; stroke-width: 15px; stroke-linecap: round; stroke-linejoin: round; stroke-miterlimit: 10; stroke-dasharray: none; stroke-opacity: 1" id="path2502"></path>
        </g>
        <g id="g2504" transform="translate(226.1978,237.2173)">
          <path d="m 0,0 c -3.925,17.359 -19.433,30.326 -37.979,30.326 h -8.438 C -64.963,30.326 -80.471,17.359 -84.396,0" style="fill: none; stroke: #000; stroke-width: 15px; stroke-linecap: round; stroke-linejoin: round; stroke-miterlimit: 10; stroke-dasharray: none; stroke-opacity: 1" id="path2506"></path>
        </g>
        <g id="g2508" transform="translate(104.1802,282.627)">
          <path d="m 0,0 -13.293,-51.18 v -10e-4 c -1.193,-9.545 6.249,-17.976 15.869,-17.976 h 298.488 c 9.619,0 17.062,8.431 15.869,17.976 L 303.73,-0.347" style="fill: none; stroke: #000; stroke-width: 15px; stroke-linecap: round; stroke-linejoin: round; stroke-miterlimit: 10; stroke-dasharray: none; stroke-opacity: 1" id="path2510"></path>
        </g>
        <g id="g2512" transform="translate(399.043,316.4185)">
          <path d="m 0,0 -6.895,26.543 c -1.243,4.787 -5.563,8.128 -10.508,8.128 h -251.279 c -4.945,0 -9.266,-3.341 -10.509,-8.128 l -6.898,-26.557" style="fill: none; stroke: #000; stroke-width: 15px; stroke-linecap: round; stroke-linejoin: round; stroke-miterlimit: 10; stroke-dasharray: none; stroke-opacity: 1" id="path2514"></path>
        </g>
        <g id="g2516" transform="translate(55.7529,95.6895)">
          <path d="m 0,0 c -0.372,0 -0.74,0.016 -1.109,0.028 v -35.777 c 0,-16.633 13.484,-30.117 30.117,-30.117 h 20.016 c 16.634,0 30.118,13.484 30.118,30.117 V 0" style="fill: none; stroke: #000; stroke-width: 15px; stroke-linecap: round; stroke-linejoin: round; stroke-miterlimit: 10; stroke-dasharray: none; stroke-opacity: 1" id="path2518"></path>
        </g>
        <g id="g2520" transform="translate(377.1055,95.6895)">
          <path d="m 0,0 v -35.749 c 0,-16.633 13.484,-30.117 30.117,-30.117 h 20.017 c 16.633,0 30.117,13.484 30.117,30.117 V 0.028" style="fill: none; stroke: #000; stroke-width: 15px; stroke-linecap: round; stroke-linejoin: round; stroke-miterlimit: 10; stroke-dasharray: none; stroke-opacity: 1" id="path2522"></path>
        </g>
        <g id="g2524" transform="translate(454.7139,233.8799)">
          <path d="m 0,0 h 40.164 c 5.315,0 9.622,4.308 9.622,9.622 v 15.314 c 0,5.314 -4.307,9.622 -9.622,9.622 H 11.255 c -5.722,0 -10.742,-3.813 -12.278,-9.325 L -4.297,13.491" style="fill: none; stroke: #000; stroke-width: 15px; stroke-linecap: round; stroke-linejoin: round; stroke-miterlimit: 10; stroke-dasharray: none; stroke-opacity: 1" id="path2526"></path>
        </g>
      </g>
    </g>
  </g>
</svg>
