<?xml version="1.0" encoding="UTF-8"?>
<svg xmlns="http://www.w3.org/2000/svg" xmlns:xlink="http://www.w3.org/1999/xlink" version="1.1" id="Capa_1" x="0px" y="0px" viewBox="0 0 512 512" style="enable-background: new 0 0 512 512" xml:space="preserve" width="512" height="512">
<g>
	<g>
		<rect x="268.37" y="213.087" style="fill: #685e68" width="100.8" height="136.125"></rect>
		<rect x="154.119" y="213.087" style="fill: #685e68" width="87.731" height="131.87"></rect>
		<path style="fill: #f79595" d="M364.895,324.257l-45.794-10.593l-16.726-3.869c-5.442-1.259-9.296-6.106-9.296-11.691v-58.468&#10;&#9;&#9;&#9;c0-6.627-5.373-12-12-12h-50.16c-6.627,0-12,5.373-12,12v58.468c0,5.586-3.854,10.432-9.296,11.691l-16.726,3.869l-45.794,10.593&#10;&#9;&#9;&#9;c-26.208,6.062-45.974,27.642-49.718,54.28L82.083,487.412c-1.269,9.026,5.739,17.088,14.854,17.088h318.127&#10;&#9;&#9;&#9;c9.115,0,16.123-8.062,14.854-17.088l-15.304-108.875C410.869,351.899,391.103,330.32,364.895,324.257z"></path>
		<path style="fill: #ffdfcf" d="M319.1,313.67l-25.3,76.5l-37.107,23.091L218.2,390.17l-25.3-76.5l16.72-3.87&#10;&#9;&#9;&#9;c5.45-1.26,9.3-6.11,9.3-11.7v-58.46c0-6.63,5.37-12,12-12h50.16c6.63,0,12,5.37,12,12v58.46c0,5.59,3.85,10.44,9.3,11.7&#10;&#9;&#9;&#9;L319.1,313.67z"></path>
		<path style="fill: #ffcebf" d="M281.08,227.64h-50.16h0c-6.627,0-12,5.373-12,12v58.46c0,5.59-3.85,10.44-9.3,11.7l-16.72,3.87&#10;&#9;&#9;&#9;l5.77,17.44l35.945-8.309c5.447-1.259,9.305-6.11,9.305-11.701v-11.357c0-2.356,2.023-4.177,4.371-3.978&#10;&#9;&#9;&#9;c2.541,0.215,5.112,0.326,7.709,0.326c13.21,0,25.77-2.84,37.08-7.94v-48.51C293.08,233.013,287.707,227.64,281.08,227.64z"></path>
		<polygon style="fill: #f2fbff" points="293.8,390.17 256,504.5 218.2,390.17 &#9;&#9;"></polygon>
		<path style="fill: #f47c7c" d="M198.671,331.115l-26.568,6.145c-26.2,6.06-45.97,27.64-49.71,54.28l-13.57,96.53&#10;&#9;&#9;&#9;c-1.05,7.47,3.58,14.33,10.44,16.43h-22.32c-9.12,0-16.13-8.06-14.86-17.09l15.31-108.87c3.74-26.64,23.51-48.22,49.71-54.28&#10;&#9;&#9;&#9;l45.797-10.592L198.671,331.115z"></path>
		<path style="fill: #ffeee6" d="M340.049,218.606c-13.137,33.648-45.868,57.486-84.167,57.486h0&#10;&#9;&#9;&#9;c-38.07,0-70.639-23.554-83.93-56.883V72.957h169.484L340.049,218.606z"></path>
		<path style="fill: #ffdfcf" d="M264.341,275.812c-2.42,0.19-4.87,0.28-7.34,0.28c-51.39,0-93.05-40.12-93.05-89.6v-68.96&#10;&#9;&#9;&#9;l25.24-1.3v70.26C189.191,230.422,221.421,267.102,264.341,275.812z"></path>
		<path style="fill: #7a6d79" d="M276.43,100.4l33.16,25.62c15.85,12.25,23.39,32.45,19.37,52.08&#10;&#9;&#9;&#9;c-10.681,52.103-10.418,98.989,2.689,138.467l33.246,7.69c9.84,2.276,18.771,6.74,26.288,12.837&#10;&#9;&#9;&#9;c8.798-24.595,23.457-37.316,23.457-79.725c0-60.57-29.92-60.57-29.92-121.15C384.72,65.13,327.09,7.5,256,7.5v51.29&#10;&#9;&#9;&#9;C256,75.08,263.55,90.44,276.43,100.4z"></path>
		<path style="fill: #685e68" d="M291.02,111.67l-14.59-11.27C263.55,90.44,256,75.08,256,58.79V7.5c8.55,0,16.91,0.83,25,2.43&#10;&#9;&#9;&#9;v70.86C281,92.01,284.58,102.79,291.02,111.67z"></path>
		<path style="fill: #7a6d79" d="M147.105,324.257l33.246-7.69c13.108-39.478,13.37-86.364,2.69-138.467&#10;&#9;&#9;&#9;c-4.02-19.63,3.52-39.83,19.37-52.08l33.16-25.62C248.45,90.44,256,75.08,256,58.79V7.5c-35.54,0-67.72,14.41-91.02,37.7&#10;&#9;&#9;&#9;c-23.29,23.3-37.7,55.48-37.7,91.02c0,60.58-29.92,60.58-29.92,121.15c0,42.407,14.659,55.133,23.455,79.726&#10;&#9;&#9;&#9;C128.332,330.998,137.264,326.534,147.105,324.257z"></path>
		<path style="fill: #685e68" d="M141.183,325.937c-8.515-18.317-18.823-33.005-18.823-68.563&#10;&#9;&#9;&#9;c0-60.576,29.918-60.576,29.918-121.152c0-66.873,50.997-121.83,116.222-128.116C264.386,7.709,260.218,7.5,256,7.5h0&#10;&#9;&#9;&#9;c-71.091,0-128.722,57.631-128.722,128.722c0,60.576-29.918,60.576-29.918,121.152c0,42.404,14.659,55.128,23.455,79.722&#10;&#9;&#9;&#9;C126.793,332.247,133.67,328.441,141.183,325.937z"></path>
	</g>
	<g>
		<path style="fill: none; stroke: #000; stroke-width: 15px; stroke-linecap: round; stroke-linejoin: round; stroke-miterlimit: 10" d="&#10;&#9;&#9;&#9;M120.81,337.09c-8.79-24.59-23.45-37.32-23.45-79.72c0-60.57,29.92-60.57,29.92-121.15c0-35.54,14.41-67.72,37.7-91.02&#10;&#9;&#9;&#9;C188.28,21.91,220.46,7.5,256,7.5c71.09,0,128.72,57.63,128.72,128.72c0,51.54,21.66,59.23,28.12,97.68"></path>
		<path style="fill: none; stroke: #000; stroke-width: 15px; stroke-linecap: round; stroke-linejoin: round; stroke-miterlimit: 10" d="&#10;&#9;&#9;&#9;M391.19,337.09c7.94-22.21,20.67-34.75,23.05-68.21"></path>
		<path style="fill: none; stroke: #000; stroke-width: 15px; stroke-linecap: round; stroke-linejoin: round; stroke-miterlimit: 10" d="&#10;&#9;&#9;&#9;M218.92,268.2v29.9c0,5.59-3.85,10.44-9.3,11.7l-62.52,14.46c-26.2,6.06-45.97,27.64-49.71,54.28l-3.57,25.41"></path>
		<path style="fill: none; stroke: #000; stroke-width: 15px; stroke-linecap: round; stroke-linejoin: round; stroke-miterlimit: 10" d="&#10;&#9;&#9;&#9;M293.08,268.09v30.01c0,5.59,3.85,10.44,9.3,11.7l62.52,14.46c26.2,6.06,45.97,27.64,49.71,54.28l15.31,108.87&#10;&#9;&#9;&#9;c1.27,9.03-5.74,17.09-14.86,17.09H96.94c-9.12,0-16.13-8.06-14.86-17.09l6.86-48.79"></path>
		<path style="fill: none; stroke: #000; stroke-width: 15px; stroke-linecap: round; stroke-linejoin: round; stroke-miterlimit: 10" d="&#10;&#9;&#9;&#9;M256,7.5v51.29c0,16.29-7.55,31.65-20.43,41.61l-33.16,25.62c-15.85,12.25-23.39,32.45-19.37,52.08&#10;&#9;&#9;&#9;c10.68,52.1,10.43,98.99-2.68,138.47"></path>
		<path style="fill: none; stroke: #000; stroke-width: 15px; stroke-linecap: round; stroke-linejoin: round; stroke-miterlimit: 10" d="&#10;&#9;&#9;&#9;M256,7.5v51.29c0,16.29,7.55,31.65,20.43,41.61l33.16,25.62c15.85,12.25,23.39,32.45,19.37,52.08&#10;&#9;&#9;&#9;c-10.68,52.1-10.43,98.99,2.68,138.47"></path>
		<path style="fill: none; stroke: #000; stroke-width: 15px; stroke-linecap: round; stroke-linejoin: round; stroke-miterlimit: 10" d="&#10;&#9;&#9;&#9;M190.66,248.26c16.44,17.15,39.58,27.83,65.22,27.83c19.15,0,36.91-5.96,51.52-16.13c5.05-3.51,9.72-7.52,13.94-11.97"></path>
		
			<line style="fill: none; stroke: #000; stroke-width: 15px; stroke-linecap: round; stroke-linejoin: round; stroke-miterlimit: 10" x1="162.256" y1="504.5" x2="162.256" y2="418.13"></line>
		
			<line style="fill: none; stroke: #000; stroke-width: 15px; stroke-linecap: round; stroke-linejoin: round; stroke-miterlimit: 10" x1="349.744" y1="418.13" x2="349.744" y2="504.5"></line>
		
			<line style="fill: none; stroke: #000; stroke-width: 15px; stroke-linecap: round; stroke-linejoin: round; stroke-miterlimit: 10" x1="295.098" y1="149.467" x2="295.098" y2="163.021"></line>
		
			<line style="fill: none; stroke: #000; stroke-width: 15px; stroke-linecap: round; stroke-linejoin: round; stroke-miterlimit: 10" x1="216.902" y1="149.467" x2="216.902" y2="163.021"></line>
		<path style="fill: none; stroke: #000; stroke-width: 15px; stroke-linecap: round; stroke-linejoin: round; stroke-miterlimit: 10" d="&#10;&#9;&#9;&#9;M248.508,183.835c4.467,3.246,10.516,3.246,14.984,0"></path>
		
			<polyline style="fill: none; stroke: #000; stroke-width: 15px; stroke-linecap: round; stroke-linejoin: round; stroke-miterlimit: 10" points="&#10;&#9;&#9;&#9;192.9,313.67 256,504.5 319.1,313.67 &#9;&#9;"></polyline>
		
			<line style="fill: none; stroke: #000; stroke-width: 15px; stroke-linecap: round; stroke-linejoin: round; stroke-miterlimit: 10" x1="216.49" y1="390.17" x2="295.51" y2="390.17"></line>
		<path style="fill: none; stroke: #000; stroke-width: 15px; stroke-linecap: round; stroke-linejoin: round; stroke-miterlimit: 10" d="&#10;&#9;&#9;&#9;M236.578,224.336c10.918,10.253,27.926,10.253,38.844,0"></path>
	</g>
</g>















</svg>
