<svg id="Capa_1" enable-background="new 0 0 511.958 511.958" height="512" viewBox="0 0 511.958 511.958" width="512" xmlns="http://www.w3.org/2000/svg"><path d="m318.352 225.173c-24.769 0-44.915 19.731-45.613 44.331v36.764h83.416v-81.095z" fill="#8379c1"></path><path d="m439.199 77.349 13.705 91.246c1.483 9.873.079 19.991-4.025 28.99-7.693 16.871-23.797 27.588-41.455 27.588h-47.219-.174-47.221c-17.658 0-33.763-10.717-41.455-27.588-4.104-8.999-5.508-19.117-4.025-28.99l13.707-91.257c2.846-18.951 16.98-33.73 34.874-36.468 29.262-4.478 58.978-4.484 88.241-.016l.161.024c17.899 2.733 32.039 17.515 34.886 36.471z" fill="#acacac"></path><path d="m360.091 225.173c-10.441 0-20.382-2.131-29.418-5.977v17.935c0 16.247 13.171 29.418 29.418 29.418 16.247 0 29.418-13.171 29.418-29.418v-17.935c-9.036 3.847-18.977 5.977-29.418 5.977z" fill="#ffa78f"></path><path d="m486.862 431.901c9.11-10.782 13.435-25.817 11.729-40.774l-5.691-49.893c-6.147-53.897-42.639-99.5-93.876-117.318l-52.46 18.242c-19.085 6.637-33.038 25.619-35.647 48.501l-11.459 100.468c-1.706 14.957 2.619 29.992 11.729 40.774 7.975 9.438 18.896 14.759 30.299 14.759h115.076c11.404 0 22.326-5.321 30.3-14.759z" fill="#c86d36"></path><path d="m498.592 391.127-5.691-49.893c-6.147-53.897-42.639-99.501-93.876-117.318l-16.988 5.908c43.606 20.773 73.948 62.702 79.504 111.41l5.691 49.893c1.706 14.957-2.619 29.992-11.729 40.774-7.975 9.438-18.896 14.759-30.299 14.759h31.361c11.403 0 22.324-5.32 30.299-14.759 9.109-10.782 13.434-25.817 11.728-40.774z" fill="#ac5e2e"></path><path d="m452.904 168.594-13.705-91.246c-2.847-18.955-16.988-33.737-34.887-36.47l-.161-.024c-18.232-2.783-36.64-3.829-55.004-3.14 11.066.417 22.116 1.463 33.102 3.14l.161.024c17.9 2.733 32.04 17.515 34.887 36.47l13.705 91.246c1.483 9.873.078 19.991-4.025 28.99-7.693 16.871-23.797 27.588-41.455 27.588h21.902c17.658 0 33.763-10.717 41.455-27.588 4.103-8.999 5.508-19.117 4.025-28.99z" fill="#9c9c9c"></path><path d="m479.371 504.106h-160.926v-39.006c0-15.885 12.877-28.762 28.762-28.762h103.4c15.885 0 28.762 12.877 28.762 28.762z" fill="#f58a97"></path><path d="m450.609 436.338h-28.51c15.885 0 28.762 12.877 28.762 28.762v39.005h28.51v-39.005c0-15.885-12.878-28.762-28.762-28.762z" fill="#f07281"></path><path d="m190.109 225.173c25.21 0 45.647 20.437 45.647 45.647v48.492h-91.008v-94.138z" fill="#0ab69f"></path><path d="m184.951 233.676v-41.371h-58.835v41.371c0 16.247 13.171 29.418 29.418 29.418 16.246-.001 29.417-13.171 29.417-29.418z" fill="#ffcebf"></path><path d="m155.533 57.728h-72.382c-11.594 0-20.991 9.398-20.991 20.991v54.953h93.373z" fill="#acacac"></path><path d="m155.533 57.728h-72.382c-11.594 0-20.991 9.398-20.991 20.991v54.953h93.373z" fill="#acacac"></path><path d="m233.028 111.387c-.36 0-.716.013-1.072.027-6.142-36.727-38.071-64.72-76.542-64.72-38.471 0-70.4 27.993-76.542 64.72-.356-.015-.713-.027-1.072-.027-14.555 0-26.355 11.799-26.355 26.355s11.8 26.355 26.355 26.355c.36 0 .716-.013 1.072-.027 6.142 36.727 38.071 64.72 76.542 64.72 38.471 0 70.4-27.993 76.542-64.72.356.015.713.027 1.072.027 14.555 0 26.355-11.8 26.355-26.355s-11.799-26.355-26.355-26.355z" fill="#ffcebf"></path><path d="m209.693 158.621c-4.101 0-7.142 0-11.309 0-2.808 0-5.086 2.277-5.086 5.086s2.277 5.086 5.086 5.086h11.309c2.808 0 5.086-2.277 5.086-5.086-.001-2.809-2.278-5.086-5.086-5.086z" fill="#fe8f83"></path><path d="m209.693 158.621c-4.101 0-7.142 0-11.309 0-2.808 0-5.086 2.277-5.086 5.086s2.277 5.086 5.086 5.086h11.309c2.808 0 5.086-2.277 5.086-5.086-.001-2.809-2.278-5.086-5.086-5.086z" fill="#fe8f83"></path><path d="m112.175 158.621c-4.101 0-7.142 0-11.309 0-2.808 0-5.086 2.277-5.086 5.086s2.277 5.086 5.086 5.086h11.309c2.808 0 5.086-2.277 5.086-5.086s-2.278-5.086-5.086-5.086z" fill="#fe8f83"></path><path d="m233.028 111.387c-.36 0-.716.013-1.072.027-6.142-36.727-38.071-64.72-76.542-64.72-2.908 0-5.777.168-8.603.48 34.592 3.772 62.355 30.258 68.038 64.24.356-.015.713-.027 1.072-.027 14.555 0 26.355 11.799 26.355 26.355s-11.799 26.355-26.354 26.355c-.36 0-.716-.013-1.072-.027-5.683 33.982-33.447 60.467-68.038 64.24 2.825.312 5.694.48 8.602.48 38.471 0 70.4-27.993 76.542-64.72.356.015.713.027 1.072.027 14.555 0 26.355-11.8 26.355-26.355s-11.799-26.355-26.355-26.355z" fill="#ffb09e"></path><path d="m189.475 504.106h-160.926v-39.006c0-15.885 12.877-28.762 28.762-28.762h103.4c15.885 0 28.762 12.877 28.762 28.762z" fill="#82aee3"></path><path d="m160.713 436.338h-28.51c15.885 0 28.762 12.877 28.762 28.762v39.005h28.51v-39.005c0-15.885-12.877-28.762-28.762-28.762z" fill="#528fd8"></path><path d="m139.459 431.284v-42.66h-60.669v42.66c0 16.753 13.581 30.335 30.335 30.335 16.753-.001 30.334-13.582 30.334-30.335z" fill="#ffa78f"></path><path d="m430.621 424.321v-44.434h-63.192v44.434c0 17.45 14.146 31.596 31.596 31.596 17.45 0 31.596-14.146 31.596-31.596z" fill="#ffa78f"></path><path d="m435.27 111.455c-.348 0-.694.013-1.038.026-5.949-35.575-36.876-62.689-74.14-62.689-37.264 0-68.19 27.114-74.14 62.689-.345-.014-.69-.026-1.038-.026-14.099 0-25.528 11.429-25.528 25.528 0 14.1 11.43 25.528 25.528 25.528.348 0 .694-.013 1.038-.026 5.949 35.575 36.876 62.689 74.14 62.689 37.264 0 68.19-27.114 74.14-62.689.345.014.69.026 1.038.026 14.099 0 25.528-11.43 25.528-25.528s-11.43-25.528-25.528-25.528z" fill="#ffcebf"></path><path d="m435.27 111.455c-.348 0-.694.013-1.038.026-5.949-35.575-36.876-62.689-74.14-62.689-2.893 0-5.742.18-8.549.501 33.349 3.781 60.083 29.365 65.579 62.164.158.001.314.009.471.012.191-.006.38-.015.572-.015 14.099 0 25.528 11.429 25.528 25.528 0 14.1-11.43 25.528-25.528 25.528-.192 0-.382-.009-.572-.015-.157.004-.313.012-.471.012-5.497 32.8-32.231 58.384-65.58 62.164 2.807.321 5.657.501 8.55.501 37.264 0 68.19-27.114 74.14-62.689.345.014.69.026 1.038.026 14.099 0 25.528-11.43 25.528-25.528s-11.43-25.526-25.528-25.526z" fill="#ffb09e"></path><path d="m115.211 234.685h-57.548c-17.774 0-31.725 15.236-30.164 32.941l8.301 94.149h79.411z" fill="#9e5528"></path><path d="m475.166 309.318c-.353 0-.704.013-1.054.026-6.035-36.085-37.405-63.588-75.203-63.588-37.798 0-69.169 27.503-75.203 63.588-.35-.015-.7-.026-1.054-.026-14.301 0-25.895 11.593-25.895 25.894s11.594 25.895 25.895 25.895c.354 0 .704-.013 1.054-.026 6.035 36.085 37.405 63.588 75.203 63.588 37.798 0 69.169-27.503 75.203-63.588.35.015.7.026 1.054.026 14.301 0 25.895-11.594 25.895-25.895s-11.594-25.894-25.895-25.894z" fill="#ffcebf"></path><path d="m209.693 158.621c-4.101 0-7.142 0-11.309 0-2.808 0-5.086 2.277-5.086 5.086s2.277 5.086 5.086 5.086h11.309c2.808 0 5.086-2.277 5.086-5.086-.001-2.809-2.278-5.086-5.086-5.086z" fill="#fe8f83"></path><path d="m271.491 111.481h98.738c26.708 0 48.36-21.651 48.36-48.36 0-24.663-19.993-44.656-44.656-44.656h-40.177c-34.388 0-62.265 27.877-62.265 62.265z" fill="#bfbfbf"></path><path d="m373.932 18.465h-21.902c24.663 0 44.656 19.993 44.656 44.656 0 26.708-21.651 48.36-48.36 48.36h21.902c26.708 0 48.36-21.651 48.36-48.36.001-24.662-19.992-44.656-44.656-44.656z" fill="#acacac"></path><path d="m182.225 312.054c-.339 0-.676.012-1.011.025-5.794-34.644-35.911-61.049-72.201-61.049-36.289 0-66.407 26.405-72.201 61.049-.336-.014-.672-.025-1.011-.025-13.73 0-24.86 11.13-24.86 24.86s11.13 24.86 24.86 24.86c.339 0 .676-.012 1.011-.025 5.794 34.644 35.911 61.048 72.201 61.048 36.289 0 66.407-26.405 72.201-61.048.336.014.672.025 1.011.025 13.73 0 24.86-11.13 24.86-24.86s-11.13-24.86-24.86-24.86z" fill="#ffcebf"></path><path d="m248.548 54.773c0-25.93-21.02-46.95-46.95-46.95h-20.5-30.705-8.935c-28.596 0-51.776 23.18-51.776 51.775 0 28.595 23.18 51.775 51.775 51.775h90.378 16.712z" fill="#bfbfbf"></path><path d="m201.597 7.824h-20.5-8.011c25.93 0 46.95 21.02 46.95 46.95v56.599h11.798 16.712v-56.6c.002-25.929-21.018-46.949-46.949-46.949z" fill="#acacac"></path><path d="m316.342 158.389c-3.884 0-6.764 0-10.709 0-2.66 0-4.816 2.156-4.816 4.816s2.156 4.816 4.816 4.816h10.709c2.66 0 4.816-2.156 4.816-4.816s-2.156-4.816-4.816-4.816z" fill="#fe8f83"></path><path d="m414.549 158.389c-3.884 0-6.764 0-10.709 0-2.66 0-4.816 2.156-4.816 4.816s2.156 4.816 4.816 4.816h10.709c2.66 0 4.816-2.156 4.816-4.816s-2.156-4.816-4.816-4.816z" fill="#fe8f83"></path><path d="m475.166 309.318c-.354 0-.704.013-1.054.026-6.035-36.085-37.405-63.588-75.203-63.588-2.894 0-5.743.18-8.553.494 33.895 3.786 61.078 29.771 66.651 63.094.35-.015.7-.026 1.054-.026 14.301 0 25.895 11.593 25.895 25.894s-11.594 25.895-25.895 25.895c-.353 0-.704-.013-1.054-.026-5.573 33.323-32.756 59.308-66.651 63.094 2.809.314 5.66.493 8.553.493 37.798 0 69.169-27.503 75.203-63.588.35.015.7.026 1.054.026 14.301 0 25.895-11.594 25.895-25.895 0-14.3-11.594-25.893-25.895-25.893z" fill="#ffb09e"></path><path d="m182.225 312.054c-.339 0-.676.012-1.011.025-5.794-34.644-35.911-61.049-72.201-61.049-2.895 0-5.746.186-8.553.513 32.381 3.771 58.316 28.656 63.648 60.536.336-.014.672-.025 1.011-.025 13.73 0 24.86 11.13 24.86 24.86s-11.13 24.86-24.86 24.86c-.339 0-.676-.012-1.011-.025-5.332 31.88-31.266 56.766-63.648 60.536 2.808.327 5.658.513 8.553.513 36.289 0 66.407-26.405 72.201-61.048.336.014.672.025 1.011.025 13.73 0 24.86-11.13 24.86-24.86 0-13.731-11.13-24.861-24.86-24.861z" fill="#ffb09e"></path><path d="m485.662 309.344h-96.985c-27.091 0-49.054-21.962-49.054-49.054 0-25.016 20.28-45.297 45.297-45.297h37.584c34.881 0 63.158 28.277 63.158 63.158z" fill="#d77f4a"></path><path d="m422.504 214.995h-28.51c34.881 0 63.158 28.277 63.158 63.158v31.192h28.51v-31.192c0-34.882-28.276-63.158-63.158-63.158z" fill="#c86d36"></path><path d="m198.163 312.08h-100.157c-27.597 0-49.968-22.372-49.968-49.968v-13.451c0-20.168 16.35-36.517 36.517-36.517h64.243c27.264 0 49.366 22.101 49.366 49.366v50.57z" fill="#ac5e2e"></path><path d="m148.797 212.144h-28.51c27.264 0 49.366 22.101 49.366 49.366v50.571h28.51v-50.571c0-27.265-22.102-49.366-49.366-49.366z" fill="#9e5528"></path><path d="m323.289 363.109c-.517-3.684-1.279-7.119-2.497-10.094-2.416-7.281-9.318-12.127-16.99-12.127-12.489 0-20.418 13.515-14.182 24.337.134.233 1.85 3.156 1.986 3.388-11.118 3.275-22.966-5.794-31.25-14.419.838 6.828 3.51 10.775 5.648 14.419-12.26 3.612-24.198-5.224-33.029-14.419.838 6.828 3.509 10.774 5.648 14.419-19.87 5.852-42.082-27.725-42.082-27.725-3.831 6.773-6.542 14.262-7.873 22.221-.313-.013-.627-.024-.943-.024-12.8 0-23.176 10.377-23.176 23.176 0 12.801 10.377 23.176 23.176 23.176.316 0 .63-.012.943-.024 5.402 32.298 33.479 56.914 67.311 56.914 33.831 0 61.909-24.617 67.311-56.914.313.013.627.024.943.024 12.8 0 23.176-10.377 23.176-23.176 0-8.563-4.646-16.035-11.549-20.047-1.265-.736-2.607-1.353-4.009-1.843-2.945-.96-5.806-1.419-8.562-1.262z" fill="#ffcebf"></path><path d="m323.289 363.108c-.701-3.842-1.516-7.268-2.497-10.094-2.416-7.281-9.318-12.127-16.99-12.127-3.117 0-5.949.842-8.349 2.273 3.799 2.104 6.805 5.547 8.232 9.853 1.061 3.029 1.891 6.395 2.497 10.094 4.349-.207 8.711.885 12.572 3.107 6.904 4.013 11.549 11.485 11.549 20.046 0 12.801-10.377 23.176-23.176 23.176-.316 0-.63-.012-.943-.024-4.938 29.531-28.839 52.627-58.758 56.37 2.803.351 5.655.545 8.553.545 33.831 0 61.909-24.616 67.311-56.914.313.013.627.024.943.024 12.801 0 23.176-10.377 23.176-23.176 0-8.562-4.646-16.034-11.549-20.047 0 .001-5.056-3.348-12.571-3.106z" fill="#ffb09e"></path><path d="m271.006 266.59h-11.789c-14.821 0-28.43 5.175-39.129 13.811.041-.033.079-.068.12-.101-24.929 4.265-43.904 25.975-43.904 52.121v8.466 25.209c3.372-1.914 7.267-3.012 11.421-3.012.316 0 .63.012.943.024 1.331-7.958 4.042-15.449 7.873-22.221 0 0 22.213 33.577 42.082 27.725-2.138-3.645-4.81-7.592-5.648-14.419 8.831 9.195 20.769 18.031 33.029 14.419-2.138-3.643-4.81-7.592-5.648-14.419 8.283 8.625 20.132 17.693 31.25 14.419-.137-.233-1.852-3.156-1.986-3.388-6.236-10.821 1.693-24.337 14.182-24.337 7.68 0 14.59 4.856 16.999 12.148 1.075 3.256 1.913 6.62 2.49 10.072.313-.013.627-.024.943-.024 4.24 0 8.211 1.144 11.63 3.132 0-.658 0-34.892 0-34.769-.002-35.818-29.039-64.856-64.858-64.856z" fill="#ac5e2e"></path><path d="m271.006 266.59h-11.789c-2.83 0-5.614.192-8.343.556 31.859 4.112 56.48 31.323 56.48 64.301 0-.044 0 4.237 0 9.804 6.189 1.238 11.418 5.639 13.447 11.784 1.075 3.256 1.913 6.62 2.49 10.072.313-.013.627-.024.943-.024 4.24 0 8.211 1.144 11.63 3.132 0-.658 0-34.892 0-34.769-.002-35.818-29.039-64.856-64.858-64.856z" fill="#9e5528"></path><g fill="#fe8f83"><path d="m65.376 356.958c-3.884 0-6.764 0-10.709 0-2.66 0-4.816 2.156-4.816 4.816s2.156 4.816 4.816 4.816h10.709c2.66 0 4.816-2.156 4.816-4.816s-2.156-4.816-4.816-4.816z"></path><path d="m163.583 356.958c-3.884 0-6.764 0-10.709 0-2.66 0-4.816 2.156-4.816 4.816s2.156 4.816 4.816 4.816h10.709c2.66 0 4.816-2.156 4.816-4.816s-2.156-4.816-4.816-4.816z"></path><path d="m355.16 359.495c-3.884 0-6.764 0-10.709 0-2.66 0-4.816 2.156-4.816 4.816s2.156 4.816 4.816 4.816h10.709c2.66 0 4.816-2.156 4.816-4.816s-2.157-4.816-4.816-4.816z"></path><path d="m453.366 359.495c-3.884 0-6.764 0-10.709 0-2.66 0-4.816 2.156-4.816 4.816s2.156 4.816 4.816 4.816h10.709c2.66 0 4.816-2.156 4.816-4.816s-2.156-4.816-4.816-4.816z"></path><path d="m212.335 409.484c-3.884 0-6.764 0-10.709 0-2.66 0-4.816 2.156-4.816 4.816s2.156 4.816 4.816 4.816h10.709c2.66 0 4.816-2.156 4.816-4.816s-2.156-4.816-4.816-4.816z"></path><path d="m310.542 409.484c-3.884 0-6.764 0-10.709 0-2.66 0-4.816 2.156-4.816 4.816s2.156 4.816 4.816 4.816h10.709c2.66 0 4.816-2.156 4.816-4.816s-2.156-4.816-4.816-4.816z"></path></g><path d="m189.642 194.392c-.896 0-1.806-.162-2.692-.503-3.86-1.487-5.784-5.822-4.296-9.683.827-2.147-.888-5.561-1.848-6.878-2.504-3.293-1.841-7.965 1.452-10.468 3.292-2.505 8.013-1.835 10.516 1.46.818 1.077 7.883 10.829 3.857 21.273-1.144 2.974-3.981 4.799-6.989 4.799z" fill="#ffb09e"></path><path d="m120.945 194.392c-3.008 0-5.845-1.824-6.991-4.799-4.026-10.445 3.037-20.195 3.856-21.273 2.5-3.294 7.2-3.935 10.495-1.433 3.278 2.49 3.929 7.156 1.469 10.449-.962 1.322-2.669 4.727-1.842 6.87 1.488 3.86-.435 8.196-4.296 9.683-.885.341-1.796.503-2.691.503z" fill="#ffb09e"></path><path d="m394.195 194.714c-.896 0-1.806-.162-2.692-.503-3.86-1.487-5.784-5.822-4.296-9.683.927-2.405-1.349-6.221-1.807-6.824-2.502-3.293-1.861-7.992 1.433-10.495 3.294-2.502 7.992-1.862 10.495 1.433.819 1.078 7.883 10.83 3.857 21.274-1.146 2.973-3.982 4.798-6.99 4.798z" fill="#ffb09e"></path><path d="m325.497 194.714c-3.008 0-5.845-1.824-6.991-4.799-4.025-10.445 3.037-20.196 3.855-21.274 2.502-3.292 7.202-3.935 10.496-1.434 3.278 2.49 3.929 7.156 1.469 10.449-.961 1.322-2.669 4.728-1.842 6.872 1.488 3.86-.435 8.196-4.296 9.683-.885.341-1.795.503-2.691.503z" fill="#ffb09e"></path><path d="m336.441 504.176h-160.926v-10.346c0-10.434 8.458-18.892 18.892-18.892h123.141c10.434 0 18.892 8.458 18.892 18.892z" fill="#0ab69f"></path><path d="m317.549 474.938h-28.51c10.434 0 18.892 8.458 18.892 18.892v10.346h28.51v-10.346c0-10.433-8.458-18.892-18.892-18.892z" fill="#01998d"></path><path d="m255.979 469.236c-10.047 0-19.587-2.172-28.176-6.07v6.957c0 15.619 12.662 28.28 28.279 28.28 15.619 0 28.28-12.661 28.28-28.28v-7.055c-8.643 3.96-18.255 6.168-28.383 6.168z" fill="#ffa78f"></path><path d="m124.828 150.344v-14.312c0-4.142-3.358-7.5-7.5-7.5s-7.5 3.358-7.5 7.5v14.312c0 4.142 3.358 7.5 7.5 7.5s7.5-3.358 7.5-7.5z"></path><path d="m193.196 157.844c4.142 0 7.5-3.358 7.5-7.5v-14.312c0-4.142-3.358-7.5-7.5-7.5s-7.5 3.358-7.5 7.5v14.312c0 4.142 3.358 7.5 7.5 7.5z"></path><path d="m402.909 127.82h-5.96c-4.142 0-7.5 3.358-7.5 7.5v13.862c0 4.142 3.358 7.5 7.5 7.5s7.5-3.358 7.5-7.5v-6.52c3.403-.71 5.96-3.728 5.96-7.342 0-4.142-3.358-7.5-7.5-7.5z"></path><path d="m323.462 156.682c4.142 0 7.5-3.358 7.5-7.5v-13.862c0-4.142-3.358-7.5-7.5-7.5h-5.96c-4.142 0-7.5 3.358-7.5 7.5 0 3.614 2.557 6.631 5.96 7.342v6.52c0 4.142 3.358 7.5 7.5 7.5z"></path><path d="m108.8 395.033c12.72 0 23.068-10.349 23.068-23.068 0-4.142-3.358-7.5-7.5-7.5s-7.5 3.358-7.5 7.5c0 4.449-3.62 8.068-8.068 8.068-4.449 0-8.069-3.62-8.069-8.068 0-4.142-3.358-7.5-7.5-7.5s-7.5 3.358-7.5 7.5c0 12.72 10.349 23.068 23.069 23.068z"></path><path d="m73.018 328.05c-4.142 0-7.5 3.358-7.5 7.5v13.5c0 4.142 3.358 7.5 7.5 7.5s7.5-3.358 7.5-7.5v-13.5c0-4.142-3.358-7.5-7.5-7.5z"></path><path d="m144.582 356.55c4.142 0 7.5-3.358 7.5-7.5v-13.5c0-4.142-3.358-7.5-7.5-7.5s-7.5 3.358-7.5 7.5v13.5c0 4.142 3.358 7.5 7.5 7.5z"></path><path d="m415.29 364.216c-4.142 0-7.5 3.358-7.5 7.5 0 4.806-3.91 8.716-8.716 8.716s-8.716-3.91-8.716-8.716c0-4.142-3.358-7.5-7.5-7.5s-7.5 3.358-7.5 7.5c0 13.077 10.639 23.716 23.716 23.716s23.716-10.639 23.716-23.716c0-4.142-3.358-7.5-7.5-7.5z"></path><path d="m442.39 326.287h-6.045c-4.142 0-7.5 3.358-7.5 7.5v14.061c0 4.142 3.358 7.5 7.5 7.5s7.5-3.358 7.5-7.5v-6.702c3.446-.677 6.045-3.714 6.045-7.359 0-4.142-3.358-7.5-7.5-7.5z"></path><path d="m361.803 326.287h-6.045c-4.142 0-7.5 3.358-7.5 7.5 0 3.645 2.599 6.682 6.045 7.359v6.702c0 4.142 3.358 7.5 7.5 7.5s7.5-3.358 7.5-7.5v-14.061c0-4.142-3.358-7.5-7.5-7.5z"></path><path d="m255.958 444.031c12.139 0 22.014-9.875 22.014-22.014 0-4.142-3.358-7.5-7.5-7.5s-7.5 3.358-7.5 7.5c0 3.868-3.146 7.014-7.014 7.014s-7.015-3.146-7.015-7.014c0-4.142-3.358-7.5-7.5-7.5s-7.5 3.358-7.5 7.5c0 12.139 9.876 22.014 22.015 22.014z"></path><path d="m222.598 408.154c4.142 0 7.5-3.358 7.5-7.5v-12.585c0-4.142-3.358-7.5-7.5-7.5s-7.5 3.358-7.5 7.5v12.585c0 4.142 3.358 7.5 7.5 7.5z"></path><path d="m289.317 408.154c4.142 0 7.5-3.358 7.5-7.5v-12.585c0-4.142-3.358-7.5-7.5-7.5s-7.5 3.358-7.5 7.5v12.585c0 4.142 3.358 7.5 7.5 7.5z"></path><path d="m502.313 355.112c4.109-5.553 6.546-12.415 6.546-19.838 0-11.857-6.11-22.264-15.417-28.197v-28.937c0-29.78-18.507-55.303-44.615-65.719 2.86-3.595 5.296-7.561 7.229-11.801 3.455-7.578 5.281-16.027 5.281-24.434 0-2.946-.222-5.914-.658-8.82l-1.184-7.88c5.606-5.927 9.049-13.919 9.049-22.701 0-12.366-6.825-23.167-16.905-28.837l-3.513-23.389c-.001-.006-.002-.012-.003-.018l-1.289-8.581c-2.485-16.548-12.716-30.949-26.966-38.222-4.488-8.189-11.058-15.002-19.132-19.808-3.561-2.12-8.163-.95-10.281 2.609-2.119 3.56-.95 8.163 2.609 10.281 6.324 3.764 11.353 9.25 14.543 15.865.778 1.613 2.107 2.894 3.748 3.612 10.865 4.756 18.776 15.444 20.646 27.891l.895 5.955c-4.401-8.059-8.928-13.11-9.726-14.111-.059-.069-.115-.14-.174-.209-3.965-4.611-11.478-2.825-12.958 3.044-1.29 5.118-3.519 9.813-6.449 13.885-.017.024-.036.047-.054.071-7.516 10.397-19.714 16.927-33.176 16.927-17.119 0-82.211 0-91.367 0v-23.29c0-30.242 24.604-54.846 54.846-54.846h29.198c4.142 0 7.5-3.358 7.5-7.5s-3.358-7.5-7.5-7.5h-29.198c-38.513 0-69.846 31.333-69.846 69.846v30.706c-1.779 1.453-3.404 3.083-4.842 4.872-.977-1.186-2.035-2.301-3.161-3.344.1-.488.152-.993.152-1.51v-56.673c-.003-30.057-24.457-54.511-54.514-54.511h-60.219c-29.518 0-54.063 21.667-58.588 49.93-15.686.046-28.434 12.82-28.434 28.516v34.391c-6.597 6.187-10.729 14.972-10.729 24.709 0 16.946 12.504 31.028 28.77 33.503 2.967 12.309 8.646 23.719 16.561 33.495h-4.678c-16.823 0-32.29 9.81-39.608 24.762-15.947 5.696-26.506 21.789-24.993 38.952l3.42 38.785c-11.745 4.869-20.03 16.451-20.03 29.935 0 16.099 11.804 29.492 27.212 31.979 5.593 22.987 20.724 41.695 40.728 52.221v1.729c0 2.086.177 4.13.502 6.125h-14.509c-20.016 0-36.3 16.284-36.3 36.3v39.057c0 4.142 3.358 7.5 7.5 7.5h18.78c4.142 0 7.5-3.358 7.5-7.5s-3.358-7.5-7.5-7.5h-11.28v-31.557c0-11.745 9.555-21.3 21.3-21.3h20.442c5.478 8.184 13.836 13.815 23.354 15.872 14.902 3.254 30.707-2.703 39.522-15.872h20.217c11.745 0 21.3 9.555 21.3 21.3v5.471c-6.254 3.353-11.004 9.15-12.975 16.106-.004.015-.008.029-.013.044-1.132 4.021-.99 6.919-.99 9.936h-85.877c-4.142 0-7.5 3.358-7.5 7.5s3.358 7.5 7.5 7.5h92.404c.32.042.643.07.974.07h161.135c.331 0 .654-.029.974-.07h142.142c4.142 0 7.5-3.358 7.5-7.5v-39.057c0-6.832-1.9-13.228-5.195-18.691 4.02-2.652 7.718-5.915 10.926-9.711 10.511-12.441 15.42-29.396 13.467-46.517zm-27.747-1.43c-3.475-.089-6.545 2.231-7.434 5.55-.062.231-.114.466-.154.706-3.731 22.311-18.279 41.555-39.271 51.173-.001 0-.002.001-.003.001-10.462 4.793-21.459 6.672-32.11 6.144-.338-.017-.672-.047-1.009-.069-15.734-1.01-30.138-7.306-41.414-17.419 4.473-12.332.534-26.255-9.725-34.464 0-31.126 2.037-46.189-9.245-66.289.514-1.452 1.072-2.848 1.496-3.848h8.532c10.473 13.384 26.728 21.706 44.601 21.706h87.494c9.844.466 17.536 8.522 17.536 18.401-.001 10.271-8.223 18.642-19.294 18.408zm-75.375 94.953c-11.756 0-21.594-8.484-23.711-19.621-.002-.011-.004-.023-.006-.034 7.718 2.25 15.788 3.366 23.6 3.366 7.61 0 15.936-1.094 23.848-3.448-2.095 11.271-11.98 19.737-23.731 19.737zm-72.431-13.229c-.807-.451-1.598-.941-2.373-1.464 2.165-4.543 3.908-9.347 5.155-14.375 5.285-.9 10.705-3.324 15.137-7.272 4.767 4.084 9.924 7.567 15.375 10.444 0 1.942-.025 3.826.26 6.293h-13.008c-7.472-.001-14.665 2.327-20.546 6.374zm-66.967-277.171c.443.519.905 1.021 1.379 1.512-1.186 7.893-1.803 11.022-1.803 16.439 0 8.407 1.827 16.855 5.282 24.434 5.205 11.416 13.895 20.456 24.328 25.979-2.672 1.792-5.204 3.83-7.554 6.119-8.186 7.975-13.489 18.171-15.342 29.257h-6.883c-5.526 0-11.009.671-16.334 1.954-2.73-20.945-17.678-38.097-37.444-44.043 16.19-11.784 27.9-29.028 32.676-48.835 8.793-1.34 16.482-6.074 21.695-12.816zm19.988 11.212c4.671 19.13 16.128 36.391 33.037 48.186-21.723-.103-42.092-20.489-37.769-49.29 1.521.475 3.348.886 4.732 1.104zm24.062 166.921c-8.621 0-16.346 4.462-20.665 11.936-2.67 4.622-3.683 9.798-3.035 14.836-5.198-2.41-10.438-7.027-14.393-11.144-4.954-5.158-13.732-1.049-12.854 6.108.096.782.217 1.526.351 2.253.214 1.168.468 2.274.76 3.308-5.788-2.269-11.367-7.185-15.674-11.669-2.153-2.242-5.638-3-8.628-1.579-2.916 1.386-4.618 4.482-4.225 7.687.205 1.671.502 3.212.864 4.638-9.257-4.677-19.117-16.195-23.646-23.012-1.441-2.177-3.917-3.455-6.516-3.357-4.162.145-6.792 2.474-11.343 14.737-.381 1.026-.819 2.273-1.159 3.338 0-19.677-1.043-27.482 4.622-39.034 0-.001.001-.001.001-.002 5.431-11.073 15.669-20.337 29.08-23.932.086-.023.171-.046.257-.068 5.735-1.501 3.766.16 8.809-3.601 3.607-2.683 7.694-5.035 12.193-6.853.092-.037.174-.09.264-.131 6.377-2.54 13.216-3.852 20.296-3.852h11.804c.538 0 1.07.026 1.604.041.014 0 .028.003.042.003 20.072.565 37.607 11.476 47.425 27.568.031.051.061.101.092.152 9.932 16.391 8.279 29.529 8.279 50.387-.149-.484-.303-.966-.461-1.446-3.207-9.708-11.936-16.429-22.095-17.231-.678-.054-1.361-.081-2.049-.081zm-99.721-87.589c-.008-.035-.016-.07-.024-.104-1.222-5.294-3.2-10.388-5.905-15.184 16.678 3.599 29.341 18.122 30.101 35.677-3.787 1.868-8.097 4.555-11.322 6.999-3.973.809-7.782 2.008-11.404 3.531-.001-19.13.371-22.975-1.446-30.919zm114.412-16.146h21.461c-1.063 1.745-2.038 3.561-2.908 5.449-13.631 7.064-23.849 19.721-29.264 33.955-7.871-4.652-17.004-7.97-26.628-9.332 3.691-17.332 18.933-30.072 37.339-30.072zm-146.279 159.938c-2.056-9.717 5.297-18.806 15.105-18.964.299-.005.597-.007.895.005 3.797.169 7.078-2.528 7.701-6.257.51-3.048 1.248-6.038 2.209-8.953 9.412 10.86 25.715 25.376 42.531 20.421 1.662-.489 3.085-1.532 4.051-2.93 7.382 3.829 15.324 5.3 23.367 2.93 1.668-.491 3.095-1.541 4.061-2.945 7.56 3.908 14.844 4.93 21.574 2.945 4.681-1.379 6.815-6.797 4.346-10.995-1.835-3.124-4.897-6.883-1.931-12.02 4.134-7.151 14.989-5.186 17.563 2.537 1.953 6.163 2.066 8.511 2.379 9.695 1.697 6.433 8.862 5.571 7.554 5.571 9.9 0 16.348 7.087 16.348 15.689 0 8.175-6.286 14.908-14.257 15.634-2.119.195-2.951-.203-4.878.472-2.514.882-4.451 3.073-4.914 5.841-1.229 7.353-3.785 14.348-7.598 20.791-.102.173-.17.356-.257.534-6.23 10.374-15.42 18.629-26.352 23.716-.166.062-.334.116-.496.19-8.012 3.67-16.656 5.494-25.296 5.494-.001 0-.002 0-.003 0-8.451 0-17.014-1.732-25.112-5.407-.134-.061-.274-.103-.411-.156-17.8-8.178-31.058-24.715-34.478-45.163-.607-3.627-3.746-6.263-7.394-6.263-.102 0-.205.002-.308.006-.212.008-.426.018-.641.018-7.538.001-13.848-5.34-15.358-12.436zm63.367 81.65c6.689 1.843 13.541 2.752 20.336 2.752 6.985 0 13.853-.944 20.559-2.814-1.796 9.767-10.361 17.02-20.454 17.02-10.087-.001-18.626-7.25-20.441-16.958zm79.328-25.312c-2.515 4.935-3.943 10.514-3.943 16.422v2.351h-18.521c8.646-4.73 16.272-11.118 22.464-18.773zm163.491-170.769v23.733h-1.956-87.656c-14.073 0-26.777-7.017-34.357-18.106-.059-.096-.105-.198-.169-.292-2.702-4.009-4.663-8.392-5.83-13.027-1.487-5.905-9.011-7.646-12.958-3.063-4.669 5.424-8.64 11.479-11.632 17.53-1.04-1.112-2.601-2.653-3.431-3.429 4.191-14.215 13.508-25.643 25.5-31.036 1.783-.802 3.182-2.268 3.899-4.085 3.068-7.769 8.566-14.386 16.565-19.053.002.001.004-.001.006-.003.002 0 .003 0 .004-.002.279-.158.568-.31.934-.505h.001c9.316-4.658 14.552-4.402 21.277-4.402h.01 34.052c.115 0 .231.008.346.008 30.433.186 55.395 24.994 55.395 55.732zm-58.784-70.741c9.678-9.966 17.095-22.643 20.802-37.298.055-.22.123-.434.177-.654 1.717-.27 3.387-.68 5.006-1.204 2.586 17.213-3.449 31.081-13.264 39.829-5.553-.768-9.879-.673-12.721-.673zm15.083-52.572c-1.054-.042-2.069.145-3.003.508-2.402.932-4.243 3.065-4.692 5.748-2.534 15.152-10.379 29.389-22.27 39.778-.05.044-.092.094-.141.139-2.701 2.339-5.601 4.481-8.686 6.398-11.255 0-13.369-.114-17.724.443-.047.006-.095.01-.143.016-.011.001-.021.004-.032.006-8.767 1.152-16.933 4.442-23.885 9.449-30.675-2.744-55.775-26.191-60.799-56.23-.607-3.626-3.746-6.263-7.394-6.263-4.277 0-7.59-.649-11.186-3.1-4.776-3.254-7.92-8.733-7.92-14.935 0-9.679 7.534-17.574 17.18-18.034h86.31c20.617 0 39.063-11.206 48.767-28.504 1.739 3.052 3.222 6.238 4.465 9.518 1.556 4.106 2.727 8.362 3.456 12.723.078.464.197.911.353 1.338.006.017.009.024.009.023 1.103 2.996 4.028 5.019 7.332 4.896 10.103-.4 18.804 7.69 18.804 18.041.003 10.146-8.437 18.455-18.801 18.042zm-293.332-139.827h60.219c21.787 0 39.512 17.725 39.512 39.511v49.173c-106.027 0-101.061.131-104.701-.286-.178-.02-.353-.046-.53-.068-22.664-2.875-39.638-22.58-38.802-45.519l.004-.107c.001-.016-.001-.032-.001-.049.891-23.67 20.414-42.655 44.299-42.655zm-72.022 63.447c0-7.261 5.754-13.204 12.942-13.506.33 3.514 1.138 7.82 2.263 11.543-5.363 7.954-9.75 17.619-12.159 27.554-1.027.155-2.043.356-3.046.604zm16.632 84.225c-.624-3.726-3.916-6.402-7.695-6.257-.258.01-.516.021-.776.021-10.416 0-18.89-8.474-18.89-18.89 0-6.437 3.242-12.125 8.173-15.537 3.499-2.422 7.547-3.49 11.483-3.331 3.794.156 7.082-2.527 7.705-6.257 1.083-6.476 3.189-13.173 6.398-19.631 9.223 13.427 23.922 23.065 41.122 25.356.334.045.668.088 1.004.128 5.1.59-.986.41 97.362.41h1.613c10.165.289 18.35 8.628 18.35 18.862 0 10.416-8.474 18.89-18.89 18.89-.26 0-.519-.011-.776-.021-3.775-.144-7.072 2.531-7.695 6.257-3.975 23.77-19.915 43.754-42.013 53.048-9.371-6.942-21.266-11.175-33.857-11.175h-38.785c-12.671-10.752-21.099-25.525-23.833-41.873zm-34.063 80.1c2.39-.582 4.343-2.298 5.227-4.594 4.289-11.146 15.191-18.634 27.128-18.634h22.866 41.46c22.811 0 41.627 18.419 41.916 41.409.002.174.013.346.013.521v27.302c-5.388 4.454-9.96 9.814-13.511 15.835h-79.275c-17.724 0-33.76-11.166-39.905-27.785-2.092-5.655-9.455-6.52-12.963-1.993-3.267 4.215-6.241 9.045-8.388 13.334l-1.872-21.226c-.982-11.14 6.457-21.53 17.304-24.169zm-8.052 117.836c-.607-3.626-3.747-6.263-7.394-6.263-.103 0-.206.002-.309.006-.235.009-.471.019-.708.019-9.59 0-17.393-7.802-17.393-17.393 0-8.674 6.39-15.865 14.706-17.163 3.739-.581 5.523.482 8.428-1.884 1.376-1.117 2.358-2.719 2.67-4.583 1.102-6.591 3.234-12.999 6.282-18.96 10.561 15.482 28.341 25.223 47.595 25.223h72.97c-2.672 9.973-2.07 14.792-2.07 45.524-8.643 6.785-13.168 17.836-11.39 29.01-12.275 13.39-29.79 21.328-48.489 21.328-31.69.002-59.494-22.547-64.898-54.864zm64.897 69.866c9.351 0 16.366-1.49 22.568-3.201-.638 3.286-1.982 6.323-3.866 8.948-.009.012-.018.024-.027.036-4.389 6.086-11.328 9.524-18.563 9.524-7.313 0-14.189-3.496-18.524-9.473-.014-.02-.03-.039-.044-.06-1.879-2.608-3.223-5.626-3.87-8.892 6.921 1.971 14.527 3.118 22.326 3.118zm51.768-1.443h-14.284c.326-1.995.502-4.039.502-6.125v-1.902c6.17-3.29 11.923-7.392 17.107-12.235 4.581 5.572 11.077 9.512 18.477 10.79 5.209 21.012 18.914 38.195 37.06 48.122h-22.563v-2.351c.001-20.015-16.283-36.299-36.299-36.299zm22.322 67.927v-2.859c0-5.111 3.463-9.66 8.435-11.003.018-.005.033-.014.051-.018.937-.25 1.917-.396 2.931-.396h28.115c2.023 5.565 5.358 10.435 9.608 14.276zm106.813-14.276h27.905c.118 0 .232.014.348.018.066.005.13.016.197.019 6.16.29 10.872 5.375 10.872 11.38v2.859h-48.93c4.25-3.841 7.585-8.711 9.608-14.276zm182.438 14.206h-128.116v-2.789c0-11.348-7.284-21.43-18.019-25.041v-3.728c0-11.808 9.667-21.3 21.3-21.3h17.975c7.324 12.692 21.284 20.263 35.604 19.561.284-.012.567-.03.85-.049.054-.004.104-.006.159-.01 13.541-1.024 24.901-8.567 31.208-19.502h17.74c11.65 0 21.3 9.526 21.3 21.3zm9.273-69.64c-2.867 3.394-6.248 6.189-9.927 8.228-11.019-7.641-20.059-6.444-33.419-6.444.01-.087.013-.175.023-.262.274-2.513.238-4.119.238-6.181 20.065-10.63 35.098-28.997 41.38-51.046.012-.042.024-.084.036-.126.292-1.03.571-2.065.824-3.109 2.758-.427 5.401-1.2 7.895-2.26l2.973 26.064c1.463 12.84-2.283 25.975-10.023 35.136z"></path><path d="m372.31 168.276c-4.142 0-7.5 3.358-7.5 7.5 0 2.796-2.274 5.07-5.07 5.07s-5.071-2.274-5.071-5.07c0-4.142-3.358-7.5-7.5-7.5s-7.5 3.358-7.5 7.5c0 11.067 9.004 20.07 20.071 20.07s20.07-9.003 20.07-20.07c0-4.142-3.358-7.5-7.5-7.5z"></path><path d="m174.99 175.454c0-4.142-3.358-7.5-7.5-7.5s-7.5 3.358-7.5 7.5c0 2.796-2.274 5.071-5.07 5.071s-5.071-2.275-5.071-5.071c0-4.142-3.358-7.5-7.5-7.5s-7.5 3.358-7.5 7.5c0 11.067 9.004 20.071 20.071 20.071s20.07-9.004 20.07-20.071z"></path></svg>