<svg version="1.1" id="Layer_1" xmlns="http://www.w3.org/2000/svg" x="0" y="0" viewBox="0 0 512.001 512.001" style="enable-background:new 0 0 512.001 512.001" xml:space="preserve"><path style="fill:#0096dc" d="m246.859 267.026-44.109-11.027H78.5l-44.11 11.027c-15.803 3.951-26.89 18.15-26.89 34.44v176.408h266.25V301.467c0-16.291-11.087-30.49-26.891-34.441z"/><path style="fill:#b48764" d="m246.859 267.026-27.931-6.982c-5.428 13.258-26.161 57.387-73.184 90.131-3.034 2.112-7.204 2.112-10.238 0-47.023-32.745-67.756-76.873-73.184-90.131l-27.932 6.983c-15.803 3.951-26.89 18.15-26.89 34.44v176.408h266.25V301.467c0-16.291-11.087-30.491-26.891-34.441z"/><path style="fill:#d29b6e" d="M96.25 211.621H185v53.25H96.25z"/><path style="fill:#f0c087" d="M220.5 122.874V96.249c0-34.311-27.815-62.125-62.125-62.125h-35.5c-34.31 0-62.125 27.814-62.125 62.125v26.625c-9.803 0-17.75 7.947-17.75 17.75s7.947 17.75 17.75 17.75c0 44.114 35.761 79.875 79.875 79.875s79.875-35.761 79.875-79.875c9.803 0 17.75-7.947 17.75-17.75s-7.947-17.75-17.75-17.75z"/><path style="fill:#e6af78" d="M105.125 158.374V96.249c0-32.813 25.457-59.617 57.688-61.901-1.472-.105-2.939-.224-4.438-.224h-35.5c-34.31 0-62.125 27.814-62.125 62.125v26.625c-9.803 0-17.75 7.947-17.75 17.75s7.947 17.75 17.75 17.75c0 44.114 35.761 79.875 79.875 79.875 7.708 0 15.136-1.151 22.188-3.188-33.307-9.623-57.688-40.281-57.688-76.687z"/><path style="fill:#d5dced" d="M78.5 71.843c0-9.803-7.947-17.75-17.75-17.75S43 62.039 43 71.843c0 3.616 1.094 6.971 2.951 9.776-9.358 2.605-16.264 11.098-16.264 21.286 0 12.254 9.933 22.188 22.188 22.188s22.188-9.934 22.188-22.188c0-5.794-2.273-11.024-5.91-14.975C74.247 85.118 78.5 78.994 78.5 71.843zM202.75 71.843c0-9.803 7.947-17.75 17.75-17.75s17.75 7.947 17.75 17.75c0 3.616-1.094 6.971-2.951 9.776 9.358 2.605 16.264 11.098 16.264 21.286 0 12.254-9.933 22.188-22.188 22.188s-22.188-9.934-22.188-22.188c0-5.794 2.273-11.024 5.91-14.975-6.094-2.812-10.347-8.936-10.347-16.087z"/><path style="fill:#0096dc" d="m47.753 314.002-33.388-33.388C10.057 286.529 7.5 293.74 7.5 301.466v176.409h53.25V345.38a44.375 44.375 0 0 0-12.997-31.378zM233.497 314.002l33.388-33.388c4.308 5.915 6.865 13.126 6.865 20.852v176.409H220.5V345.38a44.375 44.375 0 0 1 12.997-31.378z"/><path style="fill:#00aaf0" d="m87.375 238.249 53.25 26.625-19.751 26.335c-3.481 4.641-10.406 4.749-14.03.219L78.5 255.999l8.875-17.75zM193.875 238.249l-53.25 26.625 19.751 26.335c3.481 4.641 10.406 4.749 14.03.219l28.343-35.429-8.874-17.75z"/><path style="fill:#c7cfe2" d="M442.375 247.124c14.705 0 26.625 11.92 26.625 26.625 0 .542-.127 1.048-.159 1.581 10.399 3.623 17.909 13.409 17.909 25.044 0 14.705-11.92 26.625-26.625 26.625H415.75v-53.25c0-14.705 11.92-26.625 26.625-26.625zM318.125 247.124c-14.705 0-26.625 11.92-26.625 26.625 0 .542.127 1.048.159 1.581-10.399 3.623-17.909 13.409-17.909 25.044 0 14.705 11.92 26.625 26.625 26.625h44.375v-53.25c0-14.705-11.92-26.625-26.625-26.625z"/><path style="fill:#966d50" d="m476.605 324.716-49.698-19.879a17.757 17.757 0 0 1-10.362-11.223l-.795-19.865h-71l-.796 19.865a17.752 17.752 0 0 1-10.362 11.223l-49.698 19.879A44.375 44.375 0 0 0 256 365.917v111.961l248.5-.004V365.917a44.374 44.374 0 0 0-27.895-41.201z"/><path style="fill:#ffdc64" d="m476.605 324.713-38.835-15.534c-13.839 16.312-34.456 26.692-57.521 26.692-23.066 0-43.682-10.38-57.52-26.692l-38.835 15.534A44.374 44.374 0 0 0 256 365.914v111.96l248.5-.003V365.914a44.374 44.374 0 0 0-27.895-41.201z"/><circle style="fill:#d5dced" cx="380.25" cy="167.251" r="97.62"/><path style="fill:#c7cfe2" d="M344.75 167.249c0-43.044 27.893-79.506 66.563-92.492-9.768-3.28-20.19-5.133-31.063-5.133-53.917 0-97.625 43.708-97.625 97.625s43.708 97.625 97.625 97.625c10.873 0 21.295-1.853 31.063-5.133-38.67-12.986-66.563-49.448-66.563-92.492z"/><path style="fill:#c39772" d="M380.25 300.374c-44.114 0-79.875-35.761-79.875-79.875v-18.666c0-9.454 5.074-18.123 13.208-22.941 11.866-7.03 21.006-16.652 26.234-22.943 2.811-3.382 7.707-4.193 11.351-1.731 44.471 30.046 108.957 23.574 108.957 57.407v8.875c0 44.113-35.761 79.874-79.875 79.874z"/><path style="fill:#b48764" d="M344.75 220.499v-67.458c-1.865.394-3.631 1.341-4.933 2.908-5.228 6.291-14.368 15.913-26.234 22.943-8.134 4.819-13.208 13.487-13.208 22.941v15.806c0 36.682 23.613 70.192 58.99 79.892 15.252 4.182 29.828 3.482 43.073-.345-33.308-9.623-57.688-40.281-57.688-76.687z"/><path style="fill:#fff" d="M415.75 198.311c-7.345 0-13.313 5.967-13.313 13.313s5.967 13.313 13.313 13.313 13.313-5.967 13.313-13.313-5.968-13.313-13.313-13.313zM344.75 198.311c-7.345 0-13.313 5.967-13.313 13.313s5.967 13.313 13.313 13.313 13.313-5.967 13.313-13.313-5.968-13.313-13.313-13.313z"/><path style="fill:#ffc850" d="m300.375 380.249-37.646-37.646c-4.255 6.871-6.729 14.868-6.729 23.311v111.96l44.375-.001v-97.624zM460.125 380.249l37.646-37.646c4.255 6.871 6.729 14.868 6.729 23.311v111.96l-44.375-.001v-97.624zM380.25 371.374c38.467 0 72.445-18.899 93.407-47.841l-35.887-14.355c-13.839 16.312-34.456 26.692-57.521 26.692s-43.682-10.38-57.521-26.692l-35.887 14.355c20.964 28.942 54.942 47.841 93.409 47.841z"/><path d="M250.681 274.825a7.5 7.5 0 0 0 2.179.325 7.503 7.503 0 0 0 2.173-14.68l-49.108-14.892-5.342-10.684c-1.665-3.331-5.472-4.872-8.916-3.805v-1.859c20.336-14.691 34.137-37.895 36.094-64.352 9.53-2.663 17.029-10.412 18.599-20.072.991-6.093-.303-12.092-3.265-17.078 9.48-4.963 15.968-14.893 15.968-26.314 0-10.358-5.489-19.796-14.024-25.113.471-1.936.712-3.931.712-5.949 0-13.923-11.327-25.25-25.25-25.25-3.34 0-6.528.658-9.448 1.841-14.453-13.13-32.959-20.32-52.677-20.32h-35.5c-19.631 0-38.214 7.202-52.679 20.319a25.098 25.098 0 0 0-9.446-1.84c-13.923 0-25.25 11.327-25.25 25.25 0 2.019.241 4.014.712 5.949-8.536 5.317-14.024 14.755-14.024 25.113 0 11.415 6.48 21.339 15.95 26.305a25.382 25.382 0 0 0-3.247 17.087c1.57 9.66 9.069 17.409 18.599 20.072 1.953 26.421 15.72 49.596 36.01 64.29v1.893c-3.422-1.016-7.181.529-8.833 3.832l-5.338 10.675-51.01 15.303C9.773 265.236 0 278.372 0 293.559v184.315a7.5 7.5 0 0 0 15 0V293.559c0-.55.025-1.094.07-1.634l29.979 29.979c5.289 5.289 8.201 12.32 8.201 19.799v136.17a7.5 7.5 0 0 0 15 0v-136.17c0-11.486-4.473-22.284-12.595-30.406l-33.028-33.028a19.26 19.26 0 0 1 6.003-3.029l33.791-10.137c2.646 7.437 22.296 58.513 74.044 93.011a7.492 7.492 0 0 0 8.32 0c53.481-35.654 72.559-88.359 74.129-92.922l31.767 9.633zm-60.16-26.513 3.375 6.75-25.345 31.682a1.3 1.3 0 0 1-1.096.516 1.332 1.332 0 0 1-1.078-.55l-14.359-19.146 38.503-19.252zM230.75 70.353c0 2.002-.59 3.951-1.705 5.636-1.325 2.001-1.612 4.515-.772 6.763s2.704 3.958 5.015 4.602c6.344 1.766 10.775 7.548 10.775 14.061 0 8.099-6.589 14.688-14.688 14.688s-14.688-6.589-14.688-14.688c0-3.629 1.395-7.144 3.928-9.896a7.498 7.498 0 0 0-2.376-11.889c-3.638-1.679-5.989-5.32-5.989-9.277 0-5.652 4.598-10.25 10.25-10.25s10.25 4.598 10.25 10.25zM47.962 87.355a7.5 7.5 0 0 0 4.243-11.365 10.189 10.189 0 0 1-1.705-5.636c0-5.652 4.598-10.25 10.25-10.25S71 64.701 71 70.353c0 3.957-2.351 7.599-5.989 9.277a7.498 7.498 0 0 0-2.376 11.889c2.533 2.752 3.928 6.267 3.928 9.896 0 8.099-6.589 14.688-14.688 14.688s-14.688-6.589-14.688-14.688c.001-6.512 4.431-12.294 10.775-14.06zm20.288 71.019a7.5 7.5 0 0 0-7.5-7.5c-5.516 0-10.269-3.643-11.054-8.474-.895-5.504 2.473-10.567 7.833-11.775.29-.065.569-.151.843-.247 13.254-2.972 23.19-14.825 23.19-28.962 0-4.587-1.076-9.066-3.104-13.125C83.19 83.622 86 77.182 86 70.353a25.1 25.1 0 0 0-4.08-13.737c11.447-9.69 25.814-14.992 40.955-14.992h35.5c15.208 0 29.532 5.276 40.967 14.974a25.093 25.093 0 0 0-4.092 13.755c0 6.829 2.81 13.269 7.542 17.938a29.32 29.32 0 0 0-3.104 13.125c0 14.422 10.34 26.47 23.995 29.134.23.094.466.179.709.251 4.289 1.281 8.126 5.676 7.163 11.6-.785 4.831-5.538 8.474-11.054 8.474a7.5 7.5 0 0 0-7.5 7.5c0 39.908-32.467 72.375-72.375 72.375S68.25 198.282 68.25 158.374zm72.375 87.375a86.862 86.862 0 0 0 36.042-7.79v.509l-36.042 18.021-36.125-18.062v-.503c11.016 5.022 23.249 7.825 36.125 7.825zm-52.272 7.314 2.376-4.751 38.504 19.252-14.359 19.146a1.332 1.332 0 0 1-1.078.55c-.328.026-.748-.081-1.096-.516l-25.145-31.431c.383-.7.652-1.459.798-2.25zm52.272 89.707c-33.576-23.863-51.647-55.094-59.327-71.267l19.689 24.611a16.262 16.262 0 0 0 12.779 6.146l.264-.002a16.267 16.267 0 0 0 12.843-6.548l6.251-8.335v30.75a7.5 7.5 0 0 0 15 0v-30.75l6.251 8.335a16.264 16.264 0 0 0 13.107 6.55c5.001 0 9.646-2.23 12.779-6.146l19.749-24.687c-7.618 16.129-25.635 47.369-59.385 71.343z"/><path d="M164.2 189.724a7.5 7.5 0 0 0-11.649-9.449c-3.19 3.934-7.425 6.1-11.925 6.1s-8.735-2.166-11.925-6.1a7.5 7.5 0 1 0-11.649 9.449c6.005 7.404 14.598 11.65 23.575 11.65s17.567-4.247 23.573-11.65zM105.125 133.124a7.5 7.5 0 0 0-7.5 7.5v8.875a7.5 7.5 0 0 0 15 0v-8.875a7.5 7.5 0 0 0-7.5-7.5zM176.125 156.999a7.5 7.5 0 0 0 7.5-7.5v-8.875a7.5 7.5 0 0 0-15 0v8.875a7.5 7.5 0 0 0 7.5 7.5zM252.428 295.071a7.5 7.5 0 0 0-10.606 0l-16.227 16.227C217.473 319.42 213 330.218 213 341.704v136.17a7.5 7.5 0 0 0 15 0v-136.17c0-7.479 2.913-14.511 8.201-19.799l16.227-16.227a7.5 7.5 0 0 0 0-10.607zM380.25 263.499c8.977 0 17.569-4.247 23.575-11.65a7.5 7.5 0 0 0-11.649-9.449c-3.19 3.934-7.425 6.1-11.925 6.1s-8.735-2.166-11.925-6.1a7.5 7.5 0 1 0-11.649 9.449c6.004 7.403 14.596 11.65 23.573 11.65zM300.375 372.749a7.5 7.5 0 0 0-7.5 7.5v97.625a7.5 7.5 0 0 0 15 0v-97.625a7.5 7.5 0 0 0-7.5-7.5zM460.125 372.749a7.5 7.5 0 0 0-7.5 7.5v97.625a7.5 7.5 0 0 0 15 0v-97.625a7.5 7.5 0 0 0-7.5-7.5z"/><path d="M486.928 321.496a34.084 34.084 0 0 0 7.322-21.122c0-12.639-6.932-23.95-17.779-29.834a29.619 29.619 0 0 0-12.396-25.393c.51-1.73.984-3.472 1.384-5.236.972-4.283 1.592-8.809 1.883-13.769 11.805-17.418 18.033-37.738 18.033-58.893 0-57.966-47.159-105.125-105.125-105.125s-105.125 47.159-105.125 105.125c0 21.157 6.229 41.477 18.034 58.894.291 4.963.911 9.488 1.882 13.767.4 1.763.874 3.505 1.384 5.236a29.62 29.62 0 0 0-12.396 25.394c-10.848 5.884-17.779 17.196-17.779 29.834a34.09 34.09 0 0 0 7.322 21.122c-15.456 9.274-25.072 25.933-25.072 44.421v111.961a7.5 7.5 0 0 0 15 0V365.917c0-15.166 9.099-28.605 23.18-34.238l1.435-.574c22.183 29.98 56.357 47.769 92.136 47.769 36.268 0 69.693-17.379 92.129-47.771l1.441.576c14.082 5.633 23.18 19.072 23.18 34.238v111.957a7.5 7.5 0 0 0 15 0V365.917c-.001-18.488-9.617-35.147-25.073-44.421zM461.5 269.312c0 1.109-.19 2.327-.6 3.832a7.499 7.499 0 0 0 4.968 9.116c8.004 2.541 13.382 9.82 13.382 18.114a19.11 19.11 0 0 1-6.789 14.607l-42.769-17.108a10.213 10.213 0 0 1-3.924-2.799 86.65 86.65 0 0 0 9.372-6.59c9.635-7.788 17.475-17.552 23.034-28.48a14.657 14.657 0 0 1 3.326 9.308zm-113.14 32.51c10.102 3.957 20.928 6.052 31.89 6.052s21.788-2.095 31.89-6.052a25.113 25.113 0 0 0 11.228 9.652c-11.661 10.825-26.915 16.899-43.119 16.899-16.187 0-31.449-6.079-43.114-16.901a25.108 25.108 0 0 0 11.225-9.65zm-58.235-134.573c0-49.695 40.43-90.125 90.125-90.125s90.125 40.43 90.125 90.125c0 12.641-2.597 24.93-7.593 36.272-10.806-23.253-34.824-29.769-58.189-36.091-18.889-5.111-38.421-10.397-55.159-23.787a7.498 7.498 0 0 0-11.393 2.502c-.078.155-7.935 15.603-23.271 23.271a7.499 7.499 0 0 0-3.354 10.062 7.498 7.498 0 0 0 10.062 3.354c12.207-6.104 20.618-15.796 25.36-22.506 17.47 11.742 36.666 16.937 53.837 21.583 5.636 1.525 10.823 2.971 15.564 4.478-.164-.003-.326-.012-.49-.012-9.14 0-17.161 4.881-21.593 12.174-4.146-2.134-8.905-3.299-13.906-3.299-5.002 0-9.762 1.165-13.907 3.299-4.433-7.292-12.454-12.174-21.593-12.174-13.923 0-25.25 11.327-25.25 25.25s11.327 25.25 25.25 25.25c12.976 0 23.693-9.84 25.091-22.45 2.447-2.604 6.273-4.175 10.409-4.175 4.135 0 7.961 1.571 10.408 4.175 1.398 12.61 12.115 22.45 25.091 22.45 13.923 0 25.25-11.327 25.25-25.25 0-7.294-3.112-13.872-8.074-18.485 10.726 5.845 17.323 14.005 19.768 28.417a7.583 7.583 0 0 0-.226 1.564c-.179 5.001-.715 9.407-1.637 13.471-3.57 15.733-12.492 30.019-25.121 40.228-12.995 10.504-28.714 16.056-45.46 16.056s-32.466-5.552-45.46-16.056c-12.629-10.208-21.55-24.495-25.121-40.228-.92-4.056-1.456-8.458-1.636-13.458a7.476 7.476 0 0 0-2.227-5.067c-10.263-15.001-15.68-32.543-15.68-50.818zM426 211.624c0 5.652-4.598 10.25-10.25 10.25s-10.25-4.598-10.25-10.25 4.598-10.25 10.25-10.25 10.25 4.598 10.25 10.25zm-81.25 10.25c-5.652 0-10.25-4.598-10.25-10.25s4.598-10.25 10.25-10.25 10.25 4.598 10.25 10.25-4.598 10.25-10.25 10.25zm-50.118 60.386a7.5 7.5 0 0 0 4.968-9.116c-.41-1.505-.6-2.723-.6-3.832 0-3.478 1.22-6.738 3.326-9.308 5.559 10.929 13.399 20.692 23.034 28.48a86.413 86.413 0 0 0 9.372 6.59 10.217 10.217 0 0 1-3.925 2.799l-42.768 17.107a19.11 19.11 0 0 1-6.788-14.607c-.001-8.293 5.377-15.572 13.381-18.113zm85.618 81.614c-30.23 0-58.166-13.965-77.672-38.554l19.46-7.783c14.887 16.476 35.845 25.837 58.213 25.837 22.389 0 43.325-9.358 58.211-25.838l19.467 7.787c-19.515 24.581-47.498 38.551-77.679 38.551z"/></svg>