<?xml version="1.0" encoding="iso-8859-1"?>
<!-- Generator: Adobe Illustrator 19.0.0, SVG Export Plug-In . SVG Version: 6.00 Build 0)  -->
<svg version="1.1" id="Capa_1" xmlns="http://www.w3.org/2000/svg" xmlns:xlink="http://www.w3.org/1999/xlink" x="0px" y="0px" viewBox="0 0 512 512" style="enable-background: new 0 0 512 512" xml:space="preserve">
<path style="fill: #ffcebf" d="M137.431,233.754c-20.431,2.857-32.08,14.506-34.947,34.947l-35.689-0.862l-9.584-9.584
	c5.895-12.16,4.591-26.907-3.91-37.834c20.14,10.927,45.914,7.819,63.026-9.293c5.995-5.995,10.276-13.052,12.832-20.561
	l7.418,7.418L137.431,233.754z"></path>
<path style="fill: #cc2e43" d="M129.161,190.567c-2.556,7.509-6.837,14.566-12.832,20.561c-17.112,17.112-42.886,20.22-63.026,9.293
	c8.501,10.927,9.804,25.674,3.91,37.834l-12.531-12.531c-19.107-19.107-19.107-50.094,0-69.212l0.612-0.602
	c19.107-19.117,50.094-19.117,69.212,0L129.161,190.567z"></path>
<path style="fill: #8abbd5" d="M116.143,348.272l10.736-24.172l-45.723-43.662c-3.049-1.917-5.943-4.179-8.596-6.834l-27.879-27.879
	c-3.624-3.624-6.556-7.676-8.806-11.992c-12.543-16.572-26.4-40.457-19.715-58.722c-1.318,2.341-2.497,4.738-3.531,7.183
	c-6.287,16.43-12.275,47.948,15.565,78.741L116.143,348.272z"></path>
<path style="fill: #f7cf69" d="M481.375,261.122c51.807-50.562,3.01-141.104-68.346-121.461
	c-12.809,3.526-25.535,18.236-36.33,18.886c-9.063,0.545-16.997-3.525-26.585-1.297c-8.802,2.045-17.076,6.636-23.463,13.026
	c-11.176,11.183-17.635,29.643-13.432,45.291c3.277,12.205,21.174,32.291,33.292,36.111c-3.092-16.644,10.045-59.786,32.817-55.693
	c11.342,2.039,23.186,12.364,35.082,15.273c12.467,3.049,26.231,3.972,38.094-1.804c-1.751,9.192-1.65,18.943,0.23,28.106
	c3.47,16.907,9.153,17.097-3.637,29.225c-16.513,15.659-35.289,31.762-59.82,27.671c4.025,12.925,24.458,30.871,37.613,33.353
	C464.425,334.889,495.645,296.354,481.375,261.122z"></path>
<path style="fill: #b5d3e3" d="M217.56,247.148l-26.847,11.91l-17.233,7.649l-17.884-17.935
	c3.398-15.709-1.002-32.771-13.223-44.992l-27.869-27.869c-19.117-19.117-50.104-19.117-69.212,0l-0.612,0.602
	c-19.107,19.117-19.107,50.104,0,69.212l27.879,27.879c12.21,12.21,29.273,16.621,44.982,13.223l17.945,17.884l-7.649,17.233
	l-11.92,26.837l-87.968-87.968c-27.989-27.979-27.989-73.362,0-101.352l0.291-0.281c27.989-27.989,73.362-27.989,101.352,0
	L217.56,247.148z"></path>
<path style="fill: #ffbeaa" d="M254.923,284.51l-22.115,22.105l-28.711,28.711l-28.701,28.711l-22.115,22.105l-37.363-37.363
	l11.92-26.837l7.649-17.233l-17.945-17.884c8.882-1.915,17.323-6.326,24.22-13.223l0.612-0.612
	c6.907-6.897,11.308-15.338,13.223-24.22l17.884,17.935l17.233-7.649l26.847-11.91L254.923,284.51z"></path>
<polygon style="fill: #f7cf69" points="115.918,348.78 127.837,321.943 182.862,314.088 191.36,260.157 218.091,247.679 
	356.981,386.569 255.284,488.147 "></polygon>
<g>
	<polygon style="fill: #7acba7" points="356.981,386.569 218.091,247.679 191.36,260.157 190.647,264.681 334.975,408.549 	"></polygon>
	<polygon style="fill: #7acba7" points="182.862,314.088 131.949,321.357 277.255,466.201 306.929,436.562 183.025,313.051 	"></polygon>
</g>
<path style="fill: #cc2e43" d="M155.596,248.772c-1.915,8.882-6.316,17.323-13.223,24.22l-0.612,0.612
	c-6.897,6.897-15.338,11.308-24.22,13.223c-15.709,3.398-32.771-1.013-44.982-13.223l-5.764-5.764l35.689,0.862
	c2.867-20.441,14.516-32.09,34.947-34.947l-0.852-35.769l5.794,5.794C154.594,216,158.995,233.063,155.596,248.772z"></path>
<path style="fill: #ec5569" d="M341.657,38.893L341.657,38.893c-17.604-17.603-46.144-17.603-63.746,0l-9.944,9.944
	c-2.371,2.371-6.215,2.371-8.586,0l-9.784-9.784c-17.603-17.603-46.144-17.603-63.746,0l0,0c-17.603,17.603-17.603,46.144,0,63.746
	l73.537,73.537c2.371,2.371,6.215,2.371,8.586,0l73.684-73.696C359.26,85.036,359.26,56.496,341.657,38.893z"></path>
<polyline style="fill: #fff5f5" points="315.55,223.868 153.246,386.172 254.78,487.706 417.286,325.2 "></polyline>
<path style="fill: #b5d3e3" d="M347.312,255.629l-17.985,18.035l-23.037-10.175l-21.052-9.303l30.315-30.315l0.932,0.932
	c0,0.01,0,0.01,0.01,0.01c2.376,5.363,5.754,10.386,10.155,14.787c4.451,4.451,9.544,7.86,14.977,10.235c0,0,0,0.01,0.01,0.01
	l5.634,5.614C347.282,255.518,347.302,255.578,347.312,255.629z"></path>
<path style="fill: #ff94d2" d="M305.408,334.996c0.05,0.12,0.11,0.251,0.16,0.371c-14.105,9.965-33.754,8.641-46.375-3.99
	c-12.671-12.661-13.975-32.39-3.91-46.505l-0.361-0.361l30.315-30.325l21.052,9.303c-3.198,12.321-4.902,25.243-4.902,38.556
	C301.388,317.943,301.569,326.515,305.408,334.996z"></path>
<rect x="204.004" y="365.13" transform="matrix(-0.7071 0.7071 -0.7071 -0.7071 657.2437 601.6064)" style="fill: #fff5f5" width="0.042" height="143.585"></rect>
<path style="fill: #ffcebf" d="M459.009,255.528l-24.391,24.391c-12.341,12.341-29.343,17.193-45.343,14.536
	c-1.203-0.201-2.406-0.441-3.589-0.722c-0.12-0.03-0.241-0.06-0.361-0.09c-8.902-2.195-17.333-6.767-24.29-13.724
	c-6.957-6.957-11.529-15.388-13.724-24.29c-0.01-0.05-0.03-0.11-0.04-0.17c-0.301-1.253-0.561-2.506-0.762-3.779
	c-0.481-2.827-0.712-5.694-0.712-8.551c0-13.323,5.073-26.646,15.238-36.801l13.544-13.443
	c19.719,12.341,53.152,28.621,77.923,16.571C452.503,209.454,447.14,232.872,459.009,255.528z"></path>
<path style="fill: #ffbeaa" d="M377.307,334.304l0.16,0.361c-12.321,3.198-25.243,4.902-38.566,4.902
	c-15.709,0-24.441-0.211-32.942-4.02l-0.281-0.281l-0.271-0.271c-3.84-8.481-4.02-17.052-4.02-32.952
	c0-13.313,1.704-26.235,4.902-38.556l23.037,10.175l17.985-18.035c2.195,8.902,6.767,17.333,13.724,24.29
	c6.957,6.957,15.388,11.529,24.29,13.724l-18.035,17.975L377.307,334.304z"></path>
<polygon style="fill: #97bffd" points="386.765,355.727 386.941,355.551 377.348,334.394 "></polygon>
<path style="fill: #ff94d2" d="M377.307,334.304l0.16,0.361c-12.321,3.198-25.243,4.902-38.566,4.902
	c-15.709,0-24.441-0.211-32.942-4.02l-0.281-0.281l-0.271-0.271c0.05,0.12,0.11,0.251,0.16,0.371l0.01,0.01l0.01,0.01
	c-9.975,14.105-8.641,33.754,3.98,46.375c12.661,12.661,32.39,13.965,46.505,3.9l0.381,0.381l30.31-30.315l-9.417-21.333
	L377.307,334.304z"></path>
<path style="fill: #b5d3e3" d="M416.855,324.77c-5.634-2.386-10.907-5.875-15.498-10.466c-4.541-4.541-8.01-9.764-10.396-15.328
	l-5.273-5.243c-0.12-0.03-0.241-0.06-0.361-0.09l-18.035,17.975l10.015,22.686l0.041,0.09l-1.318-2.986l1.318,2.986l9.594,21.157
	l30.345-30.349L416.855,324.77z"></path>
<path style="fill: #3f7196" d="M356.455,386.042l-22.115,22.105l-28.711,28.711l-28.701,28.711l-22.115,22.105L153.281,386.143
	l22.115-22.105l28.701-28.711l28.711-28.711l22.115-22.105l0.361,0.361c-10.065,14.115-8.762,33.844,3.91,46.505
	c12.621,12.631,32.27,13.955,46.375,3.99l0.01,0.01l0.01,0.01c-9.975,14.105-8.641,33.754,3.98,46.375
	c12.661,12.661,32.39,13.965,46.505,3.9L356.455,386.042z"></path>
<path style="fill: #8abbd5" d="M155.243,387.098l17.836-18.88L52.782,253.341c0,0-52.755-51.988-34.539-82.727
	c0,0-30.194,45.92,9.951,90.321L155.243,387.098z"></path>
<path style="fill: #e63950" d="M215.93,103.173c-8.802-8.802-13.203-20.34-13.203-31.869c0-11.539,4.401-23.077,13.203-31.879
	c4.917-4.917,10.689-8.458,16.836-10.628c-15.859-5.599-34.226-2.058-46.912,10.628c-8.802,8.802-13.203,20.34-13.203,31.879
	c0,11.529,4.401,23.067,13.203,31.869l73.543,73.533c2.366,2.376,6.215,2.376,8.581,0l10.746-10.748L215.93,103.173z"></path>
<path style="fill: #f77cc9" d="M482.969,158.061c-28.04-28.04-73.502-28.04-101.542,0l-1.369,1.369
	c-14.585-7.834-36.738-5.788-52.3,9.773s-19.452,39.559-11.618,54.144l-80.164,80.164l-82.665,82.655l-0.03,0.03l17.043,17.043
	l158.009-160.282l15.603,5.256l8.686-31.166l35.547-35.036c28.04-28.04,75.199-26.343,103.238,1.696
	c4.833,4.833,8.812,10.191,11.979,15.881C501.427,184.405,494.633,169.725,482.969,158.061z"></path>
<path style="fill: #8abbd5" d="M326.651,239.599c-4.401-4.401-7.779-9.423-10.155-14.787c-0.01,0-0.01,0-0.01-0.01l-0.899-0.899
	l-30.302,30.302l21.006,9.283l1.258,0.555l20.785-21.083l3.578,1.205C330.078,242.79,328.32,241.267,326.651,239.599z"></path>
<path style="fill: #005f80" d="M153.311,386.168l-0.002,0.002l17.043,17.043l81.416-82.586c-5.176-11.526-4.005-25.209,3.516-35.756
	l-0.333-0.333l-18.975,18.974L153.311,386.168z"></path>
<path style="fill: #ffb64c" d="M455.483,140.907c-10.802-3.694-22.306-4.748-33.508-3.145c-0.209,0.032-0.417,0.068-0.626,0.101
	c-0.666,0.101-1.329,0.217-1.992,0.336c-2.088,0.394-4.197,0.876-6.329,1.463c-10.591,2.916-21.125,13.472-30.559,17.408
	c-0.346,0.333-0.702,0.651-1.043,0.991l-1.369,1.369c-0.683-0.366-1.385-0.704-2.099-1.027c-0.422,0.065-0.843,0.118-1.259,0.143
	c-9.063,0.545-16.997-3.525-26.585-1.297c-8.325,1.934-16.174,6.147-22.405,12.005c-13.205,13.241-17.975,32.56-14.284,47.003
	c2.709,8.878,12.607,21.503,22.384,29.221l8.127,2.738l2.684-9.63c0.894-6.537,2.851-13.873,5.743-20.608l0.259-0.928l0.265-0.262
	c4.84-10.731,12.091-19.671,21.229-20.924l14.054-13.851c28.04-28.04,75.199-26.343,103.238,1.696
	c3.955,3.955,7.328,8.266,10.162,12.817C496.722,171.774,479.507,149.66,455.483,140.907z"></path>
<path d="M254.631,180.938c2.567,2.567,5.98,3.981,9.61,3.981c3.631,0,7.043-1.414,9.611-3.981l47.049-47.057
	c2.936-2.936,2.936-7.697-0.001-10.632s-7.698-2.936-10.632,0.001l-46.025,46.032l-72.513-72.513c-7.094-7.094-11-16.525-11-26.557
	s3.906-19.463,11-26.557s16.525-11,26.557-11s19.463,3.907,26.557,11l9.783,9.784c2.567,2.567,5.98,3.981,9.61,3.981
	c3.631,0,7.043-1.415,9.609-3.981l9.945-9.943c7.093-7.094,16.524-11,26.556-11s19.463,3.906,26.556,11
	c7.094,7.094,11.001,16.525,11.001,26.557s-3.907,19.463-11.001,26.558l-4.748,4.75c-2.936,2.936-2.935,7.697,0.001,10.632
	c2.937,2.935,7.698,2.934,10.632-0.002l4.748-4.749c9.934-9.934,15.404-23.141,15.404-37.189c0-14.049-5.471-27.256-15.404-37.189
	s-23.141-15.404-37.19-15.404s-27.256,5.471-37.189,15.404l-8.92,8.919l-8.76-8.761c-9.935-9.934-23.141-15.405-37.19-15.405
	c-14.049,0-27.256,5.472-37.189,15.405s-15.404,23.14-15.404,37.189s5.471,27.256,15.404,37.189L254.631,180.938z"></path>
<path d="M512,208.114c0-21.186-8.249-41.103-23.231-56.083c-14.981-14.98-34.899-23.231-56.083-23.231
	c-20.312,0-39.447,7.602-54.195,21.431c-19.952-6.127-41.7-0.882-56.596,14.015c-10.677,10.679-16.559,24.876-16.559,39.977
	c0,5.713,0.845,11.296,2.469,16.608l-27.228,27.227c-0.07,0.068-0.139,0.136-0.206,0.208l-24.888,24.897l-49.56-49.559
	c-2.936-2.936-7.697-2.936-10.632,0c-2.936,2.936-2.936,7.697,0,10.632l9.768,9.768l-16.041,7.12
	c-0.543,0.172-1.064,0.401-1.55,0.688l-11.75,5.215l-11.503-11.538c2.348-16.937-2.969-34.742-15.965-47.738l-27.874-27.874
	c-22.013-22.012-57.831-22.013-79.843,0l-0.608,0.608c-22.013,22.013-22.013,57.831,0,79.843L67.8,278.202
	c11.006,11.006,25.464,16.51,39.922,16.51c2.61,0,5.221-0.185,7.812-0.544l10.516,10.482l1.027,1.024l-5.218,11.75
	c-0.287,0.485-0.515,1.005-0.688,1.548l-7.121,16.036L33.826,254.78c-12.116-12.112-18.789-28.219-18.789-45.355
	c0-17.117,6.658-33.209,18.75-45.322l0.244-0.236c0.029-0.028,0.058-0.057,0.087-0.086c25.012-25.012,65.708-25.01,90.718,0
	l48.069,48.079c2.935,2.936,7.696,2.938,10.632,0.001c2.936-2.936,2.937-7.696,0.001-10.632l-48.07-48.08
	c-30.859-30.86-81.061-30.873-111.94-0.044l-0.248,0.24c-0.029,0.028-0.058,0.057-0.087,0.086C8.237,168.387,0,188.273,0,209.426
	c0,21.154,8.237,41.038,23.195,55.989l124.771,124.772c0.164,0.204,0.341,0.4,0.529,0.589l101.532,101.532
	c0.885,0.885,1.968,1.526,3.145,1.881c0.72,0.228,1.476,0.349,2.246,0.351c0.006,0,0.011,0,0.017,0c1.993,0,3.906-0.792,5.315-2.2
	l101.643-101.632c0.255-0.255,0.482-0.531,0.696-0.816l29.56-29.56c0.002-0.002,0.004-0.005,0.006-0.007l27.319-27.327
	c5.311,1.623,10.892,2.468,16.603,2.468c15.102,0,29.3-5.881,39.977-16.559c14.942-14.941,20.208-36.715,14.055-56.638
	C504.413,247.525,512,228.408,512,208.114z M321.895,244.201c4.441,4.441,9.621,8.094,15.236,10.836l-8.923,8.95l-18.317-8.091
	c-0.003-0.001-0.006-0.002-0.009-0.003l-11.006-4.864l15.745-15.745C316.715,238.46,319.142,241.449,321.895,244.201z
	 M353.873,242.41c0-11.891,4.63-23.07,13.038-31.478l9.301-9.3c18.227,10.684,44.675,22.323,68.093,17.84
	c-0.29,8.762,0.679,21.137,6.144,33.835l-20.582,20.581c-8.408,8.408-19.587,13.038-31.477,13.038c-3.684,0-7.298-0.446-10.785-1.31
	c-0.053-0.012-0.105-0.028-0.158-0.039c-7.705-1.939-14.772-5.926-20.535-11.69c-5.754-5.755-9.737-12.809-11.68-20.5
	c-0.017-0.082-0.04-0.163-0.06-0.246c-0.149-0.607-0.286-1.217-0.41-1.831c0.04-1.028-0.13-2.034-0.487-2.967
	C354.016,246.392,353.873,244.413,353.873,242.41z M360.975,313.94l6.488,14.696c-9.188,1.788-18.57,2.698-28.001,2.698
	c-8.209,0-14.076-0.084-18.78-0.584l4.521-4.522c2.936-2.936,2.936-7.697-0.001-10.633c-2.935-2.936-7.696-2.935-10.632,0
	l-4.539,4.539c-0.518-4.843-0.563-10.752-0.563-18.805c0-9.424,0.909-18.803,2.698-27.988l14.685,6.486
	c0.038,0.017,0.076,0.027,0.114,0.043c0.123,0.052,0.249,0.096,0.374,0.141c0.115,0.042,0.231,0.085,0.347,0.121
	c0.116,0.036,0.235,0.063,0.353,0.093c0.128,0.032,0.256,0.068,0.384,0.094c0.099,0.02,0.201,0.031,0.3,0.046
	c0.147,0.023,0.295,0.05,0.443,0.064c0.045,0.004,0.09,0.003,0.135,0.007c0.195,0.015,0.39,0.03,0.585,0.03
	c0.482,0,0.961-0.047,1.434-0.138c0.003-0.001,0.006-0.001,0.01-0.001c0.131-0.026,0.261-0.063,0.392-0.095
	c0.108-0.027,0.218-0.048,0.324-0.08c0.071-0.021,0.14-0.05,0.212-0.074c0.162-0.054,0.325-0.106,0.484-0.171
	c0.038-0.016,0.075-0.036,0.112-0.052c0.187-0.08,0.374-0.164,0.555-0.261c0.037-0.02,0.072-0.044,0.109-0.065
	c0.178-0.098,0.356-0.199,0.527-0.314c0.071-0.047,0.138-0.103,0.209-0.153c0.132-0.095,0.267-0.187,0.395-0.292
	c0.121-0.099,0.236-0.211,0.352-0.319c0.071-0.066,0.146-0.125,0.216-0.194l2.603-2.611l7.053-7.073
	c2.857,5.832,6.68,11.221,11.407,15.949c4.728,4.728,10.117,8.55,15.95,11.407l-9.682,9.65
	C360.344,307.773,359.72,311.096,360.975,313.94z M307.972,389.229c0.215,0.177,0.434,0.346,0.652,0.518
	c0.334,0.265,0.668,0.528,1.008,0.783c0.234,0.174,0.471,0.343,0.708,0.512c0.332,0.238,0.665,0.473,1.001,0.701
	c0.245,0.165,0.492,0.326,0.74,0.486c0.337,0.218,0.676,0.431,1.017,0.639c0.252,0.153,0.505,0.304,0.76,0.451
	c0.346,0.201,0.694,0.395,1.044,0.585c0.255,0.138,0.509,0.277,0.766,0.41c0.361,0.187,0.725,0.366,1.09,0.543
	c0.251,0.121,0.499,0.244,0.752,0.36c0.386,0.177,0.776,0.345,1.166,0.511c0.236,0.1,0.47,0.205,0.708,0.301
	c0.441,0.178,0.885,0.344,1.331,0.507c0.19,0.07,0.379,0.146,0.57,0.214c0.642,0.225,1.286,0.437,1.936,0.631
	c0.01,0.003,0.019,0.005,0.029,0.008c0.638,0.19,1.278,0.364,1.923,0.524c0.21,0.052,0.422,0.095,0.633,0.144
	c0.444,0.103,0.888,0.205,1.335,0.296c0.259,0.052,0.518,0.095,0.777,0.142c0.403,0.073,0.805,0.145,1.21,0.207
	c0.278,0.042,0.557,0.078,0.836,0.115c0.387,0.051,0.774,0.1,1.163,0.141c0.29,0.031,0.58,0.056,0.871,0.081
	c0.206,0.018,0.411,0.042,0.617,0.057l-2.991,2.991c-0.003,0.003-0.006,0.006-0.01,0.009c-0.004,0.004-0.007,0.008-0.01,0.011
	l-28.694,28.694c-0.002,0.002-0.004,0.004-0.007,0.006c-0.002,0.002-0.005,0.005-0.007,0.008l-45.514,45.514l-90.899-90.899
	l16.724-16.724c0.024-0.023,0.05-0.043,0.073-0.066c0.024-0.024,0.043-0.05,0.066-0.073l60.361-60.362
	c0.001,0.012,0.002,0.023,0.003,0.035c0.045,0.621,0.102,1.24,0.173,1.858c0.008,0.068,0.019,0.135,0.027,0.202
	c0.066,0.546,0.139,1.092,0.226,1.636c0.031,0.198,0.071,0.395,0.105,0.592c0.071,0.412,0.143,0.824,0.227,1.234
	c0.047,0.233,0.102,0.463,0.153,0.695c0.082,0.375,0.164,0.749,0.257,1.122c0.061,0.245,0.128,0.487,0.193,0.731
	c0.095,0.357,0.19,0.714,0.295,1.068c0.074,0.251,0.154,0.5,0.233,0.751c0.108,0.344,0.218,0.688,0.334,1.029
	c0.087,0.255,0.179,0.507,0.271,0.76c0.121,0.334,0.244,0.668,0.374,0.999c0.099,0.255,0.202,0.507,0.307,0.76
	c0.134,0.326,0.272,0.652,0.415,0.975c0.111,0.254,0.227,0.505,0.343,0.757c0.148,0.319,0.3,0.637,0.456,0.952
	c0.123,0.251,0.249,0.499,0.378,0.748c0.162,0.314,0.331,0.626,0.501,0.935c0.134,0.245,0.27,0.489,0.409,0.731
	c0.177,0.309,0.362,0.615,0.547,0.92c0.145,0.24,0.29,0.478,0.44,0.716c0.193,0.305,0.394,0.606,0.595,0.906
	c0.154,0.231,0.307,0.462,0.466,0.69c0.213,0.305,0.435,0.605,0.657,0.906c0.16,0.218,0.317,0.437,0.482,0.652
	c0.238,0.31,0.484,0.614,0.731,0.918c0.161,0.199,0.318,0.401,0.483,0.598c0.278,0.332,0.567,0.657,0.857,0.981
	c0.145,0.163,0.285,0.33,0.432,0.491c0.442,0.483,0.896,0.958,1.363,1.426c0.594,0.595,1.205,1.165,1.826,1.718
	c0.198,0.176,0.399,0.344,0.599,0.515c0.433,0.373,0.869,0.74,1.313,1.093c0.235,0.187,0.471,0.369,0.709,0.55
	c0.431,0.329,0.866,0.648,1.306,0.959c0.237,0.167,0.473,0.336,0.713,0.498c0.495,0.335,0.996,0.656,1.503,0.968
	c0.184,0.114,0.366,0.236,0.552,0.347c0.69,0.413,1.388,0.807,2.095,1.179c0.16,0.084,0.324,0.159,0.485,0.242
	c0.553,0.283,1.111,0.556,1.674,0.814c0.258,0.118,0.518,0.228,0.778,0.341c0.479,0.209,0.961,0.409,1.447,0.598
	c0.279,0.109,0.557,0.216,0.837,0.319c0.492,0.181,0.987,0.351,1.485,0.513c0.263,0.086,0.523,0.175,0.787,0.257
	c0.624,0.191,1.25,0.366,1.88,0.528c0.135,0.035,0.269,0.077,0.404,0.11c0.76,0.188,1.525,0.353,2.293,0.5
	c0.241,0.046,0.481,0.082,0.722,0.123c0.538,0.094,1.078,0.181,1.619,0.255c0.292,0.039,0.583,0.073,0.875,0.106
	c0.505,0.058,1.01,0.107,1.517,0.147c0.293,0.023,0.584,0.046,0.878,0.063c0.543,0.032,1.087,0.05,1.631,0.062
	c0.247,0.005,0.492,0.017,0.739,0.018c0.068,0,0.137,0.005,0.205,0.005c0.662,0,1.324-0.02,1.986-0.05
	c0.167-0.008,0.334-0.019,0.501-0.028c0.684-0.039,1.366-0.092,2.048-0.163c0.092-0.01,0.185-0.016,0.278-0.026
	c0.747-0.083,1.492-0.19,2.235-0.313c0.083-0.013,0.166-0.021,0.249-0.035c-0.016,0.092-0.024,0.185-0.039,0.277
	c-0.106,0.652-0.198,1.304-0.274,1.958c-0.026,0.22-0.049,0.439-0.072,0.659c-0.064,0.626-0.114,1.251-0.15,1.878
	c-0.009,0.151-0.022,0.302-0.03,0.453c-0.036,0.766-0.052,1.533-0.048,2.299c0.001,0.175,0.008,0.351,0.011,0.526
	c0.01,0.609,0.033,1.216,0.069,1.824c0.013,0.217,0.026,0.433,0.042,0.649c0.052,0.704,0.118,1.407,0.204,2.107
	c0.008,0.063,0.012,0.126,0.02,0.189c0.097,0.763,0.221,1.523,0.358,2.28c0.036,0.199,0.077,0.398,0.116,0.597
	c0.115,0.586,0.243,1.17,0.382,1.751c0.047,0.198,0.093,0.397,0.143,0.594c0.19,0.747,0.395,1.491,0.626,2.229
	c0.02,0.063,0.043,0.126,0.063,0.19c0.214,0.674,0.447,1.341,0.694,2.006c0.076,0.206,0.156,0.41,0.236,0.616
	c0.223,0.571,0.457,1.138,0.704,1.701c0.072,0.164,0.14,0.33,0.215,0.494c0.32,0.706,0.659,1.404,1.018,2.095
	c0.073,0.14,0.151,0.278,0.227,0.418c0.299,0.559,0.609,1.113,0.933,1.66c0.116,0.197,0.235,0.394,0.355,0.59
	c0.349,0.568,0.71,1.131,1.087,1.686c0.072,0.106,0.138,0.214,0.212,0.319c0.448,0.649,0.918,1.286,1.406,1.915
	c0.127,0.164,0.26,0.325,0.389,0.487c0.384,0.481,0.779,0.956,1.185,1.425c0.151,0.175,0.303,0.35,0.458,0.523
	c0.539,0.603,1.092,1.197,1.67,1.775c0.507,0.507,1.026,0.998,1.552,1.476c0.175,0.159,0.357,0.31,0.535,0.466
	C307.255,388.619,307.61,388.93,307.972,389.229z M204.663,323.981l-13.264-13.271l4.514-31.625l26.827,26.821L204.663,323.981z
	 M180.77,321.349l13.259,13.266l-18.076,18.074l-26.824-26.824L180.77,321.349z M287.474,262.431l10.615,4.691
	c-2.429,11.195-3.657,22.673-3.657,34.208c0,13.059,0.138,21.909,2.448,29.957c-0.476,0.213-0.957,0.412-1.442,0.596
	c-0.163,0.062-0.324,0.136-0.487,0.195c-0.738,0.266-1.483,0.499-2.235,0.701c-0.192,0.052-0.388,0.087-0.58,0.135
	c-0.56,0.138-1.123,0.268-1.688,0.371c-0.28,0.051-0.56,0.087-0.841,0.13c-0.485,0.074-0.97,0.141-1.457,0.189
	c-0.305,0.03-0.609,0.052-0.914,0.072c-0.469,0.031-0.938,0.052-1.407,0.061c-0.309,0.005-0.617,0.009-0.924,0.004
	c-0.478-0.007-0.956-0.031-1.434-0.062c-0.292-0.019-0.583-0.033-0.874-0.061c-0.533-0.051-1.064-0.125-1.593-0.207
	c-0.23-0.035-0.461-0.059-0.69-0.1c-0.753-0.134-1.501-0.295-2.242-0.49c-0.14-0.037-0.277-0.086-0.416-0.125
	c-0.603-0.167-1.201-0.35-1.793-0.557c-0.259-0.091-0.512-0.197-0.768-0.296c-0.468-0.179-0.935-0.366-1.395-0.57
	c-0.279-0.124-0.553-0.259-0.829-0.392c-0.432-0.21-0.86-0.429-1.283-0.661c-0.275-0.15-0.547-0.306-0.817-0.466
	c-0.42-0.25-0.834-0.514-1.244-0.786c-0.254-0.168-0.508-0.334-0.757-0.511c-0.437-0.311-0.862-0.644-1.285-0.981
	c-0.205-0.164-0.416-0.32-0.618-0.49c-0.616-0.52-1.217-1.065-1.796-1.644c-9.932-9.925-11.237-25.408-3.106-36.817
	c0.924-1.293,1.97-2.526,3.109-3.665c0.073-0.073,0.136-0.152,0.207-0.229L287.474,262.431z M244.852,283.796l-11.479,11.478
	l-32.823-32.815l15.904-7.06L244.852,283.796z M168.721,271.305c1.441,1.446,3.367,2.21,5.326,2.21c1.03,0,2.068-0.212,3.049-0.647
	l4.821-2.139l-5.139,35.999l-35.997,5.139l2.14-4.82c0.012-0.027,0.018-0.055,0.029-0.083c0.131-0.307,0.244-0.62,0.333-0.938
	c0.02-0.07,0.034-0.141,0.051-0.212c0.067-0.269,0.118-0.539,0.155-0.813c0.01-0.076,0.024-0.151,0.032-0.228
	c0.032-0.312,0.042-0.624,0.036-0.936c-0.002-0.091-0.008-0.181-0.013-0.273c-0.016-0.28-0.046-0.558-0.093-0.836
	c-0.008-0.049-0.012-0.098-0.021-0.147c-0.06-0.318-0.147-0.631-0.249-0.939c-0.024-0.074-0.05-0.146-0.077-0.22
	c-0.111-0.306-0.237-0.609-0.389-0.901c-0.003-0.006-0.005-0.012-0.008-0.018c-0.154-0.295-0.337-0.577-0.533-0.854
	c-0.048-0.067-0.097-0.133-0.147-0.2c-0.202-0.266-0.418-0.524-0.66-0.767c-0.004-0.004-0.006-0.008-0.01-0.012l-1.616-1.61
	l-7.806-7.783c5.686-2.693,11.014-6.378,15.712-11.076l0.608-0.607c4.698-4.698,8.383-10.026,11.076-15.712L168.721,271.305z
	 M130.325,226.864c-17.649,4.381-29.07,15.8-33.45,33.45l-26.327-0.631l-3.942-3.942c2.527-7.525,2.924-15.574,1.286-23.208
	c19.331,3.574,39.909-2.389,54.319-16.799c2.879-2.879,5.409-5.995,7.624-9.305L130.325,226.864z M50.561,181.119l0.608-0.607
	c8.075-8.075,18.682-12.112,29.289-12.112c10.607,0,21.214,4.037,29.289,12.112l11.163,11.163c-2.266,4.974-5.383,9.482-9.33,13.428
	c-14.261,14.261-36.521,17.549-54.13,7.993c-3.128-1.697-7.017-0.969-9.32,1.745c-2.302,2.715-2.386,6.671-0.2,9.48
	c4.16,5.348,6.167,12.009,5.897,18.64l-3.264-3.264C34.41,223.546,34.41,197.269,50.561,181.119z M88.888,275.165l13.982,0.335
	c0.061,0.001,0.122,0.002,0.182,0.002c3.738,0,6.923-2.756,7.443-6.476c2.391-17.081,11.459-26.15,28.541-28.541
	c3.781-0.529,6.565-3.809,6.474-7.626l-0.338-14.105c7.984,15.575,5.472,35.183-7.554,48.209l-0.608,0.607
	C124.01,280.573,104.448,283.098,88.888,275.165z M132.504,330.504l32.815,32.815l-11.478,11.476L125.445,346.4L132.504,330.504z
	 M356.454,375.26c-0.179,0.148-0.355,0.305-0.523,0.472c-1.112,1.112-2.343,2.152-3.66,3.094h-0.001
	c-4.991,3.559-10.763,5.312-16.508,5.326c-7.386,0.019-14.73-2.837-20.314-8.421c-0.579-0.579-1.124-1.182-1.644-1.797
	c-0.169-0.201-0.324-0.41-0.486-0.615c-0.339-0.424-0.673-0.851-0.984-1.289c-0.176-0.248-0.341-0.501-0.508-0.753
	c-0.274-0.412-0.539-0.828-0.79-1.251c-0.158-0.268-0.312-0.538-0.461-0.81c-0.235-0.427-0.455-0.858-0.667-1.294
	c-0.131-0.272-0.265-0.543-0.387-0.818c-0.208-0.466-0.396-0.939-0.577-1.413c-0.096-0.251-0.2-0.498-0.289-0.751
	c-0.212-0.603-0.398-1.214-0.568-1.829c-0.035-0.127-0.081-0.253-0.114-0.381c-0.195-0.745-0.358-1.498-0.492-2.255
	c-0.038-0.214-0.06-0.43-0.093-0.645c-0.084-0.545-0.16-1.091-0.213-1.639c-0.027-0.281-0.04-0.563-0.058-0.845
	c-0.032-0.488-0.056-0.975-0.063-1.465c-0.004-0.3,0-0.599,0.005-0.899c0.009-0.478,0.029-0.956,0.062-1.434
	c0.02-0.298,0.041-0.595,0.071-0.893c0.049-0.493,0.117-0.985,0.192-1.478c0.042-0.275,0.078-0.55,0.128-0.824
	c0.104-0.569,0.235-1.136,0.375-1.7c0.047-0.189,0.082-0.381,0.133-0.57c0.202-0.753,0.437-1.5,0.703-2.239
	c0.056-0.156,0.127-0.31,0.186-0.465c0.187-0.493,0.391-0.982,0.607-1.468c8.089,2.32,16.915,2.458,29.945,2.458
	c11.54,0,23.021-1.229,34.216-3.657l4.692,10.628L356.454,375.26z M389.773,341.938l-4.866-11.022l-8.091-18.328l8.947-8.917
	c2.741,5.614,6.396,10.795,10.837,15.235c2.754,2.754,5.745,5.182,8.922,7.279L389.773,341.938z M465.921,308.272
	c-7.837,7.838-18.259,12.155-29.344,12.155s-21.506-4.317-29.344-12.155c-1.989-1.989-3.733-4.14-5.253-6.426
	c14.557-0.86,28.125-6.927,38.523-17.326l24.387-24.387c2.608-2.608,2.893-6.655,0.867-9.585c-9.921-19.56-5.42-39.895-5.379-40.076
	c0.67-2.827-0.349-5.786-2.616-7.603c-2.268-1.817-5.378-2.163-7.991-0.892c-16.5,8.032-38.68,0.568-54.379-7.106
	c-18.005-8.802-31.889-19.969-32.026-20.081c-3.226-2.613-7.958-2.117-10.572,1.107c-2.616,3.225-2.121,7.96,1.105,10.575
	c0.556,0.451,3.945,3.167,9.327,6.881l-6.944,6.943c-10.399,10.398-16.466,23.965-17.325,38.524
	c-2.285-1.52-4.436-3.264-6.425-5.253c-7.838-7.838-12.155-18.259-12.155-29.345c0-11.086,4.317-21.506,12.155-29.345
	c11.792-11.793,29.457-15.346,45.013-9.051c0.243,0.099,0.49,0.186,0.741,0.259c0.094,0.028,0.189,0.045,0.284,0.069
	c0.139,0.035,0.277,0.073,0.417,0.099c0.173,0.033,0.346,0.054,0.519,0.075c0.063,0.007,0.126,0.02,0.19,0.025
	c0.192,0.018,0.385,0.024,0.576,0.027c0.048,0.001,0.097,0.005,0.145,0.005c0.184,0,0.368-0.012,0.551-0.026
	c0.059-0.005,0.119-0.006,0.178-0.011c0.163-0.016,0.324-0.043,0.485-0.07c0.081-0.013,0.163-0.023,0.245-0.04
	c0.136-0.027,0.27-0.064,0.404-0.098c0.104-0.027,0.209-0.05,0.312-0.082c0.112-0.034,0.222-0.077,0.333-0.116
	c0.12-0.042,0.241-0.083,0.359-0.132c0.1-0.042,0.197-0.091,0.295-0.136c0.121-0.057,0.244-0.11,0.363-0.174
	c0.112-0.06,0.219-0.128,0.328-0.193c0.098-0.059,0.197-0.113,0.293-0.177c0.175-0.116,0.343-0.243,0.508-0.374
	c0.025-0.02,0.052-0.037,0.076-0.057c0.21-0.17,0.41-0.353,0.602-0.546l1.49-1.49c12.139-12.14,28.281-18.826,45.45-18.826
	c17.169,0,33.311,6.686,45.45,18.826c12.14,12.14,18.827,28.281,18.827,45.451c0,17.169-6.687,33.31-18.827,45.45l-1.525,1.525
	c-2.371,2.371-2.825,5.932-1.365,8.762C481.23,279.212,477.605,296.588,465.921,308.272z"></path>
<g>
</g>
<g>
</g>
<g>
</g>
<g>
</g>
<g>
</g>
<g>
</g>
<g>
</g>
<g>
</g>
<g>
</g>
<g>
</g>
<g>
</g>
<g>
</g>
<g>
</g>
<g>
</g>
<g>
</g>
</svg>
