<svg width="175" height="140" fill="none" xmlns="http://www.w3.org/2000/svg"><g clip-path="url('#clip0_202_2')" stroke="#9F6F14" stroke-width="3.75" stroke-linecap="round" stroke-linejoin="round"><path d="m61.46 40.81-5.1-13.259a1.055 1.055 0 0 0-1.97 0l-5.1 13.259a1.057 1.057 0 0 1-.605.606l-13.259 5.1a1.055 1.055 0 0 0 0 1.968l13.259 5.1a1.054 1.054 0 0 1 .606.606l5.1 13.259a1.055 1.055 0 0 0 1.968 0l5.1-13.259a1.054 1.054 0 0 1 .606-.606l13.259-5.1a1.055 1.055 0 0 0 0-1.968l-13.259-5.1a1.057 1.057 0 0 1-.606-.606ZM43.656 17.969l-2.343-6.094-2.344 6.094-6.094 2.343 6.094 2.344 2.343 6.094 2.344-6.094 6.094-2.343-6.094-2.344ZM81 23.75l-3.125-8.125-3.125 8.125-8.125 3.125L74.75 30l3.125 8.125L81 30l8.125-3.125L81 23.75Z"/></g><g clip-path="url('#clip1_202_2')" stroke="#9F6F14" stroke-width="3.75" stroke-linecap="round" stroke-linejoin="round"><path d="m145.459 30.81-5.1-13.259a1.05 1.05 0 0 0-.984-.676 1.055 1.055 0 0 0-.984.676l-5.1 13.259a1.062 1.062 0 0 1-.606.606l-13.259 5.1a1.057 1.057 0 0 0-.676.984 1.06 1.06 0 0 0 .676.984l13.259 5.1a1.047 1.047 0 0 1 .606.606l5.1 13.259a1.05 1.05 0 0 0 .984.676 1.055 1.055 0 0 0 .984-.676l5.1-13.259a1.062 1.062 0 0 1 .606-.606l13.259-5.1A1.057 1.057 0 0 0 160 37.5a1.06 1.06 0 0 0-.676-.984l-13.259-5.1a1.05 1.05 0 0 1-.606-.606ZM127.656 7.969l-2.344-6.094-2.343 6.094-6.094 2.343 6.094 2.344 2.343 6.094 2.344-6.094 6.094-2.344-6.094-2.343ZM165 13.75l-3.125-8.125-3.125 8.125-8.125 3.125L158.75 20l3.125 8.125L165 20l8.125-3.125L165 13.75Z"/></g><g clip-path="url('#clip2_202_2')" stroke="#9F6F14" stroke-width="3.75" stroke-linecap="round" stroke-linejoin="round"><path d="m30.46 110.81-5.1-13.259a1.055 1.055 0 0 0-1.97 0l-5.1 13.259a1.05 1.05 0 0 1-.605.606l-13.259 5.1a1.049 1.049 0 0 0-.676.984 1.055 1.055 0 0 0 .676.984l13.259 5.1a1.062 1.062 0 0 1 .606.606l5.1 13.259a1.057 1.057 0 0 0 .984.676 1.06 1.06 0 0 0 .984-.676l5.1-13.259a1.047 1.047 0 0 1 .606-.606l13.259-5.1A1.05 1.05 0 0 0 45 117.5a1.055 1.055 0 0 0-.676-.984l-13.259-5.1a1.062 1.062 0 0 1-.606-.606ZM12.656 87.969l-2.344-6.094-2.343 6.094-6.094 2.344 6.094 2.343 2.343 6.094 2.344-6.094 6.094-2.344-6.094-2.343ZM50 93.75l-3.125-8.125-3.125 8.125-8.125 3.125L43.75 100l3.125 8.125L50 100l8.125-3.125L50 93.75Z"/></g><defs><clipPath id="clip0_202_2"><path fill="#fff" transform="translate(31 10)" d="M0 0h60v60H0z"/></clipPath><clipPath id="clip1_202_2"><path fill="#fff" transform="translate(115)" d="M0 0h60v60H0z"/></clipPath><clipPath id="clip2_202_2"><path fill="#fff" transform="translate(0 80)" d="M0 0h60v60H0z"/></clipPath></defs></svg>