<svg width="175" height="140" viewBox="0 0 175 140" fill="none" xmlns="http://www.w3.org/2000/svg">
<g clip-path="url('#clip0_202_2')">
<path d="M61.4594 40.8098L56.3594 27.5512C56.2828 27.3522 56.1478 27.1811 55.9721 27.0604C55.7963 26.9397 55.5882 26.8751 55.375 26.8751C55.1618 26.8751 54.9536 26.9397 54.7779 27.0604C54.6022 27.1811 54.4672 27.3522 54.3906 27.5512L49.2906 40.8098C49.2376 40.9475 49.1563 41.0726 49.052 41.177C48.9476 41.2813 48.8225 41.3626 48.6848 41.4156L35.4262 46.5156C35.2272 46.5922 35.0561 46.7272 34.9354 46.9029C34.8147 47.0786 34.7501 47.2868 34.7501 47.5C34.7501 47.7132 34.8147 47.9213 34.9354 48.0971C35.0561 48.2728 35.2272 48.4078 35.4262 48.4844L48.6848 53.5844C48.8225 53.6373 48.9476 53.7186 49.052 53.823C49.1563 53.9274 49.2376 54.0525 49.2906 54.1902L54.3906 67.4488C54.4672 67.6478 54.6022 67.8189 54.7779 67.9396C54.9536 68.0603 55.1618 68.1249 55.375 68.1249C55.5882 68.1249 55.7963 68.0603 55.9721 67.9396C56.1478 67.8189 56.2828 67.6478 56.3594 67.4488L61.4594 54.1902C61.5123 54.0525 61.5936 53.9274 61.698 53.823C61.8024 53.7186 61.9275 53.6373 62.0652 53.5844L75.3238 48.4844C75.5228 48.4078 75.6939 48.2728 75.8146 48.0971C75.9353 47.9213 75.9999 47.7132 75.9999 47.5C75.9999 47.2868 75.9353 47.0786 75.8146 46.9029C75.6939 46.7272 75.5228 46.5922 75.3238 46.5156L62.0652 41.4156C61.9275 41.3626 61.8024 41.2813 61.698 41.177C61.5936 41.0726 61.5123 40.9475 61.4594 40.8098Z" stroke="#9F6F14" stroke-width="3.75" stroke-linecap="round" stroke-linejoin="round"></path>
<path d="M43.6562 17.9688L41.3125 11.875L38.9688 17.9688L32.875 20.3125L38.9688 22.6562L41.3125 28.75L43.6562 22.6562L49.75 20.3125L43.6562 17.9688Z" stroke="#9F6F14" stroke-width="3.75" stroke-linecap="round" stroke-linejoin="round"></path>
<path d="M81.0004 23.7496L77.875 15.625L74.7496 23.7496L66.625 26.875L74.7496 30.0004L77.875 38.125L81.0004 30.0004L89.125 26.875L81.0004 23.7496Z" stroke="#9F6F14" stroke-width="3.75" stroke-linecap="round" stroke-linejoin="round"></path>
</g>
<g clip-path="url('#clip1_202_2')">
<path d="M145.459 30.8098L140.359 17.5512C140.283 17.3522 140.148 17.1811 139.972 17.0604C139.796 16.9397 139.588 16.8751 139.375 16.8751C139.162 16.8751 138.954 16.9397 138.778 17.0604C138.602 17.1811 138.467 17.3522 138.391 17.5512L133.291 30.8098C133.238 30.9475 133.156 31.0726 133.052 31.177C132.948 31.2813 132.823 31.3626 132.685 31.4156L119.426 36.5156C119.227 36.5922 119.056 36.7272 118.935 36.9029C118.815 37.0786 118.75 37.2868 118.75 37.5C118.75 37.7132 118.815 37.9213 118.935 38.0971C119.056 38.2728 119.227 38.4078 119.426 38.4844L132.685 43.5844C132.823 43.6373 132.948 43.7186 133.052 43.823C133.156 43.9274 133.238 44.0525 133.291 44.1902L138.391 57.4488C138.467 57.6478 138.602 57.8189 138.778 57.9396C138.954 58.0603 139.162 58.1249 139.375 58.1249C139.588 58.1249 139.796 58.0603 139.972 57.9396C140.148 57.8189 140.283 57.6478 140.359 57.4488L145.459 44.1902C145.512 44.0525 145.594 43.9274 145.698 43.823C145.802 43.7186 145.927 43.6373 146.065 43.5844L159.324 38.4844C159.523 38.4078 159.694 38.2728 159.815 38.0971C159.935 37.9213 160 37.7132 160 37.5C160 37.2868 159.935 37.0786 159.815 36.9029C159.694 36.7272 159.523 36.5922 159.324 36.5156L146.065 31.4156C145.927 31.3626 145.802 31.2813 145.698 31.177C145.594 31.0726 145.512 30.9475 145.459 30.8098Z" stroke="#9F6F14" stroke-width="3.75" stroke-linecap="round" stroke-linejoin="round"></path>
<path d="M127.656 7.96875L125.312 1.875L122.969 7.96875L116.875 10.3125L122.969 12.6562L125.312 18.75L127.656 12.6562L133.75 10.3125L127.656 7.96875Z" stroke="#9F6F14" stroke-width="3.75" stroke-linecap="round" stroke-linejoin="round"></path>
<path d="M165 13.7496L161.875 5.625L158.75 13.7496L150.625 16.875L158.75 20.0004L161.875 28.125L165 20.0004L173.125 16.875L165 13.7496Z" stroke="#9F6F14" stroke-width="3.75" stroke-linecap="round" stroke-linejoin="round"></path>
</g>
<g clip-path="url('#clip2_202_2')">
<path d="M30.4594 110.81L25.3594 97.5512C25.2828 97.3522 25.1478 97.1811 24.9721 97.0604C24.7963 96.9397 24.5882 96.8751 24.375 96.8751C24.1618 96.8751 23.9536 96.9397 23.7779 97.0604C23.6022 97.1811 23.4672 97.3522 23.3906 97.5512L18.2906 110.81C18.2376 110.948 18.1563 111.073 18.052 111.177C17.9476 111.281 17.8225 111.363 17.6848 111.416L4.42617 116.516C4.2272 116.592 4.05609 116.727 3.93541 116.903C3.81472 117.079 3.75012 117.287 3.75012 117.5C3.75012 117.713 3.81472 117.921 3.93541 118.097C4.05609 118.273 4.2272 118.408 4.42617 118.484L17.6848 123.584C17.8225 123.637 17.9476 123.719 18.052 123.823C18.1563 123.927 18.2376 124.052 18.2906 124.19L23.3906 137.449C23.4672 137.648 23.6022 137.819 23.7779 137.94C23.9536 138.06 24.1618 138.125 24.375 138.125C24.5882 138.125 24.7963 138.06 24.9721 137.94C25.1478 137.819 25.2828 137.648 25.3594 137.449L30.4594 124.19C30.5123 124.052 30.5936 123.927 30.698 123.823C30.8024 123.719 30.9275 123.637 31.0652 123.584L44.3238 118.484C44.5228 118.408 44.6939 118.273 44.8146 118.097C44.9353 117.921 44.9999 117.713 44.9999 117.5C44.9999 117.287 44.9353 117.079 44.8146 116.903C44.6939 116.727 44.5228 116.592 44.3238 116.516L31.0652 111.416C30.9275 111.363 30.8024 111.281 30.698 111.177C30.5936 111.073 30.5123 110.948 30.4594 110.81Z" stroke="#9F6F14" stroke-width="3.75" stroke-linecap="round" stroke-linejoin="round"></path>
<path d="M12.6562 87.9688L10.3125 81.875L7.96875 87.9688L1.875 90.3125L7.96875 92.6562L10.3125 98.75L12.6562 92.6562L18.75 90.3125L12.6562 87.9688Z" stroke="#9F6F14" stroke-width="3.75" stroke-linecap="round" stroke-linejoin="round"></path>
<path d="M50.0004 93.7496L46.875 85.625L43.7496 93.7496L35.625 96.875L43.7496 100L46.875 108.125L50.0004 100L58.125 96.875L50.0004 93.7496Z" stroke="#9F6F14" stroke-width="3.75" stroke-linecap="round" stroke-linejoin="round"></path>
</g>
<defs>
<clipPath id="clip0_202_2">
<rect width="60" height="60" fill="white" transform="translate(31 10)"></rect>
</clipPath>
<clipPath id="clip1_202_2">
<rect width="60" height="60" fill="white" transform="translate(115)"></rect>
</clipPath>
<clipPath id="clip2_202_2">
<rect width="60" height="60" fill="white" transform="translate(0 80)"></rect>
</clipPath>
</defs>
</svg>
