<svg version="1.1" id="svg4776" xml:space="preserve" width="682.667" height="682.667" xmlns="http://www.w3.org/2000/svg"><defs id="defs4780"><clipPath clipPathUnits="userSpaceOnUse" id="clipPath4790"><path d="M0 512h512V0H0Z" id="path4788"/></clipPath></defs><g id="g4782" transform="matrix(1.33333 0 0 -1.33333 0 682.667)"><g id="g4784"><g id="g4786" clip-path="url('#clipPath4790')"><g id="g4792" transform="translate(61.811 412.072)"><path d="M0 0h388.378c34.137 0 61.811-27.674 61.811-61.811v-288.451c0-34.136-27.674-61.81-61.811-61.81H0c-34.137 0-61.811 27.674-61.811 61.81v288.451C-61.811-27.674-34.137 0 0 0" style="fill:#e2e2e2;fill-opacity:1;fill-rule:nonzero;stroke:none" id="path4794"/></g><g id="g4796" transform="translate(61.811 61.81)"><path d="M0 0v288.451c0 34.137 27.673 61.811 61.811 61.811H0c-34.137 0-61.811-27.674-61.811-61.811V0c0-34.137 27.674-61.811 61.811-61.811h61.811C27.673-61.811 0-34.137 0 0" style="fill:#d4d4d2;fill-opacity:1;fill-rule:nonzero;stroke:none" id="path4798"/></g><g id="g4800" transform="translate(418.738 366.182)"><path d="m0 0-47.369-20.233 6.161-51.14 38.883-2.334 20.815 15.45 2.972 25.751z" style="fill:#ffdcce;fill-opacity:1;fill-rule:nonzero;stroke:none" id="path4802"/></g><g id="g4804" transform="translate(458.155 306.482)"><path d="m0 0-17.955 27.193-23.787-41.201 32.527-1.952C-.74-16.469 4.677-7.085 0 0" style="fill:#5c586f;fill-opacity:1;fill-rule:nonzero;stroke:none" id="path4806"/></g><g id="g4808" transform="translate(418.738 366.182)"><path d="m0 0-41.207-71.373-242.991 140.291c-19.709 11.379-26.462 36.581-15.083 56.29h.001c11.379 19.709 36.58 26.462 56.29 15.083z" style="fill:#9ae0eb;fill-opacity:1;fill-rule:nonzero;stroke:none" id="path4810"/></g><g id="g4812" transform="translate(344.604 361.4)"><path d="M0 0c-11.379-19.709-36.581-26.462-56.29-15.082l89.217-51.51L74.134 4.781l-89.217 51.51C4.626 44.911 11.379 19.71 0 0" style="fill:#3ccadd;fill-opacity:1;fill-rule:nonzero;stroke:none" id="path4814"/></g><g id="g4816" transform="translate(167.856 235.3)"><path d="M0 0c-34.798-7.84-62.188-35.246-70.001-70.055" style="fill:none;stroke:#ff748f;stroke-width:15px;stroke-linecap:round;stroke-linejoin:round;stroke-miterlimit:10;stroke-dasharray:none;stroke-opacity:1" id="path4818"/></g><g id="g4820" transform="translate(278.787 165.246)"><path d="M0 0c-7.814 34.809-35.203 62.215-70 70.055" style="fill:none;stroke:#ff748f;stroke-width:15px;stroke-linecap:round;stroke-linejoin:round;stroke-miterlimit:10;stroke-dasharray:none;stroke-opacity:1" id="path4822"/></g><g id="g4824" transform="translate(387.742 117.213)"><path d="M0 0c-3.861 22.694-22.963 38.98-45.025 40.152" style="fill:none;stroke:#3ccadd;stroke-width:15px;stroke-linecap:round;stroke-linejoin:round;stroke-miterlimit:10;stroke-dasharray:none;stroke-opacity:1" id="path4826"/></g><g id="g4828" transform="translate(297.691 117.213)"><path d="M0 0c3.862 22.694 22.963 38.98 45.025 40.152" style="fill:none;stroke:#3ccadd;stroke-width:15px;stroke-linecap:round;stroke-linejoin:round;stroke-miterlimit:10;stroke-dasharray:none;stroke-opacity:1" id="path4830"/></g><g id="g4832" transform="translate(130.877 159.873)"><path d="m0 0-18.469-37.279c-3.161-6.38-1.311-14.118 4.421-18.342 11.638-8.574 34.594-20.67 71.492-20.67s59.854 12.096 71.493 20.67c5.731 4.224 7.581 11.962 4.42 18.342L77.559 75.347" style="fill:none;stroke:#ff748f;stroke-width:15px;stroke-linecap:round;stroke-linejoin:round;stroke-miterlimit:10;stroke-dasharray:none;stroke-opacity:1" id="path4834"/></g><g id="g4836" transform="translate(168.288 235.384)"><path d="m0 0-25.06-50.582" style="fill:none;stroke:#ff748f;stroke-width:15px;stroke-linecap:round;stroke-linejoin:round;stroke-miterlimit:10;stroke-dasharray:none;stroke-opacity:1" id="path4838"/></g><g id="g4840" transform="translate(232.427 274.707)"><path d="M0 0c0-24.358-19.747-44.105-44.106-44.105S-88.211-24.358-88.211 0c0 24.359 19.746 44.106 44.105 44.106C-19.747 44.106 0 24.359 0 0Z" style="fill:none;stroke:#ff748f;stroke-width:15px;stroke-linecap:round;stroke-linejoin:round;stroke-miterlimit:10;stroke-dasharray:none;stroke-opacity:1" id="path4842"/></g><g id="g4844" transform="translate(373.622 210.093)"><path d="M0 0c0-17.068-13.837-30.905-30.905-30.905-17.069 0-30.906 13.837-30.906 30.905 0 17.069 13.837 30.906 30.906 30.906C-13.837 30.906 0 17.069 0 0Z" style="fill:none;stroke:#3ccadd;stroke-width:15px;stroke-linecap:round;stroke-linejoin:round;stroke-miterlimit:10;stroke-dasharray:none;stroke-opacity:1" id="path4846"/></g><g id="g4848" transform="translate(158.917 86.415)"><path d="M0 0v-39.221" style="fill:none;stroke:#ff748f;stroke-width:15px;stroke-linecap:round;stroke-linejoin:round;stroke-miterlimit:10;stroke-dasharray:none;stroke-opacity:1" id="path4850"/></g><g id="g4852" transform="translate(217.725 86.415)"><path d="M0 0v-39.221" style="fill:none;stroke:#ff748f;stroke-width:15px;stroke-linecap:round;stroke-linejoin:round;stroke-miterlimit:10;stroke-dasharray:none;stroke-opacity:1" id="path4854"/></g><g id="g4856" transform="translate(381.257 51.509)"><path d="m0 0-38.54 58.721L-77.08 0" style="fill:none;stroke:#3ccadd;stroke-width:15px;stroke-linecap:round;stroke-linejoin:round;stroke-miterlimit:10;stroke-dasharray:none;stroke-opacity:1" id="path4858"/></g><g id="g4860" transform="translate(342.717 179.188)"><path d="M0 0v-68.958" style="fill:none;stroke:#3ccadd;stroke-width:15px;stroke-linecap:round;stroke-linejoin:round;stroke-miterlimit:10;stroke-dasharray:none;stroke-opacity:1" id="path4862"/></g><g id="g4864" transform="translate(83.017 303.589)"><path d="M0 0c-15.479-1.638-19.016-18.54-19.016-18.54s-16.406 5.388-25.564-7.198c-9.157-12.587 1.342-30.771 19.29-36.572 11.059-3.574 21.285-4.165 27.507-4.091a11.312 11.312 0 0 1 9.6 5.543c3.174 5.351 7.776 14.503 10.21 25.867C25.978-16.547 15.479 1.637 0 0Z" style="fill:none;stroke:#3ccadd;stroke-width:15px;stroke-linecap:round;stroke-linejoin:round;stroke-miterlimit:10;stroke-dasharray:none;stroke-opacity:1" id="path4866"/></g><g id="g4868" transform="translate(473.563 205.935)"><path d="M0 0c-9.157 12.587-25.564 7.199-25.564 7.199s-3.538 16.903-19.016 18.539C-60.06 27.375-70.558 9.191-66.607-9.253c2.434-11.363 7.036-20.516 10.211-25.867a11.309 11.309 0 0 1 9.599-5.542c6.222-.073 16.448.516 27.507 4.091C-1.342-30.771 9.157-12.586 0 0Z" style="fill:none;stroke:#ff748f;stroke-width:15px;stroke-linecap:round;stroke-linejoin:round;stroke-miterlimit:10;stroke-dasharray:none;stroke-opacity:1" id="path4870"/></g></g></g></g></svg>