<?xml version="1.0" encoding="UTF-8" standalone="no"?>
<!-- Created with Inkscape (http://www.inkscape.org/) -->

<svg version="1.1" id="svg831" xml:space="preserve" width="682.66669" height="682.66669" viewBox="0 0 682.66669 682.66669" xmlns="http://www.w3.org/2000/svg" xmlns:svg="http://www.w3.org/2000/svg"><defs id="defs835"><clipPath clipPathUnits="userSpaceOnUse" id="clipPath845"><path d="M 0,512 H 512 V 0 H 0 Z" id="path843"></path></clipPath></defs><g id="g837" transform="matrix(1.3333333,0,0,-1.3333333,0,682.66667)"><g id="g839"><g id="g841" clip-path="url('#clipPath845')"><g id="g847" transform="translate(490.2187,244.7202)"><path d="m 0,0 v 0 c 10.757,12.313 15.864,29.482 13.85,46.563 l -6.72,56.978 c -7.259,61.549 -50.349,113.628 -110.849,133.975 l -61.945,-20.832 c -22.536,-7.58 -39.011,-29.257 -42.093,-55.388 l -13.53,-114.733 c -2.015,-17.081 3.093,-34.25 13.85,-46.563 9.416,-10.779 22.313,-16.854 35.777,-16.854 h 135.883 c 13.464,0 26.36,6.075 35.777,16.854" style="fill: #c86d36; fill-opacity: 1; fill-rule: nonzero; stroke: none" id="path849"></path></g><g id="g851" transform="translate(504.0684,291.2832)"><path d="m 0,0 -6.72,56.978 c -7.259,61.549 -50.348,113.628 -110.848,133.975 l -13.923,-4.682 c 53.983,-22.929 91.783,-72.007 98.539,-129.293 L -26.232,0 c 2.013,-17.081 -3.093,-34.25 -13.851,-46.563 -9.417,-10.779 -22.313,-16.854 -35.777,-16.854 h 26.233 c 13.464,0 26.36,6.075 35.777,16.854 C -3.093,-34.25 2.015,-17.081 0,0" style="fill: #ac5e2e; fill-opacity: 1; fill-rule: nonzero; stroke: none" id="path853"></path></g><g id="g855" transform="translate(492.5439,182.0503)"><path d="m 0,0 c 0,25.303 -20.513,45.815 -45.815,45.815 h -120.457 c -25.304,0 -45.816,-20.512 -45.816,-45.815 V -83.412 H 0 Z" style="fill: #f58a97; fill-opacity: 1; fill-rule: nonzero; stroke: none" id="path857"></path></g><g id="g859" transform="translate(492.5439,182.0503)"><path d="m 0,0 c 0,25.303 -20.513,45.815 -45.815,45.815 h -24.047 c 25.303,0 45.815,-20.512 45.815,-45.815 V -83.412 H 0 Z" style="fill: #f07181; fill-opacity: 1; fill-rule: nonzero; stroke: none" id="path861"></path></g><g id="g863" transform="translate(386.5,186.2754)"><path d="m 0,0 v 0 c -20.605,0 -37.309,16.704 -37.309,37.309 v 89.785 H 37.309 V 37.309 C 37.309,16.704 20.604,0 0,0" style="fill: #ffaf9e; fill-opacity: 1; fill-rule: nonzero; stroke: none" id="path865"></path></g><g id="g867" transform="translate(349.1914,239.5479)"><path d="M 0,0 C 8.116,-3.782 16.91,-6.354 26.152,-7.475 26.141,-7.477 26.13,-7.478 26.118,-7.479 43.504,-9.606 60.136,-6.601 74.617,0.263 V 73.821 L 0,73.821 Z" style="fill: #ffa78f; fill-opacity: 1; fill-rule: nonzero; stroke: none" id="path869"></path></g><g id="g871" transform="translate(431.2646,376.7432)"><path d="m 0,0 h 42.49 c 16.336,0 29.579,-13.243 29.579,-29.579 v -0.182 c 0,-16.336 -13.243,-29.578 -29.579,-29.578 H 0 Z" style="fill: #ffa78f; fill-opacity: 1; fill-rule: nonzero; stroke: none" id="path873"></path></g><g id="g875" transform="translate(341.1904,317.4038)"><path d="m 0,0 h -42.49 c -16.336,0 -29.579,13.243 -29.579,29.579 v 0.182 c 0,16.336 13.243,29.578 29.579,29.578 H 0 Z" style="fill: #ffaf9e; fill-opacity: 1; fill-rule: nonzero; stroke: none" id="path877"></path></g><g id="g879" transform="translate(385.1465,449.6304)"><path d="m 0,0 c -47.743,-0.429 -86.315,-39.258 -86.315,-87.102 v -30.879 c 0,-47.844 38.572,-86.673 86.315,-87.102 47.743,0.429 86.315,39.258 86.315,87.102 v 30.879 C 86.315,-39.258 47.743,-0.429 0,0" style="fill: #ffcebf; fill-opacity: 1; fill-rule: nonzero; stroke: none" id="path881"></path></g><g id="g883" transform="translate(336.7637,317.2246)"><path d="m 0,0 h -12.861 c -3.195,0 -5.785,-2.59 -5.785,-5.784 0,-3.195 2.59,-5.784 5.785,-5.784 H 0 c 3.194,0 5.784,2.589 5.784,5.784 C 5.784,-2.59 3.194,0 0,0" style="fill: #fe8f83; fill-opacity: 1; fill-rule: nonzero; stroke: none" id="path885"></path></g><g id="g887" transform="translate(386.5361,449.6406)"><path d="m 0,0 h -0.593 c -3.6,0 -7.148,-0.223 -10.634,-0.647 43.094,-5.246 76.479,-41.955 76.479,-86.465 v -30.879 c 0,-44.51 -33.385,-81.219 -76.479,-86.465 3.486,-0.424 7.034,-0.647 10.634,-0.647 H 0 c 48.11,0 87.112,39.001 87.112,87.112 v 30.879 C 87.112,-39.001 48.11,0 0,0" style="fill: #ffaf9e; fill-opacity: 1; fill-rule: nonzero; stroke: none" id="path889"></path></g><g id="g891" transform="translate(449.0977,317.2246)"><path d="m 0,0 h -12.862 c -3.195,0 -5.784,-2.59 -5.784,-5.784 0,-3.195 2.589,-5.784 5.784,-5.784 H 0 c 3.194,0 5.783,2.589 5.783,5.784 C 5.783,-2.59 3.194,0 0,0" style="fill: #fe8f83; fill-opacity: 1; fill-rule: nonzero; stroke: none" id="path893"></path></g><g id="g895" transform="translate(359.3389,369.0591)"><path d="M 0,0 H 17.488 L 55.171,59.703 10.442,79.069 C -17.815,73.766 -41.265,54.829 -52.799,29.341 -41.819,11.728 -22.283,0 0,0" style="fill: #ffaf9e; fill-opacity: 1; fill-rule: nonzero; stroke: none" id="path897"></path></g><g id="g899" transform="translate(493.6426,369.0591)"><path d="m 0,0 h -116.815 c -34.345,0 -62.187,27.842 -62.187,62.187 v 4.101 c 0,31.714 25.71,57.424 57.424,57.424 h 41.511 C -35.848,123.712 0,87.864 0,43.644 Z" style="fill: #d77f4a; fill-opacity: 1; fill-rule: nonzero; stroke: none" id="path901"></path></g><g id="g903" transform="translate(411.6816,492.771)"><path d="m 0,0 h -26.969 c 45.266,0 81.961,-35.02 81.961,-78.219 v -45.493 h 26.969 v 45.493 C 81.961,-35.02 45.267,0 0,0" style="fill: #c86d36; fill-opacity: 1; fill-rule: nonzero; stroke: none" id="path905"></path></g><g id="g907" transform="translate(262.9687,182.5566)"><path d="M 0,0 C 0,23.522 -19.069,42.591 -42.592,42.591 H -212.878 C -236.4,42.591 -255.469,23.522 -255.469,0 V -83.918 H 0 v 10.876 z" style="fill: #3c87d0; fill-opacity: 1; fill-rule: nonzero; stroke: none" id="path909"></path></g><g id="g911" transform="translate(135.2344,181.4717)"><path d="m 0,0 v 0 c -20.475,0 -37.072,16.598 -37.072,37.072 v 89.216 H 37.072 V 37.072 C 37.072,16.598 20.475,0 0,0" style="fill: #ffaf9e; fill-opacity: 1; fill-rule: nonzero; stroke: none" id="path913"></path></g><g id="g915" transform="translate(142.6719,474.251)"><path d="m 0,0 h -74.847 c -26.444,0 -46.968,-23.069 -43.891,-49.333 l 9.618,-82.1 H 0 Z" style="fill: #aa6a51; fill-opacity: 1; fill-rule: nonzero; stroke: none" id="path917"></path></g><g id="g919" transform="translate(98.1621,237.3789)"><path d="m 0,0 c 11.149,-5.025 23.506,-7.844 36.528,-7.844 h 0.855 c 13.113,0 25.552,2.858 36.762,7.949 V 70.38 L 0,70.38 Z" style="fill: #ffa78f; fill-opacity: 1; fill-rule: nonzero; stroke: none" id="path921"></path></g><g id="g923" transform="translate(91.8477,379.6646)"><path d="m 0,0 h -46.257 c -16.762,0 -30.35,-13.588 -30.35,-30.351 0,-16.762 13.588,-30.35 30.35,-30.35 H 0 Z" style="fill: #ffaf9e; fill-opacity: 1; fill-rule: nonzero; stroke: none" id="path925"></path></g><g id="g927" transform="translate(224.6025,379.6646)"><path d="M 0,0 H -45.832 V -60.701 H 0 c 16.762,0 30.351,13.588 30.351,30.35 C 30.351,-13.588 16.762,0 0,0" style="fill: #ffa78f; fill-opacity: 1; fill-rule: nonzero; stroke: none" id="path929"></path></g><g id="g931" transform="translate(135.5449,244.3545)"><path d="M 0,0 H -0.854 C -50.021,0 -89.88,39.858 -89.88,89.025 v 31.869 c 0,49.168 39.859,89.025 89.026,89.025 H 0 c 49.168,0 89.025,-39.857 89.025,-89.025 V 89.025 C 89.025,39.858 49.168,0 0,0" style="fill: #ffcebf; fill-opacity: 1; fill-rule: nonzero; stroke: none" id="path933"></path></g><g id="g935" transform="translate(85.5039,318.4517)"><path d="m 0,0 h -13.164 c -3.269,0 -5.919,-2.65 -5.919,-5.919 0,-3.27 2.65,-5.92 5.919,-5.92 H 0 c 3.27,0 5.92,2.65 5.92,5.92 C 5.92,-2.65 3.27,0 0,0" style="fill: #fe8f83; fill-opacity: 1; fill-rule: nonzero; stroke: none" id="path937"></path></g><g id="g939" transform="translate(135.5449,454.2744)"><path d="m 0,0 h -0.854 c -3.337,0 -6.624,-0.214 -9.864,-0.578 44.444,-4.985 78.996,-42.673 78.996,-88.448 v -31.869 c 0,-45.774 -34.553,-83.462 -78.996,-88.447 3.24,-0.364 6.526,-0.577 9.864,-0.577 H 0 c 49.168,0 89.026,39.857 89.026,89.024 v 31.869 C 89.026,-39.858 49.168,0 0,0" style="fill: #ffaf9e; fill-opacity: 1; fill-rule: nonzero; stroke: none" id="path941"></path></g><g id="g943" transform="translate(223.3018,379.665)"><path d="m 0,0 v 0.505 c -7.102,42.06 -43.677,74.104 -87.757,74.104 h -0.854 c -36.034,0 -67.044,-21.421 -81.052,-52.212 C -158.464,8.727 -141.455,0 -122.404,0 Z" style="fill: #ffaf9e; fill-opacity: 1; fill-rule: nonzero; stroke: none" id="path945"></path></g><g id="g947" transform="translate(244.0488,379.665)"><path d="m 0,0 h -122.403 c -33.727,0 -61.067,27.341 -61.067,61.067 v 16.439 c 0,24.647 19.981,44.628 44.628,44.628 H -60.33 C -27.011,122.134 0,95.123 0,61.804 Z" style="fill: #aa6a51; fill-opacity: 1; fill-rule: nonzero; stroke: none" id="path949"></path></g><g id="g951" transform="translate(183.7187,501.7988)"><path d="m 0,0 h -26.849 c 33.32,0 60.33,-27.011 60.33,-60.331 v -61.803 h 26.85 v 61.803 C 60.331,-27.011 33.319,0 0,0" style="fill: #935b44; fill-opacity: 1; fill-rule: nonzero; stroke: none" id="path953"></path></g><g id="g955" transform="translate(197.8535,318.4517)"><path d="m 0,0 h -13.164 c -3.269,0 -5.919,-2.65 -5.919,-5.919 0,-3.27 2.65,-5.92 5.919,-5.92 H 0 c 3.27,0 5.92,2.65 5.92,5.92 C 5.92,-2.65 3.27,0 0,0" style="fill: #fe8f83; fill-opacity: 1; fill-rule: nonzero; stroke: none" id="path957"></path></g><g id="g959" transform="translate(220.3779,225.1475)"><path d="m 0,0 h -26.85 c 23.523,0 42.591,-19.068 42.591,-42.591 v -83.921 h 26.85 v 83.921 C 42.591,-19.068 23.521,0 0,0" style="fill: #0078c8; fill-opacity: 1; fill-rule: nonzero; stroke: none" id="path961"></path></g><g id="g963" transform="translate(172.1074,65.4233)"><path d="M 0,0 V -55.222 H 177.341 V 0 c 0,18.342 -14.869,33.212 -33.212,33.212 H 33.212 C 14.869,33.212 0,18.342 0,0" style="fill: #0ab79f; fill-opacity: 1; fill-rule: nonzero; stroke: none" id="path965"></path></g><g id="g967" transform="translate(316.2363,98.6357)"><path d="M 0,0 H -29.64 C -11.298,0 3.572,-14.87 3.572,-33.212 v -55.223 h 29.64 v 55.223 C 33.212,-14.87 18.343,0 0,0" style="fill: #019a8d; fill-opacity: 1; fill-rule: nonzero; stroke: none" id="path969"></path></g><g id="g971" transform="translate(260.7773,67.2637)"><path d="m 0,0 v 0 c -17.312,0 -31.348,14.035 -31.348,31.348 v 75.44 H 31.349 V 31.348 C 31.349,14.035 17.313,0 0,0" style="fill: #ffaf9e; fill-opacity: 1; fill-rule: nonzero; stroke: none" id="path973"></path></g><g id="g975" transform="translate(229.4297,98.6113)"><path d="m 0,0 c 0,-0.295 0.015,-0.586 0.022,-0.879 9.642,-4.501 20.39,-7.029 31.733,-7.029 11.021,0 21.479,2.393 30.909,6.657 0.017,0.415 0.032,0.831 0.032,1.251 V 75.44 H 0 Z" style="fill: #ffa78f; fill-opacity: 1; fill-rule: nonzero; stroke: none" id="path977"></path></g><g id="g979" transform="translate(297.5918,306.6504)"><path d="m 0,0 h -66.627 c -32.376,0 -58.621,-26.245 -58.621,-58.621 v -9.385 -61.465 h 88.318 v 61.465 H 0 Z" style="fill: #aa6a51; fill-opacity: 1; fill-rule: nonzero; stroke: none" id="path981"></path></g><g id="g983" transform="translate(336.3467,162.6841)"><path d="M 0,0 H -38.755 V 51.329 H 0 c 14.174,0 25.665,-11.491 25.665,-25.664 V 25.664 C 25.665,11.49 14.174,0 0,0" style="fill: #ffa78f; fill-opacity: 1; fill-rule: nonzero; stroke: none" id="path985"></path></g><g id="g987" transform="translate(223.7324,162.6841)"><path d="M 0,0 H -38.756 C -52.93,0 -64.42,11.49 -64.42,25.664 v 10e-4 c 0,14.173 11.49,25.664 25.664,25.664 l 38.756,0 z" style="fill: #ffaf9e; fill-opacity: 1; fill-rule: nonzero; stroke: none" id="path989"></path></g><g id="g991" transform="translate(261.1846,99.5952)"><path d="m 0,0 v 0 c -41.497,0 -75.136,33.64 -75.136,75.136 v 27.235 c 0,41.496 33.639,75.135 75.136,75.135 41.496,0 75.136,-33.639 75.136,-75.135 V 75.136 C 75.136,33.64 41.496,0 0,0" style="fill: #ffcebf; fill-opacity: 1; fill-rule: nonzero; stroke: none" id="path993"></path></g><g id="g995" transform="translate(218.7266,159.0229)"><path d="m 0,0 h -11.132 c -2.764,0 -5.005,-2.241 -5.005,-5.006 0,-2.765 2.241,-5.006 5.005,-5.006 H 0 c 2.764,0 5.005,2.241 5.005,5.006 C 5.005,-2.241 2.764,0 0,0" style="fill: #fe8f83; fill-opacity: 1; fill-rule: nonzero; stroke: none" id="path997"></path></g><g id="g999" transform="translate(261.1846,277.1016)"><path d="M 0,0 V 0 C -3.011,0 -5.975,-0.197 -8.893,-0.542 28.41,-4.943 57.352,-36.65 57.352,-75.135 v -27.236 c 0,-38.485 -28.942,-70.192 -66.245,-74.593 2.918,-0.345 5.882,-0.542 8.893,-0.542 41.496,0 75.136,33.639 75.136,75.135 v 27.236 C 75.136,-33.639 41.496,0 0,0" style="fill: #ffaf9e; fill-opacity: 1; fill-rule: nonzero; stroke: none" id="path1001"></path></g><g id="g1003" transform="translate(277.3193,321.001)"><path d="m 0,0 h -13.068 c -33.111,0 -60.78,-23.28 -67.544,-54.363 l -0.004,0.004 c -2.238,-12.419 -1.928,-18.772 -1.928,-27.997 0,0 24.622,-37.219 46.648,-30.733 -2.371,4.04 -5.333,8.415 -6.261,15.984 9.788,-10.193 23.021,-19.987 36.612,-15.984 -2.37,4.039 -5.333,8.415 -6.261,15.984 9.182,-9.561 22.317,-19.613 34.64,-15.984 -0.152,0.258 -2.054,3.498 -2.202,3.756 -6.913,11.995 1.876,26.977 15.721,26.977 8.513,0 16.172,-5.383 18.842,-13.467 1.193,-3.609 2.12,-7.338 2.76,-11.165 0.348,0.014 0.695,0.027 1.046,0.027 4.7,0 9.102,-1.269 12.892,-3.473 v 38.541 C 71.893,-32.188 39.705,0 0,0" style="fill: #aa6a51; fill-opacity: 1; fill-rule: nonzero; stroke: none" id="path1005"></path></g><g id="g1007" transform="translate(277.3193,321.001)"><path d="m 0,0 c -14.454,0 -14.439,0.05 -17.781,-0.175 37.381,-2.559 66.91,-33.688 66.91,-71.718 v -15.062 c 2.752,-2.282 4.892,-5.313 6.066,-8.868 1.193,-3.609 2.12,-7.338 2.76,-11.165 0.348,0.014 0.695,0.027 1.046,0.027 4.7,0 9.102,-1.269 12.892,-3.473 v 38.541 C 71.893,-32.188 39.705,0 0,0" style="fill: #935b44; fill-opacity: 1; fill-rule: nonzero; stroke: none" id="path1009"></path></g><g id="g1011" transform="translate(313.7285,159.0229)"><path d="m 0,0 h -11.132 c -2.764,0 -5.005,-2.241 -5.005,-5.006 0,-2.765 2.241,-5.006 5.005,-5.006 H 0 c 2.764,0 5.005,2.241 5.005,5.006 C 5.005,-2.241 2.764,0 0,0" style="fill: #fe8f83; fill-opacity: 1; fill-rule: nonzero; stroke: none" id="path1013"></path></g><g id="g1015" transform="translate(406.0723,308.0674)"><path d="m 0,0 c 0,-10.81 -8.763,-19.572 -19.572,-19.572 -10.81,0 -19.573,8.762 -19.573,19.572" style="fill: none; stroke: #000; stroke-width: 15px; stroke-linecap: round; stroke-linejoin: round; stroke-miterlimit: 10; stroke-dasharray: none; stroke-opacity: 1" id="path1017"></path></g><g id="g1019" transform="translate(430.667,329.9507)"><path d="M 0,0 V 15.415 H 7.297" style="fill: none; stroke: #000; stroke-width: 15px; stroke-linecap: round; stroke-linejoin: round; stroke-miterlimit: 10; stroke-dasharray: none; stroke-opacity: 1" id="path1021"></path></g><g id="g1023" transform="translate(342.0566,329.9507)"><path d="M 0,0 V 15.415 H -7.297" style="fill: none; stroke: #000; stroke-width: 15px; stroke-linecap: round; stroke-linejoin: round; stroke-miterlimit: 10; stroke-dasharray: none; stroke-opacity: 1" id="path1025"></path></g><g id="g1027" transform="translate(493.6426,369.0591)"><path d="m 0,0 h -116.815 c -34.345,0 -62.187,27.842 -62.187,62.187 v 4.101 c 0,31.714 25.71,57.424 57.424,57.424 h 41.511 C -35.848,123.712 0,87.864 0,43.644 Z" style="fill: none; stroke: #000; stroke-width: 15px; stroke-linecap: round; stroke-linejoin: round; stroke-miterlimit: 10; stroke-dasharray: 390 35 400 0; stroke-dashoffset: 0; stroke-opacity: 1" id="path1029"></path></g><g id="g1031" transform="translate(298.8311,331.6494)"><path d="m 0,0 v 30.879 c 0,4.842 0.402,9.589 1.164,14.215 h -1.295 c -16.336,0 -29.579,-13.243 -29.579,-29.579 v -0.182 c 0,-16.336 13.243,-29.579 29.579,-29.579 H 1.18 C 0.416,-9.608 0,-4.854 0,0 Z" style="fill: none; stroke: #000; stroke-width: 15px; stroke-linecap: round; stroke-linejoin: round; stroke-miterlimit: 10; stroke-dasharray: none; stroke-opacity: 1" id="path1033"></path></g><g id="g1035" transform="translate(471.1934,369.0591)"><path d="M 0,0 C 0.16,-2.159 0.27,-4.331 0.27,-6.531 V -37.41 c 0,-4.854 -0.416,-9.608 -1.18,-14.245 h 3.472 c 16.335,0 29.579,13.242 29.579,29.578 v 0.182 c 0,8.679 -3.739,16.484 -9.692,21.895 v 0 z" style="fill: none; stroke: #000; stroke-width: 15px; stroke-linecap: round; stroke-linejoin: round; stroke-miterlimit: 10; stroke-dasharray: none; stroke-opacity: 1" id="path1037"></path></g><g id="g1039" transform="translate(244.0488,379.665)"><path d="m 0,0 h -122.403 c -33.727,0 -61.067,27.341 -61.067,61.067 v 16.439 c 0,24.647 19.981,44.628 44.628,44.628 H -60.33 C -27.011,122.134 0,95.123 0,61.804 Z" style="fill: none; stroke: #000; stroke-width: 15px; stroke-linecap: round; stroke-linejoin: round; stroke-miterlimit: 10; stroke-dasharray: none; stroke-opacity: 1" id="path1041"></path></g><g id="g1043" transform="translate(224.6025,379.6646)"><path d="m 0,0 h -1.211 c 0.765,-4.694 1.179,-9.505 1.179,-14.416 v -31.869 c 0,-4.91 -0.414,-9.722 -1.179,-14.416 H 0 c 16.763,0 30.351,13.588 30.351,30.35 C 30.351,-13.588 16.763,0 0,0 Z" style="fill: none; stroke: #000; stroke-width: 15px; stroke-linecap: round; stroke-linejoin: round; stroke-miterlimit: 10; stroke-dasharray: none; stroke-opacity: 1" id="path1045"></path></g><g id="g1047" transform="translate(45.665,333.3799)"><path d="m 0,0 v 31.869 c 0,4.91 0.409,9.723 1.176,14.416 h -1.25 c -16.762,0 -30.351,-13.589 -30.351,-30.351 0,-16.762 13.589,-30.351 30.351,-30.351 H 1.18 C 0.415,-9.722 0,-4.911 0,0 Z" style="fill: none; stroke: #000; stroke-width: 15px; stroke-linecap: round; stroke-linejoin: round; stroke-miterlimit: 10; stroke-dasharray: none; stroke-opacity: 1" id="path1049"></path></g><g id="g1051" transform="translate(45.7441,368.9526)"><path d="M 0,0 C -0.052,-1.229 -0.079,-2.463 -0.079,-3.704 -0.079,-2.463 -0.051,-1.229 0,0 Z" style="fill: none; stroke: #000; stroke-width: 15px; stroke-linecap: round; stroke-linejoin: round; stroke-miterlimit: 10; stroke-dasharray: none; stroke-opacity: 1" id="path1053"></path></g><g id="g1055" transform="translate(60.5791,440.7324)"><path d="m 0,0 v 16.439 c 0,5.979 1.185,11.68 3.318,16.892 -24.511,-2.15 -42.886,-24.199 -39.964,-49.146 l 5.824,-49.708 c 4.61,2.825 10.031,4.455 15.834,4.455 h 1.25 c 2.436,14.921 8.578,28.594 17.452,40.048 0.308,-0.84 0.64,-1.669 0.982,-2.492 C 1.674,-16.274 0,-8.333 0,0 Z" style="fill: none; stroke: #000; stroke-width: 15px; stroke-linecap: round; stroke-linejoin: round; stroke-miterlimit: 10; stroke-dasharray: none; stroke-opacity: 1" id="path1057"></path></g><g id="g1059" transform="translate(45.9678,372.5571)"><path d="M 0,0 C -0.013,-0.155 -0.018,-0.312 -0.029,-0.467 -0.018,-0.312 -0.013,-0.155 0,0 Z" style="fill: none; stroke: #000; stroke-width: 15px; stroke-linecap: round; stroke-linejoin: round; stroke-miterlimit: 10; stroke-dasharray: none; stroke-opacity: 1" id="path1061"></path></g><g id="g1063" transform="translate(154.2363,306.8955)"><path d="m 0,0 c 0,-10.495 -8.508,-19.002 -19.002,-19.002 -10.495,0 -19.002,8.507 -19.002,19.002" style="fill: none; stroke: #000; stroke-width: 15px; stroke-linecap: round; stroke-linejoin: round; stroke-miterlimit: 10; stroke-dasharray: none; stroke-opacity: 1" id="path1065"></path></g><g id="g1067" transform="translate(91.5605,351.3398)"><path d="M 0,0 V -16.476" style="fill: none; stroke: #000; stroke-width: 15px; stroke-linecap: round; stroke-linejoin: round; stroke-miterlimit: 10; stroke-dasharray: none; stroke-opacity: 1" id="path1069"></path></g><g id="g1071" transform="translate(178.9072,351.3398)"><path d="M 0,0 V -16.476" style="fill: none; stroke: #000; stroke-width: 15px; stroke-linecap: round; stroke-linejoin: round; stroke-miterlimit: 10; stroke-dasharray: none; stroke-opacity: 1" id="path1073"></path></g><g id="g1075" transform="translate(504.0684,291.2827)"><path d="M 0,0 -4.804,40.733 C -9.943,31.992 -19.439,26.121 -30.313,26.121 h -3.472 c 0.764,4.637 1.18,9.392 1.18,14.246 v 30.879 c 0,2.199 -0.11,4.372 -0.27,6.53 h -94.366 c -34.345,0 -62.187,27.843 -62.187,62.187 v 4.1 c 0,8.692 1.942,16.926 5.398,24.31 -20.199,-8.811 -34.704,-29.29 -37.576,-53.64 l -4.449,-37.717 c 5.334,5.221 12.633,8.444 20.687,8.444 h 1.295 c -0.761,-4.626 -1.164,-9.372 -1.164,-14.214 V 40.367 c 0,-4.854 0.416,-9.609 1.179,-14.246 h -0.233 c 28.455,-9.352 49.06,-35.975 49.414,-67.475 v 2.751 c 10.943,-5.101 23.112,-8.017 35.956,-8.132 13.912,0.125 27.034,3.529 38.661,9.448 v -26.13 h 30.633 c 13.464,0 26.36,6.075 35.777,16.854 C -3.093,-34.249 2.015,-17.08 0,0 Z" style="fill: none; stroke: #000; stroke-width: 15px; stroke-linecap: round; stroke-linejoin: round; stroke-miterlimit: 10; stroke-dasharray: none; stroke-opacity: 1" id="path1077"></path></g><g id="g1079" transform="translate(471.1934,369.0591)"><path d="m 0,0 h -94.366 c -28.851,0 -53.106,19.65 -60.129,46.295 -11.199,-14.655 -17.867,-32.957 -17.867,-52.826 V -37.41 c 0,-4.883 0.422,-9.665 1.194,-14.33 27.487,-9.146 47.605,-34.419 49.096,-64.607 10.962,-5.122 23.154,-8.049 36.026,-8.165 47.742,0.429 86.316,39.258 86.316,87.102 V -6.531 C 0.27,-4.331 0.16,-2.159 0,0 Z" style="fill: none; stroke: #000; stroke-width: 15px; stroke-linecap: round; stroke-linejoin: round; stroke-miterlimit: 10; stroke-dasharray: none; stroke-opacity: 1" id="path1081"></path></g><g id="g1083" transform="translate(285.4717,320.5283)"><path d="m 0,0 c 4.938,-0.558 9.722,-1.618 14.306,-3.125 h 0.233 c -0.764,4.638 -1.18,9.392 -1.18,14.246 V 42 c 0,4.842 0.404,9.589 1.164,14.215 h -1.294 c -16.336,0 -29.58,-13.243 -29.58,-29.579 V 26.454 C -16.351,14.875 -9.692,4.856 0,0 Z" style="fill: none; stroke: #000; stroke-width: 15px; stroke-linecap: round; stroke-linejoin: round; stroke-miterlimit: 10; stroke-dasharray: none; stroke-opacity: 1" id="path1085"></path></g><g id="g1087" transform="translate(171.3193,210.0601)"><path d="m 0,0 c 0.639,2.726 0.987,5.563 0.987,8.484 v 33.76 c -11.21,-5.091 -23.648,-7.949 -36.761,-7.949 h -0.855 c -13.022,0 -25.38,2.819 -36.528,7.844 V 8.484 c 0,-20.474 16.597,-37.072 37.072,-37.072 9.238,0 17.681,3.387 24.172,8.976 C -11.242,-11.342 -6.651,-4.192 0,0 Z" style="fill: none; stroke: #000; stroke-width: 15px; stroke-linecap: round; stroke-linejoin: round; stroke-miterlimit: 10; stroke-dasharray: none; stroke-opacity: 1" id="path1089"></path></g><g id="g1091" transform="translate(220.1338,305.6221)"><path d="m 0,0 c 2.865,8.738 4.437,18.062 4.437,27.758 v 31.868 c 0,4.911 -0.415,9.723 -1.179,14.417 H -98.488 c -26.34,0 -48.784,16.677 -57.353,40.047 -11.666,-15.056 -18.628,-33.942 -18.628,-54.464 V 27.758 c 0,-49.167 39.859,-89.025 89.026,-89.025 h 0.854 c 13.196,0 25.709,2.893 36.973,8.045 C -45.646,-26.527 -25.801,-4.824 0,0 Z" style="fill: none; stroke: #000; stroke-width: 15px; stroke-linecap: round; stroke-linejoin: round; stroke-miterlimit: 10; stroke-dasharray: none; stroke-opacity: 1" id="path1093"></path></g><g id="g1095" transform="translate(276.7295,148.9019)"><path d="m 0,0 c 0,-8.874 -7.193,-16.068 -16.067,-16.068 -8.874,0 -16.069,7.194 -16.069,16.068" style="fill: none; stroke: #000; stroke-width: 15px; stroke-linecap: round; stroke-linejoin: round; stroke-miterlimit: 10; stroke-dasharray: none; stroke-opacity: 1" id="path1097"></path></g><g id="g1099" transform="translate(223.7324,184.0737)"><path d="M 0,0 V -9.112" style="fill: none; stroke: #000; stroke-width: 15px; stroke-linecap: round; stroke-linejoin: round; stroke-miterlimit: 10; stroke-dasharray: none; stroke-opacity: 1" id="path1101"></path></g><g id="g1103" transform="translate(297.5918,184.0737)"><path d="M 0,0 V -9.112" style="fill: none; stroke: #000; stroke-width: 15px; stroke-linecap: round; stroke-linejoin: round; stroke-miterlimit: 10; stroke-dasharray: none; stroke-opacity: 1" id="path1105"></path></g><g id="g1107" transform="translate(335.2744,214.0127)"><path d="m 0,0 c -0.64,3.827 -1.567,7.557 -2.76,11.166 -2.67,8.084 -10.329,13.466 -18.843,13.466 -13.844,0 -22.633,-14.981 -15.72,-26.977 0.148,-0.258 2.051,-3.497 2.202,-3.756 -12.324,-3.629 -25.458,6.423 -34.64,15.984 0.928,-7.569 3.891,-11.945 6.261,-15.984 -13.591,-4.003 -26.823,5.791 -36.612,15.984 0.927,-7.569 3.89,-11.944 6.259,-15.984 -20.272,-5.97 -42.744,25.086 -46.191,30.065 -5.852,-10.693 -9.182,-22.962 -9.182,-36.01 v -27.236 c 0,-41.496 33.64,-75.135 75.136,-75.135 41.496,0 75.136,33.639 75.136,75.135 v 27.236 c 0,4.102 -0.342,8.124 -0.974,12.048 C 0.048,0.001 0.024,0.001 0,0 Z" style="fill: none; stroke: #000; stroke-width: 15px; stroke-linecap: round; stroke-linejoin: round; stroke-miterlimit: 10; stroke-dasharray: none; stroke-opacity: 1" id="path1109"></path></g><g id="g1111" transform="translate(186.0488,174.731)"><path d="m 0,0 v 27.235 c 0,4.101 0.33,8.125 0.963,12.047 h -2.035 c -14.174,0 -25.664,-11.49 -25.664,-25.664 0,-14.175 11.49,-25.665 25.664,-25.665 H 0.974 C 0.341,-8.123 0,-4.103 0,0 Z" style="fill: none; stroke: #000; stroke-width: 15px; stroke-linecap: round; stroke-linejoin: round; stroke-miterlimit: 10; stroke-dasharray: none; stroke-opacity: 1" id="path1113"></path></g><g id="g1115" transform="translate(336.3467,214.0127)"><path d="m 0,0 h -1 c 0.632,-3.924 0.974,-7.944 0.974,-12.046 v -27.236 c 0,-4.102 -0.341,-8.123 -0.974,-12.047 h 1 c 14.174,0 25.665,11.491 25.665,25.665 C 25.665,-11.49 14.174,0 0,0 Z" style="fill: none; stroke: #000; stroke-width: 15px; stroke-linecap: round; stroke-linejoin: round; stroke-miterlimit: 10; stroke-dasharray: none; stroke-opacity: 1" id="path1117"></path></g><g id="g1119" transform="translate(277.3193,321.001)"><path d="m 0,0 h -13.068 c -16.375,0 -31.413,-5.7 -43.256,-15.216 0.003,0.003 0.004,0.004 0.006,0.006 -27.627,-4.733 -48.658,-28.784 -48.658,-57.761 v -9.385 -27.959 c 3.731,2.114 8.039,3.327 12.633,3.327 h 2.035 c 1.38,8.557 4.206,16.632 8.219,23.964 -0.006,0.009 -0.01,0.014 -0.015,0.023 3.397,-4.912 25.905,-36.067 46.207,-30.088 -2.37,4.04 -5.332,8.415 -6.26,15.984 9.789,-10.193 23.021,-19.987 36.612,-15.984 -2.37,4.039 -5.333,8.415 -6.261,15.984 9.182,-9.561 22.316,-19.613 34.64,-15.984 -0.151,0.258 -2.054,3.498 -2.202,3.756 -6.913,11.996 1.876,26.977 15.721,26.977 8.513,0 16.172,-5.383 18.842,-13.467 1.193,-3.609 2.12,-7.338 2.76,-11.165 0.348,0.014 0.695,0.027 1.046,0.027 4.7,0 9.102,-1.269 12.892,-3.473 v 38.541 C 71.893,-32.188 39.705,0 0,0 Z" style="fill: none; stroke: #000; stroke-width: 15px; stroke-linecap: round; stroke-linejoin: round; stroke-miterlimit: 10; stroke-dasharray: none; stroke-opacity: 1" id="path1121"></path></g><g id="g1123" transform="translate(261.1846,99.5957)"><path d="m 0,0 v 0 c -11.352,0 -22.106,2.532 -31.755,7.039 v -8.023 c 0,-17.313 14.035,-31.349 31.348,-31.349 17.313,0 31.348,14.036 31.348,31.349 V 6.671 C 21.503,2.398 11.034,0 0,0 Z" style="fill: none; stroke: #000; stroke-width: 15px; stroke-linecap: round; stroke-linejoin: round; stroke-miterlimit: 10; stroke-dasharray: none; stroke-opacity: 1" id="path1125"></path></g><g id="g1127" transform="translate(316.2363,98.6357)"><path d="m 0,0 h -24.11 v -0.024 c 0,-17.313 -14.036,-31.349 -31.349,-31.349 -17.312,0 -31.348,14.036 -31.348,31.349 V 0 h -24.11 c -18.343,0 -33.212,-14.87 -33.212,-33.212 V -88.435 H 33.212 v 55.223 C 33.212,-14.87 18.343,0 0,0 Z" style="fill: none; stroke: #000; stroke-width: 15px; stroke-linecap: round; stroke-linejoin: round; stroke-miterlimit: 10; stroke-dasharray: none; stroke-opacity: 1" id="path1129"></path></g><g id="g1131" transform="translate(229.4297,106.6343)"><path d="m 0,0 c -22.135,10.339 -38.393,31.141 -42.408,56.052 0,-10e-4 0.001,-0.002 0.001,-0.003 h -2.046 c -14.174,0 -25.664,11.491 -25.664,25.665 0,0.708 0.037,1.407 0.094,2.1 -6.493,-5.589 -14.934,-8.977 -24.172,-8.977 -20.475,0 -37.073,16.599 -37.073,37.073 v 6.603 h -48.071 c -23.522,0 -42.591,-19.068 -42.591,-42.591 V -7.996 l 221.93,0 z" style="fill: none; stroke: #000; stroke-width: 15px; stroke-linecap: round; stroke-linejoin: round; stroke-miterlimit: 10; stroke-dasharray: 349 35 400 0; stroke-dashoffset: 0; stroke-opacity: 1" id="path1133"></path></g><g id="g1135" transform="translate(446.7285,227.8652)"><path d="m 0,0 h -22.92 v -4.281 c 0,-20.605 -16.703,-37.308 -37.309,-37.308 -10.064,0 -19.19,3.991 -25.901,10.469 0.212,-0.61 0.397,-1.234 0.562,-1.864 0.035,-0.132 0.065,-0.266 0.097,-0.398 0.124,-0.503 0.233,-1.011 0.326,-1.525 0.034,-0.182 0.066,-0.364 0.095,-0.548 0.078,-0.489 0.14,-0.983 0.19,-1.481 0.018,-0.184 0.042,-0.366 0.056,-0.552 0.053,-0.67 0.087,-1.345 0.087,-2.029 0,-14.174 -11.491,-25.665 -25.665,-25.665 h -1 v 0.003 c -4.063,-25.214 -20.673,-46.213 -43.221,-56.42 v -7.628 H 45.815 v 83.412 C 45.815,-20.512 25.304,0 0,0 Z" style="fill: none; stroke: #000; stroke-width: 15px; stroke-linecap: round; stroke-linejoin: round; stroke-miterlimit: 10; stroke-dasharray: none; stroke-opacity: 1" id="path1137"></path></g><g id="g1139" transform="translate(385.1475,244.5474)"><path d="m 0,0 c -12.844,0.115 -25.013,3.031 -35.956,8.132 v -29.095 c 0,-5.441 1.174,-10.604 3.268,-15.265 3.701,-2.989 6.55,-6.986 8.139,-11.574 6.711,-6.478 15.837,-10.469 25.902,-10.469 20.605,0 37.308,16.703 37.308,37.308 V 9.449 C 27.034,3.529 13.912,0.125 0,0 Z" style="fill: none; stroke: #000; stroke-width: 15px; stroke-linecap: round; stroke-linejoin: round; stroke-miterlimit: 10; stroke-dasharray: none; stroke-opacity: 1" id="path1141"></path></g></g></g></g></svg>
