<svg version="1.1" id="svg831" xml:space="preserve" width="682.667" height="682.667" xmlns="http://www.w3.org/2000/svg"><defs id="defs835"><clipPath clipPathUnits="userSpaceOnUse" id="clipPath845"><path d="M0 512h512V0H0Z" id="path843"/></clipPath></defs><g id="g837" transform="matrix(1.33333 0 0 -1.33333 0 682.667)"><g id="g839"><g id="g841" clip-path="url('#clipPath845')"><g id="g847" transform="translate(490.219 244.72)"><path d="M0 0c10.757 12.313 15.864 29.482 13.85 46.563l-6.72 56.978C-.129 165.09-43.219 217.169-103.719 237.516l-61.945-20.832c-22.536-7.58-39.011-29.257-42.093-55.388l-13.53-114.733c-2.015-17.081 3.093-34.25 13.85-46.563 9.416-10.779 22.313-16.854 35.777-16.854h135.883C-22.313-16.854-9.417-10.779 0 0" style="fill:#c86d36;fill-opacity:1;fill-rule:nonzero;stroke:none" id="path849"/></g><g id="g851" transform="translate(504.068 291.283)"><path d="m0 0-6.72 56.978c-7.259 61.549-50.348 113.628-110.848 133.975l-13.923-4.682c53.983-22.929 91.783-72.007 98.539-129.293L-26.232 0c2.013-17.081-3.093-34.25-13.851-46.563C-49.5-57.342-62.396-63.417-75.86-63.417h26.233c13.464 0 26.36 6.075 35.777 16.854C-3.093-34.25 2.015-17.081 0 0" style="fill:#ac5e2e;fill-opacity:1;fill-rule:nonzero;stroke:none" id="path853"/></g><g id="g855" transform="translate(492.544 182.05)"><path d="M0 0c0 25.303-20.513 45.815-45.815 45.815h-120.457c-25.304 0-45.816-20.512-45.816-45.815v-83.412H0Z" style="fill:#f58a97;fill-opacity:1;fill-rule:nonzero;stroke:none" id="path857"/></g><g id="g859" transform="translate(492.544 182.05)"><path d="M0 0c0 25.303-20.513 45.815-45.815 45.815h-24.047c25.303 0 45.815-20.512 45.815-45.815v-83.412H0Z" style="fill:#f07181;fill-opacity:1;fill-rule:nonzero;stroke:none" id="path861"/></g><g id="g863" transform="translate(386.5 186.275)"><path d="M0 0c-20.605 0-37.309 16.704-37.309 37.309v89.785h74.618V37.309C37.309 16.704 20.604 0 0 0" style="fill:#ffaf9e;fill-opacity:1;fill-rule:nonzero;stroke:none" id="path865"/></g><g id="g867" transform="translate(349.191 239.548)"><path d="M0 0a86.514 86.514 0 0 1 26.152-7.475.352.352 0 0 0-.034-.004c17.386-2.127 34.018.878 48.499 7.742v73.558H0Z" style="fill:#ffa78f;fill-opacity:1;fill-rule:nonzero;stroke:none" id="path869"/></g><g id="g871" transform="translate(431.265 376.743)"><path d="M0 0h42.49c16.336 0 29.579-13.243 29.579-29.579v-.182c0-16.336-13.243-29.578-29.579-29.578H0Z" style="fill:#ffa78f;fill-opacity:1;fill-rule:nonzero;stroke:none" id="path873"/></g><g id="g875" transform="translate(341.19 317.404)"><path d="M0 0h-42.49c-16.336 0-29.579 13.243-29.579 29.579v.182c0 16.336 13.243 29.578 29.579 29.578H0Z" style="fill:#ffaf9e;fill-opacity:1;fill-rule:nonzero;stroke:none" id="path877"/></g><g id="g879" transform="translate(385.147 449.63)"><path d="M0 0c-47.743-.429-86.315-39.258-86.315-87.102v-30.879c0-47.844 38.572-86.673 86.315-87.102 47.743.429 86.315 39.258 86.315 87.102v30.879C86.315-39.258 47.743-.429 0 0" style="fill:#ffcebf;fill-opacity:1;fill-rule:nonzero;stroke:none" id="path881"/></g><g id="g883" transform="translate(336.764 317.225)"><path d="M0 0h-12.861a5.785 5.785 0 1 1 0-11.568H0A5.784 5.784 0 1 1 0 0" style="fill:#fe8f83;fill-opacity:1;fill-rule:nonzero;stroke:none" id="path885"/></g><g id="g887" transform="translate(386.536 449.64)"><path d="M0 0h-.593c-3.6 0-7.148-.223-10.634-.647 43.094-5.246 76.479-41.955 76.479-86.465v-30.879c0-44.51-33.385-81.219-76.479-86.465a88.033 88.033 0 0 1 10.634-.647H0c48.11 0 87.112 39.001 87.112 87.112v30.879C87.112-39.001 48.11 0 0 0" style="fill:#ffaf9e;fill-opacity:1;fill-rule:nonzero;stroke:none" id="path889"/></g><g id="g891" transform="translate(449.098 317.225)"><path d="M0 0h-12.862a5.784 5.784 0 1 1 0-11.568H0A5.784 5.784 0 0 1 0 0" style="fill:#fe8f83;fill-opacity:1;fill-rule:nonzero;stroke:none" id="path893"/></g><g id="g895" transform="translate(359.339 369.06)"><path d="M0 0h17.488l37.683 59.703-44.729 19.366c-28.257-5.303-51.707-24.24-63.241-49.728C-41.819 11.728-22.283 0 0 0" style="fill:#ffaf9e;fill-opacity:1;fill-rule:nonzero;stroke:none" id="path897"/></g><g id="g899" transform="translate(493.643 369.06)"><path d="M0 0h-116.815c-34.345 0-62.187 27.842-62.187 62.187v4.101c0 31.714 25.71 57.424 57.424 57.424h41.511C-35.848 123.712 0 87.864 0 43.644Z" style="fill:#d77f4a;fill-opacity:1;fill-rule:nonzero;stroke:none" id="path901"/></g><g id="g903" transform="translate(411.682 492.771)"><path d="M0 0h-26.969c45.266 0 81.961-35.02 81.961-78.219v-45.493h26.969v45.493C81.961-35.02 45.267 0 0 0" style="fill:#c86d36;fill-opacity:1;fill-rule:nonzero;stroke:none" id="path905"/></g><g id="g907" transform="translate(262.969 182.557)"><path d="M0 0c0 23.522-19.069 42.591-42.592 42.591h-170.286c-23.522 0-42.591-19.069-42.591-42.591v-83.918H0v10.876z" style="fill:#3c87d0;fill-opacity:1;fill-rule:nonzero;stroke:none" id="path909"/></g><g id="g911" transform="translate(135.234 181.472)"><path d="M0 0c-20.475 0-37.072 16.598-37.072 37.072v89.216h74.144V37.072C37.072 16.598 20.475 0 0 0" style="fill:#ffaf9e;fill-opacity:1;fill-rule:nonzero;stroke:none" id="path913"/></g><g id="g915" transform="translate(142.672 474.251)"><path d="M0 0h-74.847c-26.444 0-46.968-23.069-43.891-49.333l9.618-82.1H0Z" style="fill:#aa6a51;fill-opacity:1;fill-rule:nonzero;stroke:none" id="path917"/></g><g id="g919" transform="translate(98.162 237.379)"><path d="M0 0a88.658 88.658 0 0 1 36.528-7.844h.855A88.664 88.664 0 0 1 74.145.105V70.38H0Z" style="fill:#ffa78f;fill-opacity:1;fill-rule:nonzero;stroke:none" id="path921"/></g><g id="g923" transform="translate(91.848 379.665)"><path d="M0 0h-46.257c-16.762 0-30.35-13.588-30.35-30.351 0-16.762 13.588-30.35 30.35-30.35H0Z" style="fill:#ffaf9e;fill-opacity:1;fill-rule:nonzero;stroke:none" id="path925"/></g><g id="g927" transform="translate(224.602 379.665)"><path d="M0 0h-45.832v-60.701H0c16.762 0 30.351 13.588 30.351 30.35C30.351-13.588 16.762 0 0 0" style="fill:#ffa78f;fill-opacity:1;fill-rule:nonzero;stroke:none" id="path929"/></g><g id="g931" transform="translate(135.545 244.355)"><path d="M0 0h-.854C-50.021 0-89.88 39.858-89.88 89.025v31.869c0 49.168 39.859 89.025 89.026 89.025H0c49.168 0 89.025-39.857 89.025-89.025V89.025C89.025 39.858 49.168 0 0 0" style="fill:#ffcebf;fill-opacity:1;fill-rule:nonzero;stroke:none" id="path933"/></g><g id="g935" transform="translate(85.504 318.452)"><path d="M0 0h-13.164a5.919 5.919 0 1 1 0-11.839H0A5.92 5.92 0 1 1 0 0" style="fill:#fe8f83;fill-opacity:1;fill-rule:nonzero;stroke:none" id="path937"/></g><g id="g939" transform="translate(135.545 454.274)"><path d="M0 0h-.854a88.25 88.25 0 0 1-9.864-.578c44.444-4.985 78.996-42.673 78.996-88.448v-31.869c0-45.774-34.553-83.462-78.996-88.447a88.237 88.237 0 0 1 9.864-.577H0c49.168 0 89.026 39.857 89.026 89.024v31.869C89.026-39.858 49.168 0 0 0" style="fill:#ffaf9e;fill-opacity:1;fill-rule:nonzero;stroke:none" id="path941"/></g><g id="g943" transform="translate(223.302 379.665)"><path d="M0 0v.505c-7.102 42.06-43.677 74.104-87.757 74.104h-.854c-36.034 0-67.044-21.421-81.052-52.212C-158.464 8.727-141.455 0-122.404 0Z" style="fill:#ffaf9e;fill-opacity:1;fill-rule:nonzero;stroke:none" id="path945"/></g><g id="g947" transform="translate(244.049 379.665)"><path d="M0 0h-122.403c-33.727 0-61.067 27.341-61.067 61.067v16.439c0 24.647 19.981 44.628 44.628 44.628h78.512c33.319 0 60.33-27.011 60.33-60.33Z" style="fill:#aa6a51;fill-opacity:1;fill-rule:nonzero;stroke:none" id="path949"/></g><g id="g951" transform="translate(183.719 501.799)"><path d="M0 0h-26.849c33.32 0 60.33-27.011 60.33-60.331v-61.803h26.85v61.803C60.331-27.011 33.319 0 0 0" style="fill:#935b44;fill-opacity:1;fill-rule:nonzero;stroke:none" id="path953"/></g><g id="g955" transform="translate(197.853 318.452)"><path d="M0 0h-13.164a5.919 5.919 0 1 1 0-11.839H0A5.92 5.92 0 1 1 0 0" style="fill:#fe8f83;fill-opacity:1;fill-rule:nonzero;stroke:none" id="path957"/></g><g id="g959" transform="translate(220.378 225.148)"><path d="M0 0h-26.85c23.523 0 42.591-19.068 42.591-42.591v-83.921h26.85v83.921C42.591-19.068 23.521 0 0 0" style="fill:#0078c8;fill-opacity:1;fill-rule:nonzero;stroke:none" id="path961"/></g><g id="g963" transform="translate(172.107 65.423)"><path d="M0 0v-55.222h177.341V0c0 18.342-14.869 33.212-33.212 33.212H33.212C14.869 33.212 0 18.342 0 0" style="fill:#0ab79f;fill-opacity:1;fill-rule:nonzero;stroke:none" id="path965"/></g><g id="g967" transform="translate(316.236 98.636)"><path d="M0 0h-29.64C-11.298 0 3.572-14.87 3.572-33.212v-55.223h29.64v55.223C33.212-14.87 18.343 0 0 0" style="fill:#019a8d;fill-opacity:1;fill-rule:nonzero;stroke:none" id="path969"/></g><g id="g971" transform="translate(260.777 67.264)"><path d="M0 0c-17.312 0-31.348 14.035-31.348 31.348v75.44h62.697v-75.44C31.349 14.035 17.313 0 0 0" style="fill:#ffaf9e;fill-opacity:1;fill-rule:nonzero;stroke:none" id="path973"/></g><g id="g975" transform="translate(229.43 98.611)"><path d="M0 0c0-.295.015-.586.022-.879a74.815 74.815 0 0 1 31.733-7.029 74.821 74.821 0 0 1 30.909 6.657c.017.415.032.831.032 1.251v75.44H0Z" style="fill:#ffa78f;fill-opacity:1;fill-rule:nonzero;stroke:none" id="path977"/></g><g id="g979" transform="translate(297.592 306.65)"><path d="M0 0h-66.627c-32.376 0-58.621-26.245-58.621-58.621V-129.471h88.318v61.465H0Z" style="fill:#aa6a51;fill-opacity:1;fill-rule:nonzero;stroke:none" id="path981"/></g><g id="g983" transform="translate(336.347 162.684)"><path d="M0 0h-38.755v51.329H0c14.174 0 25.665-11.491 25.665-25.664v-.001C25.665 11.49 14.174 0 0 0" style="fill:#ffa78f;fill-opacity:1;fill-rule:nonzero;stroke:none" id="path985"/></g><g id="g987" transform="translate(223.732 162.684)"><path d="M0 0h-38.756C-52.93 0-64.42 11.49-64.42 25.664v.001c0 14.173 11.49 25.664 25.664 25.664H0z" style="fill:#ffaf9e;fill-opacity:1;fill-rule:nonzero;stroke:none" id="path989"/></g><g id="g991" transform="translate(261.185 99.595)"><path d="M0 0c-41.497 0-75.136 33.64-75.136 75.136v27.235c0 41.496 33.639 75.135 75.136 75.135 41.496 0 75.136-33.639 75.136-75.135V75.136C75.136 33.64 41.496 0 0 0" style="fill:#ffcebf;fill-opacity:1;fill-rule:nonzero;stroke:none" id="path993"/></g><g id="g995" transform="translate(218.727 159.023)"><path d="M0 0h-11.132a5.005 5.005 0 0 1 0-10.012H0A5.005 5.005 0 0 1 0 0" style="fill:#fe8f83;fill-opacity:1;fill-rule:nonzero;stroke:none" id="path997"/></g><g id="g999" transform="translate(261.185 277.102)"><path d="M0 0c-3.011 0-5.975-.197-8.893-.542C28.41-4.943 57.352-36.65 57.352-75.135v-27.236c0-38.485-28.942-70.192-66.245-74.593A75.658 75.658 0 0 1 0-177.506c41.496 0 75.136 33.639 75.136 75.135v27.236C75.136-33.639 41.496 0 0 0" style="fill:#ffaf9e;fill-opacity:1;fill-rule:nonzero;stroke:none" id="path1001"/></g><g id="g1003" transform="translate(277.32 321.001)"><path d="M0 0h-13.068c-33.111 0-60.78-23.28-67.544-54.363l-.004.004c-2.238-12.419-1.928-18.772-1.928-27.997 0 0 24.622-37.219 46.648-30.733-2.371 4.04-5.333 8.415-6.261 15.984 9.788-10.193 23.021-19.987 36.612-15.984-2.37 4.039-5.333 8.415-6.261 15.984 9.182-9.561 22.317-19.613 34.64-15.984-.152.258-2.054 3.498-2.202 3.756-6.913 11.995 1.876 26.977 15.721 26.977 8.513 0 16.172-5.383 18.842-13.467a74.947 74.947 0 0 0 2.76-11.165c.348.014.695.027 1.046.027 4.7 0 9.102-1.269 12.892-3.473v38.541C71.893-32.188 39.705 0 0 0" style="fill:#aa6a51;fill-opacity:1;fill-rule:nonzero;stroke:none" id="path1005"/></g><g id="g1007" transform="translate(277.32 321.001)"><path d="M0 0c-14.454 0-14.439.05-17.781-.175 37.381-2.559 66.91-33.688 66.91-71.718v-15.062a19.415 19.415 0 0 0 6.066-8.868 74.947 74.947 0 0 0 2.76-11.165c.348.014.695.027 1.046.027 4.7 0 9.102-1.269 12.892-3.473v38.541C71.893-32.188 39.705 0 0 0" style="fill:#935b44;fill-opacity:1;fill-rule:nonzero;stroke:none" id="path1009"/></g><g id="g1011" transform="translate(313.728 159.023)"><path d="M0 0h-11.132a5.005 5.005 0 0 1 0-10.012H0A5.005 5.005 0 0 1 0 0" style="fill:#fe8f83;fill-opacity:1;fill-rule:nonzero;stroke:none" id="path1013"/></g><g id="g1015" transform="translate(406.072 308.067)"><path d="M0 0c0-10.81-8.763-19.572-19.572-19.572-10.81 0-19.573 8.762-19.573 19.572" style="fill:none;stroke:#000;stroke-width:15px;stroke-linecap:round;stroke-linejoin:round;stroke-miterlimit:10;stroke-dasharray:none;stroke-opacity:1" id="path1017"/></g><g id="g1019" transform="translate(430.667 329.95)"><path d="M0 0v15.415h7.297" style="fill:none;stroke:#000;stroke-width:15px;stroke-linecap:round;stroke-linejoin:round;stroke-miterlimit:10;stroke-dasharray:none;stroke-opacity:1" id="path1021"/></g><g id="g1023" transform="translate(342.057 329.95)"><path d="M0 0v15.415h-7.297" style="fill:none;stroke:#000;stroke-width:15px;stroke-linecap:round;stroke-linejoin:round;stroke-miterlimit:10;stroke-dasharray:none;stroke-opacity:1" id="path1025"/></g><g id="g1027" transform="translate(493.643 369.06)"><path d="M0 0h-116.815c-34.345 0-62.187 27.842-62.187 62.187v4.101c0 31.714 25.71 57.424 57.424 57.424h41.511C-35.848 123.712 0 87.864 0 43.644Z" style="fill:none;stroke:#000;stroke-width:15px;stroke-linecap:round;stroke-linejoin:round;stroke-miterlimit:10;stroke-dasharray:390 35 400 0;stroke-dashoffset:0;stroke-opacity:1" id="path1029"/></g><g id="g1031" transform="translate(298.831 331.65)"><path d="M0 0v30.879c0 4.842.402 9.589 1.164 14.215H-.131c-16.336 0-29.579-13.243-29.579-29.579v-.182c0-16.336 13.243-29.579 29.579-29.579H1.18A87.553 87.553 0 0 0 0 0Z" style="fill:none;stroke:#000;stroke-width:15px;stroke-linecap:round;stroke-linejoin:round;stroke-miterlimit:10;stroke-dasharray:none;stroke-opacity:1" id="path1033"/></g><g id="g1035" transform="translate(471.193 369.06)"><path d="M0 0c.16-2.159.27-4.331.27-6.531V-37.41c0-4.854-.416-9.608-1.18-14.245h3.472c16.335 0 29.579 13.242 29.579 29.578v.182c0 8.679-3.739 16.484-9.692 21.895v0z" style="fill:none;stroke:#000;stroke-width:15px;stroke-linecap:round;stroke-linejoin:round;stroke-miterlimit:10;stroke-dasharray:none;stroke-opacity:1" id="path1037"/></g><g id="g1039" transform="translate(244.049 379.665)"><path d="M0 0h-122.403c-33.727 0-61.067 27.341-61.067 61.067v16.439c0 24.647 19.981 44.628 44.628 44.628h78.512c33.319 0 60.33-27.011 60.33-60.33Z" style="fill:none;stroke:#000;stroke-width:15px;stroke-linecap:round;stroke-linejoin:round;stroke-miterlimit:10;stroke-dasharray:none;stroke-opacity:1" id="path1041"/></g><g id="g1043" transform="translate(224.602 379.665)"><path d="M0 0h-1.211A89.53 89.53 0 0 0-.032-14.416v-31.869c0-4.91-.414-9.722-1.179-14.416H0c16.763 0 30.351 13.588 30.351 30.35C30.351-13.588 16.763 0 0 0Z" style="fill:none;stroke:#000;stroke-width:15px;stroke-linecap:round;stroke-linejoin:round;stroke-miterlimit:10;stroke-dasharray:none;stroke-opacity:1" id="path1045"/></g><g id="g1047" transform="translate(45.665 333.38)"><path d="M0 0v31.869c0 4.91.409 9.723 1.176 14.416h-1.25c-16.762 0-30.351-13.589-30.351-30.351S-16.836-14.417-.074-14.417H1.18A89.552 89.552 0 0 0 0 0Z" style="fill:none;stroke:#000;stroke-width:15px;stroke-linecap:round;stroke-linejoin:round;stroke-miterlimit:10;stroke-dasharray:none;stroke-opacity:1" id="path1049"/></g><g id="g1051" transform="translate(45.744 368.953)"><path d="M0 0a87.585 87.585 0 0 1 0 0Z" style="fill:none;stroke:#000;stroke-width:15px;stroke-linecap:round;stroke-linejoin:round;stroke-miterlimit:10;stroke-dasharray:none;stroke-opacity:1" id="path1053"/></g><g id="g1055" transform="translate(60.58 440.732)"><path d="M0 0v16.439c0 5.979 1.185 11.68 3.318 16.892-24.511-2.15-42.886-24.199-39.964-49.146l5.824-49.708a30.204 30.204 0 0 0 15.834 4.455h1.25C-11.302-46.147-5.16-32.474 3.714-21.02c.308-.84.64-1.669.982-2.492A60.88 60.88 0 0 0 0 0Z" style="fill:none;stroke:#000;stroke-width:15px;stroke-linecap:round;stroke-linejoin:round;stroke-miterlimit:10;stroke-dasharray:none;stroke-opacity:1" id="path1057"/></g><g id="g1059" transform="translate(45.968 372.557)"><path d="M0 0c-.013-.155-.018-.312-.029-.467.011.155.016.312.029.467Z" style="fill:none;stroke:#000;stroke-width:15px;stroke-linecap:round;stroke-linejoin:round;stroke-miterlimit:10;stroke-dasharray:none;stroke-opacity:1" id="path1061"/></g><g id="g1063" transform="translate(154.236 306.896)"><path d="M0 0c0-10.495-8.508-19.002-19.002-19.002-10.495 0-19.002 8.507-19.002 19.002" style="fill:none;stroke:#000;stroke-width:15px;stroke-linecap:round;stroke-linejoin:round;stroke-miterlimit:10;stroke-dasharray:none;stroke-opacity:1" id="path1065"/></g><g id="g1067" transform="translate(91.56 351.34)"><path d="M0 0v-16.476" style="fill:none;stroke:#000;stroke-width:15px;stroke-linecap:round;stroke-linejoin:round;stroke-miterlimit:10;stroke-dasharray:none;stroke-opacity:1" id="path1069"/></g><g id="g1071" transform="translate(178.907 351.34)"><path d="M0 0v-16.476" style="fill:none;stroke:#000;stroke-width:15px;stroke-linecap:round;stroke-linejoin:round;stroke-miterlimit:10;stroke-dasharray:none;stroke-opacity:1" id="path1073"/></g><g id="g1075" transform="translate(504.068 291.283)"><path d="m0 0-4.804 40.733c-5.139-8.741-14.635-14.612-25.509-14.612h-3.472a87.544 87.544 0 0 1 1.18 14.246v30.879c0 2.199-.11 4.372-.27 6.53h-94.366c-34.345 0-62.187 27.843-62.187 62.187v4.1a57.19 57.19 0 0 0 5.398 24.31c-20.199-8.811-34.704-29.29-37.576-53.64l-4.449-37.717c5.334 5.221 12.633 8.444 20.687 8.444h1.295a87.498 87.498 0 0 1-1.164-14.214V40.367c0-4.854.416-9.609 1.179-14.246h-.233c28.455-9.352 49.06-35.975 49.414-67.475v2.751a86.723 86.723 0 0 1 35.956-8.132 86.697 86.697 0 0 1 38.661 9.448v-26.13h30.633c13.464 0 26.36 6.075 35.777 16.854C-3.093-34.249 2.015-17.08 0 0Z" style="fill:none;stroke:#000;stroke-width:15px;stroke-linecap:round;stroke-linejoin:round;stroke-miterlimit:10;stroke-dasharray:none;stroke-opacity:1" id="path1077"/></g><g id="g1079" transform="translate(471.193 369.06)"><path d="M0 0h-94.366c-28.851 0-53.106 19.65-60.129 46.295-11.199-14.655-17.867-32.957-17.867-52.826V-37.41c0-4.883.422-9.665 1.194-14.33 27.487-9.146 47.605-34.419 49.096-64.607a86.724 86.724 0 0 1 36.026-8.165C-38.304-124.083.27-85.254.27-37.41v30.879C.27-4.331.16-2.159 0 0Z" style="fill:none;stroke:#000;stroke-width:15px;stroke-linecap:round;stroke-linejoin:round;stroke-miterlimit:10;stroke-dasharray:none;stroke-opacity:1" id="path1081"/></g><g id="g1083" transform="translate(285.472 320.528)"><path d="M0 0a71.469 71.469 0 0 0 14.306-3.125h.233a87.553 87.553 0 0 0-1.18 14.246V42c0 4.842.404 9.589 1.164 14.215h-1.294c-16.336 0-29.58-13.243-29.58-29.579v-.182C-16.351 14.875-9.692 4.856 0 0Z" style="fill:none;stroke:#000;stroke-width:15px;stroke-linecap:round;stroke-linejoin:round;stroke-miterlimit:10;stroke-dasharray:none;stroke-opacity:1" id="path1085"/></g><g id="g1087" transform="translate(171.32 210.06)"><path d="M0 0c.639 2.726.987 5.563.987 8.484v33.76a88.66 88.66 0 0 0-36.761-7.949h-.855a88.655 88.655 0 0 0-36.528 7.844V8.484c0-20.474 16.597-37.072 37.072-37.072 9.238 0 17.681 3.387 24.172 8.976C-11.242-11.342-6.651-4.192 0 0Z" style="fill:none;stroke:#000;stroke-width:15px;stroke-linecap:round;stroke-linejoin:round;stroke-miterlimit:10;stroke-dasharray:none;stroke-opacity:1" id="path1089"/></g><g id="g1091" transform="translate(220.134 305.622)"><path d="M0 0a88.923 88.923 0 0 1 4.437 27.758v31.868c0 4.911-.415 9.723-1.179 14.417H-98.488c-26.34 0-48.784 16.677-57.353 40.047-11.666-15.056-18.628-33.942-18.628-54.464V27.758c0-49.167 39.859-89.025 89.026-89.025h.854a88.648 88.648 0 0 1 36.973 8.045C-45.646-26.527-25.801-4.824 0 0Z" style="fill:none;stroke:#000;stroke-width:15px;stroke-linecap:round;stroke-linejoin:round;stroke-miterlimit:10;stroke-dasharray:none;stroke-opacity:1" id="path1093"/></g><g id="g1095" transform="translate(276.73 148.902)"><path d="M0 0c0-8.874-7.193-16.068-16.067-16.068S-32.136-8.874-32.136 0" style="fill:none;stroke:#000;stroke-width:15px;stroke-linecap:round;stroke-linejoin:round;stroke-miterlimit:10;stroke-dasharray:none;stroke-opacity:1" id="path1097"/></g><g id="g1099" transform="translate(223.732 184.074)"><path d="M0 0v-9.112" style="fill:none;stroke:#000;stroke-width:15px;stroke-linecap:round;stroke-linejoin:round;stroke-miterlimit:10;stroke-dasharray:none;stroke-opacity:1" id="path1101"/></g><g id="g1103" transform="translate(297.592 184.074)"><path d="M0 0v-9.112" style="fill:none;stroke:#000;stroke-width:15px;stroke-linecap:round;stroke-linejoin:round;stroke-miterlimit:10;stroke-dasharray:none;stroke-opacity:1" id="path1105"/></g><g id="g1107" transform="translate(335.274 214.013)"><path d="M0 0a74.96 74.96 0 0 1-2.76 11.166c-2.67 8.084-10.329 13.466-18.843 13.466-13.844 0-22.633-14.981-15.72-26.977.148-.258 2.051-3.497 2.202-3.756C-47.445-9.73-60.579.322-69.761 9.883c.928-7.569 3.891-11.945 6.261-15.984-13.591-4.003-26.823 5.791-36.612 15.984.927-7.569 3.89-11.944 6.259-15.984-20.272-5.97-42.744 25.086-46.191 30.065-5.852-10.693-9.182-22.962-9.182-36.01v-27.236c0-41.496 33.64-75.135 75.136-75.135 41.496 0 75.136 33.639 75.136 75.135v27.236C1.046-7.944.704-3.922.072.002L0 0Z" style="fill:none;stroke:#000;stroke-width:15px;stroke-linecap:round;stroke-linejoin:round;stroke-miterlimit:10;stroke-dasharray:none;stroke-opacity:1" id="path1109"/></g><g id="g1111" transform="translate(186.049 174.731)"><path d="M0 0v27.235c0 4.101.33 8.125.963 12.047h-2.035c-14.174 0-25.664-11.49-25.664-25.664 0-14.175 11.49-25.665 25.664-25.665H.974A75.566 75.566 0 0 0 0 0Z" style="fill:none;stroke:#000;stroke-width:15px;stroke-linecap:round;stroke-linejoin:round;stroke-miterlimit:10;stroke-dasharray:none;stroke-opacity:1" id="path1113"/></g><g id="g1115" transform="translate(336.347 214.013)"><path d="M0 0h-1a75.68 75.68 0 0 0 .974-12.046v-27.236c0-4.102-.341-8.123-.974-12.047h1c14.174 0 25.665 11.491 25.665 25.665S14.174 0 0 0Z" style="fill:none;stroke:#000;stroke-width:15px;stroke-linecap:round;stroke-linejoin:round;stroke-miterlimit:10;stroke-dasharray:none;stroke-opacity:1" id="path1117"/></g><g id="g1119" transform="translate(277.32 321.001)"><path d="M0 0h-13.068c-16.375 0-31.413-5.7-43.256-15.216l.006.006c-27.627-4.733-48.658-28.784-48.658-57.761v-37.344a25.543 25.543 0 0 0 12.633 3.327h2.035a74.615 74.615 0 0 0 8.219 23.964l-.015.023c3.397-4.912 25.905-36.067 46.207-30.088-2.37 4.04-5.332 8.415-6.26 15.984 9.789-10.193 23.021-19.987 36.612-15.984-2.37 4.039-5.333 8.415-6.261 15.984 9.182-9.561 22.316-19.613 34.64-15.984-.151.258-2.054 3.498-2.202 3.756-6.913 11.996 1.876 26.977 15.721 26.977 8.513 0 16.172-5.383 18.842-13.467a74.947 74.947 0 0 0 2.76-11.165c.348.014.695.027 1.046.027 4.7 0 9.102-1.269 12.892-3.473v38.541C71.893-32.188 39.705 0 0 0Z" style="fill:none;stroke:#000;stroke-width:15px;stroke-linecap:round;stroke-linejoin:round;stroke-miterlimit:10;stroke-dasharray:none;stroke-opacity:1" id="path1121"/></g><g id="g1123" transform="translate(261.185 99.596)"><path d="M0 0v0a74.825 74.825 0 0 0-31.755 7.039V-.984c0-17.313 14.035-31.349 31.348-31.349S30.941-18.297 30.941-.984v7.655A74.82 74.82 0 0 0 0 0Z" style="fill:none;stroke:#000;stroke-width:15px;stroke-linecap:round;stroke-linejoin:round;stroke-miterlimit:10;stroke-dasharray:none;stroke-opacity:1" id="path1125"/></g><g id="g1127" transform="translate(316.236 98.636)"><path d="M0 0h-24.11v-.024c0-17.313-14.036-31.349-31.349-31.349-17.312 0-31.348 14.036-31.348 31.349V0h-24.11c-18.343 0-33.212-14.87-33.212-33.212v-55.223H33.212v55.223C33.212-14.87 18.343 0 0 0Z" style="fill:none;stroke:#000;stroke-width:15px;stroke-linecap:round;stroke-linejoin:round;stroke-miterlimit:10;stroke-dasharray:none;stroke-opacity:1" id="path1129"/></g><g id="g1131" transform="translate(229.43 106.634)"><path d="M0 0c-22.135 10.339-38.393 31.141-42.408 56.052l.001-.003h-2.046c-14.174 0-25.664 11.491-25.664 25.665 0 .708.037 1.407.094 2.1-6.493-5.589-14.934-8.977-24.172-8.977-20.475 0-37.073 16.599-37.073 37.073v6.603h-48.071c-23.522 0-42.591-19.068-42.591-42.591V-7.996H0z" style="fill:none;stroke:#000;stroke-width:15px;stroke-linecap:round;stroke-linejoin:round;stroke-miterlimit:10;stroke-dasharray:349 35 400 0;stroke-dashoffset:0;stroke-opacity:1" id="path1133"/></g><g id="g1135" transform="translate(446.728 227.865)"><path d="M0 0h-22.92v-4.281c0-20.605-16.703-37.308-37.309-37.308-10.064 0-19.19 3.991-25.901 10.469.212-.61.397-1.234.562-1.864.035-.132.065-.266.097-.398a24.86 24.86 0 0 0 .421-2.073c.078-.489.14-.983.19-1.481.018-.184.042-.366.056-.552.053-.67.087-1.345.087-2.029 0-14.174-11.491-25.665-25.665-25.665h-1v.003c-4.063-25.214-20.673-46.213-43.221-56.42v-7.628H45.815v83.412C45.815-20.512 25.304 0 0 0Z" style="fill:none;stroke:#000;stroke-width:15px;stroke-linecap:round;stroke-linejoin:round;stroke-miterlimit:10;stroke-dasharray:none;stroke-opacity:1" id="path1137"/></g><g id="g1139" transform="translate(385.147 244.547)"><path d="M0 0a86.723 86.723 0 0 0-35.956 8.132v-29.095a37.148 37.148 0 0 1 3.268-15.265 25.703 25.703 0 0 0 8.139-11.574c6.711-6.478 15.837-10.469 25.902-10.469 20.605 0 37.308 16.703 37.308 37.308V9.449A86.684 86.684 0 0 0 0 0Z" style="fill:none;stroke:#000;stroke-width:15px;stroke-linecap:round;stroke-linejoin:round;stroke-miterlimit:10;stroke-dasharray:none;stroke-opacity:1" id="path1141"/></g></g></g></g></svg>