<svg version="1.1" id="svg2340" width="682.667" height="682.667" xmlns="http://www.w3.org/2000/svg"><defs id="defs2344"><clipPath clipPathUnits="userSpaceOnUse" id="clipPath2354"><path d="M0 512h512V0H0Z" id="path2352"/></clipPath></defs><g id="g2346" transform="matrix(1.33333 0 0 -1.33333 0 682.667)"><g id="g2348"><g id="g2350" clip-path="url('#clipPath2354')"><g id="g2356" transform="translate(104.777 29.824)"><path d="M0 0h-20.017C-36.65 0-50.133 13.484-50.133 30.117v87.103h80.25V30.117C30.117 13.484 16.633 0 0 0" style="fill:#545464;fill-opacity:1;fill-rule:nonzero;stroke:none" id="path2358"/></g><g id="g2360" transform="translate(85.367 147.044)"><path d="M0 0v-117.22h19.411c16.633 0 30.117 13.484 30.117 30.117V0z" style="fill:#394856;fill-opacity:1;fill-rule:nonzero;stroke:none" id="path2362"/></g><g id="g2364" transform="translate(427.24 29.824)"><path d="M0 0h-20.017C-36.65 0-50.134 13.484-50.134 30.117v87.103h80.251V30.117C30.117 13.484 16.633 0 0 0" style="fill:#545464;fill-opacity:1;fill-rule:nonzero;stroke:none" id="path2366"/></g><g id="g2368" transform="translate(407.828 147.044)"><path d="M0 0v-117.22h19.411c16.633 0 30.117 13.484 30.117 30.117V0z" style="fill:#394856;fill-opacity:1;fill-rule:nonzero;stroke:none" id="path2370"/></g><g id="g2372" transform="translate(494.878 268.437)"><path d="M0 0h-28.909a12.748 12.748 0 0 1-12.279-9.324l-7.034-25.233H0c5.314 0 9.622 4.307 9.622 9.621v15.314A9.622 9.622 0 0 1 0 0" style="fill:#e35052;fill-opacity:1;fill-rule:nonzero;stroke:none" id="path2374"/></g><g id="g2376" transform="translate(17.122 268.437)"><path d="M0 0h28.909a12.748 12.748 0 0 0 12.279-9.324l7.034-25.233H0c-5.314 0-9.622 4.307-9.622 9.621v15.314A9.622 9.622 0 0 0 0 0" style="fill:#e35052;fill-opacity:1;fill-rule:nonzero;stroke:none" id="path2378"/></g><g id="g2380" transform="translate(317.059 482.176)"><path d="M0 0h-122.117c-5.931 0-10.74-4.809-10.74-10.741v-19.873c0-5.931 4.809-10.74 10.74-10.74H0c5.932 0 10.74 4.809 10.74 10.74v19.873C10.74-4.809 5.932 0 0 0" style="fill:#28bfa6;fill-opacity:1;fill-rule:nonzero;stroke:none" id="path2382"/></g><g id="g2384" transform="translate(317.059 482.176)"><path d="M0 0h-38.787v-41.354H0c5.932 0 10.74 4.809 10.74 10.74v19.873C10.74-4.809 5.932 0 0 0" style="fill:#1ab29b;fill-opacity:1;fill-rule:nonzero;stroke:none" id="path2386"/></g><g id="g2388" transform="translate(343.664 441.822)"><path d="M0 0h-175.329c-8.516 0-15.42-6.904-15.42-15.421v-28.533c0-8.516 6.904-15.42 15.42-15.42H0c8.517 0 15.421 6.904 15.421 15.42v28.533C15.421-6.904 8.517 0 0 0" style="fill:#fdbd37;fill-opacity:1;fill-rule:nonzero;stroke:none" id="path2390"/></g><g id="g2392" transform="translate(343.664 441.822)"><path d="M0 0h-33.226v-59.375H0c8.517 0 15.421 6.905 15.421 15.421v28.533C15.421-6.904 8.517 0 0 0" style="fill:#fa9a39;fill-opacity:1;fill-rule:nonzero;stroke:none" id="path2394"/></g><g id="g2396" transform="translate(452.644 238.723)"><path d="m0 0-33.511 130.191a18.751 18.751 0 0 1-18.27 14.535h-289.725a18.75 18.75 0 0 1-18.27-14.535L-393.287 0a15.002 15.002 0 0 0-5.863-8.811l-16.661-11.977a36.758 36.758 0 0 1-15.302-29.846v-58.177c0-18.9 15.321-34.222 34.222-34.222H3.604c18.9 0 34.222 15.322 34.222 34.222v58.177a36.756 36.756 0 0 1-15.303 29.846L5.862-8.811A15.005 15.005 0 0 0 0 0" style="fill:#fc6a58;fill-opacity:1;fill-rule:nonzero;stroke:none" id="path2398"/></g><g id="g2400" transform="translate(475.168 217.935)"><path d="m0 0-16.662 11.978a15.003 15.003 0 0 0-5.862 8.81l-33.511 130.191a18.752 18.752 0 0 1-18.271 14.535h-49.527a18.75 18.75 0 0 0 18.27-14.535l33.51-130.191a15.015 15.015 0 0 1 5.864-8.81L-49.528 0a36.758 36.758 0 0 0 15.302-29.846v-92.399h15.305c18.9 0 34.223 15.322 34.223 34.223v58.176A36.76 36.76 0 0 1 0 0" style="fill:#e35052;fill-opacity:1;fill-rule:nonzero;stroke:none" id="path2402"/></g><g id="g2404" transform="translate(421.113 231.446)"><path d="m0 0-28.965 111.515a10.857 10.857 0 0 1-10.509 8.129h-251.278a10.857 10.857 0 0 1-10.509-8.129L-330.227 0c-1.192-9.545 6.25-17.976 15.87-17.976h298.488C-6.25-17.976 1.193-9.545 0 0" style="fill:#d7dee3;fill-opacity:1;fill-rule:nonzero;stroke:none" id="path2406"/></g><g id="g2408" transform="translate(421.113 231.446)"><path d="m0 0-28.965 111.515a10.858 10.858 0 0 1-10.509 8.129h-43.251L-51.648 0l2.247-17.976h33.532C-6.25-17.976 1.193-9.545 0 0" style="fill:#c7ced1;fill-opacity:1;fill-rule:nonzero;stroke:none" id="path2410"/></g><g id="g2412" transform="translate(113.397 140.943)"><path d="M0 0h-42.513c-6.291 0-11.391 5.1-11.391 11.391v23.261c0 6.291 5.1 11.391 11.391 11.391H0c6.291 0 11.391-5.1 11.391-11.391V11.391C11.391 5.1 6.291 0 0 0" style="fill:#fed15b;fill-opacity:1;fill-rule:nonzero;stroke:none" id="path2414"/></g><g id="g2416" transform="translate(441.115 140.943)"><path d="M0 0h-42.513c-6.291 0-11.39 5.1-11.39 11.391v23.261c0 6.291 5.099 11.391 11.39 11.391H0c6.291 0 11.392-5.1 11.392-11.391V11.391C11.392 5.1 6.291 0 0 0" style="fill:#fed15b;fill-opacity:1;fill-rule:nonzero;stroke:none" id="path2418"/></g><g id="g2420" transform="translate(172.985 181.786)"><path d="M0 0h166.029" style="fill:none;stroke:#000;stroke-width:15px;stroke-linecap:round;stroke-linejoin:round;stroke-miterlimit:10;stroke-dasharray:none;stroke-opacity:1" id="path2422"/></g><g id="g2424" transform="translate(194.172 150.39)"><path d="M0 0h123.655" style="fill:none;stroke:#000;stroke-width:15px;stroke-linecap:round;stroke-linejoin:round;stroke-miterlimit:10;stroke-dasharray:none;stroke-opacity:1" id="path2426"/></g><g id="g2428" transform="translate(213.498 297.041)"><path d="M0 0c0-16.291-13.207-29.498-29.498-29.498S-58.996-16.291-58.996 0c0 16.292 13.207 29.498 29.498 29.498S0 16.292 0 0" style="fill:#394856;fill-opacity:1;fill-rule:nonzero;stroke:none" id="path2430"/></g><g id="g2432" transform="translate(357.498 297.041)"><path d="M0 0c0-16.291-13.207-29.498-29.498-29.498S-58.996-16.291-58.996 0c0 16.292 13.207 29.498 29.498 29.498S0 16.292 0 0" style="fill:#394856;fill-opacity:1;fill-rule:nonzero;stroke:none" id="path2434"/></g><g id="g2436" transform="translate(275.702 286.097)"><path d="M0 0c0-10.881-8.821-19.702-19.702-19.702-10.881 0-19.702 8.821-19.702 19.702 0 10.881 8.821 19.702 19.702 19.702C-8.821 19.702 0 10.881 0 0" style="fill:#394856;fill-opacity:1;fill-rule:nonzero;stroke:none" id="path2438"/></g><g id="g2440" transform="translate(395.999 213.47)"><path d="M0 0c-.927 13.269-11.976 23.747-25.48 23.747h-229.038c-13.504 0-24.554-10.478-25.48-23.747z" style="fill:#b2b9bf;fill-opacity:1;fill-rule:nonzero;stroke:none" id="path2442"/></g><g id="g2444" transform="translate(452.644 238.723)"><path d="m0 0-33.511 130.191a18.751 18.751 0 0 1-18.27 14.535h-289.725a18.75 18.75 0 0 1-18.27-14.535L-393.287 0a15.002 15.002 0 0 0-5.863-8.811l-16.661-11.977a36.758 36.758 0 0 1-15.302-29.846v-58.177c0-18.9 15.321-34.222 34.222-34.222H3.604c18.9 0 34.222 15.322 34.222 34.222v58.177a36.756 36.756 0 0 1-15.303 29.846L5.862-8.811A15.005 15.005 0 0 0 0 0Z" style="fill:none;stroke:#000;stroke-width:15px;stroke-linecap:round;stroke-linejoin:round;stroke-miterlimit:10;stroke-dasharray:none;stroke-opacity:1" id="path2446"/></g><g id="g2448" transform="translate(113.397 140.943)"><path d="M0 0h-42.513c-6.291 0-11.391 5.1-11.391 11.391v23.261c0 6.291 5.1 11.391 11.391 11.391H0c6.291 0 11.391-5.1 11.391-11.391V11.391C11.391 5.1 6.291 0 0 0Z" style="fill:none;stroke:#000;stroke-width:15px;stroke-linecap:round;stroke-linejoin:round;stroke-miterlimit:10;stroke-dasharray:none;stroke-opacity:1" id="path2450"/></g><g id="g2452" transform="translate(441.115 140.943)"><path d="M0 0h-42.513c-6.291 0-11.39 5.1-11.39 11.391v23.261c0 6.291 5.099 11.391 11.39 11.391H0c6.291 0 11.392-5.1 11.392-11.391V11.391C11.392 5.1 6.291 0 0 0Z" style="fill:none;stroke:#000;stroke-width:15px;stroke-linecap:round;stroke-linejoin:round;stroke-miterlimit:10;stroke-dasharray:none;stroke-opacity:1" id="path2454"/></g><g id="g2456" transform="translate(208.75 441.822)"><path d="M0 0h-40.414c-8.517 0-15.42-6.904-15.42-15.421v-28.533c0-6.605 4.16-12.223 9.997-14.42h186.175c5.837 2.197 9.997 7.815 9.997 14.42v28.533c0 8.517-6.904 15.421-15.42 15.421H34.896" style="fill:none;stroke:#000;stroke-width:15px;stroke-linecap:round;stroke-linejoin:round;stroke-miterlimit:10;stroke-dasharray:none;stroke-opacity:1" id="path2458"/></g><g id="g2460" transform="translate(243.646 441.822)"><path d="M0 0h77.917c3.678 1.704 6.236 5.419 6.236 9.74v19.873c0 5.932-4.809 10.741-10.74 10.741H-48.704c-5.932 0-10.741-4.809-10.741-10.741V9.74c0-4.321 2.558-8.036 6.237-9.74h18.312" style="fill:none;stroke:#000;stroke-width:15px;stroke-linecap:round;stroke-linejoin:round;stroke-miterlimit:10;stroke-dasharray:none;stroke-opacity:1" id="path2462"/></g><g id="g2464" transform="translate(61.583 247.371)"><path d="m0 0-3.273 11.742a12.748 12.748 0 0 1-12.279 9.324h-28.909a9.622 9.622 0 0 1-9.622-9.622V-3.87c0-5.314 4.308-9.621 9.622-9.621h40.164" style="fill:none;stroke:#000;stroke-width:15px;stroke-linecap:round;stroke-linejoin:round;stroke-miterlimit:10;stroke-dasharray:none;stroke-opacity:1" id="path2466"/></g><g id="g2468" transform="translate(370.198 237.217)"><path d="M0 0c-3.925 17.359-19.433 30.326-37.979 30.326h-8.438c-18.546 0-34.054-12.967-37.979-30.326Z" style="fill:#375779;fill-opacity:1;fill-rule:nonzero;stroke:none" id="path2470"/></g><g id="g2472" transform="translate(284.833 237.217)"><path d="M0 0v3.163C0 17.53-11.647 29.178-26.015 29.178h-5.636c-14.368 0-26.015-11.648-26.015-26.015V0Z" style="fill:#375779;fill-opacity:1;fill-rule:nonzero;stroke:none" id="path2474"/></g><g id="g2476" transform="translate(226.198 237.217)"><path d="M0 0c-3.925 17.359-19.433 30.326-37.979 30.326h-8.438c-18.546 0-34.054-12.967-37.979-30.326Z" style="fill:#375779;fill-opacity:1;fill-rule:nonzero;stroke:none" id="path2478"/></g><g id="g2480" transform="translate(213.498 297.041)"><path d="M0 0c0-16.291-13.207-29.498-29.498-29.498S-58.996-16.291-58.996 0c0 16.292 13.207 29.498 29.498 29.498S0 16.292 0 0Z" style="fill:none;stroke:#000;stroke-width:15px;stroke-linecap:round;stroke-linejoin:round;stroke-miterlimit:10;stroke-dasharray:none;stroke-opacity:1" id="path2482"/></g><g id="g2484" transform="translate(357.498 297.041)"><path d="M0 0c0-16.291-13.207-29.498-29.498-29.498S-58.996-16.291-58.996 0c0 16.292 13.207 29.498 29.498 29.498S0 16.292 0 0Z" style="fill:none;stroke:#000;stroke-width:15px;stroke-linecap:round;stroke-linejoin:round;stroke-miterlimit:10;stroke-dasharray:none;stroke-opacity:1" id="path2486"/></g><g id="g2488" transform="translate(275.702 286.097)"><path d="M0 0c0-10.881-8.821-19.702-19.702-19.702-10.881 0-19.702 8.821-19.702 19.702 0 10.881 8.821 19.702 19.702 19.702C-8.821 19.702 0 10.881 0 0Z" style="fill:none;stroke:#000;stroke-width:15px;stroke-linecap:round;stroke-linejoin:round;stroke-miterlimit:10;stroke-dasharray:none;stroke-opacity:1" id="path2490"/></g><g id="g2492" transform="translate(395.999 213.47)"><path d="M0 0c-.927 13.269-11.976 23.747-25.48 23.747h-229.038c-13.504 0-24.554-10.478-25.48-23.747" style="fill:none;stroke:#000;stroke-width:15px;stroke-linecap:round;stroke-linejoin:round;stroke-miterlimit:10;stroke-dasharray:none;stroke-opacity:1" id="path2494"/></g><g id="g2496" transform="translate(370.198 237.217)"><path d="M0 0c-3.925 17.359-19.433 30.326-37.979 30.326h-8.438c-18.546 0-34.054-12.967-37.979-30.326" style="fill:none;stroke:#000;stroke-width:15px;stroke-linecap:round;stroke-linejoin:round;stroke-miterlimit:10;stroke-dasharray:none;stroke-opacity:1" id="path2498"/></g><g id="g2500" transform="translate(284.833 237.217)"><path d="M0 0v3.163C0 17.53-11.647 29.178-26.015 29.178h-5.636c-14.368 0-26.015-11.648-26.015-26.015V0" style="fill:none;stroke:#000;stroke-width:15px;stroke-linecap:round;stroke-linejoin:round;stroke-miterlimit:10;stroke-dasharray:none;stroke-opacity:1" id="path2502"/></g><g id="g2504" transform="translate(226.198 237.217)"><path d="M0 0c-3.925 17.359-19.433 30.326-37.979 30.326h-8.438c-18.546 0-34.054-12.967-37.979-30.326" style="fill:none;stroke:#000;stroke-width:15px;stroke-linecap:round;stroke-linejoin:round;stroke-miterlimit:10;stroke-dasharray:none;stroke-opacity:1" id="path2506"/></g><g id="g2508" transform="translate(104.18 282.627)"><path d="m0 0-13.293-51.18v-.001c-1.193-9.545 6.249-17.976 15.869-17.976h298.488c9.619 0 17.062 8.431 15.869 17.976L303.73-.347" style="fill:none;stroke:#000;stroke-width:15px;stroke-linecap:round;stroke-linejoin:round;stroke-miterlimit:10;stroke-dasharray:none;stroke-opacity:1" id="path2510"/></g><g id="g2512" transform="translate(399.043 316.418)"><path d="m0 0-6.895 26.543a10.856 10.856 0 0 1-10.508 8.128h-251.279a10.857 10.857 0 0 1-10.509-8.128l-6.898-26.557" style="fill:none;stroke:#000;stroke-width:15px;stroke-linecap:round;stroke-linejoin:round;stroke-miterlimit:10;stroke-dasharray:none;stroke-opacity:1" id="path2514"/></g><g id="g2516" transform="translate(55.753 95.69)"><path d="M0 0c-.372 0-.74.016-1.109.028v-35.777c0-16.633 13.484-30.117 30.117-30.117h20.016c16.634 0 30.118 13.484 30.118 30.117V0" style="fill:none;stroke:#000;stroke-width:15px;stroke-linecap:round;stroke-linejoin:round;stroke-miterlimit:10;stroke-dasharray:none;stroke-opacity:1" id="path2518"/></g><g id="g2520" transform="translate(377.106 95.69)"><path d="M0 0v-35.749c0-16.633 13.484-30.117 30.117-30.117h20.017c16.633 0 30.117 13.484 30.117 30.117V.028" style="fill:none;stroke:#000;stroke-width:15px;stroke-linecap:round;stroke-linejoin:round;stroke-miterlimit:10;stroke-dasharray:none;stroke-opacity:1" id="path2522"/></g><g id="g2524" transform="translate(454.714 233.88)"><path d="M0 0h40.164a9.621 9.621 0 0 1 9.622 9.622v15.314a9.621 9.621 0 0 1-9.622 9.622H11.255a12.746 12.746 0 0 1-12.278-9.325l-3.274-11.742" style="fill:none;stroke:#000;stroke-width:15px;stroke-linecap:round;stroke-linejoin:round;stroke-miterlimit:10;stroke-dasharray:none;stroke-opacity:1" id="path2526"/></g></g></g></g></svg>