<?xml version="1.0" encoding="UTF-8" standalone="no"?>
<!-- Created with Inkscape (http://www.inkscape.org/) -->

<svg
   version="1.1"
   id="svg4776"
   xml:space="preserve"
   width="682.66669"
   height="682.66669"
   viewBox="0 0 682.66669 682.66669"
   xmlns="http://www.w3.org/2000/svg"
   xmlns:svg="http://www.w3.org/2000/svg"><defs
     id="defs4780"><clipPath
       clipPathUnits="userSpaceOnUse"
       id="clipPath4790"><path
         d="M 0,512 H 512 V 0 H 0 Z"
         id="path4788" /></clipPath></defs><g
     id="g4782"
     transform="matrix(1.3333333,0,0,-1.3333333,0,682.66667)"><g
       id="g4784"><g
         id="g4786"
         clip-path="url(#clipPath4790)"><g
           id="g4792"
           transform="translate(61.811,412.0723)"><path
             d="m 0,0 h 388.378 c 34.137,0 61.811,-27.674 61.811,-61.811 v -288.451 c 0,-34.136 -27.674,-61.81 -61.811,-61.81 H 0 c -34.137,0 -61.811,27.674 -61.811,61.81 V -61.811 C -61.811,-27.674 -34.137,0 0,0"
             style="fill:#e2e2e2;fill-opacity:1;fill-rule:nonzero;stroke:none"
             id="path4794" /></g><g
           id="g4796"
           transform="translate(61.811,61.8105)"><path
             d="m 0,0 v 288.451 c 0,34.137 27.673,61.811 61.811,61.811 H 0 c -34.137,0 -61.811,-27.674 -61.811,-61.811 V 0 c 0,-34.137 27.674,-61.811 61.811,-61.811 H 61.811 C 27.673,-61.811 0,-34.137 0,0"
             style="fill:#d4d4d2;fill-opacity:1;fill-rule:nonzero;stroke:none"
             id="path4798" /></g><g
           id="g4800"
           transform="translate(418.7383,366.1816)"><path
             d="m 0,0 -47.369,-20.233 6.161,-51.14 38.883,-2.334 20.815,15.45 2.972,25.751 z"
             style="fill:#ffdcce;fill-opacity:1;fill-rule:nonzero;stroke:none"
             id="path4802" /></g><g
           id="g4804"
           transform="translate(458.1553,306.4824)"><path
             d="M 0,0 -17.955,27.193 -41.742,-14.008 -9.215,-15.96 C -0.74,-16.469 4.677,-7.085 0,0"
             style="fill:#5c586f;fill-opacity:1;fill-rule:nonzero;stroke:none"
             id="path4806" /></g><g
           id="g4808"
           transform="translate(418.7383,366.1816)"><path
             d="M 0,0 -41.207,-71.373 -284.198,68.918 c -19.709,11.379 -26.462,36.581 -15.083,56.29 h 0.001 c 11.379,19.709 36.58,26.462 56.29,15.083 z"
             style="fill:#9ae0eb;fill-opacity:1;fill-rule:nonzero;stroke:none"
             id="path4810" /></g><g
           id="g4812"
           transform="translate(344.6045,361.4004)"><path
             d="m 0,0 v 0 c -11.379,-19.709 -36.581,-26.462 -56.29,-15.082 l 89.217,-51.51 41.207,71.373 -89.217,51.51 C 4.626,44.911 11.379,19.71 0,0"
             style="fill:#3ccadd;fill-opacity:1;fill-rule:nonzero;stroke:none"
             id="path4814" /></g><g
           id="g4816"
           transform="translate(167.856,235.3008)"><path
             d="M 0,0 C -34.798,-7.84 -62.188,-35.246 -70.001,-70.055"
             style="fill:none;stroke:#ff748f;stroke-width:15;stroke-linecap:round;stroke-linejoin:round;stroke-miterlimit:10;stroke-dasharray:none;stroke-opacity:1"
             id="path4818" /></g><g
           id="g4820"
           transform="translate(278.7871,165.2461)"><path
             d="M 0,0 C -7.814,34.809 -35.203,62.215 -70,70.055"
             style="fill:none;stroke:#ff748f;stroke-width:15;stroke-linecap:round;stroke-linejoin:round;stroke-miterlimit:10;stroke-dasharray:none;stroke-opacity:1"
             id="path4822" /></g><g
           id="g4824"
           transform="translate(387.7422,117.2129)"><path
             d="M 0,0 C -3.861,22.694 -22.963,38.98 -45.025,40.152"
             style="fill:none;stroke:#3ccadd;stroke-width:15;stroke-linecap:round;stroke-linejoin:round;stroke-miterlimit:10;stroke-dasharray:none;stroke-opacity:1"
             id="path4826" /></g><g
           id="g4828"
           transform="translate(297.6914,117.2129)"><path
             d="M 0,0 C 3.862,22.694 22.963,38.98 45.025,40.152"
             style="fill:none;stroke:#3ccadd;stroke-width:15;stroke-linecap:round;stroke-linejoin:round;stroke-miterlimit:10;stroke-dasharray:none;stroke-opacity:1"
             id="path4830" /></g><g
           id="g4832"
           transform="translate(130.877,159.873)"><path
             d="m 0,0 -18.469,-37.279 c -3.161,-6.38 -1.311,-14.118 4.421,-18.342 11.638,-8.574 34.594,-20.67 71.492,-20.67 36.898,0 59.854,12.096 71.493,20.67 5.731,4.224 7.581,11.962 4.42,18.342 L 77.559,75.347"
             style="fill:none;stroke:#ff748f;stroke-width:15;stroke-linecap:round;stroke-linejoin:round;stroke-miterlimit:10;stroke-dasharray:none;stroke-opacity:1"
             id="path4834" /></g><g
           id="g4836"
           transform="translate(168.2881,235.3838)"><path
             d="M 0,0 -25.06,-50.582"
             style="fill:none;stroke:#ff748f;stroke-width:15;stroke-linecap:round;stroke-linejoin:round;stroke-miterlimit:10;stroke-dasharray:none;stroke-opacity:1"
             id="path4838" /></g><g
           id="g4840"
           transform="translate(232.4268,274.707)"><path
             d="m 0,0 c 0,-24.358 -19.747,-44.105 -44.106,-44.105 -24.359,0 -44.105,19.747 -44.105,44.105 0,24.359 19.746,44.106 44.105,44.106 C -19.747,44.106 0,24.359 0,0 Z"
             style="fill:none;stroke:#ff748f;stroke-width:15;stroke-linecap:round;stroke-linejoin:round;stroke-miterlimit:10;stroke-dasharray:none;stroke-opacity:1"
             id="path4842" /></g><g
           id="g4844"
           transform="translate(373.6221,210.0928)"><path
             d="m 0,0 c 0,-17.068 -13.837,-30.905 -30.905,-30.905 -17.069,0 -30.906,13.837 -30.906,30.905 0,17.069 13.837,30.906 30.906,30.906 C -13.837,30.906 0,17.069 0,0 Z"
             style="fill:none;stroke:#3ccadd;stroke-width:15;stroke-linecap:round;stroke-linejoin:round;stroke-miterlimit:10;stroke-dasharray:none;stroke-opacity:1"
             id="path4846" /></g><g
           id="g4848"
           transform="translate(158.917,86.415)"><path
             d="M 0,0 V -39.221"
             style="fill:none;stroke:#ff748f;stroke-width:15;stroke-linecap:round;stroke-linejoin:round;stroke-miterlimit:10;stroke-dasharray:none;stroke-opacity:1"
             id="path4850" /></g><g
           id="g4852"
           transform="translate(217.7251,86.415)"><path
             d="M 0,0 V -39.221"
             style="fill:none;stroke:#ff748f;stroke-width:15;stroke-linecap:round;stroke-linejoin:round;stroke-miterlimit:10;stroke-dasharray:none;stroke-opacity:1"
             id="path4854" /></g><g
           id="g4856"
           transform="translate(381.2568,51.5088)"><path
             d="M 0,0 -38.54,58.721 -77.08,0"
             style="fill:none;stroke:#3ccadd;stroke-width:15;stroke-linecap:round;stroke-linejoin:round;stroke-miterlimit:10;stroke-dasharray:none;stroke-opacity:1"
             id="path4858" /></g><g
           id="g4860"
           transform="translate(342.7168,179.1875)"><path
             d="M 0,0 V -68.958"
             style="fill:none;stroke:#3ccadd;stroke-width:15;stroke-linecap:round;stroke-linejoin:round;stroke-miterlimit:10;stroke-dasharray:none;stroke-opacity:1"
             id="path4862" /></g><g
           id="g4864"
           transform="translate(83.0166,303.5889)"><path
             d="m 0,0 c -15.479,-1.638 -19.016,-18.54 -19.016,-18.54 0,0 -16.406,5.388 -25.564,-7.198 -9.157,-12.587 1.342,-30.771 19.29,-36.572 11.059,-3.574 21.285,-4.165 27.507,-4.091 3.949,0.047 7.585,2.145 9.6,5.543 3.174,5.351 7.776,14.503 10.21,25.867 C 25.978,-16.547 15.479,1.637 0,0 Z"
             style="fill:none;stroke:#3ccadd;stroke-width:15;stroke-linecap:round;stroke-linejoin:round;stroke-miterlimit:10;stroke-dasharray:none;stroke-opacity:1"
             id="path4866" /></g><g
           id="g4868"
           transform="translate(473.5635,205.9355)"><path
             d="m 0,0 c -9.157,12.587 -25.564,7.199 -25.564,7.199 0,0 -3.538,16.903 -19.016,18.539 -15.48,1.637 -25.978,-16.547 -22.027,-34.991 2.434,-11.363 7.036,-20.516 10.211,-25.867 2.014,-3.397 5.65,-5.496 9.599,-5.542 6.222,-0.073 16.448,0.516 27.507,4.091 C -1.342,-30.771 9.157,-12.586 0,0 Z"
             style="fill:none;stroke:#ff748f;stroke-width:15;stroke-linecap:round;stroke-linejoin:round;stroke-miterlimit:10;stroke-dasharray:none;stroke-opacity:1"
             id="path4870" /></g></g></g></g></svg>
