<svg id="Capa_1" enable-background="new 0 0 512 512" height="512" viewBox="0 0 512 512" width="512" xmlns="http://www.w3.org/2000/svg"><g><g><g><path d="m377.903 8c-100.578 0-125.635 91.361-124.534 239.178h.004s-.994 34.501 46.51 53.523c19.803-23.083 50.304-31.315 78.017-31.315s58.214 8.232 78.017 31.315c47.504-19.022 46.51-53.523 46.51-53.523h.009c1.102-147.817-23.955-239.178-124.533-239.178z" fill="#cf8151"/><path d="m377.901 254.071c-33.744 0-70.874 9.989-95.069 37.982 4.845 3.09 10.483 6.017 17.051 8.648 19.803-23.083 50.304-31.315 78.017-31.315s58.214 8.232 78.017 31.315c6.569-2.63 12.206-5.557 17.051-8.648-24.193-27.993-61.323-37.982-95.067-37.982z" fill="#bd6e45"/><path d="m337.88 96.388s-11.536 35.633-42.574 47.73v42.67c0 45.617 36.98 82.597 82.597 82.597 45.617 0 82.597-36.98 82.597-82.597v-50.606c-.004.001-87.331 7.244-122.62-39.794z" fill="#f0c69e"/><path d="m377.903 251.386c-45.617 0-82.597-36.98-82.597-82.597v18c0 45.617 36.98 82.597 82.597 82.597s82.597-36.98 82.597-82.597v-18c0 45.617-36.98 82.597-82.597 82.597z" fill="#e6ba94"/></g><g><path d="m239.927 412.074c.818-14.064.728-26.852-.158-38.473h-195.527c-.885 11.621-.975 24.41-.158 38.473z" fill="#26457d"/><path d="m67.871 429.863v-29.713c-.84-.086-1.693-.131-2.556-.131-13.653 0-24.72 11.068-24.72 24.72 0 13.653 11.068 24.72 24.72 24.72 1.727 0 3.413-.178 5.04-.516-1.618-6.088-2.484-12.482-2.484-19.08z" fill="#e2ae84"/><path d="m218.702 400.019c-.863 0-1.716.045-2.556.131v29.713c0 6.598-.867 12.992-2.484 19.081 1.627.337 3.313.516 5.04.516 13.653 0 24.72-11.068 24.72-24.72 0-13.654-11.068-24.721-24.72-24.721z" fill="#e2ae84"/><path d="m65.315 431.46c-10.476 0-19.423-6.52-23.023-15.72-1.091 2.79-1.697 5.823-1.697 9 0 13.653 11.068 24.72 24.72 24.72 1.727 0 3.413-.178 5.04-.516-1.497-5.637-2.341-11.539-2.46-17.619-.848.089-1.709.135-2.58.135z" fill="#d7a379"/><path d="m218.702 431.46c-.871 0-1.732-.046-2.58-.134-.118 6.08-.962 11.982-2.46 17.619 1.627.337 3.313.516 5.04.516 13.653 0 24.72-11.068 24.72-24.72 0-3.177-.606-6.21-1.697-9-3.6 9.199-12.547 15.719-23.023 15.719z" fill="#d7a379"/><path d="m244.481 373.601c-3.992-80.73-54.46-104.215-102.476-104.215s-98.484 23.485-102.475 104.215z" fill="#dc4955"/><path d="m41.311 355.601c-.865 5.657-1.467 11.651-1.781 18h204.952c-.314-6.349-.916-12.343-1.781-18z" fill="#d82f3c"/><path d="m191.763 373.601h-99.51c-14.121 23.251-24.379 26.548-24.382 26.549v29.713c0 40.945 33.192 74.137 74.137 74.137 40.945 0 74.137-33.192 74.137-74.137v-29.713s-10.26-3.296-24.382-26.549z" fill="#f0c69e"/><path d="m142.008 486c-40.945 0-74.137-33.192-74.137-74.137v18c0 40.945 33.192 74.137 74.137 74.137 40.945 0 74.137-33.192 74.137-74.137v-18c0 40.945-33.192 74.137-74.137 74.137z" fill="#e6ba94"/><path d="m173.532 373.601h-63.048v-23.667c0-17.41 14.114-31.524 31.524-31.524 17.41 0 31.524 14.114 31.524 31.524z" fill="#26457d"/><path d="m110.484 348.226h63.048v25.375h-63.048z" fill="#f6e080"/><path d="m110.484 355.601h63.048v18h-63.048z" fill="#eccd61"/></g><g><path d="m283.862 433.596s-28.535 14.154-17.931 70.404c0 0 48.48-15.434 42.519-60.572z" fill="#cf8151"/><path d="m308.451 443.428-8.955-3.581c-3.385 25.03-24.776 38.198-35.886 43.419.162 6.177.876 13.061 2.322 20.734-.001 0 48.48-15.434 42.519-60.572z" fill="#bd6e45"/><path d="m471.944 433.596s28.535 14.154 17.931 70.404c0 0-48.48-15.434-42.519-60.572z" fill="#cf8151"/><path d="m456.311 439.847-8.955 3.581c-5.961 45.138 42.519 60.572 42.519 60.572 1.446-7.673 2.16-14.557 2.322-20.734-11.11-5.221-32.501-18.389-35.886-43.419z" fill="#bd6e45"/><path d="m472.814 407.691c21.958-107.917-41.64-138.305-94.913-138.305s-116.871 30.388-94.913 138.305z" fill="#cf8151"/><path d="m377.903 330.673c25.021 44.432 71.86 65.479 71.86 65.479v28.782c0 39.687-32.173 71.86-71.86 71.86-39.687 0-71.86-32.172-71.86-71.86v-28.782c0-.001 46.839-21.048 71.86-65.479z" fill="#f0c69e"/><path d="m377.903 478.793c-39.687 0-71.86-32.172-71.86-71.86v18c0 39.687 32.173 71.86 71.86 71.86 39.687 0 71.86-32.172 71.86-71.86v-18c0 39.687-32.173 71.86-71.86 71.86z" fill="#e6ba94"/><path d="m306.043 424.933v-28.8c-.815-.084-1.641-.127-2.478-.127-13.233 0-23.961 10.728-23.961 23.961s10.728 23.961 23.961 23.961c1.674 0 3.308-.173 4.885-.5-1.567-5.902-2.407-12.1-2.407-18.495z" fill="#e2ae84"/><path d="m452.241 396.006c-.837 0-1.663.043-2.478.127v28.8c0 6.395-.84 12.593-2.407 18.495 1.577.327 3.211.5 4.885.5 13.233 0 23.961-10.728 23.961-23.961 0-13.234-10.728-23.961-23.961-23.961z" fill="#e2ae84"/><g fill="#d7a379"><path d="m303.566 425.928c-10.049 0-18.648-6.189-22.207-14.961-1.128 2.78-1.754 5.816-1.754 9 0 13.233 10.728 23.961 23.961 23.961 1.674 0 3.308-.173 4.885-.5-1.497-5.634-2.321-11.541-2.393-17.629-.82.085-1.651.129-2.492.129z"/><path d="m452.241 425.928c-.842 0-1.673-.044-2.492-.129-.072 6.088-.897 11.995-2.393 17.629 1.577.327 3.211.5 4.885.5 13.233 0 23.961-10.728 23.961-23.961 0-3.184-.626-6.22-1.754-9-3.559 8.772-12.158 14.961-22.207 14.961z"/></g></g><g><path d="m251.103 166.971c43.936-124.487-54.195-128.83-54.195-128.83s-11.048-30.141-60.765-30.141c-49.716 0-80.401 15.936-124.594 7.256 0 0-13.027 102.778 27.067 144.941z" fill="#26457d"/><path d="m56.561 135.539c-11.055 0-20.582 6.516-24.967 15.914 2.138 3.131 4.471 6.062 7.022 8.744l20.792.663v-25.174c-.936-.097-1.886-.147-2.847-.147z" fill="#21386b"/><path d="m251.103 166.971c1.189-3.369 2.254-6.633 3.24-9.828-2.716-12.355-13.721-21.604-26.892-21.604-.962 0-1.912.05-2.848.146v30.441z" fill="#21386b"/><path d="m224.603 131.82v54.969c0 45.617-36.98 82.597-82.597 82.597-45.617 0-82.597-36.98-82.597-82.597v-102.005s42.574 35.852 129.759 5.159c0 .001 7.517 28.198 35.435 41.877z" fill="#f0c69e"/><path d="m142.006 251.386c-45.617 0-82.597-36.98-82.597-82.597v18c0 45.617 36.98 82.597 82.597 82.597 45.617 0 82.597-36.98 82.597-82.597v-18c0 45.617-36.98 82.597-82.597 82.597z" fill="#e6ba94"/><path d="m59.408 186.789v-33.104c-.936-.096-1.886-.146-2.848-.146-15.211 0-27.541 12.331-27.541 27.541 0 15.211 12.331 27.541 27.541 27.541 1.924 0 3.802-.199 5.615-.575-1.801-6.782-2.767-13.907-2.767-21.257z" fill="#e2ae84"/><path d="m227.451 153.539c-.962 0-1.912.05-2.848.146v33.104c0 7.35-.965 14.475-2.767 21.258 1.813.376 3.691.575 5.615.575 15.211 0 27.541-12.331 27.541-27.541 0-15.211-12.331-27.542-27.541-27.542z" fill="#e2ae84"/><g fill="#d7a379"><path d="m56.561 190.622c-12.058 0-22.299-7.752-26.029-18.541-.975 2.821-1.512 5.847-1.512 9 0 15.211 12.331 27.541 27.541 27.541 1.924 0 3.802-.199 5.615-.575-1.5-5.646-2.41-11.531-2.677-17.583-.966.103-1.945.158-2.938.158z"/><path d="m227.451 190.622c-.993 0-1.973-.055-2.939-.158-.266 6.052-1.177 11.937-2.676 17.583 1.813.376 3.691.575 5.615.575 15.211 0 27.541-12.331 27.541-27.541 0-3.153-.537-6.179-1.512-9-3.731 10.789-13.972 18.541-26.029 18.541z"/></g></g></g><g><path d="m100.794 153.7c-4.175 0-7.559 3.364-7.559 7.514v18.552c0 4.15 3.384 7.515 7.559 7.515s7.559-3.364 7.559-7.515v-18.552c0-4.15-3.385-7.514-7.559-7.514z"/><path d="m181.471 153.7c-4.175 0-7.559 3.364-7.559 7.514v18.552c0 4.15 3.385 7.515 7.559 7.515s7.559-3.364 7.559-7.515v-18.552c0-4.15-3.384-7.514-7.559-7.514z"/><path d="m338.551 153.7c-4.175 0-7.559 3.364-7.559 7.514v18.552c0 4.15 3.384 7.515 7.559 7.515s7.559-3.364 7.559-7.515v-18.552c0-4.15-3.384-7.514-7.559-7.514z"/><path d="m419.228 187.281c4.175 0 7.559-3.364 7.559-7.515v-18.552c0-4.15-3.384-7.514-7.559-7.514s-7.559 3.364-7.559 7.514v18.552c0 4.151 3.385 7.515 7.559 7.515z"/><path d="m104.928 399.847c-4.175 0-7.559 3.364-7.559 7.514v16.652c0 4.15 3.384 7.515 7.559 7.515s7.559-3.364 7.559-7.515v-16.652c0-4.149-3.385-7.514-7.559-7.514z"/><path d="m177.342 399.847c-4.175 0-7.559 3.364-7.559 7.514v16.652c0 4.15 3.384 7.515 7.559 7.515s7.559-3.364 7.559-7.515v-16.652c0-4.149-3.384-7.514-7.559-7.514z"/><path d="m343.795 395.609c-4.175 0-7.559 3.364-7.559 7.514v16.141c0 4.15 3.384 7.514 7.559 7.514s7.559-3.364 7.559-7.514v-16.141c0-4.149-3.385-7.514-7.559-7.514z"/><path d="m413.985 395.609c-4.175 0-7.559 3.364-7.559 7.514v16.141c0 4.15 3.384 7.514 7.559 7.514s7.559-3.364 7.559-7.514v-16.141c0-4.149-3.385-7.514-7.559-7.514z"/><path d="m510.884 190.812c-.212-4.145-3.782-7.344-7.933-7.123-4.17.211-7.377 3.742-7.165 7.886.86 16.816 1.209 34.828 1.065 55.051-.014.223-.017.448-.011.674.011 1.161-.182 27.59-37.359 44.47-12.15-12.393-26.646-19.765-40.624-24.088 30.085-14.723 50.841-45.509 50.841-81.034v-50.704c.095-4.283-3.933-7.937-8.182-7.489-.93.075-84.32 6.3-116.917-36.892-3.407-4.822-11.563-3.479-13.234 2.18-.107.324-11.013 32.513-38.467 43.15-2.903 1.125-4.814 3.904-4.814 7.001v42.753c0 35.525 20.758 66.31 50.843 81.032-13.98 4.322-28.479 11.695-40.631 24.09-37.178-16.88-37.371-43.306-37.361-44.401.005-.167.004-.333-.002-.499-.799-109.37 13.398-172.717 46.026-205.395 17.769-17.796 41.298-26.447 71.932-26.447 36.213 0 62.83 12.263 81.37 37.489 17.444 23.735 28.347 59.532 33.33 109.438.412 4.13 4.113 7.139 8.269 6.736 4.155-.41 7.188-4.09 6.776-8.22-5.257-52.648-17.087-90.86-36.167-116.82-21.59-29.372-52.199-43.65-93.579-43.65-34.87 0-61.909 10.104-82.662 30.889-12.589 12.608-22.669 29.066-30.411 50.07-2.122-6.495-5.027-12.488-8.738-17.956-16.85-24.821-44.777-30.896-55.725-32.352-5.538-9.498-22.742-30.651-66.13-30.651-18.965 0-35.017 2.21-48.574 4.282-4.127.631-6.957 4.467-6.323 8.569.635 4.102 4.491 6.914 8.62 6.285 13.005-1.988 28.377-4.108 46.277-4.108 43.671 0 53.767 24.313 54.146 25.271 1.044 2.833 3.712 4.77 6.743 4.92.318.016 32.013 1.856 48.515 26.31 12.637 18.725 13.704 45.907 3.218 80.904-4.601-3.296-10.025-5.52-15.906-6.299v-14.562c0-2.868-1.642-5.486-4.233-6.748-24.537-11.951-31.674-36.92-31.736-37.145-1.018-4.148-5.82-6.65-9.814-5.152-43.086 15.078-74.391 13.194-93.066 8.961-20.091-4.556-30.271-12.735-30.338-12.789-4.615-4.136-12.63-.466-12.428 5.748v61.692c-4.304.57-8.367 1.906-12.039 3.878-12.786-16.609-20.565-43.599-22.591-78.649-1.16-20.065-.135-38.054.682-47.852 16.891 2.311 31.311 1.276 42.366.022 4.148-.471 7.126-4.196 6.652-8.319s-4.22-7.084-8.369-6.613c-11.715 1.332-27.522 2.398-45.921-1.195-4.141-.904-8.509 2.21-8.956 6.429-.534 4.181-12.139 99.273 24.666 145.979-4.465 5.88-7.118 13.192-7.118 21.11 0 19.359 15.843 35.109 35.317 35.109.089 0 .177-.006.266-.007 7.855 22.616 24.5 41.194 45.869 51.656-16.204 5.113-32.45 14.317-45.485 30.274-2.631 3.222-2.138 7.954 1.103 10.571 3.241 2.616 8.001 2.126 10.633-1.096 20.603-25.221 51.467-30.516 73.732-30.516 17.876 0 43.392 3.493 63.437 20.13 18.182 15.092 28.84 38.366 31.735 69.257h-45.022-10.815v-16.198c0-21.56-17.644-39.099-39.332-39.099s-39.332 17.54-39.332 39.099v16.198h-10.815-45.026c1.216-12.911 3.8-24.58 7.708-34.778 1.487-3.878-.471-8.22-4.372-9.697-3.901-1.478-8.269.468-9.755 4.346-5.257 13.713-8.367 29.618-9.245 47.272-.181 2.98 1.603 5.927 4.322 7.156-.441 9.478-.387 19.546.163 30.054-2.184 4.338-3.421 9.226-3.421 14.398 0 17.698 14.402 32.109 32.167 32.275 11.287 31.798 41.804 54.653 77.606 54.653s66.318-22.855 77.605-54.653c17.765-.165 32.167-14.577 32.167-32.275 0-5.175-1.238-10.066-3.426-14.406.55-10.505.604-20.57.163-30.045 2.719-1.229 4.502-4.176 4.322-7.156-1.95-39.201-14.636-68.788-37.708-87.937-9.468-7.859-20.668-13.823-33.225-17.797 21.407-10.455 38.088-29.04 45.952-51.684.089.001.177.007.266.007 6.952 0 13.435-2.015 18.906-5.477-.325 11.637-.438 23.842-.342 36.649.001.042.001.083.002.125.008 4.151 1.449 36.056 42.655 56.434-17.148 25.167-21.578 59.775-13.173 103.052-3.676 7.41-4.036 17.207-.866 24.908-9.227 8.274-24.338 29.251-15.826 74.135.718 4.338 5.575 7.191 9.722 5.768.557-.176 13.772-4.432 26.233-14.778 9.005-7.477 15.357-16.206 18.943-25.889 14.492 20.422 38.389 33.8 65.385 33.8s50.893-13.378 65.385-33.8c3.586 9.682 9.938 18.411 18.944 25.889 12.46 10.346 25.676 14.602 26.233 14.778 4.146 1.423 9.003-1.431 9.721-5.768 8.512-44.885-6.599-65.862-15.826-74.136 3.172-7.704 2.81-17.504-.869-24.915 8.404-43.274 3.972-77.879-13.175-103.045 40.65-20.104 42.601-51.424 42.654-56.25.005-.102.008-.205.009-.308.153-20.712-.2-39.159-1.082-56.4zm-278.071 205.311c-4.338-2.139-9.219-3.348-14.38-3.348-.339 0-.679.016-1.019.026-1.855-1.126-6.089-4.203-11.811-11.466h26.942c.221 4.771.313 9.705.268 14.788zm-91.678-70.086c10.065 0 18.712 6.138 22.361 14.845h-44.723c3.65-8.707 12.297-14.845 22.362-14.845zm-24.214 29.874h48.427v10.395h-48.427zm-52.065 36.89c-.34-.01-.681-.026-1.02-.026-5.163 0-10.046 1.21-14.385 3.351-.044-5.084.047-10.018.269-14.791h26.945c-5.722 7.261-9.955 10.341-11.809 11.466zm-18.375 32.256c0-7.791 5.225-14.386 12.373-16.52v21.654c0 3.94.298 7.81.842 11.603-7.573-1.854-13.215-8.644-13.215-16.737zm161.817 5.133c0 36.814-30.129 66.766-67.163 66.766-37.033 0-67.163-29.951-67.163-66.766v-25.318c5.359-3.578 12.875-10.73 21.2-23.538h91.924c8.878 13.68 16.403 20.335 21.202 23.524zm14.275 11.603c.544-3.793.843-7.663.843-11.603v-21.654c7.148 2.135 12.373 8.729 12.373 16.52 0 8.094-5.642 14.884-13.216 16.737zm-187.758-260.864c0-9.465 6.63-17.401 15.51-19.511.18 9.604-.662 30.059 1.101 39.255-9.429-1.691-16.611-9.891-16.611-19.744zm182.006 5.719c0 41.488-33.954 75.241-75.689 75.241s-75.689-33.753-75.689-75.241v-88.851c18.557 9.078 57.895 20.693 118.673 1.271 4.177 9.597 13.712 26.203 32.705 37.021zm14.023 14.023c1.749-9.088.919-29.766 1.095-39.254 8.881 2.11 15.511 10.046 15.511 19.511 0 9.852-7.179 18.051-16.606 19.743zm72.357-14.023v-37.839c19.807-9.533 31.586-27.206 37.568-38.904 33.637 32.526 92.13 34.436 113.81 33.909v42.834c0 41.488-33.954 75.241-75.689 75.241s-75.689-33.752-75.689-75.241zm-3.522 249.542c-7.073-1.886-12.304-8.296-12.304-15.914 0-7.339 4.85-13.568 11.529-15.701v20.677c0 3.712.277 7.359.775 10.938zm-27.666 57.596c-3.588-29.741 5.432-43.877 11.205-49.705 5.059 4.363 11.512 7.161 18.601 7.635-.256 23.547-18.66 36.428-29.806 42.07zm106.876-4.051c-35.768 0-64.867-28.927-64.867-64.484v-24.161c11.57-5.964 42.861-24.143 64.868-56.084 22.007 31.941 53.297 50.12 64.867 56.084v24.161c0 35.557-29.1 64.484-64.868 64.484zm91.515-69.46c0 7.619-5.231 14.029-12.304 15.914.498-3.579.775-7.226.775-10.939v-20.677c6.679 2.134 11.529 8.363 11.529 15.702zm15.363 73.51c-11.154-5.646-29.55-18.526-29.806-42.068 7.088-.474 13.542-3.272 18.601-7.635 5.773 5.826 14.792 19.962 11.205 49.703zm-16.252-100.878c-4.884-2.789-10.738-4.357-16.723-4.128-8.296-4.114-46.241-24.453-67.316-61.658-1.34-2.364-3.857-3.827-6.587-3.827-2.729 0-5.247 1.463-6.587 3.827-21.08 37.212-59.037 57.552-67.317 61.658-5.988-.229-11.841 1.34-16.727 4.13-5.377-37.068.192-65.943 16.63-85.944 9.223-11.221 31.1-30.047 73.997-30.047s64.775 18.826 73.998 30.048c16.44 20.001 22.009 48.874 16.632 85.941z"/><path d="m397.621 441.157c-3.863-1.581-8.279.25-9.868 4.087-.015.037-1.964 3.706-8.838 3.706s-8.823-3.669-8.838-3.706c-1.589-3.837-6.005-5.668-9.868-4.087-3.86 1.58-5.701 5.972-4.111 9.81 2.002 4.833 9.061 13.012 22.818 13.012s20.816-8.179 22.818-13.012c1.588-3.838-.253-8.23-4.113-9.81z"/><path d="m404.078 215.591c.45-.962.708-2.029.708-3.16 0-4.15-3.384-7.515-7.559-7.515-3.161 0-5.872 1.926-7 4.664-.001-.001 0 .001 0 0-.259.528-2.778 5.162-11.311 5.162s-11.052-4.633-11.311-5.162c0 .001.001 0 0 .001-1.128-2.739-3.839-4.665-7.001-4.665-4.175 0-7.559 3.364-7.559 7.515 0 1.134.26 2.205.712 3.169 2.25 5.313 10.021 14.172 25.158 14.172 15.145 0 22.917-8.87 25.163-14.181z"/><path d="m157.623 445.957c-3.186 0-5.905 1.961-7.018 4.733-.001-.001-.007-.005-.007-.006-.216.429-2.316 4.194-9.439 4.194-7.122 0-9.222-3.764-9.438-4.194 0 .001.001-.001 0 .001-1.113-2.772-3.84-4.728-7.026-4.728-4.175 0-7.559 3.364-7.559 7.514 0 1.129.255 2.198.704 3.159 2.042 4.931 9.252 13.277 23.319 13.277s21.277-8.346 23.319-13.277c0 0-.003-.001-.003-.001.449-.961.707-2.028.707-3.157 0-4.151-3.384-7.515-7.559-7.515z"/><path d="m159.56 204.921c-3.268 0-6.044 2.065-7.099 4.952-.005-.004-.016-.011-.016-.013-.258.527-2.772 5.15-11.288 5.15s-11.03-4.623-11.288-5.15c.001.002 0 0 0 0-1.055-2.887-3.846-4.939-7.115-4.939-4.175 0-7.559 3.364-7.559 7.514 0 1.2.277 2.336.78 3.343 2.194 5.297 9.966 14.261 25.182 14.261s22.988-8.964 25.182-14.261c.503-1.006.779-2.143.779-3.343.001-4.149-3.383-7.514-7.558-7.514z"/></g></g></svg>