<?xml version="1.0" encoding="UTF-8" standalone="no"?>
<!-- Created with Inkscape (http://www.inkscape.org/) -->

<svg
   version="1.1"
   id="svg4590"
   xml:space="preserve"
   width="682.66669"
   height="682.66669"
   viewBox="0 0 682.66669 682.66669"
   xmlns="http://www.w3.org/2000/svg"
   xmlns:svg="http://www.w3.org/2000/svg"><defs
     id="defs4594"><clipPath
       clipPathUnits="userSpaceOnUse"
       id="clipPath4604"><path
         d="M 0,512 H 512 V 0 H 0 Z"
         id="path4602" /></clipPath></defs><g
     id="g4596"
     transform="matrix(1.3333333,0,0,-1.3333333,0,682.66667)"><g
       id="g4598"><g
         id="g4600"
         clip-path="url(#clipPath4604)"><g
           id="g4606"
           transform="translate(455.8223,363.0015)"><path
             d="m 0,0 h -167.983 c 0,0 -23.27,-39.744 -23.27,-90.615 0,-37.863 25.647,-51.274 38.763,-55.656 4.056,-1.356 8.539,-0.021 11.123,3.387 7.191,9.487 25.471,28.346 57.375,28.78 31.905,-0.434 50.183,-19.293 57.375,-28.78 2.584,-3.408 7.067,-4.743 11.124,-3.387 13.115,4.382 38.762,17.793 38.762,55.656 C 23.269,-39.744 0,0 0,0"
             style="fill:#873f30;fill-opacity:1;fill-rule:nonzero;stroke:none"
             id="path4608" /></g><g
           id="g4610"
           transform="translate(479.0898,272.3901)"><path
             d="m 0,0 c 0,-37.87 -25.65,-51.28 -38.76,-55.66 -4.06,-1.36 -8.54,-0.02 -11.12,3.39 -1.72,2.27 -4.08,5.07 -7.1,8.02 13.65,5.3 35.9,19.35 35.9,54.62 0,35.28 -11.19,65.21 -18.05,80.24 h 15.86 C -23.27,90.61 0,50.87 0,0"
             style="fill:#6c3328;fill-opacity:1;fill-rule:nonzero;stroke:none"
             id="path4612" /></g><g
           id="g4614"
           transform="translate(455.8223,363.0015)"><path
             d="m 0,0 h -167.983 c 0,0 -23.27,-39.744 -23.27,-90.615 0,-37.863 25.647,-51.274 38.763,-55.656 4.056,-1.356 8.539,-0.021 11.123,3.387 7.191,9.487 25.471,28.346 57.375,28.78 31.905,-0.434 50.183,-19.293 57.375,-28.78 2.584,-3.408 7.067,-4.743 11.124,-3.387 13.115,4.382 38.762,17.793 38.762,55.656 C 23.269,-39.744 0,0 0,0 Z"
             style="fill:none;stroke:#000000;stroke-width:15;stroke-linecap:round;stroke-linejoin:round;stroke-miterlimit:10;stroke-dasharray:none;stroke-opacity:1"
             id="path4616" /></g><g
           id="g4618"
           transform="translate(154.0752,466.2715)"><path
             d="m 0,0 c -74.401,0 -104.441,-36.411 -104.441,-83.969 0,-37.039 21.941,-53.507 21.941,-53.507 h 165 c 0,0 21.942,16.468 21.942,53.507 C 104.442,-36.411 74.401,0 0,0"
             style="fill:#873f30;fill-opacity:1;fill-rule:nonzero;stroke:none"
             id="path4620" /></g><g
           id="g4622"
           transform="translate(154.0752,466.2715)"><path
             d="m 0,0 c -74.401,0 -104.441,-36.411 -104.441,-83.969 0,-37.039 21.941,-53.507 21.941,-53.507 h 165 c 0,0 21.942,16.468 21.942,53.507 C 104.442,-36.411 74.401,0 0,0 Z"
             style="fill:none;stroke:#000000;stroke-width:15;stroke-linecap:round;stroke-linejoin:round;stroke-miterlimit:10;stroke-dasharray:none;stroke-opacity:1"
             id="path4624" /></g><g
           id="g4626"
           transform="translate(176.8223,239.2114)"><path
             d="M 0,0 -2.589,31.527 H -42.905 L -45.493,0 c -0.951,-11.585 -9.524,-21.184 -20.967,-23.227 -58.475,-10.441 -102.862,-61.548 -102.862,-123.024 v -74.077 h 293.151 v 74.077 c 0,61.476 -44.388,112.583 -102.862,123.024 C 9.523,-21.184 0.951,-11.585 0,0"
             style="fill:#7a6e79;fill-opacity:1;fill-rule:nonzero;stroke:none"
             id="path4628" /></g><g
           id="g4630"
           transform="translate(300.5303,98.48)"><path
             d="M 0,0 C -16.36,-4.23 -33.4,3.64 -40.9,18.6 -52.061,12.14 -65,8.43 -78.82,8.43 c -13.821,0 -26.771,3.71 -37.92,10.17 -7.92,-15.79 -26.46,-23.68 -43.62,-17.79 -3.281,1.13 -6.3,2.69 -9,4.6 -1.51,1.07 -2.44,2.81 -2.36,4.66 0.14,3.36 0.76,6.75 1.909,10.09 4.3,12.51 14.831,21.1 26.931,23.5 -7.471,11.75 -11.82,25.69 -11.82,40.65 0,24.94 12.04,47.08 30.62,60.9 l 0.37,-4.48 c 0.949,-11.58 9.529,-21.18 20.97,-23.23 C -46.03,107.37 -2.57,59 0,0"
             style="fill:#685e67;fill-opacity:1;fill-rule:nonzero;stroke:none"
             id="path4632" /></g><g
           id="g4634"
           transform="translate(300.6484,92.9619)"><path
             d="M 0,0 V -74.078 H -30.562 V 0 c 0,61.475 -44.391,112.576 -102.868,123.02 -11.435,2.042 -20.012,11.646 -20.969,23.234 l -2.58,31.519 h 30.563 l 2.591,-31.519 c 0.945,-11.588 9.522,-21.192 20.97,-23.234 C -44.391,112.576 0,61.475 0,0"
             style="fill:#685e67;fill-opacity:1;fill-rule:nonzero;stroke:none"
             id="path4636" /></g><g
           id="g4638"
           transform="translate(213.7305,212.0376)"><path
             d="m 0,0 c -11.799,-20.725 -34.099,-34.705 -59.655,-34.705 -25.556,0 -47.857,13.98 -59.655,34.705 5.182,1.645 10.503,2.976 15.941,3.944 11.448,2.042 20.014,11.646 20.971,23.234 l 2.589,31.519 h 40.307 l 2.591,-31.519 C -35.954,15.59 -27.389,5.986 -15.941,3.944 -10.503,2.976 -5.182,1.645 0,0"
             style="fill:#f89f8e;fill-opacity:1;fill-rule:nonzero;stroke:none"
             id="path4640" /></g><g
           id="g4642"
           transform="translate(179.5605,229.5679)"><path
             d="m 0,0 c -8.227,-1.713 -16.757,-2.613 -25.485,-2.613 -8.729,0 -17.258,0.9 -25.485,2.613 1.505,2.944 2.461,6.21 2.745,9.646 l 2.585,31.525 H -5.33 L -2.746,9.646 C -2.462,6.21 -1.506,2.944 0,0"
             style="fill:#ea806f;fill-opacity:1;fill-rule:nonzero;stroke:none"
             id="path4644" /></g><g
           id="g4646"
           transform="translate(213.7334,212.0376)"><path
             d="m 0,0 c -3.815,-6.699 -8.717,-12.685 -14.481,-17.714 -4.68,1.26 -9.441,2.334 -14.272,3.197 -15.661,2.789 -27.389,15.94 -28.695,31.799 l -3.408,41.415 h 21.355 L -36.91,27.178 C -35.953,15.59 -27.388,5.986 -15.94,3.944 -10.502,2.976 -5.181,1.645 0,0"
             style="fill:#ea806f;fill-opacity:1;fill-rule:nonzero;stroke:none"
             id="path4648" /></g><g
           id="g4650"
           transform="translate(213.7305,212.0376)"><path
             d="m 0,0 c -11.799,-20.725 -34.099,-34.705 -59.655,-34.705 -25.556,0 -47.857,13.98 -59.655,34.705"
             style="fill:none;stroke:#000000;stroke-width:15;stroke-linecap:round;stroke-linejoin:round;stroke-miterlimit:10;stroke-dasharray:none;stroke-opacity:1"
             id="path4652" /></g><g
           id="g4654"
           transform="translate(131.9053,246.2285)"><path
             d="m 0,0 -0.576,-7.017 c -0.951,-11.585 -9.525,-21.184 -20.967,-23.227 -21.294,-3.803 -40.717,-13.003 -56.811,-26.127"
             style="fill:none;stroke:#000000;stroke-width:15;stroke-linecap:round;stroke-linejoin:round;stroke-miterlimit:10;stroke-dasharray:none;stroke-opacity:1"
             id="path4656" /></g><g
           id="g4658"
           transform="translate(29.0234,163.0967)"><path
             d="m 0,0 c -13.584,-19.997 -21.523,-44.139 -21.523,-70.136 v -74.077"
             style="fill:none;stroke:#000000;stroke-width:15;stroke-linecap:round;stroke-linejoin:round;stroke-miterlimit:10;stroke-dasharray:none;stroke-opacity:1"
             id="path4660" /></g><g
           id="g4662"
           transform="translate(85.626,342.4844)"><path
             d="m 0,0 c 0,-14.556 -11.8,-26.355 -26.355,-26.355 -14.556,0 -26.356,11.799 -26.356,26.355 0,14.556 11.8,26.355 26.356,26.355 C -11.8,26.355 0,14.556 0,0"
             style="fill:#ea806f;fill-opacity:1;fill-rule:nonzero;stroke:none"
             id="path4664" /></g><g
           id="g4666"
           transform="translate(85.626,342.4844)"><path
             d="m 0,0 c 0,-14.556 -11.8,-26.355 -26.355,-26.355 -14.556,0 -26.356,11.799 -26.356,26.355 0,14.556 11.8,26.355 26.356,26.355 C -11.8,26.355 0,14.556 0,0 Z"
             style="fill:none;stroke:#000000;stroke-width:15;stroke-linecap:round;stroke-linejoin:round;stroke-miterlimit:10;stroke-dasharray:none;stroke-opacity:1"
             id="path4668" /></g><g
           id="g4670"
           transform="translate(154.0723,244.9707)"><path
             d="m 0,0 v 0 c -43.621,0 -79.85,33.664 -83.046,77.168 l -1.814,24.693 c -3.624,49.316 35.411,91.324 84.86,91.324 49.45,0 88.484,-42.008 84.86,-91.324 L 83.046,77.168 C 79.85,33.664 43.621,0 0,0"
             style="fill:#fdb0a0;fill-opacity:1;fill-rule:nonzero;stroke:none"
             id="path4672" /></g><g
           id="g4674"
           transform="translate(154.0723,244.9707)"><path
             d="m 0,0 v 0 c -43.621,0 -79.85,33.664 -83.046,77.168 l -1.814,24.693 c -3.624,49.316 35.411,91.324 84.86,91.324 49.45,0 88.484,-42.008 84.86,-91.324 L 83.046,77.168 C 79.85,33.664 43.621,0 0,0 Z"
             style="fill:none;stroke:#000000;stroke-width:15;stroke-linecap:round;stroke-linejoin:round;stroke-miterlimit:10;stroke-dasharray:none;stroke-opacity:1"
             id="path4676" /></g><g
           id="g4678"
           transform="translate(112.042,338.3828)"><path
             d="M 0,0 V 0.14"
             style="fill:none;stroke:#000000;stroke-width:15;stroke-linecap:round;stroke-linejoin:round;stroke-miterlimit:10;stroke-dasharray:none;stroke-opacity:1"
             id="path4680" /></g><g
           id="g4682"
           transform="translate(196.1064,338.3828)"><path
             d="M 0,0 V 0.14"
             style="fill:none;stroke:#000000;stroke-width:15;stroke-linecap:round;stroke-linejoin:round;stroke-miterlimit:10;stroke-dasharray:none;stroke-opacity:1"
             id="path4684" /></g><g
           id="g4686"
           transform="translate(133.2148,301.2661)"><path
             d="m 0,0 c 5.356,-5.305 12.724,-8.583 20.858,-8.583 8.135,0 15.502,3.278 20.86,8.583"
             style="fill:none;stroke:#000000;stroke-width:15;stroke-linecap:round;stroke-linejoin:round;stroke-miterlimit:10;stroke-dasharray:none;stroke-opacity:1"
             id="path4688" /></g><g
           id="g4690"
           transform="translate(64.4668,439.4219)"><path
             d="m 0,0 c 0,0 -6.43,-56.798 88.347,-56.798 92.307,0 109.2,37.595 105.16,81.685 -0.466,5.086 -4.934,8.884 -10.028,8.527 -9.151,-0.64 -24.595,0.022 -42.392,7.973 C 107.724,56.294 19.663,70.878 0,0"
             style="fill:#a34f41;fill-opacity:1;fill-rule:nonzero;stroke:none"
             id="path4692" /></g><g
           id="g4694"
           transform="translate(152.8105,382.6201)"><path
             d="m 0,0 c -30.5,0 -50.511,5.88 -63.631,13.87 10.381,-2.42 22.87,-3.85 37.92,-3.85 91.59,0 108.931,37.01 105.24,80.65 6.221,-0.76 11.54,-0.73 15.611,-0.45 5.089,0.35 9.559,-3.45 10.019,-8.53 C 109.199,37.6 92.31,0 0,0"
             style="fill:#873f30;fill-opacity:1;fill-rule:nonzero;stroke:none"
             id="path4696" /></g><g
           id="g4698"
           transform="translate(170.375,383.127)"><path
             d="m 0,0 c 76.907,4.574 91.367,40.049 87.6,81.182 -0.467,5.086 -4.935,8.883 -10.03,8.527 -9.15,-0.64 -24.594,0.021 -42.391,7.973 -33.364,14.907 -121.424,29.491 -141.087,-41.387 0,0 -5.53,-48.988 69.618,-55.966"
             style="fill:none;stroke:#000000;stroke-width:15;stroke-linecap:round;stroke-linejoin:round;stroke-miterlimit:10;stroke-dasharray:none;stroke-opacity:1"
             id="path4700" /></g><g
           id="g4702"
           transform="translate(392.4209,218.3047)"><path
             d="M 0,0 -2.342,28.535 H -38.833 L -41.176,0 c -0.861,-10.486 -8.62,-19.174 -18.977,-21.023 -52.926,-9.451 -93.102,-55.708 -93.102,-111.351 v -67.047 h 265.334 v 67.047 c 0,55.643 -40.176,101.9 -93.101,111.351 C 8.62,-19.174 0.861,-10.486 0,0"
             style="fill:#fb4a59;fill-opacity:1;fill-rule:nonzero;stroke:none"
             id="path4704" /></g><g
           id="g4706"
           transform="translate(358.2803,108.5498)"><path
             d="m 0,0 c 0.079,-1.85 -0.851,-3.59 -2.36,-4.66 -2.71,-1.91 -5.72,-3.47 -9.01,-4.6 -17.151,-5.89 -35.691,2 -43.61,17.79 -11.16,-6.46 -24.1,-10.17 -37.92,-10.17 -8.21,0 -16.1,1.31 -23.5,3.73 9.839,44.19 45.53,78.63 90.389,86.64 2.541,0.45 4.92,1.31 7.08,2.52 1.25,-5.47 1.91,-11.16 1.91,-17.01 0,-14.96 -4.349,-28.9 -11.82,-40.65 C -16.74,31.19 -6.21,22.6 -1.91,10.09 -0.771,6.75 -0.15,3.36 0,0"
             style="fill:#f82f41;fill-opacity:1;fill-rule:nonzero;stroke:none"
             id="path4708" /></g><g
           id="g4710"
           transform="translate(504.4971,85.9326)"><path
             d="M 0,0 V -67.049 H -27.662 V 0 c 0,55.642 -40.179,101.893 -93.106,111.346 -10.35,1.849 -18.114,10.541 -18.98,21.029 l -2.334,28.529 h 27.662 l 2.345,-28.529 c 0.855,-10.488 8.619,-19.18 18.98,-21.029 C -40.178,101.893 0,55.642 0,0"
             style="fill:#f82f41;fill-opacity:1;fill-rule:nonzero;stroke:none"
             id="path4712" /></g><g
           id="g4714"
           transform="translate(425.8271,193.709)"><path
             d="m 0,0 c -10.679,-18.758 -30.863,-31.412 -53.994,-31.412 -23.131,0 -43.316,12.654 -53.994,31.412 4.69,1.489 9.506,2.693 14.428,3.57 10.362,1.848 18.114,10.541 18.98,21.029 l 2.345,28.528 h 36.482 l 2.345,-28.528 C -32.542,14.111 -24.79,5.418 -14.428,3.57 -9.506,2.693 -4.689,1.489 0,0"
             style="fill:#fdb0a0;fill-opacity:1;fill-rule:nonzero;stroke:none"
             id="path4716" /></g><g
           id="g4718"
           transform="translate(394.8994,209.5757)"><path
             d="m 0,0 c -7.446,-1.551 -15.166,-2.365 -23.066,-2.365 -7.901,0 -15.621,0.814 -23.067,2.365 1.362,2.665 2.228,5.621 2.486,8.731 l 2.338,28.534 H -4.824 L -2.484,8.731 C -2.228,5.621 -1.362,2.665 0,0"
             style="fill:#f89f8e;fill-opacity:1;fill-rule:nonzero;stroke:none"
             id="path4720" /></g><g
           id="g4722"
           transform="translate(425.8301,193.709)"><path
             d="m 0,0 c -3.453,-6.063 -7.89,-11.481 -13.107,-16.034 -4.236,1.141 -8.545,2.113 -12.917,2.894 -14.175,2.525 -24.79,14.429 -25.973,28.783 l -3.084,37.484 h 19.328 l 2.345,-28.528 C -32.542,14.111 -24.789,5.418 -14.428,3.57 -9.506,2.693 -4.689,1.489 0,0"
             style="fill:#f89f8e;fill-opacity:1;fill-rule:nonzero;stroke:none"
             id="path4724" /></g><g
           id="g4726"
           transform="translate(425.8271,193.709)"><path
             d="m 0,0 c -10.679,-18.758 -30.863,-31.412 -53.994,-31.412 -23.131,0 -43.316,12.654 -53.994,31.412"
             style="fill:none;stroke:#000000;stroke-width:15;stroke-linecap:round;stroke-linejoin:round;stroke-miterlimit:10;stroke-dasharray:none;stroke-opacity:1"
             id="path4728" /></g><g
           id="g4730"
           transform="translate(504.5,18.8838)"><path
             d="m 0,0 v 67.047 c 0,55.643 -40.176,101.9 -93.102,111.35 -10.357,1.85 -18.116,10.538 -18.977,21.024 l -2.342,28.535 h -36.491 l -2.343,-28.535 c -0.861,-10.486 -8.62,-19.174 -18.977,-21.024 -2.801,-0.5 -5.566,-1.103 -8.29,-1.805"
             style="fill:none;stroke:#000000;stroke-width:15;stroke-linecap:round;stroke-linejoin:round;stroke-miterlimit:10;stroke-dasharray:none;stroke-opacity:1"
             id="path4732" /></g><g
           id="g4734"
           transform="translate(479.0908,318.7886)"><path
             d="m 0,0 c 0,-14.556 -11.8,-26.355 -26.355,-26.355 -14.556,0 -26.355,11.799 -26.355,26.355 0,14.556 11.799,26.355 26.355,26.355 C -11.8,26.355 0,14.556 0,0"
             style="fill:#fdb0a0;fill-opacity:1;fill-rule:nonzero;stroke:none"
             id="path4736" /></g><g
           id="g4738"
           transform="translate(479.0908,318.7886)"><path
             d="m 0,0 c 0,-14.556 -11.8,-26.355 -26.355,-26.355 -14.556,0 -26.355,11.799 -26.355,26.355 0,14.556 11.799,26.355 26.355,26.355 C -11.8,26.355 0,14.556 0,0 Z"
             style="fill:none;stroke:#000000;stroke-width:15;stroke-linecap:round;stroke-linejoin:round;stroke-miterlimit:10;stroke-dasharray:none;stroke-opacity:1"
             id="path4740" /></g><g
           id="g4742"
           transform="translate(371.8301,223.5176)"><path
             d="m 0,0 v 0 c -39.481,0 -72.272,30.469 -75.165,69.845 l -1.643,22.35 c -3.28,44.637 32.051,82.659 76.808,82.659 44.758,0 80.088,-38.022 76.809,-82.659 L 75.166,69.845 C 72.272,30.469 39.482,0 0,0"
             style="fill:#ffcec0;fill-opacity:1;fill-rule:nonzero;stroke:none"
             id="path4744" /></g><g
           id="g4746"
           transform="translate(371.8301,223.5176)"><path
             d="m 0,0 v 0 c -39.481,0 -72.272,30.469 -75.165,69.845 l -1.643,22.35 c -3.28,44.637 32.051,82.659 76.808,82.659 44.758,0 80.088,-38.022 76.809,-82.659 L 75.166,69.845 C 72.272,30.469 39.482,0 0,0 Z"
             style="fill:none;stroke:#000000;stroke-width:15;stroke-linecap:round;stroke-linejoin:round;stroke-miterlimit:10;stroke-dasharray:none;stroke-opacity:1"
             id="path4748" /></g><g
           id="g4750"
           transform="translate(333.7881,302.0654)"><path
             d="M 0,0 V 0.126"
             style="fill:none;stroke:#000000;stroke-width:15;stroke-linecap:round;stroke-linejoin:round;stroke-miterlimit:10;stroke-dasharray:none;stroke-opacity:1"
             id="path4752" /></g><g
           id="g4754"
           transform="translate(409.876,302.0654)"><path
             d="M 0,0 V 0.126"
             style="fill:none;stroke:#000000;stroke-width:15;stroke-linecap:round;stroke-linejoin:round;stroke-miterlimit:10;stroke-dasharray:none;stroke-opacity:1"
             id="path4756" /></g><g
           id="g4758"
           transform="translate(352.9521,268.4707)"><path
             d="m 0,0 c 4.849,-4.802 11.517,-7.769 18.879,-7.769 7.363,0 14.031,2.967 18.88,7.769"
             style="fill:none;stroke:#000000;stroke-width:15;stroke-linecap:round;stroke-linejoin:round;stroke-miterlimit:10;stroke-dasharray:none;stroke-opacity:1"
             id="path4760" /></g><g
           id="g4762"
           transform="translate(350.7559,18.8838)"><path
             d="m 0,0 c -2.071,41.905 -33.025,76.211 -73.373,83.416 -8.176,1.46 -14.301,8.318 -14.981,16.595 l -1.848,22.525 h -28.806 l -1.848,-22.525 c -0.68,-8.277 -6.805,-15.135 -14.981,-16.595 C -176.185,76.211 -207.138,41.905 -209.21,0 Z"
             style="fill:#31a7fb;fill-opacity:1;fill-rule:nonzero;stroke:none"
             id="path4764" /></g><g
           id="g4766"
           transform="translate(255.542,102.2983)"><path
             d="M 0,0 C 40.35,-7.207 71.305,-41.51 73.376,-83.415 H 95.212 C 93.141,-41.51 62.186,-7.207 21.844,0 13.664,1.459 7.536,8.321 6.861,16.6 L 5.011,39.119 H -16.825 L -14.982,16.6 C -14.299,8.321 -8.171,1.459 0,0"
             style="fill:#1c96f9;fill-opacity:1;fill-rule:nonzero;stroke:none"
             id="path4768" /></g><g
           id="g4770"
           transform="translate(288.7715,99.48)"><path
             d="m 0,0 c -8.429,-14.807 -24.361,-24.795 -42.621,-24.795 -18.259,0 -34.192,9.988 -42.62,24.795 3.701,1.176 7.503,2.126 11.388,2.818 8.179,1.459 14.299,8.321 14.983,16.6 l 1.85,22.52 h 28.798 l 1.851,-22.52 c 0.684,-8.279 6.804,-15.141 14.982,-16.6 C -7.503,2.126 -3.701,1.176 0,0"
             style="fill:#fdb0a0;fill-opacity:1;fill-rule:nonzero;stroke:none"
             id="path4772" /></g><g
           id="g4774"
           transform="translate(265.3799,110.2607)"><path
             d="m 0,0 c -5.836,-1.442 -11.939,-2.209 -18.218,-2.209 -6.903,0 -13.59,0.925 -19.951,2.651 1.501,2.426 2.442,5.219 2.693,8.195 l 1.851,22.52 h 28.798 l 1.85,-22.52 C -2.718,5.478 -1.659,2.526 0,0"
             style="fill:#f89f8e;fill-opacity:1;fill-rule:nonzero;stroke:none"
             id="path4776" /></g><g
           id="g4778"
           transform="translate(288.7744,99.48)"><path
             d="m 0,0 c -2.727,-4.786 -6.228,-9.063 -10.347,-12.656 -3.342,0.901 -6.745,1.667 -10.196,2.284 -11.189,1.993 -19.568,11.39 -20.502,22.72 l -2.434,29.59 h 15.257 l 1.851,-22.52 c 0.684,-8.279 6.804,-15.141 14.982,-16.6 C -7.504,2.126 -3.701,1.176 0,0"
             style="fill:#f89f8e;fill-opacity:1;fill-rule:nonzero;stroke:none"
             id="path4780" /></g><g
           id="g4782"
           transform="translate(288.7715,99.48)"><path
             d="m 0,0 c -8.429,-14.807 -24.361,-24.795 -42.621,-24.795 -18.259,0 -34.192,9.988 -42.62,24.795"
             style="fill:none;stroke:#000000;stroke-width:15;stroke-linecap:round;stroke-linejoin:round;stroke-miterlimit:10;stroke-dasharray:none;stroke-opacity:1"
             id="path4784" /></g><g
           id="g4786"
           transform="translate(350.7559,18.8838)"><path
             d="m 0,0 c -2.071,41.905 -33.025,76.211 -73.373,83.416 -8.176,1.46 -14.301,8.318 -14.981,16.595 l -1.848,22.525 h -28.806 l -1.848,-22.525 c -0.68,-8.277 -6.805,-15.135 -14.981,-16.595 C -176.185,76.211 -207.138,41.905 -209.21,0"
             style="fill:none;stroke:#000000;stroke-width:15;stroke-linecap:round;stroke-linejoin:round;stroke-miterlimit:10;stroke-dasharray:none;stroke-opacity:1"
             id="path4788" /></g><g
           id="g4790"
           transform="translate(155.1797,135.8325)"><path
             d="m 0,0 c -1.146,-3.336 -1.768,-6.727 -1.912,-10.084 -0.08,-1.851 0.849,-3.596 2.361,-4.663 2.706,-1.907 5.721,-3.469 9.006,-4.597 18.703,-6.422 39.071,3.533 45.498,22.249 1.469,4.28 2.076,8.649 1.921,12.922 -3.265,2.743 -7.085,4.948 -11.376,6.422 C 26.795,28.671 6.426,18.716 0,0"
             style="fill:#873f30;fill-opacity:1;fill-rule:nonzero;stroke:none"
             id="path4792" /></g><g
           id="g4794"
           transform="translate(210.1289,138.7412)"><path
             d="m 0,0 c -6.42,-18.718 -26.788,-28.673 -45.498,-22.253 -3.281,1.126 -6.293,2.689 -8.997,4.594 -1.531,1.079 -2.454,2.852 -2.359,4.723 v 0.029 c 18.426,-5.736 38.186,4.194 44.489,22.57 1.135,3.31 1.76,6.678 1.91,10.005 0.333,-0.1 0.667,-0.209 1,-0.325 4.294,-1.476 8.112,-3.677 11.381,-6.428 C 2.084,8.646 1.476,4.277 0,0"
             style="fill:#6c3328;fill-opacity:1;fill-rule:nonzero;stroke:none"
             id="path4796" /></g><g
           id="g4798"
           transform="translate(155.1797,135.8325)"><path
             d="m 0,0 c -1.146,-3.336 -1.768,-6.727 -1.912,-10.084 -0.08,-1.851 0.849,-3.596 2.361,-4.663 2.706,-1.907 5.721,-3.469 9.006,-4.597 18.703,-6.422 39.071,3.533 45.498,22.249 1.469,4.28 2.076,8.649 1.921,12.922 -3.265,2.743 -7.085,4.948 -11.376,6.422 C 26.795,28.671 6.426,18.716 0,0 Z"
             style="fill:none;stroke:#000000;stroke-width:15;stroke-linecap:round;stroke-linejoin:round;stroke-miterlimit:10;stroke-dasharray:none;stroke-opacity:1"
             id="path4800" /></g><g
           id="g4802"
           transform="translate(337.1553,135.8325)"><path
             d="m 0,0 c 1.146,-3.336 1.768,-6.727 1.912,-10.084 0.08,-1.851 -0.849,-3.596 -2.361,-4.663 -2.706,-1.907 -5.721,-3.469 -9.006,-4.597 -18.703,-6.422 -39.071,3.533 -45.498,22.249 -1.469,4.28 -2.076,8.649 -1.921,12.922 3.265,2.743 7.085,4.948 11.376,6.422 C -26.795,28.671 -6.426,18.716 0,0"
             style="fill:#873f30;fill-opacity:1;fill-rule:nonzero;stroke:none"
             id="path4804" /></g><g
           id="g4806"
           transform="translate(337.1562,135.8291)"><path
             d="m 0,0 c 1.144,-3.33 1.765,-6.722 1.912,-10.077 0.082,-1.853 -0.848,-3.601 -2.363,-4.669 -2.708,-1.907 -5.722,-3.462 -9.008,-4.591 -0.691,-0.237 -1.38,-0.453 -2.077,-0.642 -0.309,2.262 -0.843,4.528 -1.611,6.765 -6.191,18.028 -25.3,27.921 -43.413,22.891 -0.289,2.055 -0.389,4.124 -0.313,6.153 3.265,2.747 7.081,4.952 11.372,6.425 C -26.8,28.677 -6.428,18.719 0,0"
             style="fill:#6c3328;fill-opacity:1;fill-rule:nonzero;stroke:none"
             id="path4808" /></g><g
           id="g4810"
           transform="translate(337.1553,135.8325)"><path
             d="m 0,0 c 1.146,-3.336 1.768,-6.727 1.912,-10.084 0.08,-1.851 -0.849,-3.596 -2.361,-4.663 -2.706,-1.907 -5.721,-3.469 -9.006,-4.597 -18.703,-6.422 -39.071,3.533 -45.498,22.249 -1.469,4.28 -2.076,8.649 -1.921,12.922 3.265,2.743 7.085,4.948 11.376,6.422 C -26.795,28.671 -6.426,18.716 0,0 Z"
             style="fill:none;stroke:#000000;stroke-width:15;stroke-linecap:round;stroke-linejoin:round;stroke-miterlimit:10;stroke-dasharray:none;stroke-opacity:1"
             id="path4812" /></g><g
           id="g4814"
           transform="translate(322.0449,199.9819)"><path
             d="m 0,0 c 0,-41.906 -33.972,-75.877 -75.878,-75.877 -41.905,0 -75.877,33.971 -75.877,75.877 0,41.906 33.972,75.877 75.877,75.877 C -33.972,75.877 0,41.906 0,0"
             style="fill:#ffcec0;fill-opacity:1;fill-rule:nonzero;stroke:none"
             id="path4816" /></g><g
           id="g4818"
           transform="translate(212.0801,181.0122)"><path
             d="m 0,0 c 0,-4.786 -3.879,-8.665 -8.665,-8.665 -4.785,0 -8.665,3.879 -8.665,8.665 0,4.786 3.88,8.665 8.665,8.665 C -3.879,8.665 0,4.786 0,0"
             style="fill:#fc9aa1;fill-opacity:1;fill-rule:nonzero;stroke:none"
             id="path4820" /></g><g
           id="g4822"
           transform="translate(297.585,181.0122)"><path
             d="m 0,0 c 0,-4.786 -3.88,-8.665 -8.665,-8.665 -4.786,0 -8.665,3.879 -8.665,8.665 0,4.786 3.879,8.665 8.665,8.665 C -3.88,8.665 0,4.786 0,0"
             style="fill:#fc9aa1;fill-opacity:1;fill-rule:nonzero;stroke:none"
             id="path4824" /></g><g
           id="g4826"
           transform="translate(322.0449,199.9819)"><path
             d="m 0,0 c 0,-41.906 -33.972,-75.877 -75.878,-75.877 -41.905,0 -75.877,33.971 -75.877,75.877 0,41.906 33.972,75.877 75.877,75.877 C -33.972,75.877 0,41.906 0,0 Z"
             style="fill:none;stroke:#000000;stroke-width:15;stroke-linecap:round;stroke-linejoin:round;stroke-miterlimit:10;stroke-dasharray:none;stroke-opacity:1"
             id="path4828" /></g><g
           id="g4830"
           transform="translate(232.8037,164.4492)"><path
             d="m 0,0 c 3.432,-3.399 8.152,-5.5 13.363,-5.5 5.212,0 9.933,2.101 13.365,5.5"
             style="fill:none;stroke:#000000;stroke-width:15;stroke-linecap:round;stroke-linejoin:round;stroke-miterlimit:10;stroke-dasharray:none;stroke-opacity:1"
             id="path4832" /></g><g
           id="g4834"
           transform="translate(212.0801,192.2168)"><path
             d="M 0,0 V 0.1"
             style="fill:none;stroke:#000000;stroke-width:15;stroke-linecap:round;stroke-linejoin:round;stroke-miterlimit:10;stroke-dasharray:none;stroke-opacity:1"
             id="path4836" /></g><g
           id="g4838"
           transform="translate(280.2549,192.2168)"><path
             d="M 0,0 V 0.1"
             style="fill:none;stroke:#000000;stroke-width:15;stroke-linecap:round;stroke-linejoin:round;stroke-miterlimit:10;stroke-dasharray:none;stroke-opacity:1"
             id="path4840" /></g><g
           id="g4842"
           transform="translate(320.2686,210.1968)"><path
             d="m 0,0 c 4.294,0.428 7.554,4.083 7.491,8.396 -0.328,22.434 -8.359,79.481 -81.592,79.481 -73.581,0 -81.339,-57.59 -81.596,-79.797 -0.047,-4.075 2.851,-7.601 6.865,-8.302 14.294,-2.497 50.294,-5.261 96.856,16.751 0,0 24.698,-19.249 51.976,-16.529"
             style="fill:#873f30;fill-opacity:1;fill-rule:nonzero;stroke:none"
             id="path4844" /></g><g
           id="g4846"
           transform="translate(327.7617,218.5903)"><path
             d="m 0,0 c 0.059,-4.311 -3.201,-7.962 -7.495,-8.396 -6.036,-0.6 -11.948,-0.125 -17.492,0.976 2.642,1.434 4.393,4.252 4.352,7.42 -0.317,21.335 -7.595,73.978 -71.294,79.081 3.293,0.258 6.737,0.4 10.338,0.4 C -8.362,79.481 -0.334,22.436 0,0"
             style="fill:#6c3328;fill-opacity:1;fill-rule:nonzero;stroke:none"
             id="path4848" /></g><g
           id="g4850"
           transform="translate(320.2686,210.1968)"><path
             d="m 0,0 c 4.294,0.428 7.554,4.083 7.491,8.396 -0.328,22.434 -8.359,79.481 -81.592,79.481 -73.581,0 -81.339,-57.59 -81.596,-79.797 -0.047,-4.075 2.851,-7.601 6.865,-8.302 14.294,-2.497 50.294,-5.261 96.856,16.751 0,0 24.698,-19.249 51.976,-16.529 z"
             style="fill:none;stroke:#000000;stroke-width:15;stroke-linecap:round;stroke-linejoin:round;stroke-miterlimit:10;stroke-dasharray:none;stroke-opacity:1"
             id="path4852" /></g><g
           id="g4854"
           transform="translate(429.4219,405.5405)"><path
             d="m 0,0 c 0,0 38.689,-12.073 34.827,-64.011 -0.349,-4.702 -3.885,-8.524 -8.548,-9.226 -12.553,-1.889 -37.467,-1.843 -52.196,23.63 z"
             style="fill:#a34f41;fill-opacity:1;fill-rule:nonzero;stroke:none"
             id="path4856" /></g><g
           id="g4858"
           transform="translate(429.4219,405.5405)"><path
             d="m 0,0 c 0,0 38.689,-12.073 34.827,-64.011 -0.349,-4.702 -3.885,-8.524 -8.548,-9.226 -12.553,-1.889 -37.467,-1.843 -52.196,23.63 z"
             style="fill:none;stroke:#000000;stroke-width:15;stroke-linecap:round;stroke-linejoin:round;stroke-miterlimit:10;stroke-dasharray:none;stroke-opacity:1"
             id="path4860" /></g><g
           id="g4862"
           transform="translate(429.4219,405.5405)"><path
             d="m 0,0 c -0.565,-31.017 -22.164,-60.997 -55.937,-73.289 -32.102,-11.684 -66.051,-4.055 -86.826,16.822 -2.042,2.052 -3.149,4.886 -2.911,7.771 2.424,29.408 23.548,57.166 55.718,68.875 C -56.184,32.471 -20.367,23.388 0,0"
             style="fill:#a34f41;fill-opacity:1;fill-rule:nonzero;stroke:none"
             id="path4864" /></g><g
           id="g4866"
           transform="translate(429.4199,405.54)"><path
             d="m 0,0 c -0.561,-31.02 -22.16,-61 -55.939,-73.29 -28.122,-10.23 -57.651,-5.65 -78.5,9.67 20.66,-7.26 45.189,-5.98 67.449,5.44 30.1,15.45 47.54,45.1 46.711,74.26 C -12.57,11.94 -5.68,6.53 0,0"
             style="fill:#873f30;fill-opacity:1;fill-rule:nonzero;stroke:none"
             id="path4868" /></g><g
           id="g4870"
           transform="translate(355.7344,327.7417)"><path
             d="M 0,0 C 5.918,0.881 11.865,2.368 17.75,4.51 51.523,16.802 73.122,46.782 73.688,77.799 53.32,101.187 17.504,110.27 -16.269,97.978 -48.438,86.269 -69.563,58.511 -71.986,29.103 c -0.239,-2.886 0.869,-5.719 2.911,-7.771 8.938,-8.983 20.319,-15.504 32.938,-19.099"
             style="fill:none;stroke:#000000;stroke-width:15;stroke-linecap:round;stroke-linejoin:round;stroke-miterlimit:10;stroke-dasharray:none;stroke-opacity:1"
             id="path4872" /></g><g
           id="g4874"
           transform="translate(72.1162,101.3887)"><path
             d="M 0,0 V -82.505"
             style="fill:none;stroke:#000000;stroke-width:15;stroke-linecap:round;stroke-linejoin:round;stroke-miterlimit:10;stroke-dasharray:none;stroke-opacity:1"
             id="path4876" /></g><g
           id="g4878"
           transform="translate(439.8838,101.3887)"><path
             d="M 0,0 V -82.505"
             style="fill:none;stroke:#000000;stroke-width:15;stroke-linecap:round;stroke-linejoin:round;stroke-miterlimit:10;stroke-dasharray:none;stroke-opacity:1"
             id="path4880" /></g></g></g></g></svg>
