<?xml version="1.0" encoding="UTF-8" standalone="no"?>
<!-- Created with Inkscape (http://www.inkscape.org/) -->

<svg
   version="1.1"
   id="svg6843"
   xml:space="preserve"
   width="682.66669"
   height="682.66669"
   viewBox="0 0 682.66669 682.66669"
   xmlns="http://www.w3.org/2000/svg"
   xmlns:svg="http://www.w3.org/2000/svg"><defs
     id="defs6847"><clipPath
       clipPathUnits="userSpaceOnUse"
       id="clipPath6857"><path
         d="M 0,512 H 512 V 0 H 0 Z"
         id="path6855" /></clipPath></defs><g
     id="g6849"
     transform="matrix(1.3333333,0,0,-1.3333333,0,682.66667)"><g
       id="g6851"><g
         id="g6853"
         clip-path="url(#clipPath6857)"><g
           id="g6859"
           transform="translate(283.5,465)"><path
             d="m 0,0 c 0,15.188 -12.312,27.5 -27.5,27.5 v 0 C -42.688,27.5 -55,15.188 -55,0 v 0 c 0,-15.188 12.312,-27.5 27.5,-27.5 v 0 C -12.312,-27.5 0,-15.188 0,0 Z"
             style="fill:#e2d6d1;fill-opacity:1;fill-rule:nonzero;stroke:none"
             id="path6861" /></g><g
           id="g6863"
           transform="translate(283.5,465)"><path
             d="m 0,0 c 0,-7.6 -3.08,-14.47 -8.05,-19.45 -4.98,-4.97 -11.85,-8.05 -19.45,-8.05 -5.54,0 -10.69,1.64 -15,4.46 1.61,1.03 3.1,2.24 4.45,3.59 4.97,4.98 8.05,11.85 8.05,19.45 0,9.65 -4.97,18.15 -12.5,23.04 4.31,2.82 9.46,4.46 15,4.46 C -12.31,27.5 0,15.19 0,0"
             style="fill:#cfc6c3;fill-opacity:1;fill-rule:nonzero;stroke:none"
             id="path6865" /></g><g
           id="g6867"
           transform="translate(489.5,19.5)"><path
             d="m 0,0 h -467 c -8.284,0 -15,6.716 -15,15 v 345 c 0,8.284 6.716,15 15,15 H 0 c 8.284,0 15,-6.716 15,-15 V 15 C 15,6.716 8.284,0 0,0"
             style="fill:#bc845e;fill-opacity:1;fill-rule:nonzero;stroke:none"
             id="path6869" /></g><g
           id="g6871"
           transform="translate(500.1,23.9)"><path
             d="m 0,0 c -2.71,-2.72 -6.46,-4.4 -10.6,-4.4 h -467 c -4.14,0 -7.89,1.68 -10.6,4.4 l 27.06,27.06 c 0.91,-0.9 2.16,-1.46 3.54,-1.46 h 427 c 1.38,0 2.63,0.56 3.54,1.46 z"
             style="fill:#d19a6e;fill-opacity:1;fill-rule:nonzero;stroke:none"
             id="path6873" /></g><g
           id="g6875"
           transform="translate(500.1,390.1)"><path
             d="m 0,0 -27.06,-27.06 c -0.91,0.9 -2.16,1.46 -3.54,1.46 h -427 c -1.38,0 -2.63,-0.56 -3.54,-1.46 L -488.2,0 c 2.71,2.72 6.46,4.4 10.6,4.4 h 467 C -6.46,4.4 -2.71,2.72 0,0"
             style="fill:#d19a6e;fill-opacity:1;fill-rule:nonzero;stroke:none"
             id="path6877" /></g><g
           id="g6879"
           transform="translate(469.5,49.5)"><path
             d="m 0,0 h -427 c -2.761,0 -5,2.239 -5,5 v 305 c 0,2.761 2.239,5 5,5 H 0 c 2.761,0 5,-2.239 5,-5 V 5 C 5,2.239 2.761,0 0,0"
             style="fill:#ffffff;fill-opacity:1;fill-rule:nonzero;stroke:none"
             id="path6881" /></g><g
           id="g6883"
           transform="translate(422.4167,126.5833)"><path
             d="M 0,0 -138.917,-4.583 V 80.375 H 3.371 c 3.284,-2.77 5.395,-5.026 5.395,-5.026 4.003,-4.274 6.454,-10.02 6.454,-16.338 0,-5.724 -2.015,-10.974 -5.371,-15.089 -1.068,-1.309 -1.068,-3.158 0,-4.468 3.356,-4.115 5.371,-9.365 5.371,-15.089 0,-7.37 -3.336,-13.961 -8.579,-18.347 0,0 -1.866,-1.878 -3.929,-3.731 z"
             style="fill:#d19a6e;fill-opacity:1;fill-rule:nonzero;stroke:none"
             id="path6885" /></g><g
           id="g6887"
           transform="translate(432.27,166.04)"><path
             d="m 0,0 c 3.35,-4.12 5.37,-9.37 5.37,-15.09 0,-3.69 -0.84,-7.17 -2.32,-10.29 -1.5,-3.12 -3.64,-5.86 -6.26,-8.06 0,0 -1.87,-1.88 -3.93,-3.73 l -2.71,-2.29 h -30 l 2.71,2.29 c 2.06,1.85 3.93,3.73 3.93,3.73 2.62,2.2 4.76,4.94 6.26,8.06 1.48,3.12 2.32,6.6 2.32,10.29 0,5.72 -2.02,10.97 -5.37,15.09 -1.07,1.31 -1.07,3.16 0,4.47 1.67,2.05 3.02,4.39 3.94,6.94 0.93,2.54 1.43,5.28 1.43,8.14 0,6.32 -2.45,12.07 -6.46,16.34 0,0 -2.11,2.26 -5.39,5.03 h 30 c 3.28,-2.77 5.39,-5.03 5.39,-5.03 4.01,-4.27 6.46,-10.02 6.46,-16.34 0,-2.86 -0.5,-5.6 -1.43,-8.14 C 3.02,8.86 1.67,6.52 0,4.47 -1.07,3.16 -1.07,1.31 0,0"
             style="fill:#bc845e;fill-opacity:1;fill-rule:nonzero;stroke:none"
             id="path6889" /></g><g
           id="g6891"
           transform="translate(76.5,105.0517)"><path
             d="M 0,0 C 0,16.186 12.749,29.448 28.934,29.448 H 165.5 v -85 H 0 Z"
             style="fill:#6f6571;fill-opacity:1;fill-rule:nonzero;stroke:none"
             id="path6893" /></g><g
           id="g6895"
           transform="translate(260.3271,134.5)"><path
             d="m 0,0 h 146.238 c 15.981,0 28.935,-12.954 28.935,-28.934 V -85 h -183 z"
             style="fill:#fc8d94;fill-opacity:1;fill-rule:nonzero;stroke:none"
             id="path6897" /></g><g
           id="g6899"
           transform="translate(260.3271,134.5)"><path
             d="m 0,0 h 146.238 c 15.981,0 28.935,-12.954 28.935,-28.934 V -85 h -183 z"
             style="fill:#fc8d94;fill-opacity:1;fill-rule:nonzero;stroke:none"
             id="path6901" /></g><g
           id="g6903"
           transform="translate(435.5,105.57)"><path
             d="M 0,0 V -56.07 H -19 V 0 c 0,15.98 -12.95,28.93 -28.93,28.93 h 19 C -12.95,28.93 0,15.98 0,0"
             style="fill:#fc7585;fill-opacity:1;fill-rule:nonzero;stroke:none"
             id="path6905" /></g><g
           id="g6907"
           transform="translate(333.3,175)"><path
             d="M 0,0 V -40.872 C 0,-52 8.923,-61.021 20.051,-61.021 H 19.953 C 31.08,-61.021 40,-52 40,-40.872 V 0 Z"
             style="fill:#ecbd83;fill-opacity:1;fill-rule:nonzero;stroke:none"
             id="path6909" /></g><g
           id="g6911"
           transform="translate(178.5,175)"><path
             d="M 0,0 V -40.872 C 0,-52 -8.92,-61.021 -20.047,-61.021 h 0.098 C -31.077,-61.021 -40,-52 -40,-40.872 V 0 Z"
             style="fill:#ecbd83;fill-opacity:1;fill-rule:nonzero;stroke:none"
             id="path6913" /></g><g
           id="g6915"
           transform="translate(116,240.5)"><path
             d="M 0,0 H -27.415 C -36.604,0 -44.5,-7.436 -44.5,-16.625 v -0.133 C -44.5,-25.947 -36.604,-34 -27.415,-34 H 0 Z"
             style="fill:#ecbd83;fill-opacity:1;fill-rule:nonzero;stroke:none"
             id="path6917" /></g><g
           id="g6919"
           transform="translate(98.5,281)"><path
             d="m 0,0 v -66.937 c 0,-33.383 26.891,-60.426 60.274,-60.426 33.384,0 60.275,27.043 60.275,60.426 V 0 Z"
             style="fill:#f6d190;fill-opacity:1;fill-rule:nonzero;stroke:none"
             id="path6921" /></g><g
           id="g6923"
           transform="translate(406,240.5)"><path
             d="M 0,0 H 17.415 C 26.604,0 34.5,-7.436 34.5,-16.625 v -0.133 C 34.5,-25.947 26.604,-34 17.415,-34 H 0 Z"
             style="fill:#ecbd83;fill-opacity:1;fill-rule:nonzero;stroke:none"
             id="path6925" /></g><g
           id="g6927"
           transform="translate(413.5,281)"><path
             d="m 0,0 v -66.937 c 0,-33.383 -26.891,-60.426 -60.274,-60.426 -33.384,0 -60.275,27.043 -60.275,60.426 V 0 Z"
             style="fill:#f6d190;fill-opacity:1;fill-rule:nonzero;stroke:none"
             id="path6929" /></g><g
           id="g6931"
           transform="translate(413.5,281)"><path
             d="m 0,0 v -66.94 c 0,-33.38 -26.89,-60.42 -60.27,-60.42 -3.23,0 -6.41,0.25 -9.5,0.75 28.84,4.55 50.77,29.52 50.77,59.67 L -19,0 Z"
             style="fill:#ecbd83;fill-opacity:1;fill-rule:nonzero;stroke:none"
             id="path6933" /></g><g
           id="g6935"
           transform="translate(230.75,281.88)"><path
             d="m 0,0 -14.84,-41.38 h -11.51 c -9.09,0 -16.63,6.46 -18.07,15.14 -0.29,1.75 -1.83,2.86 -3.6,2.86 h -48.3 c -1.77,0 -3.31,-1.11 -3.6,-2.86 -1.44,-8.68 -8.98,-15.14 -18.07,-15.14 h -24.17 c -0.36,0 -0.73,-0.01 -1.09,-0.04 v 39.05 c 0,26.3 20.94,47.99 47.24,47.99 h 47.63 c 23.13,0 42.6,-16.56 46.91,-38.43 z"
             style="fill:#6f6571;fill-opacity:1;fill-rule:nonzero;stroke:none"
             id="path6937" /></g><g
           id="g6939"
           transform="translate(436.25,250.43)"><path
             d="m 0,0 c 0,-4.64 -1.32,-8.97 -3.62,-12.63 -2.69,1.71 -5.87,2.7 -9.22,2.7 h -20.51 c -6.07,0 -11.4,5.09 -11.4,11.16 v 4.4 c 0,2.02 -1.23,3.44 -3.25,3.44 h -69.61 c -0.42,0 -0.76,-0.05 -1.14,-0.18 0,0 -4.67,-0.49 -10.17,-3.32 -5.5,-2.83 -29.39,27.31 -29.39,27.31 -0.63,3.81 0.28,7.33 0.28,7.33 1.26,5.26 4.25,9.85 8.34,13.12 4.09,3.27 9.28,5.23 14.92,5.23 0.56,0 1.12,-0.02 1.68,-0.06 3.26,-0.23 6.32,1.81 7.22,4.96 1.44,4.99 4.46,9.3 8.48,12.37 4.02,3.08 9.04,4.9 14.49,4.9 5.97,0 11.43,-2.19 15.62,-5.82 2.55,-2.2 6.4,-2.2 8.95,0 2.1,1.82 4.51,3.27 7.14,4.27 2.64,1 5.5,1.55 8.48,1.55 10.9,0 20.09,-7.3 22.97,-17.27 0.9,-3.15 3.96,-5.19 7.23,-4.96 0.55,0.04 1.11,0.06 1.68,0.06 6.6,0 12.58,-2.68 16.9,-7.01 4.32,-4.32 7,-10.3 7,-16.9 0,-3.41 -0.71,-6.65 -2,-9.58 -1.15,-2.62 -0.68,-5.69 1.4,-7.65 2.32,-2.18 4.2,-4.82 5.5,-7.77 C -0.73,6.7 0,3.43 0,0"
             style="fill:#d19a6e;fill-opacity:1;fill-rule:nonzero;stroke:none"
             id="path6941" /></g><g
           id="g6943"
           transform="translate(436.25,250.43)"><path
             d="m 0,0 c 0,-4.64 -1.32,-8.97 -3.62,-12.63 -2.69,1.71 -5.87,2.7 -9.22,2.7 h -19.33 c 1.4,3.02 2.17,6.38 2.17,9.93 0,3.43 -0.73,6.7 -2.03,9.65 -1.3,2.95 -3.18,5.59 -5.5,7.77 -2.08,1.96 -2.55,5.03 -1.4,7.65 1.29,2.93 2,6.17 2,9.58 0,6.6 -2.68,12.58 -7,16.9 -4.32,4.33 -10.3,7.01 -16.9,7.01 -0.57,0 -1.13,-0.02 -1.68,-0.06 -3.27,-0.23 -6.33,1.81 -7.23,4.96 -1.38,4.78 -4.2,8.93 -7.97,11.96 1.95,1.59 4.14,2.86 6.52,3.76 2.64,1 5.5,1.55 8.48,1.55 10.9,0 20.09,-7.3 22.97,-17.27 0.9,-3.15 3.96,-5.19 7.23,-4.96 0.55,0.04 1.11,0.06 1.68,0.06 6.6,0 12.58,-2.68 16.9,-7.01 4.32,-4.32 7,-10.3 7,-16.9 0,-3.41 -0.71,-6.65 -2,-9.58 -1.15,-2.62 -0.68,-5.69 1.4,-7.65 2.32,-2.18 4.2,-4.82 5.5,-7.77 C -0.73,6.7 0,3.43 0,0"
             style="fill:#bc845e;fill-opacity:1;fill-rule:nonzero;stroke:none"
             id="path6945" /></g><g
           id="g6947"
           transform="translate(175.5,49.5)"><path
             d="M 0,0 V 18.07 C 0,33.893 12.837,47 28.659,47 H 132.514 C 148.337,47 161,33.893 161,18.07 V 0 Z"
             style="fill:#ccf49f;fill-opacity:1;fill-rule:nonzero;stroke:none"
             id="path6949" /></g><g
           id="g6951"
           transform="translate(336.5,67.57)"><path
             d="M 0,0 V -18.07 H -19 V 0 c 0,15.82 -12.66,28.93 -28.49,28.93 h 19 C -12.66,28.93 0,15.82 0,0"
             style="fill:#b3e59f;fill-opacity:1;fill-rule:nonzero;stroke:none"
             id="path6953" /></g><g
           id="g6955"
           transform="translate(297,201.5)"><path
             d="M 0,0 H 28.16 C 37.142,0 44.5,-7.454 44.5,-16.436 v -0.131 C 44.5,-25.549 37.142,-33 28.16,-33 H 0 Z"
             style="fill:#ecbd83;fill-opacity:1;fill-rule:nonzero;stroke:none"
             id="path6957" /></g><g
           id="g6959"
           transform="translate(205,168.5)"><path
             d="M 0,0 H -18.16 C -27.142,0 -34.5,7.451 -34.5,16.433 v 0.131 C -34.5,25.546 -27.142,33 -18.16,33 H 0 Z"
             style="fill:#ecbd83;fill-opacity:1;fill-rule:nonzero;stroke:none"
             id="path6961" /></g><g
           id="g6963"
           transform="translate(236.5,128)"><path
             d="m 0,0 v -31.5 c 0,-10.878 8.629,-20.038 19.508,-20.038 h 0.063 C 30.45,-51.538 39,-42.378 39,-31.5 V 0 Z"
             style="fill:#ecbd83;fill-opacity:1;fill-rule:nonzero;stroke:none"
             id="path6965" /></g><g
           id="g6967"
           transform="translate(197.5,222)"><path
             d="M 0,0 V -46.528 C 0,-79.163 25.951,-105.5 58.585,-105.5 h -0.084 c 32.634,0 58.499,26.337 58.499,58.972 V -1 Z"
             style="fill:#f6d190;fill-opacity:1;fill-rule:nonzero;stroke:none"
             id="path6969" /></g><g
           id="g6971"
           transform="translate(314.5,221)"><path
             d="m 0,0 v -45.53 c 0,-32.6 -25.82,-58.93 -58.42,-58.97 h -0.08 c -3.23,0 -6.39,0.27 -9.46,0.77 28,4.54 48.96,28.82 48.96,58.2 L -19,0 Z"
             style="fill:#ecbd83;fill-opacity:1;fill-rule:nonzero;stroke:none"
             id="path6973" /></g><g
           id="g6975"
           transform="translate(325.5,219.9)"><path
             d="m 0,0 v -18.41 c -0.11,0.01 -0.23,0.01 -0.34,0.01 h -24.31 c -8.81,0 -16.14,6.38 -17.63,14.8 -0.3,1.74 -1.83,3.2 -3.59,3.2 h -47.08 c -1.77,0 -3.29,-1.46 -3.6,-3.2 -1.49,-8.42 -8.82,-14.8 -17.63,-14.8 h -24.48 c -0.11,0 -0.23,0 -0.34,-0.01 V 0 c 0,38.57 30.77,69.6 69.34,69.6 h 0.08 C -31.01,69.6 0,38.57 0,0"
             style="fill:#d19a6e;fill-opacity:1;fill-rule:nonzero;stroke:none"
             id="path6977" /></g><g
           id="g6979"
           transform="translate(325.5,219.9)"><path
             d="m 0,0 v -18.41 c -0.11,0.01 -0.23,0.01 -0.34,0.01 h -24.31 c -1.86,0 -3.66,0.29 -5.35,0.82 V 0 c 0,33.43 -23.29,61.19 -54.61,67.99 4.81,1.06 9.81,1.61 14.95,1.61 h 0.08 C -31.01,69.6 0,38.57 0,0"
             style="fill:#bc845e;fill-opacity:1;fill-rule:nonzero;stroke:none"
             id="path6981" /></g><g
           id="g6983"
           transform="translate(504.5,294.2504)"><path
             d="m 0,0 v -259.75 c 0,-8.285 -6.716,-15 -15,-15 h -467 c -8.284,0 -15,6.715 -15,15 v 345 c 0,8.284 6.716,15 15,15 h 467 c 8.284,0 15,-6.716 15,-15 V 35"
             style="fill:none;stroke:#000000;stroke-width:15;stroke-linecap:round;stroke-linejoin:round;stroke-miterlimit:10;stroke-dasharray:none;stroke-opacity:1"
             id="path6985" /></g><g
           id="g6987"
           transform="translate(76.4999,49.5)"><path
             d="m 0,0 h -34 c -2.761,0 -5,2.239 -5,5 v 305 c 0,2.761 2.239,5 5,5 h 427 c 2.761,0 5,-2.239 5,-5 V 5 c 0,-2.761 -2.239,-5 -5,-5 H 35"
             style="fill:none;stroke:#000000;stroke-width:15;stroke-linecap:round;stroke-linejoin:round;stroke-miterlimit:10;stroke-dasharray:none;stroke-opacity:1"
             id="path6989" /></g><g
           id="g6991"
           transform="translate(37.5,364.5)"><path
             d="M 0,0 -24.749,24.749"
             style="fill:none;stroke:#000000;stroke-width:15;stroke-linecap:round;stroke-linejoin:round;stroke-miterlimit:10;stroke-dasharray:none;stroke-opacity:1"
             id="path6993" /></g><g
           id="g6995"
           transform="translate(474.5,364.5)"><path
             d="M 0,0 23.812,23.812"
             style="fill:none;stroke:#000000;stroke-width:15;stroke-linecap:round;stroke-linejoin:round;stroke-miterlimit:10;stroke-dasharray:none;stroke-opacity:1"
             id="path6997" /></g><g
           id="g6999"
           transform="translate(499.3769,24.6231)"><path
             d="M 0,0 -24.877,24.877"
             style="fill:none;stroke:#000000;stroke-width:15;stroke-linecap:round;stroke-linejoin:round;stroke-miterlimit:10;stroke-dasharray:none;stroke-opacity:1"
             id="path7001" /></g><g
           id="g7003"
           transform="translate(12.5,24.5)"><path
             d="M 0,0 25,25"
             style="fill:none;stroke:#000000;stroke-width:15;stroke-linecap:round;stroke-linejoin:round;stroke-miterlimit:10;stroke-dasharray:none;stroke-opacity:1"
             id="path7005" /></g><g
           id="g7007"
           transform="translate(212,134.5)"><path
             d="M 0,0 H -33"
             style="fill:none;stroke:#000000;stroke-width:15;stroke-linecap:round;stroke-linejoin:round;stroke-miterlimit:10;stroke-dasharray:none;stroke-opacity:1"
             id="path7009" /></g><g
           id="g7011"
           transform="translate(138,134.5)"><path
             d="M 0,0 H -32.566 C -48.751,0 -61.5,-13.262 -61.5,-29.448 V -85"
             style="fill:none;stroke:#000000;stroke-width:15;stroke-linecap:round;stroke-linejoin:round;stroke-miterlimit:10;stroke-dasharray:none;stroke-opacity:1"
             id="path7013" /></g><g
           id="g7015"
           transform="translate(178.5,155)"><path
             d="M 0,0 V -20.872 C 0,-32 -8.92,-41.021 -20.047,-41.021 h 0.098 C -31.077,-41.021 -40,-32 -40,-20.872 V 0"
             style="fill:none;stroke:#000000;stroke-width:15;stroke-linecap:round;stroke-linejoin:round;stroke-miterlimit:10;stroke-dasharray:none;stroke-opacity:1"
             id="path7017" /></g><g
           id="g7019"
           transform="translate(98,240.5)"><path
             d="M 0,0 H -9.415 C -18.604,0 -26.5,-7.436 -26.5,-16.625 v -0.133 C -26.5,-25.947 -18.604,-34 -9.415,-34 H -2"
             style="fill:none;stroke:#000000;stroke-width:15;stroke-linecap:round;stroke-linejoin:round;stroke-miterlimit:10;stroke-dasharray:none;stroke-opacity:1"
             id="path7021" /></g><g
           id="g7023"
           transform="translate(87.5,241)"><path
             d="M 0,0 V 38.506 C 0,64.808 20.939,86.5 47.242,86.5 h 47.624 c 23.13,0 42.6,-16.561 46.913,-38.425"
             style="fill:none;stroke:#000000;stroke-width:15;stroke-linecap:round;stroke-linejoin:round;stroke-miterlimit:10;stroke-dasharray:none;stroke-opacity:1"
             id="path7025" /></g><g
           id="g7027"
           transform="translate(98,240.5)"><path
             d="M 0,0 H 14.761 C 23.848,0 31.39,6.459 32.83,15.138 33.121,16.889 34.658,18 36.432,18 h 48.243 c 1.781,0 3.312,-1.034 3.605,-2.79 0.5,-3.003 1.678,-5.722 3.45,-8.042"
             style="fill:none;stroke:#000000;stroke-width:15;stroke-linecap:round;stroke-linejoin:round;stroke-miterlimit:10;stroke-dasharray:none;stroke-opacity:1"
             id="path7029" /></g><g
           id="g7031"
           transform="translate(413.5,240.5)"><path
             d="M 0,0 H 9.915 C 19.104,0 27,-7.436 27,-16.625 v -0.133 C 27,-25.947 19.104,-34 9.915,-34 H 0.187"
             style="fill:none;stroke:#000000;stroke-width:15;stroke-linecap:round;stroke-linejoin:round;stroke-miterlimit:10;stroke-dasharray:none;stroke-opacity:1"
             id="path7033" /></g><g
           id="g7035"
           transform="translate(373.5,134.5)"><path
             d="M 0,0 H 33.066 C 49.046,0 62,-12.954 62,-28.934 v -54.233"
             style="fill:none;stroke:#000000;stroke-width:15;stroke-linecap:round;stroke-linejoin:round;stroke-miterlimit:10;stroke-dasharray:none;stroke-opacity:1"
             id="path7037" /></g><g
           id="g7039"
           transform="translate(332,134.5)"><path
             d="m 0,0 h -31.673 c -0.433,0 -1.482,-0.064 -1.911,-0.082"
             style="fill:none;stroke:#000000;stroke-width:15;stroke-linecap:round;stroke-linejoin:round;stroke-miterlimit:10;stroke-dasharray:none;stroke-opacity:1"
             id="path7041" /></g><g
           id="g7043"
           transform="translate(425.1287,128.8703)"><path
             d="m 0,0 c 2.062,1.853 3.928,3.731 3.928,3.731 5.244,4.386 8.58,10.977 8.58,18.347 0,5.724 -2.015,10.974 -5.371,15.089 -1.068,1.31 -1.068,3.159 0,4.468 3.356,4.115 5.371,9.366 5.371,15.089 0,6.318 -2.451,12.064 -6.454,16.338 0,0 -1.728,1.847 -4.49,4.25"
             style="fill:none;stroke:#000000;stroke-width:15;stroke-linecap:round;stroke-linejoin:round;stroke-miterlimit:10;stroke-dasharray:none;stroke-opacity:1"
             id="path7045" /></g><g
           id="g7047"
           transform="translate(424.5655,128.3696)"><path
             d="M 0,0 C 0.189,0.166 0.377,0.333 0.563,0.501"
             style="fill:none;stroke:#000000;stroke-width:15;stroke-linecap:round;stroke-linejoin:round;stroke-miterlimit:10;stroke-dasharray:none;stroke-opacity:1"
             id="path7049" /></g><g
           id="g7051"
           transform="translate(432.9335,238.278)"><path
             d="m 0,0 c 2.107,3.562 3.317,7.718 3.317,12.156 0,6.867 -2.896,13.056 -7.532,17.416 -2.079,1.955 -2.544,5.034 -1.398,7.648 1.286,2.933 2.001,6.174 2.001,9.582 0,13.203 -10.703,23.906 -23.906,23.906 v 0 c -0.565,0 -1.125,-0.02 -1.68,-0.059 -3.265,-0.228 -6.321,1.814 -7.227,4.96 -2.874,9.975 -12.067,17.272 -22.967,17.272 v 0 c -5.973,0 -11.431,-2.192 -15.62,-5.814 -2.55,-2.206 -6.4,-2.206 -8.95,0 -4.189,3.622 -9.647,5.814 -15.62,5.814 v 0 c -10.901,0 -20.093,-7.297 -22.967,-17.272 -0.906,-3.146 -3.962,-5.188 -7.228,-4.96 -0.554,0.039 -1.115,0.059 -1.679,0.059 v 0 c -11.289,0 -20.75,-7.825 -23.256,-18.347"
             style="fill:none;stroke:#000000;stroke-width:15;stroke-linecap:round;stroke-linejoin:round;stroke-miterlimit:10;stroke-dasharray:none;stroke-opacity:1"
             id="path7053" /></g><g
           id="g7055"
           transform="translate(317.5004,259.3246)"><path
             d="M 0,0 C 0.375,0.13 0.724,0.175 1.144,0.175 H 70.748 C 72.771,0.175 74,-1.241 74,-3.264 V -7.66 c 0,-6.07 5.332,-11.165 11.402,-11.165 H 96"
             style="fill:none;stroke:#000000;stroke-width:15;stroke-linecap:round;stroke-linejoin:round;stroke-miterlimit:10;stroke-dasharray:none;stroke-opacity:1"
             id="path7057" /></g><g
           id="g7059"
           transform="translate(336.5,52)"><path
             d="M 0,0 V 15.57 C 0,31.393 -12.663,44.5 -28.486,44.5 H -60.5"
             style="fill:none;stroke:#000000;stroke-width:15;stroke-linecap:round;stroke-linejoin:round;stroke-miterlimit:10;stroke-dasharray:none;stroke-opacity:1"
             id="path7061" /></g><g
           id="g7063"
           transform="translate(236,96.5)"><path
             d="M 0,0 H -31.841 C -47.663,0 -60.5,-13.107 -60.5,-28.93 V -44.5"
             style="fill:none;stroke:#000000;stroke-width:15;stroke-linecap:round;stroke-linejoin:round;stroke-miterlimit:10;stroke-dasharray:none;stroke-opacity:1"
             id="path7065" /></g><g
           id="g7067"
           transform="translate(197.5,201.5)"><path
             d="M 0,0 V -26.028 C 0,-58.663 25.951,-85 58.585,-85 H 58.501 C 91.135,-85 117,-58.663 117,-26.028 V 0"
             style="fill:none;stroke:#000000;stroke-width:15;stroke-linecap:round;stroke-linejoin:round;stroke-miterlimit:10;stroke-dasharray:none;stroke-opacity:1"
             id="path7069" /></g><g
           id="g7071"
           transform="translate(275.5,118)"><path
             d="m 0,0 v -21.5 c 0,-10.878 -8.55,-20.038 -19.429,-20.038 h -0.063 C -30.371,-41.538 -39,-32.378 -39,-21.5 V 0"
             style="fill:none;stroke:#000000;stroke-width:15;stroke-linecap:round;stroke-linejoin:round;stroke-miterlimit:10;stroke-dasharray:none;stroke-opacity:1"
             id="path7073" /></g><g
           id="g7075"
           transform="translate(314.5,201.5)"><path
             d="M 0,0 H 10.66 C 19.642,0 27,-7.454 27,-16.436 v -0.131 C 27,-25.549 19.642,-33 10.66,-33 H 0.5"
             style="fill:none;stroke:#000000;stroke-width:15;stroke-linecap:round;stroke-linejoin:round;stroke-miterlimit:10;stroke-dasharray:none;stroke-opacity:1"
             id="path7077" /></g><g
           id="g7079"
           transform="translate(197.5,201.5)"><path
             d="M 0,0 H -10.66 C -19.642,0 -27,-7.454 -27,-16.436 v -0.131 C -27,-25.549 -19.642,-33 -10.66,-33 H 0"
             style="fill:none;stroke:#000000;stroke-width:15;stroke-linecap:round;stroke-linejoin:round;stroke-miterlimit:10;stroke-dasharray:none;stroke-opacity:1"
             id="path7081" /></g><g
           id="g7083"
           transform="translate(186.5,202)"><path
             d="M 0,0 V 17.899 C 0,56.467 30.769,87.5 69.337,87.5 h 0.087 C 107.992,87.5 139,56.467 139,17.899 V 0"
             style="fill:none;stroke:#000000;stroke-width:15;stroke-linecap:round;stroke-linejoin:round;stroke-miterlimit:10;stroke-dasharray:none;stroke-opacity:1"
             id="path7085" /></g><g
           id="g7087"
           transform="translate(197.5,201.5)"><path
             d="M 0,0 H 13.822 C 22.634,0 29.959,6.377 31.45,14.801 31.758,16.537 33.283,18 35.046,18 h 47.081 c 1.763,0 3.289,-1.463 3.596,-3.199 C 87.214,6.377 94.54,0 103.352,0 H 117"
             style="fill:none;stroke:#000000;stroke-width:15;stroke-linecap:round;stroke-linejoin:round;stroke-miterlimit:10;stroke-dasharray:none;stroke-opacity:1"
             id="path7089" /></g><g
           id="g7091"
           transform="translate(413.5,240.5)"><path
             d="m 0,0 v -26.437 c 0,-33.383 -26.891,-60.426 -60.274,-60.426 -14.716,0 -28.169,5.255 -38.615,13.99"
             style="fill:none;stroke:#000000;stroke-width:15;stroke-linecap:round;stroke-linejoin:round;stroke-miterlimit:10;stroke-dasharray:none;stroke-opacity:1"
             id="path7093" /></g><g
           id="g7095"
           transform="translate(283.5,465)"><path
             d="m 0,0 c 0,15.188 -12.312,27.5 -27.5,27.5 v 0 C -42.688,27.5 -55,15.188 -55,0 v 0 c 0,-15.188 12.312,-27.5 27.5,-27.5 v 0 C -12.312,-27.5 0,-15.188 0,0 Z"
             style="fill:none;stroke:#000000;stroke-width:15;stroke-linecap:round;stroke-linejoin:round;stroke-miterlimit:10;stroke-dasharray:none;stroke-opacity:1"
             id="path7097" /></g><g
           id="g7099"
           transform="translate(282.1791,452.282)"><path
             d="M 0,0 120.821,-57.782"
             style="fill:none;stroke:#000000;stroke-width:15;stroke-linecap:round;stroke-linejoin:round;stroke-miterlimit:10;stroke-dasharray:none;stroke-opacity:1"
             id="path7101" /></g><g
           id="g7103"
           transform="translate(230.5244,452.623)"><path
             d="M 0,0 -121.524,-58.123"
             style="fill:none;stroke:#000000;stroke-width:15;stroke-linecap:round;stroke-linejoin:round;stroke-miterlimit:10;stroke-dasharray:none;stroke-opacity:1"
             id="path7105" /></g><g
           id="g7107"
           transform="translate(373.3,155)"><path
             d="M 0,0 V -20.872 C 0,-32 -8.92,-41.021 -20.047,-41.021 h 0.098 C -31.077,-41.021 -40,-32 -40,-20.872 V 0"
             style="fill:none;stroke:#000000;stroke-width:15;stroke-linecap:round;stroke-linejoin:round;stroke-miterlimit:10;stroke-dasharray:none;stroke-opacity:1"
             id="path7109" /></g><g
           id="g7111"
           transform="translate(197.5002,167.721)"><path
             d="M 0,0 C -10.461,-8.792 -23.958,-14.084 -38.726,-14.084 -72.109,-14.084 -99,12.959 -99,46.342 v 26.437"
             style="fill:none;stroke:#000000;stroke-width:15;stroke-linecap:round;stroke-linejoin:round;stroke-miterlimit:10;stroke-dasharray:none;stroke-opacity:1"
             id="path7113" /></g></g></g></g></svg>
