<?xml version="1.0" encoding="UTF-8" standalone="no"?>
<!-- Created with Inkscape (http://www.inkscape.org/) -->

<svg
   version="1.1"
   id="svg9822"
   xml:space="preserve"
   width="682.66669"
   height="682.66669"
   viewBox="0 0 682.66669 682.66669"
   xmlns="http://www.w3.org/2000/svg"
   xmlns:svg="http://www.w3.org/2000/svg"><defs
     id="defs9826"><clipPath
       clipPathUnits="userSpaceOnUse"
       id="clipPath9840"><path
         d="M 0,512 H 512 V 0 H 0 Z"
         id="path9838" /></clipPath></defs><g
     id="g9828"
     transform="matrix(1.3333333,0,0,-1.3333333,0,682.66667)"><g
       id="g9830"
       transform="translate(122.8232,289.2334)"><path
         d="m 0,0 -33.399,-49.141 2.966,-68.816 50.264,-41.211 88.786,25.923 54.487,46.992 2.542,37.112 -37.292,81.753 z"
         style="fill:#ff748f;fill-opacity:1;fill-rule:nonzero;stroke:none"
         id="path9832" /></g><g
       id="g9834"><g
         id="g9836"
         clip-path="url(#clipPath9840)"><g
           id="g9842"
           transform="translate(288.4697,240.0928)"><path
             d="m 0,0 c 0,0 -40.828,-19.298 -57.029,-84.104 l 112.944,-56.192 h 76.291 l 12.256,96.05 -23.003,33.854 z"
             style="fill:#60d9a7;fill-opacity:1;fill-rule:nonzero;stroke:none"
             id="path9844" /></g><g
           id="g9846"
           transform="translate(416.3584,471.0469)"><path
             d="m 0,0 c -7.801,18.45 -32.067,23.367 -45.953,8.931 -9.487,-9.865 -16.665,-25.225 -14.575,-49.068 l 42.492,-27.932 28.492,43.342 z"
             style="fill:#fd5f7e;fill-opacity:1;fill-rule:nonzero;stroke:none"
             id="path9848" /></g><g
           id="g9850"
           transform="translate(470.4951,435.4609)"><path
             d="M 0,0 C 20.031,0.154 34.168,-20.173 26.421,-38.645 21.128,-51.266 9.873,-63.946 -12.844,-71.482 l -42.492,27.931 28.491,43.344 z"
             style="fill:#fd5f7e;fill-opacity:1;fill-rule:nonzero;stroke:none"
             id="path9852" /></g><g
           id="g9854"
           transform="translate(436.8379,443.2295)"><path
             d="m 0,0 c -8.694,5.715 -20.375,3.301 -26.09,-5.394 l -22.558,-34.317 31.483,-20.696 22.559,34.318 C 11.108,-17.396 8.693,-5.715 0,0"
             style="fill:#ff748f;fill-opacity:1;fill-rule:nonzero;stroke:none"
             id="path9856" /></g><g
           id="g9858"
           transform="translate(284.0479,423.4326)"><path
             d="m 0,0 c -0.028,0.06 -0.057,0.12 -0.086,0.18 -33.983,70.863 -119.282,100.867 -190.145,66.883 -70.864,-33.984 -100.868,-119.283 -66.884,-190.146 0.029,-0.06 0.057,-0.12 0.087,-0.18 4.652,-9.666 16.341,-13.64 26.012,-9.002 L -9.265,-25.921 C 0.407,-21.282 4.625,-9.679 0,0"
             style="fill:#5c586f;fill-opacity:1;fill-rule:nonzero;stroke:none"
             id="path9860" /></g><g
           id="g9862"
           transform="translate(416.4346,412.1914)"><path
             d="m 0,0 c -50.099,32.932 -116.613,21.218 -152.656,-25.472 l 12.202,-56.724 121.242,-79.699 56.364,11.654 C 65.721,-98.64 50.099,-32.933 0,0"
             style="fill:#f8e86a;fill-opacity:1;fill-rule:nonzero;stroke:none"
             id="path9864" /></g><g
           id="g9866"
           transform="translate(72.6348,369.8662)"><path
             d="M 0,0 C 0,51.204 23.878,97.904 63.131,133.282 48.926,131.312 34.787,127.154 21.182,120.63 -49.682,86.646 -79.686,1.347 -45.702,-69.517 c 0.029,-0.059 0.057,-0.12 0.087,-0.179 4.652,-9.666 16.341,-13.641 26.012,-9.002 l 32.266,15.472 C 4.455,-43.352 0,-22.097 0,0"
             style="fill:#423e4f;fill-opacity:1;fill-rule:nonzero;stroke:none"
             id="path9868" /></g><g
           id="g9870"
           transform="translate(257.501,410.9219)"><path
             d="m 0,0 c -5.885,12.271 -13.693,22.994 -22.89,31.987 -6.384,6.243 -16.276,6.963 -23.752,2.078 -50.711,-33.132 -102.722,-18.062 -150.256,-58.983 -13.481,-11.604 -19.626,-29.574 -16.007,-46.989 1.969,-9.475 5.196,-18.858 9.759,-27.932 27.302,-54.284 93.474,-77.354 148.614,-51.824 C 2.85,-125.096 27.256,-56.833 0,0"
             style="fill:#ffdcce;fill-opacity:1;fill-rule:nonzero;stroke:none"
             id="path9872" /></g><g
           id="g9874"
           transform="translate(393.4893,377.2842)"><path
             d="m 0,0 c 0,0 -50.688,-32.955 -129.711,9.436 -1.772,-2.295 -3.469,-4.676 -5.091,-7.143 -34.558,-52.573 -19.951,-123.193 32.614,-157.747 52.565,-34.553 123.188,-19.959 157.748,32.614 1.621,2.467 3.133,4.969 4.538,7.506 C -10.154,-59.6 0,0 0,0"
             style="fill:#da9d81;fill-opacity:1;fill-rule:nonzero;stroke:none"
             id="path9876" /></g><g
           id="g9878"
           transform="translate(107.8174,267.1553)"><path
             d="m 0,0 -18.394,-27.062 2.967,-68.817 50.264,-41.211 88.786,25.923 24.178,20.853 C 85.271,-76.646 32.553,-43.761 0,0"
             style="fill:#fd5f7e;fill-opacity:1;fill-rule:nonzero;stroke:none"
             id="path9880" /></g><g
           id="g9882"
           transform="translate(102.751,129.9219)"><path
             d="M 0,0 C -23.054,-75.987 59.536,-59.469 59.536,-59.469 L 99.281,36.599 C 99.281,36.599 23.053,75.988 0,0"
             style="fill:#423e4f;fill-opacity:1;fill-rule:nonzero;stroke:none"
             id="path9884" /></g><g
           id="g9886"
           transform="translate(399.4404,129.9219)"><path
             d="m 0,0 c -23.053,75.988 -99.281,36.599 -99.281,36.599 l 39.744,-96.068 c 0,0 82.59,-16.518 59.537,59.469"
             style="fill:#5c586f;fill-opacity:1;fill-rule:nonzero;stroke:none"
             id="path9888" /></g><g
           id="g9890"
           transform="translate(361.0869,42.248)"><path
             d="m 0,0 c 1.331,7.755 2.036,15.76 2.036,23.952 0,69.529 -50.156,125.895 -112.027,125.895 -61.871,0 -112.028,-56.366 -112.028,-125.895 0,-8.192 0.706,-16.197 2.036,-23.952 l 23.852,-34.748 h 172.278 z"
             style="fill:#e2e2e2;fill-opacity:1;fill-rule:nonzero;stroke:none"
             id="path9892" /></g><g
           id="g9894"
           transform="translate(124.6055,133.9902)"><path
             d="m 0,0 c -6.304,-6.044 -14.408,-9.056 -22.512,-9.056 -8.545,0 -17.08,3.342 -23.464,9.996 -21.712,22.622 -31.186,53.15 -27.775,82.686 l 38.569,22.477 27.368,-23.478 C -11.636,70.009 -8.585,55.9 0.94,45.985 13.378,33.028 12.957,12.437 0,0"
             style="fill:#ffdcce;fill-opacity:1;fill-rule:nonzero;stroke:none"
             id="path9896" /></g><g
           id="g9898"
           transform="translate(72.6348,369.8662)"><path
             d="m 0,0 c 0,9.068 0.763,17.991 2.213,26.739 -4.789,-3.054 -9.539,-6.55 -14.245,-10.601 -13.481,-11.605 -19.626,-29.575 -16.007,-46.99 1.97,-9.474 5.196,-18.857 9.76,-27.931 13.45,-26.743 36.338,-45.904 62.689,-55.416 C 16.424,-81.819 0,-42.459 0,0"
             style="fill:#ffcabd;fill-opacity:1;fill-rule:nonzero;stroke:none"
             id="path9900" /></g><g
           id="g9902"
           transform="translate(122.0146,227.3018)"><path
             d="m 0,0 c -2.361,-3.332 -4.103,-6.944 -5.224,-10.687 l -65.936,1.001 c 1.922,16.589 7.905,32.878 18.08,47.256 10.376,14.659 30.667,18.13 45.325,7.755 C 6.903,34.949 10.375,14.658 0,0"
             style="fill:#ff748f;fill-opacity:1;fill-rule:nonzero;stroke:none"
             id="path9904" /></g><g
           id="g9906"
           transform="translate(391.9492,91.8467)"><path
             d="m 0,0 c 5.961,-6.383 13.887,-9.837 21.979,-10.284 8.532,-0.471 17.238,2.394 23.979,8.686 22.927,21.39 34.071,51.348 32.295,81.028 L 40.982,104 12.361,82.068 C 15.481,69.26 11.656,55.342 1.599,45.967 -11.534,33.716 -12.251,13.132 0,0"
             style="fill:#da9d81;fill-opacity:1;fill-rule:nonzero;stroke:none"
             id="path9908" /></g><g
           id="g9910"
           transform="translate(399.6855,184.873)"><path
             d="m 0,0 c 2.174,-3.457 3.713,-7.16 4.625,-10.958 l 65.892,-2.639 C 69.514,3.073 64.438,19.667 55.071,34.585 45.52,49.793 25.451,54.379 10.243,44.828 -4.966,35.276 -9.552,15.208 0,0"
             style="fill:#00cd8c;fill-opacity:1;fill-rule:nonzero;stroke:none"
             id="path9912" /></g><g
           id="g9914"
           transform="translate(353.3516,43.417)"><path
             d="m 0,0 v 0 c 14.368,0 26.017,-11.648 26.017,-26.017 0,-5.467 -4.433,-9.9 -9.901,-9.9 h -32.233 c -5.468,0 -9.901,4.433 -9.901,9.9 C -26.018,-11.648 -14.369,0 0,0"
             style="fill:#d4d4d2;fill-opacity:1;fill-rule:nonzero;stroke:none"
             id="path9916" /></g><g
           id="g9918"
           transform="translate(173.8887,84.6074)"><path
             d="M 0,0 C 0,38.13 14.228,72.932 37.653,99.405 -4.697,81.439 -34.82,35.473 -34.82,-18.407 c 0,-8.193 0.705,-16.197 2.035,-23.953 L -8.933,-77.107 H 21.305 C 7.781,-54.571 0,-28.196 0,0"
             style="fill:#d4d4d2;fill-opacity:1;fill-rule:nonzero;stroke:none"
             id="path9920" /></g><g
           id="g9922"
           transform="translate(148.8398,43.417)"><path
             d="m 0,0 v 0 c -14.369,0 -26.017,-11.648 -26.017,-26.017 0,-5.467 4.433,-9.9 9.901,-9.9 h 32.232 c 5.468,0 9.901,4.433 9.901,9.9 C 26.017,-11.648 14.369,0 0,0"
             style="fill:#e2e2e2;fill-opacity:1;fill-rule:nonzero;stroke:none"
             id="path9924" /></g><g
           id="g9926"
           transform="translate(108.7363,338.2852)"><path
             d="M 0,0 4.351,-9.072"
             style="fill:none;stroke:#000000;stroke-width:15;stroke-linecap:round;stroke-linejoin:round;stroke-miterlimit:10;stroke-dasharray:none;stroke-opacity:1"
             id="path9928" /></g><g
           id="g9930"
           transform="translate(203.167,383.5713)"><path
             d="M 0,0 4.351,-9.073"
             style="fill:none;stroke:#000000;stroke-width:15;stroke-linecap:round;stroke-linejoin:round;stroke-miterlimit:10;stroke-dasharray:none;stroke-opacity:1"
             id="path9932" /></g><g
           id="g9934"
           transform="translate(147.7246,346.1562)"><path
             d="m 0,0 c 4.692,-2.022 10.199,-2.085 15.168,0.298 4.969,2.383 8.367,6.717 9.728,11.64"
             style="fill:none;stroke:#000000;stroke-width:15;stroke-linecap:round;stroke-linejoin:round;stroke-miterlimit:10;stroke-dasharray:none;stroke-opacity:1"
             id="path9936" /></g><g
           id="g9938"
           transform="translate(304.9111,321.8457)"><path
             d="m 0,0 c 3.81,5.795 2.199,13.58 -3.596,17.39 -5.795,3.808 -13.58,2.199 -17.389,-3.596"
             style="fill:none;stroke:#000000;stroke-width:15;stroke-linecap:round;stroke-linejoin:round;stroke-miterlimit:10;stroke-dasharray:none;stroke-opacity:1"
             id="path9940" /></g><g
           id="g9942"
           transform="translate(377.7187,273.9863)"><path
             d="M 0,0 C 3.809,5.795 11.595,7.404 17.39,3.595 23.185,-0.215 24.794,-8 20.984,-13.795"
             style="fill:none;stroke:#000000;stroke-width:15;stroke-linecap:round;stroke-linejoin:round;stroke-miterlimit:10;stroke-dasharray:none;stroke-opacity:1"
             id="path9944" /></g><g
           id="g9946"
           transform="translate(322.123,292.9678)"><path
             d="m 0,0 c 0.665,-4.884 3.354,-9.466 7.797,-12.387 4.442,-2.92 9.716,-3.571 14.463,-2.245"
             style="fill:none;stroke:#000000;stroke-width:15;stroke-linecap:round;stroke-linejoin:round;stroke-miterlimit:10;stroke-dasharray:none;stroke-opacity:1"
             id="path9948" /></g><g
           id="g9950"
           transform="translate(260.9463,109.2695)"><path
             d="m 0,0 h -19.704 c -5.183,0 -7.186,-6.801 -2.8,-9.561 3.338,-2.099 7.777,-3.38 12.652,-3.38 4.874,0 9.315,1.281 12.652,3.38 C 7.187,-6.801 5.183,0 0,0"
             style="fill:#000000;fill-opacity:1;fill-rule:nonzero;stroke:none"
             id="path9952" /></g><g
           id="g9954"
           transform="translate(193.6328,104.5781)"><path
             d="M 0,0 V -11.025"
             style="fill:none;stroke:#000000;stroke-width:15;stroke-linecap:round;stroke-linejoin:round;stroke-miterlimit:10;stroke-dasharray:none;stroke-opacity:1"
             id="path9956" /></g><g
           id="g9958"
           transform="translate(308.3828,104.5781)"><path
             d="M 0,0 V -11.025"
             style="fill:none;stroke:#000000;stroke-width:15;stroke-linecap:round;stroke-linejoin:round;stroke-miterlimit:10;stroke-dasharray:none;stroke-opacity:1"
             id="path9960" /></g><g
           id="g9962"
           transform="translate(251.1748,84.9785)"><path
             d="m 0,0 c 0,-7.336 -5.946,-13.281 -13.281,-13.281 -7.335,0 -13.281,5.945 -13.281,13.281"
             style="fill:none;stroke:#000000;stroke-width:15;stroke-linecap:round;stroke-linejoin:miter;stroke-miterlimit:10;stroke-dasharray:none;stroke-opacity:1"
             id="path9964" /></g><g
           id="g9966"
           transform="translate(277.7373,84.9785)"><path
             d="m 0,0 c 0,-7.336 -5.946,-13.281 -13.281,-13.281 -7.335,0 -13.281,5.945 -13.281,13.281"
             style="fill:none;stroke:#000000;stroke-width:15;stroke-linecap:round;stroke-linejoin:miter;stroke-miterlimit:10;stroke-dasharray:none;stroke-opacity:1"
             id="path9968" /></g><g
           id="g9970"
           transform="translate(36.5986,440.584)"><path
             d="m 0,0 c -26.649,-40.438 -32.09,-93.477 -9.667,-140.234 0.029,-0.06 0.058,-0.12 0.086,-0.18 4.652,-9.666 16.341,-13.641 26.014,-9.002 l 10.36,4.969 c -3.349,4.676 -6.379,9.661 -9.037,14.946 -4.564,9.074 -7.791,18.457 -9.76,27.932 -3.619,17.414 2.526,35.384 16.006,46.989 47.535,40.921 99.547,25.851 150.257,58.983 7.476,4.885 17.367,4.165 23.753,-2.078 9.196,-8.993 17.005,-19.717 22.889,-31.987 2.886,-6.017 5.181,-12.164 6.93,-18.375 l 7.483,3.59 c 3.854,4 7.956,7.672 12.267,11.006 2.268,5.02 2.421,10.946 -0.133,16.29 -0.028,0.059 -0.057,0.12 -0.086,0.179 C 213.378,53.892 128.079,83.896 57.217,49.912 42.764,42.98 30.013,33.914 19.155,23.271"
             style="fill:none;stroke:#000000;stroke-width:15;stroke-linecap:round;stroke-linejoin:round;stroke-miterlimit:10;stroke-dasharray:none;stroke-opacity:1"
             id="path9972" /></g><g
           id="g9974"
           transform="translate(242.8945,291.3906)"><path
             d="m 0,0 c 0.078,-0.34 0.15,-0.682 0.232,-1.021 -10.503,-12.878 -24.028,-23.642 -40.159,-31.111 -24.489,-11.339 -51.154,-13.088 -75.623,-6.775 1.697,-8.464 0.05,-17.58 -5.332,-25.182 -2.361,-3.332 -4.101,-6.944 -5.222,-10.686 -3.823,-12.618 -0.771,-26.725 8.754,-36.64 2.827,-2.945 4.982,-6.287 6.484,-9.835 19.98,10.859 43.605,6.053 57.668,1.368 15.972,11.785 34.785,19.106 55.037,20.379 10.718,20.888 23.558,33.688 32.546,40.796 C 16.78,-42.758 5.104,-22.122 0,0 Z"
             style="fill:none;stroke:#000000;stroke-width:15;stroke-linecap:round;stroke-linejoin:round;stroke-miterlimit:10;stroke-dasharray:none;stroke-opacity:1"
             id="path9976" /></g><g
           id="g9978"
           transform="translate(257.5,410.9219)"><path
             d="m 0,0 c -5.885,12.271 -13.693,22.994 -22.89,31.987 -6.385,6.243 -16.276,6.963 -23.753,2.078 -50.71,-33.132 -102.721,-18.062 -150.256,-58.983 -13.48,-11.604 -19.625,-29.575 -16.006,-46.989 1.968,-9.475 5.196,-18.858 9.759,-27.932 7.003,-13.926 16.57,-25.79 27.847,-35.314 10.141,4.523 22.337,3.738 32.058,-3.143 7.054,-4.993 11.51,-12.285 13.085,-20.14 24.47,-6.311 51.134,-4.566 75.624,6.773 16.131,7.469 29.655,18.232 40.159,31.11 -7.101,29.533 -2.444,61.82 15.56,89.208 1.621,2.467 3.318,4.848 5.09,7.143 0.542,0.702 1.091,1.395 1.647,2.081 C 6.091,-14.635 3.465,-7.225 0,0 Z"
             style="fill:none;stroke:#000000;stroke-width:15;stroke-linecap:round;stroke-linejoin:round;stroke-miterlimit:10;stroke-dasharray:none;stroke-opacity:1"
             id="path9980" /></g><g
           id="g9982"
           transform="translate(122.0127,227.3018)"><path
             d="m 0,0 c -2.361,-3.332 -4.102,-6.944 -5.223,-10.687 l -65.936,1.001 c 1.921,16.589 7.904,32.878 18.08,47.256 10.376,14.659 30.667,18.13 45.325,7.754 C 6.904,34.949 10.376,14.658 0,0 Z"
             style="fill:none;stroke:#000000;stroke-width:15;stroke-linecap:round;stroke-linejoin:round;stroke-miterlimit:10;stroke-dasharray:none;stroke-opacity:1"
             id="path9984" /></g><g
           id="g9986"
           transform="translate(125.5449,179.9756)"><path
             d="m 0,0 c -9.525,9.915 -12.577,24.022 -8.755,36.64 l -65.936,1.001 c -3.413,-29.537 6.063,-60.064 27.775,-82.686 6.384,-6.654 14.918,-9.996 23.463,-9.996 8.104,0 16.209,3.012 22.513,9.056 C 12.017,-33.549 12.437,-12.958 0,0 Z"
             style="fill:none;stroke:#000000;stroke-width:15;stroke-linecap:round;stroke-linejoin:round;stroke-miterlimit:10;stroke-dasharray:none;stroke-opacity:1"
             id="path9988" /></g><g
           id="g9990"
           transform="translate(189.6943,171.5078)"><path
             d="m 0,0 c -14.062,4.684 -37.687,9.497 -57.668,-1.362 5.11,-12.065 2.592,-26.544 -7.422,-36.156 -6.304,-6.044 -14.408,-9.055 -22.513,-9.055 -0.24,0 -0.48,0.012 -0.72,0.017 -11.386,-44.484 16.055,-54.483 37.728,-55.835 C -49.728,-59.548 -29.814,-21.998 0,0 Z"
             style="fill:none;stroke:#000000;stroke-width:15;stroke-linecap:round;stroke-linejoin:round;stroke-miterlimit:10;stroke-dasharray:none;stroke-opacity:1"
             id="path9992" /></g><g
           id="g9994"
           transform="translate(148.8389,43.417)"><path
             d="m 0,0 v 0 c -14.369,0 -26.017,-11.648 -26.017,-26.017 0,-5.467 4.432,-9.9 9.9,-9.9 h 32.233 c 5.468,0 9.901,4.433 9.901,9.9 C 26.017,-11.648 14.368,0 0,0 Z"
             style="fill:none;stroke:#000000;stroke-width:15;stroke-linecap:round;stroke-linejoin:round;stroke-miterlimit:10;stroke-dasharray:none;stroke-opacity:1"
             id="path9996" /></g><g
           id="g9998"
           transform="translate(327.333,17.4004)"><path
             d="m 0,0 v 0 c 0,14.368 11.648,26.017 26.017,26.017 2.694,0 5.292,-0.41 7.736,-1.169 1.331,7.755 2.035,15.759 2.035,23.952 0,69.529 -50.156,125.894 -112.027,125.894 -61.87,0 -112.027,-56.365 -112.027,-125.894 0,-8.193 0.704,-16.197 2.036,-23.952 v -10e-4 c 2.444,0.76 5.042,1.17 7.736,1.17 14.368,0 26.016,-11.649 26.016,-26.017 0,-5.468 -4.432,-9.9 -9.9,-9.9 L 9.9,-9.9 C 4.433,-9.9 0,-5.468 0,0 Z"
             style="fill:none;stroke:#000000;stroke-width:15;stroke-linecap:round;stroke-linejoin:round;stroke-miterlimit:10;stroke-dasharray:none;stroke-opacity:1"
             id="path10000" /></g><g
           id="g10002"
           transform="translate(353.3496,43.417)"><path
             d="m 0,0 v 0 c 14.369,0 26.018,-11.648 26.018,-26.017 0,-5.467 -4.433,-9.9 -9.901,-9.9 h -32.233 c -5.468,0 -9.901,4.433 -9.901,9.9 C -26.017,-11.648 -14.368,0 0,0 Z"
             style="fill:none;stroke:#000000;stroke-width:15;stroke-linecap:round;stroke-linejoin:round;stroke-miterlimit:10;stroke-dasharray:none;stroke-opacity:1"
             id="path10004" /></g><g
           id="g10006"
           transform="translate(413.1543,305.6416)"><path
             d="M 0,0 C 9.002,-14.059 21.924,-29.009 40.432,-43.691 69,7.91 53.378,73.617 3.279,106.55 c -50.098,32.931 -116.614,21.217 -152.656,-25.472 79.023,-42.39 129.71,-9.435 129.71,-9.435 0,0 -3.187,-18.725 6.38,-44.997"
             style="fill:none;stroke:#000000;stroke-width:15;stroke-linecap:round;stroke-linejoin:round;stroke-miterlimit:10;stroke-dasharray:none;stroke-opacity:1"
             id="path10008" /></g><g
           id="g10010"
           transform="translate(399.8379,421.2393)"><path
             d="m 0,0 10.909,16.597 c 3.677,5.593 9.825,8.57 16.058,8.471 L 26.975,25.081 16.52,49.808 C 8.718,68.258 -15.548,73.175 -29.434,58.737 -38.921,48.874 -46.1,33.513 -44.009,9.671 l 10e-4,-10e-4 c 14.819,-0.242 29.71,-3.389 43.807,-9.597 z"
             style="fill:none;stroke:#000000;stroke-width:15;stroke-linecap:round;stroke-linejoin:round;stroke-miterlimit:10;stroke-dasharray:none;stroke-opacity:1"
             id="path10012" /></g><g
           id="g10014"
           transform="translate(431.4736,400.3838)"><path
             d="m 0,0 c 11.286,-10.479 20.078,-22.899 26.175,-36.405 h 0.002 c 22.716,7.535 33.97,20.217 39.263,32.837 7.748,18.472 -6.389,38.799 -26.419,38.645 L 12.175,34.87 12.167,34.857 c 2.562,-5.682 2.268,-12.506 -1.41,-18.1 L -0.152,0.16 Z"
             style="fill:none;stroke:#000000;stroke-width:15;stroke-linecap:round;stroke-linejoin:round;stroke-miterlimit:10;stroke-dasharray:none;stroke-opacity:1"
             id="path10016" /></g><g
           id="g10018"
           transform="translate(416.4336,412.1914)"><path
             d="M 0,0 C 5.362,-3.525 10.327,-7.429 14.888,-11.647 L 25.797,4.949 c 5.715,8.694 3.3,20.374 -5.394,26.089 -8.694,5.715 -20.375,3.3 -26.09,-5.393 L -16.596,9.048 C -10.915,6.534 -5.363,3.525 0,0 Z"
             style="fill:none;stroke:#000000;stroke-width:15;stroke-linecap:round;stroke-linejoin:round;stroke-miterlimit:10;stroke-dasharray:none;stroke-opacity:1"
             id="path10020" /></g><g
           id="g10022"
           transform="translate(404.3096,173.915)"><path
             d="m 0,0 c -0.913,3.798 -2.452,7.5 -4.626,10.957 -5.125,8.161 -6.174,17.72 -3.701,26.303 -33.355,-13.239 -72.419,-10.553 -104.682,10.655 -5.024,3.303 -9.698,6.937 -14.018,10.851 -8.988,-7.109 -21.828,-19.9 -32.549,-40.793 2.105,0.132 4.225,0.207 6.36,0.207 22.671,0 43.765,-7.576 61.399,-20.586 21.099,7.028 63.73,14.344 83.27,-31.424 C -0.167,-24.563 2.878,-11.814 0,0 Z"
             style="fill:none;stroke:#000000;stroke-width:15;stroke-linecap:round;stroke-linejoin:round;stroke-miterlimit:10;stroke-dasharray:none;stroke-opacity:1"
             id="path10024" /></g><g
           id="g10026"
           transform="translate(399.8672,332.2881)"><path
             d="m 0,0 c -9.566,26.271 -6.38,44.996 -6.38,44.996 0,0 -50.686,-32.955 -129.71,9.436 -1.772,-2.295 -3.47,-4.676 -5.091,-7.143 -34.558,-52.573 -19.951,-123.193 32.615,-157.747 32.262,-21.208 71.327,-23.895 104.681,-10.655 2.136,7.413 6.897,14.099 13.945,18.526 6.902,4.335 14.804,5.748 22.271,4.587 6.246,5.925 11.916,12.652 16.849,20.156 1.622,2.467 3.134,4.969 4.539,7.506 -18.508,14.683 -31.43,29.633 -40.432,43.692"
             style="fill:none;stroke:#000000;stroke-width:15;stroke-linecap:round;stroke-linejoin:round;stroke-miterlimit:10;stroke-dasharray:none;stroke-opacity:1"
             id="path10028" /></g><g
           id="g10030"
           transform="translate(399.6836,184.8721)"><path
             d="m 0,0 c 2.174,-3.456 3.713,-7.159 4.626,-10.957 l 65.891,-2.639 C 69.514,3.074 64.438,19.668 55.071,34.586 45.521,49.794 25.451,54.38 10.243,44.829 -4.965,35.277 -9.551,15.209 0,0 Z"
             style="fill:none;stroke:#000000;stroke-width:15;stroke-linecap:round;stroke-linejoin:round;stroke-miterlimit:10;stroke-dasharray:none;stroke-opacity:1"
             id="path10032" /></g><g
           id="g10034"
           transform="translate(391.9482,91.8457)"><path
             d="m 0,0 c -12.251,13.133 -11.535,33.717 1.598,45.968 0.781,0.727 1.51,1.492 2.216,2.271 -19.54,45.768 -62.17,38.452 -83.27,31.424 29.817,-21.999 49.731,-59.554 50.597,-102.399 12.973,0.804 28.015,4.709 35.563,17.248 C 4.29,-3.997 2.029,-2.172 0,0 Z"
             style="fill:none;stroke:#000000;stroke-width:15;stroke-linecap:round;stroke-linejoin:round;stroke-miterlimit:10;stroke-dasharray:none;stroke-opacity:1"
             id="path10036" /></g><g
           id="g10038"
           transform="translate(470.2002,171.2764)"><path
             d="m 0,0 -65.891,2.639 c 3.12,-12.809 -0.705,-26.727 -10.763,-36.102 -13.133,-12.251 -13.849,-32.835 -1.598,-45.968 5.96,-6.382 13.887,-9.836 21.979,-10.283 8.532,-0.471 17.238,2.395 23.978,8.687 C -9.367,-59.638 1.777,-29.68 0,0 Z"
             style="fill:none;stroke:#000000;stroke-width:15;stroke-linecap:round;stroke-linejoin:round;stroke-miterlimit:10;stroke-dasharray:none;stroke-opacity:1"
             id="path10040" /></g></g></g></g></svg>
