<svg id="Capa_1" enable-background="new 0 0 512 512" height="512" viewBox="0 0 512 512" width="512" xmlns="http://www.w3.org/2000/svg"><g><path d="m212.335 318.44h-10.623c-4.779 0-8.996-2.37-11.566-5.992-1.032 1.718-2.39 3.248-4.06 4.453l-25.038 18.066c-5.24 3.781-12.313 3.781-17.554 0l-25.038-18.066c-3.908-2.82-6.223-7.345-6.223-12.164v-16.756l-82.21 31.367c-13.562 5.176-22.523 18.185-22.523 32.701v125.408c0 2.761 2.239 5 5 5h152.96v-75.616c0-10.369 6.4-19.661 16.088-23.357l59.812-25.882v-6.103s.001 0 .001.001c-14.062-5.989-24.859-18.14-29.026-33.06z" fill="#80d261"/><g><g><path d="m36.46 337.134c0-9.027 3.469-17.469 9.351-23.809l-15.788 6.024c-13.562 5.175-22.523 18.184-22.523 32.7v125.408c0 2.761 2.239 5 5 5h23.96z" fill="#4fc123"/></g></g><g><path d="m52.77 310.67v171.788h34.23v-184.849z" fill="#fed402"/></g><path d="m152.27 286.994c-14.544 0-28.194-3.803-40.038-10.444v28.188c0 4.819 2.315 9.344 6.223 12.164l25.038 18.066c5.24 3.781 12.314 3.781 17.554 0l25.038-18.066c3.908-2.82 6.223-7.345 6.223-12.164v-28.188c-11.843 6.641-25.493 10.444-40.038 10.444z" fill="#ea9b58"/><path d="m139.223 306.811c-3.908-2.82-6.223-7.345-6.223-12.164v-9.952c-7.36-1.773-14.331-4.535-20.767-8.144v28.188c0 4.819 2.315 9.344 6.223 12.164l25.038 18.066c5.24 3.781 12.314 3.781 17.554 0l10.216-7.371c-2.472-.294-4.887-1.193-7.003-2.72z" fill="#d88a55"/><g><g fill="#554e56"><path d="m242.584 158.924c7.924 0 14.727 4.753 17.746 11.558v-36.312h-26.058v24.754z"/><path d="m61.957 158.924h8.313v-24.754h-26.059v36.312c3.018-6.805 9.822-11.558 17.746-11.558z"/></g><g fill="#ea9b58"><path d="m234.271 186.266c7.867-3.501 16.573-5.457 25.739-5.457h1.99v-2.469c0-10.723-8.693-19.416-19.416-19.416h-8.313z"/><path d="m70.269 187.217v-28.293h-8.313c-10.723 0-19.416 8.693-19.416 19.416v15.785c0 10.723 8.693 19.416 19.416 19.416h13.385c-3.26-8.14-5.072-17.018-5.072-26.324z"/></g><path d="m196.622 249.814c-9.908 5.268-21.207 8.263-33.211 8.263h-22.283c-39.135 0-70.86-31.725-70.86-70.86v17.776c0 45.288 36.713 82.001 82.001 82.001 16.347 0 31.563-4.802 44.352-13.046v-24.134z" fill="#554e56"/><path d="m196.622 244.197c0-3.357.263-6.653.766-9.869 3.367-21.539 17.586-39.474 36.883-48.061v-52.096h-164.002v53.047c0 39.135 31.725 70.86 70.86 70.86h22.283c12.003 0 23.303-2.995 33.211-8.263v-5.618z" fill="#ea9b58"/><path d="m101.998 187.217v-53.047h-31.729v53.047c0 39.135 31.725 70.86 70.86 70.86h22.283c1.589 0 3.16-.071 4.723-.174-36.931-2.433-66.137-33.14-66.137-70.686z" fill="#d88a55"/><g><path d="m45.351 109.191c-.748 4.787-1.14 9.691-1.14 14.688v10.291h216.119v-10.29c0-4.997-.392-9.902-1.14-14.688h-213.839z" fill="#fef1da"/></g><g><path d="m87.14 109.191h-41.789c-.748 4.787-1.14 9.692-1.14 14.688v10.291h41.789v-10.29c0-4.997.392-9.902 1.14-14.689z" fill="#fae2c0"/></g><g><path d="m45.351 109.191h213.838c-7.055-45.125-46.093-79.649-93.197-79.649h-27.444c-47.104 0-86.142 34.525-93.197 79.649z" fill="#fdf6ec"/></g><g><path d="m173.176 29.834c-2.373-.179-4.765-.292-7.184-.292h-27.444c-47.104 0-86.142 34.525-93.197 79.649h41.811c6.693-42.807 42.174-76.053 86.014-79.357z" fill="#fef1da"/></g></g><g><g><path d="m486.498 328.328-1.275-.556c-12.243 54.446-52.043 94.343-99.26 94.343-4.391 0-8.716-.346-12.963-1.016v61.359h126.5c2.761 0 5-2.239 5-5v-121.633c0-11.93-7.068-22.726-18.002-27.497z" fill="#fd4755"/></g><path d="m491.276 228.89v-57.227c0-57.267-46.854-104.121-104.121-104.121h-2.385c-57.267 0-104.121 46.854-104.121 104.121v9.196c30.659 1.047 55.793 23.854 60.423 53.468.503 3.216.766 6.512.766 9.869v36.05c5.316 2.047 9.095 7.19 9.095 13.228v10.78c0 7.834-6.351 14.185-14.185 14.185h-10.623c-4.168 14.919-14.963 27.07-29.025 33.059v6.104l59.811 25.881c9.689 3.697 16.089 12.99 16.089 23.358v14.258c4.246.67 8.572 1.016 12.963 1.016 47.292 0 87.145-40.024 99.32-94.602.449-2.012-.469-4.082-2.276-5.073l-11.625-6.378c-7.577-4.157-9.619-14.223-4.1-20.875 14.969-18.041 23.994-41.165 23.994-66.297z" fill="#fd8087"/><g><path d="m309.179 188.757v-14.413c0-12.87 6.795-24.149 16.989-30.459 10.509-37.7 41.828-66.955 80.656-74.457-6.375-1.232-12.949-1.885-19.67-1.885h-2.385c-57.267 0-104.121 46.854-104.121 104.121v9.196c10.331.352 20.029 3.174 28.531 7.897z" fill="#fe646f"/></g><path d="m426.945 146.315h-81.965c-19.772 0-35.801 16.029-35.801 35.801v6.641c16.732 9.295 28.823 25.934 31.893 45.571.503 3.216.766 6.512.766 9.869v30.8c12.486 8.786 27.696 13.963 44.124 13.963 42.406 0 76.784-34.377 76.784-76.784v-30.06c0-19.773-16.028-35.801-35.801-35.801z" fill="#ea9b58"/><path d="m340.433 212.176v-30.06c0-6.707 1.849-12.981 5.058-18.347h-.51c-16.299 0-30.045 10.896-34.374 25.798-.022-.013-.054-.015-.086-.016 16.029 9.428 27.565 25.673 30.552 44.776.503 3.216.766 6.512.766 9.869v30.8c12.486 8.786 27.696 13.963 44.124 13.963 5.355 0 10.581-.552 15.627-1.595-34.913-7.219-61.157-38.137-61.157-75.188z" fill="#d88a55"/><path d="m426.945 138.542h-81.965c-19.772 0-35.801 16.029-35.801 35.801v14.413c.479.266.956.533 1.427.811 4.33-14.902 18.075-25.798 34.374-25.798h81.965c19.773 0 35.801 16.029 35.801 35.801v-25.227c0-19.772-16.028-35.801-35.801-35.801z" fill="#fff"/><path d="m310.6 189.564c4.063-13.976 16.416-24.419 31.384-25.661 4.469-14.679 18.11-25.362 34.25-25.362h-31.254c-19.772 0-35.801 16.029-35.801 35.801v14.413c.477.266.952.533 1.421.809z" fill="#f3f0f3"/><g><g><path d="m356.912 383.484-59.811-25.881v16.717c0 3.277-1.486 6.378-4.041 8.431l-17.055 13.705c-3.957 3.18-9.592 3.18-13.549 0l-17.055-13.705c-2.555-2.053-4.041-5.153-4.041-8.431v-16.717l-59.812 25.882c-9.688 3.696-16.088 12.989-16.088 23.357v75.616h207.54v-75.616c0-10.369-6.4-19.662-16.088-23.358z" fill="#26a6fe"/><path d="m262.456 396.455-17.055-13.705c-2.555-2.053-4.041-5.153-4.041-8.431v-16.717l-59.812 25.882c-9.688 3.696-16.088 12.989-16.088 23.357v75.616h103.77v-83.619c-2.398.001-4.796-.794-6.774-2.383z" fill="#60b7ff"/><g><path d="m197 388.926c0-4.552 1.235-8.895 3.438-12.649l-18.89 7.207c-9.688 3.696-16.088 12.989-16.088 23.358v75.616h31.54z" fill="#26a6fe"/></g><path d="m277.216 355.542h-15.972c-7.057 0-13.777-1.442-19.884-4.043v22.82c0 3.277 1.486 6.378 4.041 8.431l17.055 13.705c3.957 3.18 9.592 3.18 13.549 0l17.055-13.705c2.555-2.053 4.041-5.153 4.041-8.431v-22.82c-6.107 2.601-12.827 4.043-19.885 4.043z" fill="#d88a55"/><path d="m262.259 374.319v-18.777h-1.015c-7.057 0-13.777-1.442-19.884-4.043v22.82c0 3.277 1.486 6.378 4.041 8.431l17.055 13.705c3.957 3.18 9.592 3.18 13.549 0l3.675-2.953-13.38-10.752c-2.555-2.053-4.041-5.154-4.041-8.431z" fill="#c57a44"/><g><path d="m201.712 279.291h8.741v-1.431c0-9.836 7.973-17.809 17.809-17.809h81.938c9.836 0 17.809 7.973 17.809 17.809v1.431h8.741c1.796 0 3.508.348 5.089.957v-36.05c0-3.357-.263-6.653-.766-9.869h-143.684c-.503 3.216-.766 6.512-.766 9.869v36.05c1.581-.61 3.293-.957 5.089-.957z" fill="#554e56"/><path d="m201.712 279.291h8.741v-1.431c0-9.836 7.973-17.809 17.809-17.809h9.738v-15.854c0-3.357.263-6.653.766-9.869h-41.378c-.503 3.216-.766 6.512-.766 9.869v36.05c1.582-.609 3.294-.956 5.09-.956z" fill="#433f43"/><g fill="#ea9b58"><path d="m210.453 304.75v-25.46h-8.741c-7.834 0-14.185 6.351-14.185 14.184v10.78c0 7.834 6.351 14.185 14.185 14.185h10.623c-1.218-4.356-1.882-8.943-1.882-13.689z"/><path d="m336.749 279.291h-8.741v25.46c0 4.745-.665 9.333-1.882 13.69h10.623c7.834 0 14.185-6.351 14.185-14.185v-10.78c-.001-7.835-6.351-14.185-14.185-14.185z"/></g><g><path d="m277.216 355.542h-15.972c-28.051 0-50.792-22.74-50.792-50.792v-26.891c0-9.836 7.973-17.809 17.809-17.809h81.938c9.836 0 17.809 7.973 17.809 17.809v26.891c0 28.052-22.74 50.792-50.792 50.792z" fill="#ea9b58"/></g><g><path d="m242 304.75v-26.891c0-9.836 7.973-17.809 17.809-17.809h-31.547c-9.836 0-17.809 7.973-17.809 17.809v26.891c0 28.051 22.74 50.792 50.792 50.792h15.972c2.648 0 5.249-.204 7.788-.595-24.355-3.747-43.005-24.793-43.005-50.197z" fill="#d88a55"/></g></g></g><g><path d="m197.389 234.328h143.683c-4.741-30.32-30.971-53.518-62.622-53.518h-18.44c-31.65-.001-57.881 23.197-62.621 53.518z" fill="#fff"/></g><g><path d="m290.194 181.898c-3.806-.713-7.731-1.089-11.744-1.089h-18.44c-31.651 0-57.881 23.198-62.621 53.519h41.928c4.139-26.476 24.666-47.518 50.877-52.43z" fill="#f3f0f3"/></g></g></g><g><path d="m149.457 207.479h9.647c6.352 0 11.52-5.168 11.52-11.52v-6.432c0-4.143-3.358-7.5-7.5-7.5s-7.5 3.357-7.5 7.5v2.951h-6.167c-.297 0-.54-.242-.54-.539v-23.431c0-4.143-3.358-7.5-7.5-7.5s-7.5 3.357-7.5 7.5v23.431c0 8.569 6.971 15.54 15.54 15.54z"/><path d="m108.456 180.888c4.142 0 7.5-3.357 7.5-7.5v-11.193c0-4.143-3.358-7.5-7.5-7.5s-7.5 3.357-7.5 7.5v11.193c0 4.142 3.358 7.5 7.5 7.5z"/><path d="m196.084 180.888c4.142 0 7.5-3.357 7.5-7.5v-11.193c0-4.143-3.358-7.5-7.5-7.5s-7.5 3.357-7.5 7.5v11.193c0 4.142 3.358 7.5 7.5 7.5z"/><path d="m152.27 235.667c11.264 0 22.527-4.287 31.102-12.861 2.929-2.93 2.929-7.678 0-10.607-2.929-2.928-7.678-2.928-10.606 0-11.301 11.302-29.688 11.304-40.991 0-2.929-2.928-7.678-2.928-10.606 0-2.929 2.93-2.929 7.678 0 10.607 8.574 8.574 19.838 12.861 31.101 12.861z"/><path d="m385.856 232.88h8.228c4.142 0 7.5-3.357 7.5-7.5s-3.358-7.5-7.5-7.5h-7.584v-19.338c0-4.143-3.358-7.5-7.5-7.5s-7.5 3.357-7.5 7.5v19.982c0 7.916 6.44 14.356 14.356 14.356z"/><path d="m359.425 200.481v-10.482c0-4.143-3.358-7.5-7.5-7.5s-7.5 3.357-7.5 7.5v10.482c0 4.143 3.358 7.5 7.5 7.5s7.5-3.357 7.5-7.5z"/><path d="m420 182.499c-4.142 0-7.5 3.357-7.5 7.5v10.482c0 4.143 3.358 7.5 7.5 7.5s7.5-3.357 7.5-7.5v-10.482c0-4.143-3.358-7.5-7.5-7.5z"/><path d="m404.816 240.154c-10.396 10.396-27.311 10.396-37.708 0-2.929-2.928-7.678-2.928-10.606 0-2.929 2.93-2.929 7.678 0 10.607 8.122 8.122 18.791 12.183 29.46 12.183s21.338-4.061 29.46-12.183c2.929-2.93 2.929-7.678 0-10.607-2.928-2.927-7.677-2.927-10.606 0z"/><path d="m267.646 309.7h6.482c4.142 0 7.5-3.357 7.5-7.5s-3.358-7.5-7.5-7.5h-4.383v-8.158c0-4.143-3.358-7.5-7.5-7.5s-7.5 3.357-7.5 7.5v10.257c0 7.114 5.788 12.901 12.901 12.901z"/><path d="m245.325 285.495c0-4.143-3.358-7.5-7.5-7.5s-7.5 3.357-7.5 7.5v8.024c0 4.143 3.358 7.5 7.5 7.5s7.5-3.357 7.5-7.5z"/><path d="m300.636 277.995c-4.142 0-7.5 3.357-7.5 7.5v8.024c0 4.143 3.358 7.5 7.5 7.5s7.5-3.357 7.5-7.5v-8.024c0-4.142-3.358-7.5-7.5-7.5z"/><path d="m282.419 315.572c-7.273 7.273-19.106 7.273-26.378 0-2.929-2.928-7.678-2.928-10.606 0-2.929 2.93-2.929 7.678 0 10.607 6.561 6.561 15.178 9.841 23.796 9.841 8.617 0 17.235-3.28 23.795-9.841 2.929-2.93 2.929-7.678 0-10.607-2.929-2.927-7.678-2.927-10.607 0z"/><path d="m492.308 322.834c-.924-2.905-2.912-5.445-5.693-6.97l-11.624-6.378c-1.688-.926-2.862-2.543-3.223-4.438-.204-1.07-.308-3.152 1.286-5.073 16.586-19.991 25.721-45.236 25.721-71.086v-11.348c0-4.143-3.358-7.5-7.5-7.5s-7.5 3.357-7.5 7.5v11.348c0 22.359-7.907 44.203-22.265 61.508-4.032 4.86-5.665 11.223-4.478 17.457 1.201 6.308 5.116 11.695 10.742 14.782l9.707 5.326c-12.185 51.128-49.574 86.652-91.52 86.652-1.831 0-3.651-.087-5.462-.226v-7.548c0-13.331-8.332-25.486-20.75-30.302l-51.697-22.37c10.551-6.612 18.854-16.494 23.451-28.23h5.245c11.957 0 21.685-9.728 21.685-21.685v-10.78c0-.562-.029-1.116-.071-1.667 8.651 3.01 17.937 4.652 27.6 4.652 46.474 0 84.283-37.81 84.283-84.283v-37.832c0-23.877-19.425-43.302-43.301-43.302h-81.964c-23.876 0-43.301 19.425-43.301 43.302v2.897c-4.381-1.519-8.909-2.622-13.53-3.26v-2.317c0-53.277 43.344-96.621 96.621-96.621h2.384c53.277 0 96.621 43.344 96.621 96.621v10.879c0 4.143 3.358 7.5 7.5 7.5s7.5-3.357 7.5-7.5v-10.879c0-61.548-50.073-111.621-111.621-111.621h-2.384c-61.548 0-111.621 50.073-111.621 111.621v1.646h-4.131c-.281-1.479-.675-2.918-1.188-4.301v-45.128c0-5.292-.414-10.622-1.23-15.844 0-.001 0-.003 0-.004-2.652-16.958-9.671-33.121-20.3-46.743-2.549-3.264-7.262-3.849-10.527-1.299-3.266 2.548-3.847 7.262-1.299 10.527 7.232 9.268 12.504 19.912 15.486 31.174h-195.383c4.442-16.824 13.924-32.059 27.256-43.569 15.744-13.594 35.886-21.08 56.716-21.08h27.444c15.605 0 30.911 4.19 44.262 12.117 3.562 2.114 8.164.941 10.278-2.62 2.115-3.562.942-8.163-2.62-10.278-15.667-9.302-33.621-14.219-51.92-14.219h-27.444c-24.428 0-48.051 8.781-66.519 24.726-18.272 15.777-30.378 37.534-34.089 61.266-.816 5.223-1.23 10.554-1.23 15.847v45.128c-1.079 2.909-1.67 6.053-1.67 9.333v15.785c0 14.842 12.075 26.916 26.916 26.916h2.266c4.569 25.119 19.648 46.619 40.51 59.75v2.025l-77.383 29.524c-16.359 6.241-27.35 22.198-27.35 39.708v125.408c0 6.893 5.607 12.5 12.5 12.5h487c6.893 0 12.5-5.607 12.5-12.5v-121.634c0-13.863-7.638-26.488-19.692-32.99zm-171.8-18.084c0 23.871-19.42 43.292-43.292 43.292h-15.972c-23.871 0-43.292-19.421-43.292-43.292v-26.891c0-5.685 4.625-10.309 10.309-10.309h81.938c5.684 0 10.309 4.624 10.309 10.309zm-30.907 56.956v12.613c0 1.01-.452 1.952-1.238 2.584l-17.054 13.705c-1.205.967-2.952.967-4.155 0l-17.054-13.704c-.788-.633-1.24-1.575-1.24-2.585v-12.613c3.993.868 8.134 1.336 12.384 1.336h15.972c4.251 0 8.392-.468 12.385-1.336zm44.737-91.383c-3.218-10.281-12.811-17.772-24.139-17.772h-81.938c-11.328 0-20.921 7.49-24.139 17.772v-26.125c0-.789.017-1.58.05-2.37h130.116c.033.79.05 1.581.05 2.37zm9.096 33.932c0 3.686-2.999 6.685-6.685 6.685h-1.573c.216-2.035.332-4.099.332-6.189v-17.96h1.241c3.686 0 6.685 2.999 6.685 6.685zm111.812-92.079c0 38.203-31.08 69.283-69.283 69.283-13.439 0-25.992-3.854-36.625-10.505v-26.757c0-3.685-.288-7.396-.856-11.028-2.583-16.521-11.01-31.666-23.728-42.647-1.59-1.373-3.236-2.669-4.93-3.887 4.705-9.115 14.211-15.365 25.157-15.365h81.964c15.605 0 28.301 12.695 28.301 28.301zm-110.266-66.134h81.964c12.594 0 23.292 8.268 26.953 19.661-7.401-5.902-16.772-9.434-26.953-9.434h-81.964c-10.181 0-19.551 3.531-26.953 9.434 3.661-11.393 14.36-19.661 26.953-19.661zm-66.53 42.268c13.406 0 26.369 4.817 36.501 13.565 7.757 6.698 13.489 15.354 16.63 24.952h-124.702c3.141-9.599 8.873-18.254 16.63-24.952 10.132-8.748 23.095-13.565 36.501-13.565zm-36.679-12.605v-9.28h.813c4.89 0 9.097 2.963 10.932 7.186-3.982.366-7.909 1.073-11.745 2.094zm0-24.28v-9.754h11.058v11.785c-3.16-1.306-6.619-2.031-10.246-2.031zm-190.06-9.754h11.058v9.754h-.813c-3.626 0-7.085.725-10.246 2.031v-11.785zm10.246 64.371c-6.57 0-11.916-5.346-11.916-11.916v-15.785c0-6.57 5.346-11.916 11.916-11.916h.813v38.568c0 .351.013.699.017 1.049zm-10.246-79.371v-2.791c0-2.394.099-4.796.296-7.188h200.527c.197 2.393.296 4.795.296 7.188v2.791zm26.058 60.547v-43.863h149.002v38.229c-4.646 2.466-9.032 5.456-13.065 8.938-12.718 10.981-21.145 26.127-23.728 42.647-.568 3.633-.856 7.344-.856 11.028v.917c-7.861 3.508-16.561 5.463-25.711 5.463h-22.283c-34.936 0-63.359-28.423-63.359-63.359zm125.515 123.721h-1.573c-3.686 0-6.685-2.999-6.685-6.685v-10.78c0-3.686 2.999-6.685 6.685-6.685h1.241v17.96c.001 2.092.117 4.156.332 6.19zm-112.15-63.444c13.577 11.281 31.003 18.082 49.995 18.082h22.283c9.005 0 17.654-1.538 25.711-4.349v8.487c-10.874 6.218-23.453 9.78-36.852 9.78-25.291-.001-47.663-12.678-61.137-32zm90.04 63.702-24.515 17.689c-2.625 1.895-6.151 1.895-8.776 0l-25.039-18.066c-1.948-1.405-3.111-3.679-3.111-6.082v-16.368c10.09 3.951 21.064 6.124 32.538 6.124 9.795 0 19.221-1.596 28.049-4.517-.186 1.14-.292 2.306-.292 3.498v10.78c-.001 2.428.406 4.761 1.146 6.942zm-135.904 163.761h-30.27v-122.908c0-11.33 7.112-21.655 17.697-25.694l12.573-4.797zm34.23 0h-19.23v-159.122l19.23-7.338zm78.46-68.116v68.116h-63.46v-172.183l10.233-3.904v5.866c0 7.208 3.49 14.029 9.334 18.246l25.038 18.066c3.938 2.842 8.551 4.262 13.166 4.262 4.613 0 9.229-1.421 13.166-4.262l25.038-18.066c.048-.035.091-.075.138-.11 3.249 1.945 7.046 3.066 11.1 3.066h5.245c4.597 11.736 12.9 21.618 23.451 28.23l-51.696 22.37c-12.421 4.816-20.753 16.972-20.753 30.303zm207.54 68.116h-88.77v-14.416c0-4.143-3.358-7.5-7.5-7.5s-7.5 3.357-7.5 7.5v14.416h-88.77v-68.116c0-7.21 4.525-13.78 11.261-16.35l49.639-21.476v5.303c0 5.577 2.494 10.781 6.843 14.277l17.056 13.705c1.233.99 2.57 1.795 3.971 2.418v20.822c0 4.143 3.358 7.5 7.5 7.5s7.5-3.357 7.5-7.5v-20.821c1.402-.623 2.74-1.428 3.973-2.419l17.057-13.706c4.348-3.495 6.841-8.699 6.841-14.276v-5.3l49.333 21.347.306.125c6.735 2.569 11.261 9.14 11.261 16.35v68.117zm131.5 0h-116.5v-45.519c1.813.109 3.633.176 5.462.176 24.94 0 48.469-10.009 68.043-28.943 16.311-15.778 28.851-37.229 35.926-61.207 4.427 4.177 7.068 10.051 7.068 16.359v119.134z"/></g></g></svg>